*
*
G04 PADS VX.2.2 Build Number: 7607494 generated Gerber (RS-274-X) file*
G04 PC Version=2.1*
*
%IN "ZHOU0905nn_pads.pcb"*%
*
%MOIN*%
*
%FSLAX35Y35*%
*
*
*
*
G04 PC Standard Apertures*
*
*
G04 Thermal Relief Aperture macro.*
%AMTER*
1,1,$1,0,0*
1,0,$1-$2,0,0*
21,0,$3,$4,0,0,45*
21,0,$3,$4,0,0,135*
%
*
*
G04 Annular Aperture macro.*
%AMANN*
1,1,$1,0,0*
1,0,$2,0,0*
%
*
*
G04 Odd Aperture macro.*
%AMODD*
1,1,$1,0,0*
1,0,$1-0.005,0,0*
%
*
*
G04 PC Custom Aperture Macros*
*
*
*
*
*
*
G04 PC Aperture Table*
*
%ADD010C,0.00394*%
%ADD013C,0.03937*%
%ADD017O,0.04331X0.07874*%
%ADD018O,0.04724X0.07087*%
%ADD031C,0.05512*%
%ADD032C,0.00787*%
%ADD035C,0.00709*%
%ADD036C,0.00591*%
%ADD037C,0.01969*%
%ADD038C,0.00984*%
%ADD040C,0.01181*%
%ADD041C,0.02165*%
%ADD042C,0.02559*%
*
*
*
*
G04 PC Circuitry*
G04 Layer Name ZHOU0905nn_pads.pcb - circuitry*
%LPD*%
*
*
G04 PC Custom Flashes*
G04 Layer Name ZHOU0905nn_pads.pcb - flashes*
%LPD*%
*
*
G04 PC Circuitry*
G04 Layer Name ZHOU0905nn_pads.pcb - circuitry*
%LPD*%
*
G54D10*
G54D13*
G01X2025585Y1549071D02*
X2022199Y1552457D01*
Y1558378*
X2019219Y1561358*
X2005360*
X1991734Y1555437D02*
Y1557969D01*
X1995045Y1561280*
Y1561358*
X2005360*
G54D17*
X1972628Y1569193D03*
X2006683D03*
G54D18*
X1972628Y1552657D03*
X2006683D03*
G54D31*
X2013809Y1549173D03*
X2025585Y1549071D03*
G54D32*
X1993892Y1555059D02*
Y1555029D01*
X1992705Y1553843*
X1990673*
X1989923Y1554592*
Y1562392*
X1991598Y1564067*
X2005768*
X2006878Y1562957*
X2023028*
X2026974Y1559010*
Y1548017*
X2026036Y1547079*
X2021874*
X2020596Y1548356*
Y1557636*
X2019161Y1559071*
X2005823*
X2005118Y1559776*
X1995831*
X1993789Y1557734*
Y1555059*
X1993892*
X2019816Y1558416D02*
X2026974D01*
X2020525Y1557707D02*
X2026974D01*
X2020596Y1556999D02*
X2026974D01*
X2020596Y1556290D02*
X2026974D01*
X2020596Y1555581D02*
X2026974D01*
X2020596Y1554873D02*
X2026974D01*
X2020596Y1554164D02*
X2026974D01*
X2020596Y1553455D02*
X2026974D01*
X2020596Y1552747D02*
X2026974D01*
X2020596Y1552038D02*
X2026974D01*
X2020596Y1551329D02*
X2026974D01*
X2020596Y1550621D02*
X2026974D01*
X2020596Y1549912D02*
X2026974D01*
X2020596Y1549203D02*
X2026974D01*
X2020596Y1548495D02*
X2026974D01*
X2005769Y1559125D02*
X2026860D01*
X2021166Y1547786D02*
X2026743D01*
X1989923Y1559833D02*
X2026151D01*
X1989923Y1560542D02*
X2025443D01*
X1989923Y1561251D02*
X2024734D01*
X1989923Y1561959D02*
X2024025D01*
X1990199Y1562668D02*
X2023317D01*
X1990908Y1563377D02*
X2006458D01*
X1989923Y1559125D02*
X1995180D01*
X1989923Y1558416D02*
X1994471D01*
X1989923Y1557707D02*
X1993789D01*
X1989923Y1556999D02*
X1993789D01*
X1989923Y1556290D02*
X1993789D01*
X1989923Y1555581D02*
X1993789D01*
X1989923Y1554873D02*
X1993735D01*
X1990351Y1554164D02*
X1993027D01*
X2027033Y1614764D02*
G75*
G03X2027033I-2027J0D01*
G01X2027195Y1635378D02*
G03X2027195I-2028J0D01*
G01X2002852Y1590764D02*
G03X2002852I-2027J0D01*
G01X1990400Y1632205D02*
G03X1990400I-2028J0D01*
G01X1993608Y1612516D02*
G03X1993608I-2027J0D01*
G01X1981675Y1575606D02*
G03X1981675I-2027J0D01*
G01X2015472Y1571684D02*
X2013566Y1573590D01*
G03X2013288Y1573705I-278J-279*
G01X2009895*
G03X2009888I-0J-394*
G01X2009289Y1573694*
G03X2008902Y1573300I7J-394*
X2009002Y1573038I394J0*
G01X2009794Y1570965D02*
G03X2009002Y1573038I-3111J0D01*
G01X2009794Y1570965D02*
Y1569827D01*
G03X2010187Y1569433I393J-0*
G01X2010449*
G03X2010815Y1569681I0J394*
G01X2014052Y1570745D02*
G03X2010815Y1569681I-1172J-1891D01*
G01X2014052Y1570745D02*
G03X2014457Y1570739I207J335D01*
G01X2015250Y1571016D02*
G03X2014457Y1570739I323J-2201D01*
G01X2015250Y1571016D02*
G03X2015472Y1571684I-57J389D01*
G01X2003573Y1570656D02*
G03X2002901Y1570935I-394J0D01*
G01X2002072Y1570105*
G03X2002350Y1569433I278J-278*
G01X2003179*
G03X2003573Y1569827I0J394*
G01Y1570656*
X2031596Y1652898D02*
G03X2031203Y1653291I-393J-0D01*
G01X1994812*
G03X1994536Y1652617I-0J-393*
G01X1992113Y1649409D02*
G03X1994536Y1652617I999J1764D01*
G01X1992113Y1649409D02*
G03X1991591Y1649283I-194J-343D01*
G01X1988888Y1648644D02*
G03X1991591Y1649283I1012J1758D01*
G01X1988888Y1648644D02*
G03X1988692Y1648697I-196J-341D01*
G01X1982709*
G03X1982431Y1648582I0J-394*
G01X1981651Y1647802*
Y1647801D02*
G03X1982004Y1647137I278J-278D01*
G01X1983683Y1646706D02*
G03X1982004Y1647137I-1295J-1560D01*
G01X1983683Y1646706D02*
G03X1984063Y1646637I251J303D01*
G01X1986754Y1644720D02*
G03X1984063Y1646637I-2028J0D01*
G01X1983431Y1643160D02*
G03X1986754Y1644720I1295J1560D01*
G01X1983431Y1643160D02*
G03X1983051Y1643230I-251J-302D01*
G01X1981712Y1643234D02*
G03X1983051Y1643230I676J1912D01*
G01X1981712Y1643234D02*
G03X1981302Y1642585I-132J-371D01*
G01X1984405Y1639482*
X1984785Y1638563D02*
G03X1984405Y1639482I-1299J0D01*
G01X1984785Y1638563D02*
Y1627512D01*
G03X1984901Y1627234I394J0*
G01X1985472Y1626662*
G03X1985755Y1626547I279J279*
G01X1987805Y1624520D02*
G03X1985755Y1626547I-2027J-0D01*
G01X1987775Y1624169D02*
G03X1987805Y1624520I-1997J351D01*
G01X1987775Y1624169D02*
G03X1987769Y1624101I387J-68D01*
G01X1987769*
G03X1988162Y1623707I393J0*
G01X1992491*
G03X1992711Y1623774I0J394*
G01X1994050Y1620074D02*
G03X1992711Y1623774I-209J2017D01*
G01X1994050Y1620074D02*
G03X1993738Y1619857I41J-392D01*
X1993447Y1620102I-368J-142*
G01X1992530Y1620543D02*
G03X1993447Y1620102I1311J1548D01*
G01X1992530Y1620543D02*
G03X1992276Y1620636I-254J-300D01*
G01X1983104*
G03X1982711Y1620243I0J-393*
G01Y1613008*
G03X1982926Y1612657I393J0*
G01Y1609043D02*
G03Y1612657I-920J1807D01*
G01Y1609043D02*
G03X1982711Y1608693I178J-350D01*
G01Y1602305*
G03X1982851Y1602003I393J-0*
G01X1980989Y1598500D02*
G03X1982851Y1602003I560J1949D01*
G01X1980989Y1598500D02*
G03X1980486Y1598122I-109J-378D01*
G01Y1596642*
G03X1981109Y1596322I394J0*
G01Y1593025D02*
G03Y1596322I1180J1648D01*
G01Y1593025D02*
G03X1980486Y1592704I-229J-321D01*
G01Y1592040*
G03X1980602Y1591761I394J-0*
G01X1982019Y1590344*
G03X1982302Y1590228I279J278*
G01X1984108Y1587236D02*
G03X1982302Y1590228I-1783J965D01*
G01X1984108Y1587236D02*
G03X1984060Y1587048I346J-188D01*
X1984396Y1586659I394J0*
G01X1986012Y1585318D02*
G03X1984396Y1586659I-1916J-664D01*
G01X1986012Y1585318D02*
G03X1986677Y1585184I372J129D01*
G01X1989603Y1585282D02*
G03X1986677Y1585184I-1416J-1451D01*
G01X1989603Y1585282D02*
G03X1990152Y1585281I275J282D01*
G01X1990145Y1582372D02*
G03X1990152Y1585281I1416J1451D01*
G01X1990145Y1582372D02*
G03X1989596Y1582373I-275J-282D01*
G01X1986271Y1583166D02*
G03X1989596Y1582373I1916J665D01*
G01X1986271Y1583166D02*
G03X1985606Y1583300I-372J-129D01*
G01X1982313Y1585619D02*
G03X1985606Y1583300I1783J-965D01*
G01X1982313Y1585619D02*
G03X1982361Y1585806I-346J187D01*
X1982025Y1586195I-394J0*
G01X1980297Y1588201D02*
G03X1982025Y1586195I2028J-0D01*
G01X1980297Y1588201D02*
X1980297D01*
Y1588223D02*
G03Y1588201I2028J-22D01*
G01Y1588223D02*
G03Y1588228I-393J5D01*
G01X1980297*
G03X1980182Y1588506I-393J-0*
G01X1978724Y1589964*
G03X1978196Y1589990I-278J-278*
G01X1977399Y1593527D02*
G03X1978196Y1589990I-488J-1968D01*
G01X1977399Y1593527D02*
G03X1977888Y1593909I95J382D01*
G01Y1594809*
G03X1977315Y1595159I-394J-0*
G01X1975082Y1598512D02*
G03X1977315Y1595159I1310J-1547D01*
G01X1975082Y1598512D02*
G03X1974991Y1599171I-254J301D01*
G01X1974450Y1602499D02*
G03X1974991Y1599171I1383J-1483D01*
G01X1974450Y1602499D02*
G03X1974575Y1602787I-269J288D01*
X1974455Y1603070I-394J-0*
G01X1974468Y1605998D02*
G03X1974455Y1603070I1396J-1470D01*
G01X1974468Y1605998D02*
G03X1974590Y1606283I-271J285D01*
X1974470Y1606567I-393J0*
G01X1977231Y1609536D02*
G03X1974470Y1606567I-1355J-1508D01*
G01X1977231Y1609536D02*
G03X1977888Y1609829I263J293D01*
G01Y1618094*
G03X1977300Y1618436I-394J-0*
G01Y1621965D02*
G03Y1618436I-999J-1764D01*
G01Y1621965D02*
G03X1977888Y1622308I194J343D01*
G01Y1623418*
G03X1977302Y1623762I-394J-0*
G01Y1627301D02*
G03Y1623762I-989J-1769D01*
G01Y1627302D02*
G03X1977888Y1627645I192J343D01*
G01Y1629876*
G03X1977304Y1630221I-394J-0*
G01X1974843Y1633380D02*
G03X1977304Y1630221I1482J-1384D01*
G01X1974843Y1633380D02*
G03X1974452Y1634029I-287J269D01*
G01X1971888Y1635984D02*
G03X1974452Y1634029I2027J0D01*
G01X1972053Y1636785D02*
G03X1971888Y1635984I1862J-801D01*
G01X1972053Y1636785D02*
G03X1971691Y1637335I-362J156D01*
G01X1971398*
G03X1971117Y1637216I0J-394*
G01X1968939Y1636742D02*
G03X1971117Y1637216I728J1892D01*
G01X1968939Y1636742D02*
G03X1968404Y1636374I-142J-368D01*
G01Y1569827*
G03X1968797Y1569433I393J-0*
G01X1969124*
G03X1969518Y1569827I0J394*
G01Y1570965*
X1970791Y1573475D02*
G03X1969518Y1570965I1837J-2510D01*
G01X1970791Y1573475D02*
G03X1970911Y1573967I-233J317D01*
G01X1974754Y1574870D02*
G03X1970911Y1573967I-2028J0D01*
G01X1974494Y1573877D02*
G03X1974754Y1574870I-1768J993D01*
G01X1974494Y1573877D02*
G03X1974444Y1573685I344J-192D01*
X1974589Y1573379I394J-0*
G01X1975738Y1570965D02*
G03X1974589Y1573379I-3110J0D01*
G01X1975738Y1570965D02*
Y1569827D01*
G03X1976132Y1569433I394J-0*
G01X1979669*
G03X1980028Y1569666I0J394*
G01X1980425Y1570242D02*
G03X1980028Y1569666I1364J-1364D01*
G01X1980425Y1570242D02*
X1982772Y1572589D01*
X1984136Y1573154D02*
G03X1982772Y1572589I-0J-1930D01*
G01X1984136Y1573154D02*
X1999500D01*
G03X1999779Y1573269I0J393*
G01X2003586Y1577076*
X2005108Y1577635D02*
G03X2003586Y1577076I-157J-1922D01*
G01X2005108Y1577635D02*
X2005621Y1577593D01*
G03X2005689Y1577594I32J393*
G01X2006388Y1577537D02*
G03X2005689Y1577594I-512J-1962D01*
G01X2006388Y1577537D02*
G03X2006456Y1577525I100J381D01*
G01X2006677Y1577507*
G03X2006717Y1577506I32J392*
G01X2007414Y1577519*
G03X2007572Y1577555I-7J393*
G01X2009199Y1577584D02*
G03X2007572Y1577555I-780J-1871D01*
G01X2009199Y1577584D02*
G03X2009358Y1577554I151J364D01*
G01X2009837Y1577563*
X2009873D02*
G03X2009837I0J-1929D01*
G01X2009873D02*
X2014250D01*
X2015614Y1576998D02*
G03X2014250Y1577563I-1364J-1364D01*
G01X2015614Y1576998D02*
X2023064Y1569548D01*
G03X2023342Y1569433I278J279*
G01X2027918*
G03X2028196Y1569548I-0J394*
G01X2028631Y1569983*
G03X2028746Y1570261I-279J278*
G01Y1572596*
G03X2028730Y1572707I-394J0*
G01X2028648Y1573280D02*
G03X2028730Y1572707I2027J-0D01*
G01Y1573852D02*
G03X2028648Y1573280I1945J-572D01*
G01X2028730Y1573852D02*
G03X2028746Y1573963I-378J111D01*
G01Y1575017*
G03X2028727Y1575138I-394J-0*
G01Y1576389D02*
G03Y1575138I1929J-625D01*
G01Y1576389D02*
G03X2028746Y1576511I-375J122D01*
G01Y1577819*
X2031113Y1579698D02*
G03X2028746Y1577819I-438J-1879D01*
G01X2031113Y1579698D02*
G03X2031596Y1580081I90J383D01*
G01Y1624989*
G03X2031005Y1625330I-393J0*
G01Y1628836D02*
G03Y1625330I-1019J-1753D01*
G01Y1628836D02*
G03X2031596Y1629176I198J340D01*
G01Y1633445*
X2031596D02*
G03X2031027Y1633797I-393J-0D01*
G01Y1637424D02*
G03Y1633797I-907J-1814D01*
G01Y1637424D02*
G03X2031596Y1637776I176J352D01*
G01Y1642801*
G03X2031134Y1643188I-393J-0*
G01Y1647182D02*
G03Y1643188I-353J-1997D01*
G01Y1647182D02*
G03X2031596Y1647569I69J387D01*
G01Y1652898*
X1990429Y1593677D02*
G03X1990460Y1593663I880J1827D01*
G01X1990429Y1593677D02*
G03X1989864Y1593323I-171J-354D01*
X1989892Y1593178I394J-0*
G01X1989899Y1593158D02*
G03X1989892Y1593178I-1893J-725D01*
G01X1989899Y1593158D02*
G03X1990351Y1592914I368J141D01*
G01X1990374Y1592919D02*
G03X1990351Y1592914I407J-1986D01*
G01X1990374Y1592919D02*
G03X1990460Y1593663I-79J386D01*
G01X2015232Y1634490D02*
X2012060Y1637662D01*
G03X2011834Y1637774I-278J-278*
G01X2010839Y1638199D02*
G03X2011834Y1637774I1265J1584D01*
G01X2010839Y1638199D02*
G03X2010260Y1638101I-246J-307D01*
G01X2008693Y1637155D02*
G03X2010260Y1638101I-152J2022D01*
G01X2008693Y1637155D02*
G03X2008329Y1636763I29J-392D01*
G01Y1633246*
G03X2009063Y1633049I393J0*
G01X2012136Y1633572D02*
G03X2009063Y1633049I-1319J-1540D01*
G01X2012136Y1633572D02*
G03X2012644Y1633569I256J299D01*
G01X2014789Y1633854D02*
G03X2012644Y1633569I-846J-1842D01*
G01X2014789Y1633854D02*
G03X2015232Y1634490I165J358D01*
G01X2010549Y1629702D02*
G03X2010263Y1630081I-394J0D01*
G01X2009063Y1631014D02*
G03X2010263Y1630081I1754J1018D01*
G01X2009063Y1631014D02*
G03X2008329Y1630817I-341J-197D01*
G01Y1625744*
G03X2008893Y1625390I393J0*
G01X2010093Y1625565D02*
G03X2008893Y1625390I-319J-2002D01*
G01X2010093Y1625565D02*
G03X2010549Y1625954I62J389D01*
G01Y1629702*
X2016215Y1622433D02*
G03X2019051Y1621960I1653J1173D01*
G01X2016215Y1622433D02*
G03X2015500Y1622205I-321J-228D01*
G01Y1619492*
G03X2015631Y1619199I394J-0*
G01X2015708Y1619126D02*
G03X2015631Y1619199I-1430J-1437D01*
G01X2015708Y1619126D02*
G03X2016285Y1619150I278J279D01*
G01X2019044Y1619458D02*
G03X2016285Y1619150I-1215J-1623D01*
G01X2019044Y1619458D02*
G03X2019648Y1619913I236J315D01*
G01X2019502Y1620705D02*
G03X2019648Y1619913I2224J-0D01*
G01X2019502Y1620705D02*
X2019502D01*
X2019649Y1621499D02*
G03X2019502Y1620705I2077J-794D01*
G01X2019649Y1621499D02*
G03X2019051Y1621960I-368J141D01*
G01X1983750Y1624520D02*
G03X1983781Y1624169I2028J-0D01*
G01X1983750Y1624520D02*
X1983750D01*
Y1624542D02*
G03Y1624520I2028J-22D01*
G01Y1624542D02*
G03Y1624547I-394J5D01*
G01X1983750*
G03X1983635Y1624825I-394J-0*
G01X1983383Y1625077*
G03X1982711Y1624799I-279J-278*
G01Y1624101*
G03X1983104Y1623707I393J0*
G01X1983393*
G03X1983781Y1624169I-0J394*
G01X1977888Y1599254D02*
G03X1977224Y1599541I-394J0D01*
G01X1977142Y1599468D02*
G03X1977224Y1599541I-1309J1548D01*
G01X1977142Y1599468D02*
G03X1977233Y1598809I255J-301D01*
G01X1977315Y1598770D02*
G03X1977233Y1598809I-923J-1805D01*
G01X1977315Y1598770D02*
G03X1977888Y1599120I179J350D01*
G01Y1599254*
Y1635555D02*
G03X1977772Y1635833I-394J-0D01*
G01X1976441Y1637165*
G03X1975797Y1636740I-279J-279*
G01X1975943Y1635984D02*
G03X1975797Y1636740I-2028J0D01*
G01X1975397Y1634600D02*
G03X1975943Y1635984I-1482J1384D01*
G01X1975397Y1634600D02*
G03X1975789Y1633951I287J-269D01*
G01X1977304Y1633772D02*
G03X1975789Y1633951I-979J-1776D01*
G01X1977304Y1633772D02*
G03X1977888Y1634116I190J344D01*
G01Y1635555*
X1991412Y1653291D02*
X1977509D01*
G03X1977287Y1652572I-0J-393*
G01X1978171Y1650898D02*
G03X1977287Y1652572I-2027J-0D01*
G01X1974116Y1650898D02*
G03X1978171I2028J-0D01*
G01X1975001Y1652572D02*
G03X1974116Y1650898I1143J-1674D01*
G01X1975001Y1652572D02*
G03X1974779Y1653291I-222J326D01*
G01X1968797*
G03X1968404Y1652898I0J-393*
G01Y1652341*
G03X1968925Y1651969I393J-0*
G01Y1648134D02*
G03Y1651969I660J1917D01*
G01Y1648134D02*
G03X1968404Y1647762I-128J-372D01*
G01Y1646419*
G03X1968933Y1646049I393J-0*
G01Y1642242D02*
G03Y1646049I699J1904D01*
G01Y1642242D02*
G03X1968404Y1641873I-136J-369D01*
G01Y1640893*
G03X1968939Y1640526I393J0*
G01X1971117Y1640052D02*
G03X1968939Y1640526I-1450J-1418D01*
G01X1971117Y1640052D02*
G03X1971398Y1639933I281J275D01*
G01X1976037*
G03X1976316Y1640605I0J394*
G01X1975102Y1641819*
X1974652Y1642905D02*
G03X1975102Y1641819I1535J0D01*
G01X1974652Y1642905D02*
X1974652D01*
X1974662Y1643085D02*
G03X1974652Y1642905I1525J-180D01*
G01X1974662Y1643085D02*
G03X1974665Y1643132I-390J47D01*
X1974638Y1643275I-393J-0*
G01X1977888Y1645517D02*
G03X1974638Y1643275I-1362J-1501D01*
G01X1977888Y1645517D02*
G03X1978546Y1645809I265J292D01*
G01Y1647834*
X1978927Y1648752D02*
G03X1978546Y1647834I918J-918D01*
G01X1978927Y1648752D02*
X1981089Y1650915D01*
X1982008Y1651295D02*
G03X1981089Y1650915I-0J-1299D01*
G01X1982008Y1651295D02*
X1987849D01*
G03X1988182Y1651480I-0J394*
G01X1990899Y1652166D02*
G03X1988182Y1651480I-999J-1764D01*
G01X1990899Y1652166D02*
G03X1991421Y1652292I193J343D01*
G01X1991689Y1652617D02*
G03X1991421Y1652291I1423J-1444D01*
G01X1991689Y1652617D02*
G03X1991412Y1653291I-277J281D01*
G01X2024449Y1602571D02*
G03X2024438Y1601819I111J-378D01*
G01X2023240Y1601835D02*
G03X2024438Y1601819I573J-1945D01*
G01X2023240Y1601835D02*
G03X2023251Y1602587I-111J378D01*
G01X2024449Y1602571D02*
G03X2023251Y1602587I-573J1945D01*
G01X2027033Y1614764D02*
G03X2027033I-2027J0D01*
G01X2017722Y1608396D02*
G03X2017771Y1608585I-345J189D01*
X2017243Y1608956I-394J0*
G01X2018329Y1609884D02*
G03X2017243Y1608956I-1776J978D01*
G01X2018329Y1609884D02*
G03X2018280Y1609694I345J-190D01*
X2018808Y1609324I394J0*
G01X2017722Y1608396D02*
G03X2018808Y1609324I1776J-979D01*
G01X2020353Y1618955D02*
G03X2019739Y1618513I-243J-310D01*
G01X2019856Y1617835D02*
G03X2019739Y1618513I-2027J-0D01*
G01X2016398Y1616398D02*
G03X2019856Y1617835I1431J1437D01*
G01X2016398Y1616398D02*
G03X2015821Y1616374I-277J-279D01*
G01X2013562Y1615792D02*
G03X2015821Y1616374I716J1897D01*
G01X2013562Y1615792D02*
G03X2013030Y1615423I-139J-369D01*
G01Y1606417*
X2012666Y1605540D02*
G03X2013030Y1606417I-877J877D01*
G01X2012666Y1605540D02*
X2012654Y1605528D01*
G03X2012556Y1605135I278J-279*
G01X2012644Y1604543D02*
G03X2012556Y1605135I-2028J0D01*
G01X2012644Y1604543D02*
X2012644D01*
X2009904Y1602645D02*
G03X2012644Y1604543I712J1898D01*
G01X2009904Y1602645D02*
G03X2009372Y1602276I-138J-369D01*
G01Y1591472*
X2009355Y1591249D02*
G03X2009372Y1591472I-1420J223D01*
G01X2009355Y1591249D02*
G03X2009757Y1590794I388J-61D01*
G01X2010820Y1586999D02*
G03X2009757Y1590794I-991J1769D01*
G01X2010820Y1586999D02*
G03X2010808Y1586319I192J-344D01*
G01X2007736Y1584384D02*
G03X2010808Y1586319I2018J203D01*
G01X2007736Y1584384D02*
G03X2007362Y1584738I-391J-39D01*
G01X2005423Y1586764D02*
G03X2007362Y1584738I2028J-0D01*
G01X2005423Y1586764D02*
X2005423D01*
X2005433Y1586964D02*
G03X2005423Y1586764I2018J-200D01*
G01X2005433Y1586964D02*
G03X2005160Y1587378I-392J39D01*
G01X2005628Y1591333D02*
G03X2005160Y1587378I146J-2022D01*
G01X2005628Y1591333D02*
G03X2005878Y1591448I-28J393D01*
G01X2006383Y1591952*
G03X2006498Y1592231I-279J279*
G01Y1606319*
X2006919Y1607335D02*
G03X2006498Y1606319I1016J-1016D01*
G01X2006919Y1607335D02*
X2008221Y1608637D01*
G03X2008337Y1608916I-278J279*
G01Y1615603*
G03X2007665Y1615881I-394J-0*
G01X2006509Y1614725*
G03X2006394Y1614429I278J-278*
G01X2006396Y1614339D02*
G03X2006394Y1614429I-2028J-0D01*
G01X2004247Y1616363D02*
G03X2006396Y1614339I121J-2024D01*
G01X2004247Y1616363D02*
G03X2004332Y1617134I-24J393D01*
G01X2003636Y1620674D02*
G03X2004332Y1617134I1256J-1591D01*
G01X2003636Y1620674D02*
G03X2003785Y1620983I-244J309D01*
G01Y1624988*
G03X2003308Y1625373I-393J-0*
G01X2000852Y1627354D02*
G03X2003308Y1625373I2028J0D01*
G01X2001351Y1628687D02*
G03X2000852Y1627354I1529J-1333D01*
G01X2001351Y1628687D02*
G03X2001348Y1629208I-296J258D01*
G01X2000829Y1630563D02*
G03X2001348Y1629208I2027J0D01*
G01X2003305Y1632540D02*
G03X2000829Y1630563I-449J-1977D01*
G01X2003305Y1632540D02*
G03X2003785Y1632924I87J384D01*
G01Y1636930*
G03X2003667Y1637212I-393J0*
G01X2003057Y1638661D02*
G03X2003667Y1637212I2028J0D01*
G01X2006325Y1640265D02*
G03X2003057Y1638661I-1240J-1604D01*
G01X2006325Y1640265D02*
G03X2006887Y1640349I241J312D01*
G01X2009807Y1640761D02*
G03X2006887Y1640349I-1266J-1584D01*
G01X2009807Y1640761D02*
G03X2010386Y1640860I245J308D01*
G01X2012687Y1641725D02*
G03X2010386Y1640860I-583J-1942D01*
G01X2012687Y1641725D02*
G03X2012778Y1641709I114J378D01*
G01X2014031Y1641148D02*
G03X2012778Y1641709I-1364J-1365D01*
G01X2014031Y1641148D02*
X2014554Y1640625D01*
G03X2015226Y1640903I279J278*
X2015204Y1641034I-393J0*
G01X2016560Y1639678D02*
G03X2015204Y1641034I741J2098D01*
G01X2016560Y1639678D02*
G03X2016150Y1639029I-131J-371D01*
G01X2022284Y1632895*
G03X2022374Y1632827I279J278*
G01X2019623Y1630076D02*
G03X2022374Y1632827I1781J971D01*
G01X2019623Y1630076D02*
G03X2019556Y1630166I-345J-188D01*
G01X2016421Y1633301*
G03X2015785Y1632858I-278J-278*
G01X2015970Y1632012D02*
G03X2015785Y1632858I-2027J-0D01*
G01X2015577Y1630811D02*
G03X2015970Y1632012I-1634J1201D01*
G01X2015577Y1630811D02*
G03X2015500Y1630578I317J-233D01*
G01Y1625008*
G03X2016215Y1624780I394J-0*
G01X2019778Y1622927D02*
G03X2016215Y1624780I-1910J679D01*
G01X2019778Y1622927D02*
G03X2019756Y1622795I371J-132D01*
X2020386Y1622480I393J-0*
G01X2020353Y1618955D02*
G03X2020386Y1622480I1373J1750D01*
G01X2027195Y1635378D02*
G03X2027195I-2028J0D01*
G01X2017633Y1647845D02*
G03X2017300Y1648048I-344J-191D01*
G01X2019130Y1651057D02*
G03X2017300Y1648048I-1774J-982D01*
G01X2019130Y1651057D02*
G03X2019464Y1650854I345J190D01*
G01X2017633Y1647845D02*
G03X2019464Y1650854I1774J982D01*
G01X2002852Y1590764D02*
G03X2002852I-2027J0D01*
G01X1990400Y1632205D02*
G03X1990400I-2028J0D01*
G01X2001170Y1594767D02*
G03X2000440Y1594774I-367J-144D01*
G01X1996662Y1594865D02*
G03X2000440Y1594774I1907J690D01*
G01X1996662Y1594865D02*
G03X1996239Y1595121I-370J-134D01*
G01X1997873Y1597820D02*
G03X1996239Y1595121I-1906J-690D01*
G01X1997873Y1597820D02*
G03X1998296Y1597564I370J134D01*
G01X2000456Y1596296D02*
G03X1998296Y1597564I-1887J-741D01*
G01X2000456Y1596296D02*
G03X2001186Y1596289I367J144D01*
G01X2001170Y1594767D02*
G03X2001186Y1596289I1887J741D01*
G01X2005207Y1648104D02*
G03X2004820Y1648098I-188J-346D01*
G01X2004184Y1647857D02*
G03X2004820Y1648098I-391J1989D01*
G01X2004184Y1647857D02*
G03X2003866Y1647471I76J-386D01*
G01X2003866*
G03X2003876Y1647382I394J-0*
G01X2000904Y1645163D02*
G03X2003876Y1647382I996J1766D01*
G01X2000904Y1645163D02*
G03X2000415Y1645079I-193J-343D01*
G01X1999887Y1648184D02*
G03X2000415Y1645079I-995J-1767D01*
G01X1999887Y1648184D02*
G03X2000376Y1648267I193J343D01*
G01X2001509Y1648919D02*
G03X2000376Y1648267I391J-1990D01*
G01X2001509Y1648919D02*
G03X2001827Y1649305I-76J386D01*
G01X2001827*
G03X2001817Y1649393I-394J0*
G01X2004761Y1651628D02*
G03X2001817Y1649393I-968J-1782D01*
G01X2004761Y1651628D02*
G03X2005149Y1651634I188J346D01*
G01X2005207Y1648104D02*
G03X2005149Y1651634I968J1782D01*
G01X1991716Y1593518D02*
G03X1991630Y1592774I79J-386D01*
G01X1988888Y1590208D02*
G03X1991630Y1592774I1893J725D01*
G01X1988888Y1590208D02*
G03X1988437Y1590452I-368J-141D01*
G01X1988886Y1594260D02*
G03X1988437Y1590452I-880J-1827D01*
G01X1988886Y1594260D02*
G03X1989423Y1594759I171J354D01*
G01X1991716Y1593518D02*
G03X1989423Y1594759I-407J1986D01*
G01X1993608Y1612516D02*
G03X1993608I-2027J0D01*
G01X1993411Y1619324D02*
G03X1993723Y1619541I-41J391D01*
X1994014Y1619296I368J141*
G01X1993411Y1619324D02*
G03X1994014Y1619296I209J-2017D01*
G01X1981675Y1575606D02*
G03X1981675I-2027J0D01*
G01X2009737Y1571558D02*
X2015556D01*
X2009508Y1572266D02*
X2014889D01*
X2013864Y1570849D02*
X2014673D01*
X2009057Y1572975D02*
X2014181D01*
X2009207Y1573684D02*
X2013415D01*
X2009794Y1570849D02*
X2011896D01*
X2009794Y1570140D02*
X2011065D01*
X2002107D02*
X2003573D01*
X2002816Y1570849D02*
X2003523D01*
X1994767Y1652345D02*
X2031596D01*
X2018649Y1651636D02*
X2031596D01*
X2019245Y1650928D02*
X2031596D01*
X2020881Y1650219D02*
X2031596D01*
X2021316Y1649511D02*
X2031596D01*
X2021435Y1648802D02*
X2031596D01*
X2021298Y1648093D02*
X2031596D01*
X2019429Y1642424D02*
X2031596D01*
X2019525Y1641715D02*
X2031596D01*
X2019388Y1641007D02*
X2031596D01*
X2018964Y1640298D02*
X2031596D01*
X2017711Y1639589D02*
X2031596D01*
X2016298Y1638881D02*
X2031596D01*
X2017007Y1638172D02*
X2031596D01*
X2021968Y1633211D02*
X2031596D01*
X2022815Y1632503D02*
X2031596D01*
X2023289Y1631794D02*
X2031596D01*
X2023431Y1631085D02*
X2031596D01*
X2023317Y1630377D02*
X2031596D01*
X2022890Y1629668D02*
X2031596D01*
X2019571Y1624707D02*
X2031596D01*
X2019857Y1623999D02*
X2031596D01*
X2019871Y1623290D02*
X2031596D01*
X2022921Y1622581D02*
X2031596D01*
X2023620Y1621873D02*
X2031596D01*
X2023903Y1621164D02*
X2031596D01*
X2023937Y1620455D02*
X2031596D01*
X2023734Y1619747D02*
X2031596D01*
X2023200Y1619038D02*
X2031596D01*
X2019795Y1618329D02*
X2031596D01*
X2019845Y1617621D02*
X2031596D01*
X2019634Y1616912D02*
X2031596D01*
X2026434Y1616203D02*
X2031596D01*
X2026897Y1615495D02*
X2031596D01*
X2027033Y1614786D02*
X2031596D01*
X2026914Y1614077D02*
X2031596D01*
X2026477Y1613369D02*
X2031596D01*
X2017491Y1612660D02*
X2031596D01*
X2018263Y1611951D02*
X2031596D01*
X2018545Y1611243D02*
X2031596D01*
X2018554Y1610534D02*
X2031596D01*
X2018303Y1609825D02*
X2031596D01*
X2020604Y1609117D02*
X2031596D01*
X2021267Y1608408D02*
X2031596D01*
X2021506Y1607699D02*
X2031596D01*
X2021480Y1606991D02*
X2031596D01*
X2024871Y1606282D02*
X2031596D01*
X2025606Y1605574D02*
X2031596D01*
X2025873Y1604865D02*
X2031596D01*
X2025871Y1604156D02*
X2031596D01*
X2025599Y1603448D02*
X2031596D01*
X2024853Y1602739D02*
X2031596D01*
X2024201Y1602030D02*
X2031596D01*
X2025249Y1601322D02*
X2031596D01*
X2025707Y1600613D02*
X2031596D01*
X2025841Y1599904D02*
X2031596D01*
X2025718Y1599196D02*
X2031596D01*
X2025277Y1598487D02*
X2031596D01*
X2009372Y1597778D02*
X2031596D01*
X2009372Y1597070D02*
X2031596D01*
X2009372Y1596361D02*
X2031596D01*
X2009372Y1595652D02*
X2031596D01*
X2009372Y1594944D02*
X2031596D01*
X2009372Y1594235D02*
X2031596D01*
X2009372Y1593526D02*
X2031596D01*
X2009372Y1592818D02*
X2031596D01*
X2009372Y1592109D02*
X2031596D01*
X2009370Y1591400D02*
X2031596D01*
X2010469Y1590692D02*
X2031596D01*
X2011452Y1589983D02*
X2031596D01*
X2011792Y1589274D02*
X2031596D01*
X2011846Y1588566D02*
X2031596D01*
X2011640Y1587857D02*
X2031596D01*
X2011049Y1587148D02*
X2031596D01*
X2010683Y1586440D02*
X2031596D01*
X2011428Y1585731D02*
X2031596D01*
X2011734Y1585022D02*
X2031596D01*
X2011763Y1584314D02*
X2031596D01*
X2011528Y1583605D02*
X2031596D01*
X2010874Y1582896D02*
X2031596D01*
X1992760Y1582188D02*
X2031596D01*
X1968404Y1581479D02*
X2031596D01*
X1968404Y1580770D02*
X2031596D01*
X1968404Y1580062D02*
X2031596D01*
X1994451Y1653054D02*
X2031564D01*
X2020833Y1647385D02*
X2031550D01*
X2030754Y1628959D02*
X2031531D01*
X2030943Y1637463D02*
X2031442D01*
X2019064Y1643133D02*
X2031415D01*
X1968404Y1579353D02*
X2029506D01*
X2003911Y1646676D02*
X2029407D01*
X2017716Y1637463D02*
X2029297D01*
X2018127Y1643841D02*
X2029263D01*
X2015500Y1628959D02*
X2029219D01*
X2026576Y1633920D02*
X2029000D01*
X1968404Y1578644D02*
X2028932D01*
X2003684Y1645967D02*
X2028911D01*
X1999681Y1644550D02*
X2028856D01*
X2018782Y1625416D02*
X2028832D01*
X2003049Y1645259D02*
X2028755D01*
X1968404Y1577936D02*
X2028750D01*
X2015338Y1577227D02*
X2028746D01*
X2016094Y1576518D02*
X2028746D01*
X2018220Y1574392D02*
X2028746D01*
X2020346Y1572266D02*
X2028746D01*
X2021054Y1571558D02*
X2028746D01*
X2021763Y1570849D02*
X2028746D01*
X2017511Y1575101D02*
X2028737D01*
X2022472Y1570140D02*
X2028727D01*
X2018928Y1573684D02*
X2028688D01*
X2019637Y1572975D02*
X2028671D01*
X2016802Y1575810D02*
X2028628D01*
X2026656Y1636755D02*
X2028446D01*
X2027051Y1634629D02*
X2028346D01*
X2015500Y1628251D02*
X2028329D01*
X2015500Y1626125D02*
X2028199D01*
X2027082Y1636046D02*
X2028140D01*
X2027194Y1635337D02*
X2028111D01*
X2015500Y1627542D02*
X2028011D01*
X2015500Y1626833D02*
X2027974D01*
X2021259Y1633920D02*
X2023758D01*
X2018424Y1636755D02*
X2023679D01*
X2019033Y1616203D02*
X2023578D01*
X2013030Y1613369D02*
X2023535D01*
X2009372Y1602030D02*
X2023478D01*
X2020550Y1634629D02*
X2023283D01*
X2019133Y1636046D02*
X2023253D01*
X2019842Y1635337D02*
X2023140D01*
X2013036Y1615495D02*
X2023115D01*
X2013030Y1614077D02*
X2023098D01*
X2013030Y1614786D02*
X2022978D01*
X2011541Y1602739D02*
X2022899D01*
X2021178Y1606282D02*
X2022881D01*
X2009372Y1601322D02*
X2022377D01*
X2009372Y1598487D02*
X2022349D01*
X2012322Y1603448D02*
X2022153D01*
X2020341Y1605574D02*
X2022146D01*
X2009372Y1600613D02*
X2021919D01*
X2009372Y1599196D02*
X2021908D01*
X2012606Y1604156D02*
X2021881D01*
X2012618Y1604865D02*
X2021879D01*
X2009372Y1599904D02*
X2021785D01*
X2019818Y1622581D02*
X2020532D01*
X2020093Y1619038D02*
X2020128D01*
X2015500Y1629668D02*
X2019917D01*
X2015500Y1630377D02*
X2019346D01*
X2012698Y1605574D02*
X2018655D01*
X2015746Y1631085D02*
X2018637D01*
X2003875Y1647385D02*
X2017982D01*
X2015959Y1631794D02*
X2017929D01*
X2013022Y1606282D02*
X2017818D01*
X2013030Y1608408D02*
X2017729D01*
X2013030Y1606991D02*
X2017516D01*
X2013030Y1607699D02*
X2017490D01*
X2015910Y1632503D02*
X2017220D01*
X2015500Y1625416D02*
X2016954D01*
X2007123Y1648093D02*
X2016927D01*
X2016154Y1639589D02*
X2016891D01*
X2015657Y1616203D02*
X2016625D01*
X2015797Y1633211D02*
X2016511D01*
X1986553Y1643841D02*
X2016476D01*
X2015639Y1624707D02*
X2016148D01*
X2007198Y1651636D02*
X2016063D01*
X2007889Y1648802D02*
X2015778D01*
X2013030Y1612660D02*
X2015616D01*
X1985987Y1643133D02*
X2015539D01*
X2013030Y1609117D02*
X2015521D01*
X2007915Y1650928D02*
X2015517D01*
X2008168Y1649511D02*
X2015409D01*
X2008175Y1650219D02*
X2015334D01*
X2014172Y1641007D02*
X2015213D01*
X1981463Y1642424D02*
X2015173D01*
X2012730Y1641715D02*
X2015078D01*
X2013030Y1611951D02*
X2014843D01*
X2013030Y1609825D02*
X2014811D01*
X2013030Y1611243D02*
X2014562D01*
X2013030Y1610534D02*
X2014552D01*
X1982171Y1641715D02*
X2011488D01*
X2009416Y1641007D02*
X2010487D01*
X1993365Y1582896D02*
X2008634D01*
X2007278Y1615495D02*
X2008337D01*
X2006569Y1614786D02*
X2008337D01*
X2006379Y1614077D02*
X2008337D01*
X2006149Y1613369D02*
X2008337D01*
X2005506Y1612660D02*
X2008337D01*
X1993528Y1611951D02*
X2008337D01*
X1993159Y1611243D02*
X2008337D01*
X1992010Y1610534D02*
X2008337D01*
X1983755Y1609825D02*
X2008337D01*
X1983057Y1609117D02*
X2008337D01*
X1982711Y1608408D02*
X2007992D01*
X1993577Y1583605D02*
X2007980D01*
X1993528Y1584314D02*
X2007745D01*
X1982880Y1641007D02*
X2007667D01*
X1982711Y1607699D02*
X2007283D01*
X2006282Y1640298D02*
X2006843D01*
X1982711Y1606991D02*
X2006665D01*
X1982711Y1606282D02*
X2006498D01*
X1982711Y1605574D02*
X2006498D01*
X1982711Y1604865D02*
X2006498D01*
X1982711Y1604156D02*
X2006498D01*
X1982711Y1603448D02*
X2006498D01*
X1982711Y1602739D02*
X2006498D01*
X1982822Y1602030D02*
X2006498D01*
X1983379Y1601322D02*
X2006498D01*
X1983570Y1600613D02*
X2006498D01*
X1983502Y1599904D02*
X2006498D01*
X1983143Y1599196D02*
X2006498D01*
X1997473Y1598487D02*
X2006498D01*
X1997891Y1597778D02*
X2006498D01*
X2004350Y1597070D02*
X2006498D01*
X2004896Y1596361D02*
X2006498D01*
X2005080Y1595652D02*
X2006498D01*
X2005005Y1594944D02*
X2006498D01*
X2004635Y1594235D02*
X2006498D01*
X2003486Y1593526D02*
X2006498D01*
X1991558Y1592818D02*
X2006498D01*
X2002342Y1592109D02*
X2006479D01*
X1993196Y1585022D02*
X2006412D01*
X2002750Y1591400D02*
X2005821D01*
X1992247Y1585731D02*
X2005706D01*
X1985056Y1586440D02*
X2005449D01*
X1984073Y1587148D02*
X2005407D01*
X2004812Y1648093D02*
X2005228D01*
X2004746Y1651636D02*
X2005152D01*
X1995609Y1616912D02*
X2004584D01*
X1984323Y1587857D02*
X2004361D01*
X2002851Y1590692D02*
X2004289D01*
X1984319Y1588566D02*
X2003888D01*
X1983589Y1640298D02*
X2003888D01*
X2002696Y1589983D02*
X2003861D01*
X1984785Y1636755D02*
X2003785D01*
X1984785Y1636046D02*
X2003785D01*
X1984785Y1635337D02*
X2003785D01*
X1984785Y1634629D02*
X2003785D01*
X1989453Y1633920D02*
X2003785D01*
X1990132Y1633211D02*
X2003785D01*
X1987796Y1624707D02*
X2003785D01*
X1994526Y1623999D02*
X2003785D01*
X1995475Y1623290D02*
X2003785D01*
X1995808Y1622581D02*
X2003785D01*
X1995856Y1621873D02*
X2003785D01*
X1995644Y1621164D02*
X2003785D01*
X1980866Y1577227D02*
X2003756D01*
X2002200Y1589274D02*
X2003746D01*
X1995321Y1616203D02*
X2003572D01*
X1995623Y1617621D02*
X2003487D01*
X1984785Y1637463D02*
X2003449D01*
X1995039Y1620455D02*
X2003399D01*
X1984297Y1639589D02*
X2003282D01*
X1993603Y1612660D02*
X2003231D01*
X1984785Y1638172D02*
X2003117D01*
X1984746Y1638881D02*
X2003069D01*
X1981458Y1576518D02*
X2003028D01*
X1995371Y1618329D02*
X2003009D01*
X1982711Y1619747D02*
X2002976D01*
X1994676Y1619038D02*
X2002865D01*
X1995086Y1651636D02*
X2002841D01*
X1994529Y1615495D02*
X2002702D01*
X1991756Y1593526D02*
X2002628D01*
X1993420Y1613369D02*
X2002588D01*
X1982711Y1614786D02*
X2002391D01*
X1992874Y1614077D02*
X2002357D01*
X1981665Y1575810D02*
X2002320D01*
X1987596Y1625416D02*
X2002285D01*
X1990378Y1632503D02*
X2002266D01*
X1995125Y1650928D02*
X2002078D01*
X1994901Y1650219D02*
X2001800D01*
X1994273Y1649511D02*
X2001794D01*
X1999917Y1597070D02*
X2001764D01*
X1981611Y1575101D02*
X2001611D01*
X2000108Y1594235D02*
X2001479D01*
X1984785Y1628959D02*
X2001448D01*
X1987017Y1626125D02*
X2001268D01*
X1990358Y1631794D02*
X2001245D01*
X2000429Y1596361D02*
X2001218D01*
X1991145Y1648802D02*
X2001122D01*
X1984785Y1628251D02*
X2001061D01*
X1984785Y1629668D02*
X2001037D01*
X2000575Y1594944D02*
X2001031D01*
X1985301Y1626833D02*
X2000920D01*
X1981272Y1574392D02*
X2000902D01*
X1990063Y1631085D02*
X2000897D01*
X1984785Y1627542D02*
X2000861D01*
X1989249Y1630377D02*
X2000837D01*
X1980292Y1573684D02*
X2000194D01*
X1991947Y1589274D02*
X1999449D01*
X1992433Y1592109D02*
X1999308D01*
X1992573Y1589983D02*
X1998954D01*
X1992755Y1591400D02*
X1998900D01*
X1992795Y1590692D02*
X1998799D01*
X1986747Y1644550D02*
X1998102D01*
X1981942Y1648093D02*
X1997750D01*
X1986681Y1645259D02*
X1997228D01*
X1981561Y1647385D02*
X1997110D01*
X1992890Y1594235D02*
X1997030D01*
X1986325Y1645967D02*
X1996915D01*
X1985263Y1646676D02*
X1996881D01*
X1993258Y1594944D02*
X1996623D01*
X1993331Y1595652D02*
X1994578D01*
X1982061Y1598487D02*
X1994460D01*
X1993147Y1596361D02*
X1994090D01*
X1980486Y1597778D02*
X1994045D01*
X1992597Y1597070D02*
X1993940D01*
X1987782Y1623999D02*
X1993155D01*
X1982711Y1615495D02*
X1992711D01*
X1982773Y1620455D02*
X1992642D01*
X1982711Y1619038D02*
X1992564D01*
X1982711Y1616203D02*
X1991919D01*
X1982711Y1618329D02*
X1991869D01*
X1982711Y1616912D02*
X1991631D01*
X1982711Y1617621D02*
X1991617D01*
X1984009Y1610534D02*
X1991151D01*
X1988894Y1585731D02*
X1990875D01*
X1989375Y1582188D02*
X1990362D01*
X1982711Y1614077D02*
X1990288D01*
X1980486Y1597070D02*
X1990021D01*
X1983995Y1611243D02*
X1990003D01*
X1982711Y1613369D02*
X1989741D01*
X1983708Y1611951D02*
X1989633D01*
X1984045Y1589274D02*
X1989616D01*
X1982920Y1612660D02*
X1989558D01*
X1983413Y1596361D02*
X1989471D01*
X1984299Y1594944D02*
X1989360D01*
X1984065Y1595652D02*
X1989287D01*
X1988952Y1594235D02*
X1989163D01*
X1983292Y1589983D02*
X1988990D01*
X1984785Y1630377D02*
X1987495D01*
X1985814Y1585731D02*
X1987480D01*
X1984785Y1633920D02*
X1987291D01*
X1984269Y1594235D02*
X1987076D01*
X1968404Y1582188D02*
X1986999D01*
X1981671Y1590692D02*
X1986967D01*
X1984785Y1631085D02*
X1986681D01*
X1984785Y1633211D02*
X1986612D01*
X1985108Y1582896D02*
X1986388D01*
X1984785Y1631794D02*
X1986387D01*
X1984785Y1632503D02*
X1986366D01*
X1983961Y1593526D02*
X1986298D01*
X1980963Y1591400D02*
X1986261D01*
X1983106Y1592818D02*
X1986015D01*
X1980486Y1592109D02*
X1986004D01*
X1983724Y1646676D02*
X1984190D01*
X1982629Y1643133D02*
X1983466D01*
X1975002Y1572975D02*
X1983325D01*
X1968404Y1582896D02*
X1983085D01*
X1975453Y1572266D02*
X1982450D01*
X1968404Y1583605D02*
X1982361D01*
X1968404Y1585731D02*
X1982354D01*
X1981293Y1643133D02*
X1982146D01*
X1968404Y1585022D02*
X1982103D01*
X1968404Y1584314D02*
X1982098D01*
X1975681Y1571558D02*
X1981741D01*
X1980503Y1592818D02*
X1981472D01*
X1968404Y1586440D02*
X1981320D01*
X1980604Y1596361D02*
X1981166D01*
X1980732Y1598487D02*
X1981037D01*
X1975738Y1570849D02*
X1981032D01*
X1968404Y1587148D02*
X1980592D01*
X1975738Y1570140D02*
X1980331D01*
X1968404Y1587857D02*
X1980327D01*
X1968404Y1588566D02*
X1980123D01*
X1968404Y1589274D02*
X1979414D01*
X1974444Y1573684D02*
X1979004D01*
X1978187Y1589983D02*
X1978704D01*
X1968404Y1577227D02*
X1978429D01*
X1974697Y1574392D02*
X1978024D01*
X1968404Y1629668D02*
X1977888D01*
X1968404Y1628959D02*
X1977888D01*
X1968404Y1628251D02*
X1977888D01*
X1968404Y1623290D02*
X1977888D01*
X1968404Y1622581D02*
X1977888D01*
X1968404Y1617621D02*
X1977888D01*
X1968404Y1616912D02*
X1977888D01*
X1968404Y1616203D02*
X1977888D01*
X1968404Y1615495D02*
X1977888D01*
X1968404Y1614786D02*
X1977888D01*
X1968404Y1614077D02*
X1977888D01*
X1968404Y1613369D02*
X1977888D01*
X1968404Y1612660D02*
X1977888D01*
X1968404Y1611951D02*
X1977888D01*
X1968404Y1611243D02*
X1977888D01*
X1968404Y1610534D02*
X1977888D01*
X1968404Y1594235D02*
X1977888D01*
X1976813Y1609825D02*
X1977888D01*
X1976576Y1627542D02*
X1977874D01*
X1976555Y1594944D02*
X1977864D01*
X1973907Y1576518D02*
X1977837D01*
X1977082Y1618329D02*
X1977809D01*
X1974741Y1575101D02*
X1977684D01*
X1974523Y1575810D02*
X1977630D01*
X1977403Y1593526D02*
X1977585D01*
X1968404D02*
X1976420D01*
X1968404Y1594944D02*
X1976228D01*
X1968404Y1627542D02*
X1976050D01*
X1968404Y1589983D02*
X1975636D01*
X1968404Y1618329D02*
X1975521D01*
X1968404Y1592818D02*
X1975322D01*
X1968404Y1621873D02*
X1975154D01*
X1968404Y1630377D02*
X1975105D01*
X1968404Y1590692D02*
X1975079D01*
X1968404Y1598487D02*
X1975052D01*
X1968404Y1623999D02*
X1974986D01*
X1968404Y1592109D02*
X1974960D01*
X1968404Y1599196D02*
X1974939D01*
X1968404Y1609825D02*
X1974939D01*
X1968404Y1591400D02*
X1974890D01*
X1968404Y1595652D02*
X1974846D01*
X1968404Y1633920D02*
X1974841D01*
X1968404Y1626833D02*
X1974759D01*
X1968404Y1633211D02*
X1974702D01*
X1968404Y1619038D02*
X1974640D01*
X1968404Y1606282D02*
X1974590D01*
X1968404Y1602739D02*
X1974572D01*
X1968404Y1597778D02*
X1974535D01*
X1968404Y1621164D02*
X1974517D01*
X1968404Y1631085D02*
X1974513D01*
X1968404Y1624707D02*
X1974460D01*
X1968404Y1596361D02*
X1974456D01*
X1968404Y1626125D02*
X1974374D01*
X1968404Y1597070D02*
X1974367D01*
X1968404Y1632503D02*
X1974362D01*
X1968404Y1619747D02*
X1974325D01*
X1968404Y1631794D02*
X1974307D01*
X1968404Y1620455D02*
X1974290D01*
X1968404Y1625416D02*
X1974289D01*
X1968404Y1609117D02*
X1974166D01*
X1968404Y1603448D02*
X1974148D01*
X1968404Y1599904D02*
X1974137D01*
X1968404Y1606991D02*
X1974134D01*
X1968404Y1605574D02*
X1974127D01*
X1968404Y1602030D02*
X1974077D01*
X1968404Y1608408D02*
X1973884D01*
X1968404Y1607699D02*
X1973875D01*
X1968404Y1604156D02*
X1973871D01*
X1968404Y1604865D02*
X1973865D01*
X1968404Y1600613D02*
X1973846D01*
X1968404Y1601322D02*
X1973828D01*
X1968404Y1634629D02*
X1972408D01*
X1970429Y1636755D02*
X1972040D01*
X1968404Y1635337D02*
X1971994D01*
X1968404Y1636046D02*
X1971889D01*
X1968404Y1576518D02*
X1971546D01*
X1968404Y1573684D02*
X1970937D01*
X1968404Y1575810D02*
X1970930D01*
X1968404Y1574392D02*
X1970756D01*
X1968404Y1575101D02*
X1970712D01*
X1968404Y1572975D02*
X1970255D01*
X1968404Y1572266D02*
X1969803D01*
X1968404Y1571558D02*
X1969575D01*
X1968404Y1570849D02*
X1969518D01*
X1968404Y1570140D02*
X1969518D01*
X1968695Y1636755D02*
X1968899D01*
X1989921Y1593526D02*
X1990621D01*
X2014629Y1633920D02*
X2015218D01*
X2008329Y1634629D02*
X2015094D01*
X2008329Y1635337D02*
X2014385D01*
X2008329Y1636046D02*
X2013677D01*
X2011555Y1633920D02*
X2013257D01*
X2008329Y1636755D02*
X2012968D01*
X2009625Y1637463D02*
X2012259D01*
X2010317Y1638172D02*
X2010874D01*
X2008329Y1633920D02*
X2010079D01*
X2008330Y1633211D02*
X2009168D01*
X2008329Y1629668D02*
X2010549D01*
X2008329Y1628959D02*
X2010549D01*
X2008329Y1628251D02*
X2010549D01*
X2008329Y1627542D02*
X2010549D01*
X2008329Y1626833D02*
X2010549D01*
X2008329Y1626125D02*
X2010549D01*
X2008329Y1630377D02*
X2009645D01*
X2008435Y1631085D02*
X2009010D01*
X2008505Y1625416D02*
X2008951D01*
X2018503Y1619747D02*
X2019672D01*
X2018920Y1621873D02*
X2019599D01*
X2015500Y1621164D02*
X2019550D01*
X2015500Y1620455D02*
X2019516D01*
X2015500Y1619747D02*
X2017154D01*
X2015500Y1621873D02*
X2016817D01*
X2015843Y1619038D02*
X2016128D01*
X2015779Y1622581D02*
X2016008D01*
X1982724Y1623999D02*
X1983773D01*
X1982711Y1624707D02*
X1983716D01*
X1977004Y1599196D02*
X1977888D01*
X1975837Y1635337D02*
X1977888D01*
X1975423Y1634629D02*
X1977888D01*
X1976965Y1633920D02*
X1977835D01*
X1975942Y1636046D02*
X1977560D01*
X1975791Y1636755D02*
X1976851D01*
X1977147Y1653054D02*
X1991774D01*
X1990477Y1652345D02*
X1991458D01*
X1977563D02*
X1989322D01*
X1978032Y1651636D02*
X1988291D01*
X1978171Y1650928D02*
X1981102D01*
X1978054Y1650219D02*
X1980394D01*
X1977623Y1649511D02*
X1979685D01*
X1971182Y1648802D02*
X1978976D01*
X1970111Y1648093D02*
X1978572D01*
X1968404Y1647385D02*
X1978546D01*
X1968404Y1646676D02*
X1978546D01*
X1977076Y1645967D02*
X1978546D01*
X1970826Y1640298D02*
X1976430D01*
X1970522Y1645967D02*
X1975975D01*
X1968404Y1641007D02*
X1975914D01*
X1968404Y1641715D02*
X1975206D01*
X1968436Y1653054D02*
X1975140D01*
X1971327Y1645259D02*
X1974924D01*
X1970703Y1642424D02*
X1974729D01*
X1968404Y1652345D02*
X1974724D01*
X1971388Y1643133D02*
X1974665D01*
X1971539Y1649511D02*
X1974665D01*
X1971619Y1644550D02*
X1974570D01*
X1971636Y1643841D02*
X1974506D01*
X1970849Y1651636D02*
X1974256D01*
X1971605Y1650219D02*
X1974233D01*
X1971413Y1650928D02*
X1974116D01*
X1968585Y1648093D02*
X1969058D01*
G54D35*
X1982325Y1588201D02*
X1979187Y1591339D01*
Y1636256*
X1976809Y1638634*
X1969667*
X2010616Y1604543D02*
X2010648Y1604575D01*
X2004368Y1614339D02*
X2004409Y1614380D01*
X2004892Y1619083D02*
X2005085Y1620287D01*
Y1638661*
X2014201Y1617870D02*
Y1631754D01*
X2013943Y1632012*
X1985778Y1624520D02*
X1983486Y1626811D01*
Y1638563*
X1979845Y1642204*
Y1647834*
X1982008Y1649996*
X1989494*
X1989900Y1650402*
X2008541Y1639177D02*
X2008041Y1639677D01*
X2008061*
G54D36*
X2010648Y1604575D02*
Y1605276D01*
X2011789Y1606417*
Y1631059*
X2010817Y1632032*
X2004409Y1614380D02*
X2007089Y1617059D01*
Y1638567*
X2008199Y1639677*
X2008061*
X2014278Y1617689D02*
Y1617793D01*
X2014201Y1617870*
G54D37*
X1994010Y1551583D02*
X1987352D01*
X1981789Y1557146*
Y1568878*
X1984136Y1571224*
X2000463*
X2004951Y1575713*
X1994010Y1551583D02*
X1997691Y1555201D01*
Y1557575*
X2022447Y1567437D02*
X2028813D01*
X2030675Y1569299*
Y1577819*
X2022447Y1567437D02*
X2014250Y1575634D01*
X2009873*
X2005876Y1575575D02*
X2006636D01*
X2009873Y1575634*
X2006636Y1575575D02*
X2004951Y1575713D01*
X2030675Y1573280D02*
Y1577819D01*
X2021404Y1631047D02*
X2012667Y1639783D01*
X2012104*
G54D38*
X2005360Y1561358D02*
Y1563551D01*
X2005774Y1589311D02*
X2007935Y1591472D01*
Y1606319*
X2009774Y1608157*
Y1623563*
G54D40*
X1981549Y1600449D02*
X1981175D01*
Y1610850*
Y1622172D02*
Y1610850D01*
X1982006*
X1981175Y1622172D02*
Y1637917D01*
X1976187Y1642905*
X1976526Y1644016*
X1993841Y1622091D02*
X1993759Y1622172D01*
X1981175*
G54D41*
X1996679Y1548098D03*
X1992675Y1548043D03*
X2000813Y1547925D03*
X2000451Y1551996D03*
X1973719Y1561689D03*
X1976195Y1561665D03*
X1987321Y1558756D03*
X1987356Y1556476D03*
X1997671Y1555339D03*
X1997691Y1557575D03*
X1990549Y1558134D03*
X1993128Y1557488D03*
X1991734Y1555437D03*
X2017939Y1555488D03*
X2029986Y1556307D03*
X2030219Y1553283D03*
X2030191Y1558823D03*
X1976195Y1564417D03*
X1987711Y1563500D03*
X1987699Y1565815D03*
X1985262Y1563476D03*
X1984719Y1567657D03*
X1995911Y1567594D03*
X2005360Y1563551D03*
X1972726Y1574870D03*
X1979648Y1575606D03*
X2005876Y1575575D03*
X2008419Y1575713D03*
X2030675Y1573280D03*
X2030656Y1575764D03*
X1976301Y1587787D03*
X1976911Y1591559D03*
X1982325Y1588201D03*
X1984096Y1584654D03*
X1990781Y1590933D03*
X1988006Y1592433D03*
X1993545Y1590953D03*
X1991561Y1583823D03*
X1988187Y1583831D03*
X2005774Y1589311D03*
X2007451Y1586764D03*
X2000825Y1590764D03*
X2009829Y1588768D03*
X2009754Y1584587D03*
X1976392Y1596965D03*
X1975833Y1601016D03*
X1981549Y1600449D03*
X1982289Y1594673D03*
X1991309Y1595504D03*
X1995967Y1597130D03*
X1998569Y1595555D03*
X2003057Y1595508D03*
X2017368Y1602665D03*
X2023813Y1599890D03*
X1975876Y1608028D03*
X1975864Y1604528D03*
X1982006Y1610850D03*
X1991581Y1612516D03*
X2010616Y1604543D03*
X2016553Y1610862D03*
X2019498Y1607417D03*
X2023876Y1604516D03*
X1976364Y1613945D03*
X1976301Y1620201D03*
X1993841Y1622091D03*
X1989396Y1617445D03*
X1993620Y1617307D03*
X2004368Y1614339D03*
X2004892Y1619083D03*
X2016596Y1613835D03*
X2014278Y1617689D03*
X2025006Y1614764D03*
X2017829Y1617835D03*
X1976313Y1625532D03*
X1976325Y1631996D03*
X1985778Y1624520D03*
X1988372Y1632205D03*
X2002880Y1627354D03*
X2002856Y1630563D03*
X2010817Y1632032D03*
X2009774Y1623563D03*
X2013943Y1632012D03*
X2017868Y1623606D03*
X2024400Y1623870D03*
X2021404Y1631047D03*
X2029986Y1627083D03*
X1969667Y1638634D03*
X1973915Y1635984D03*
X2005085Y1638661D03*
X2012104Y1639783D03*
X2008541Y1639177D03*
X2025167Y1635378D03*
X2030120Y1635610D03*
X1976144Y1650898D03*
X1969585Y1650051D03*
X1969632Y1644146D03*
X1976526Y1644016D03*
X1984726Y1644720D03*
X1982388Y1645146D03*
X1993112Y1651173D03*
X1989900Y1650402D03*
X2003793Y1649846D03*
X2006175Y1649886D03*
X2001900Y1646929D03*
X1998892Y1646417D03*
X2017356Y1650075D03*
X2019407Y1648827D03*
X2030781Y1645185D03*
G54D42*
X1978557Y1555469D03*
X2015573Y1568815D03*
X2012880Y1568854D03*
X2023821Y1571130D03*
X2023813Y1576661D03*
X2023785Y1573949D03*
X2021726Y1620705D03*
X2017301Y1641776D03*
G74*
X0Y0D02*
M02*
