*
*
G04 PADS VX.2.2 Build Number: 7607494 generated Gerber (RS-274-X) file*
G04 PC Version=2.1*
*
%IN "ZHOU0905nn_pads.pcb"*%
*
%MOIN*%
*
%FSLAX35Y35*%
*
*
*
*
G04 PC Standard Apertures*
*
*
G04 Thermal Relief Aperture macro.*
%AMTER*
1,1,$1,0,0*
1,0,$1-$2,0,0*
21,0,$3,$4,0,0,45*
21,0,$3,$4,0,0,135*
%
*
*
G04 Annular Aperture macro.*
%AMANN*
1,1,$1,0,0*
1,0,$2,0,0*
%
*
*
G04 Odd Aperture macro.*
%AMODD*
1,1,$1,0,0*
1,0,$1-0.005,0,0*
%
*
*
G04 PC Custom Aperture Macros*
*
*
*
*
*
*
G04 PC Aperture Table*
*
%ADD010C,0.00394*%
%ADD032C,0.00787*%
%ADD054C,0.01*%
*
*
*
*
G04 PC Circuitry*
G04 Layer Name ZHOU0905nn_pads.pcb - circuitry*
%LPD*%
*
*
G04 PC Custom Flashes*
G04 Layer Name ZHOU0905nn_pads.pcb - flashes*
%LPD*%
*
*
G04 PC Circuitry*
G04 Layer Name ZHOU0905nn_pads.pcb - circuitry*
%LPD*%
*
G54D10*
G54D32*
G01X1813110Y1626667D02*
X1878193D01*
Y1517998*
X1813110*
Y1626667*
G54D54*
X1814280Y1539853D02*
X1822280D01*
X1818280Y1535853D02*
Y1543853D01*
X1814280Y1543396D02*
X1822280D01*
X1818280Y1539396D02*
Y1547396D01*
X1817099Y1539853D02*
G75*
G03X1819461I1181J-0D01*
G01Y1543396*
G03X1817099I-1181J-0*
G01Y1539853*
X1814280Y1519907D02*
X1822280Y1527907D01*
X1814280D02*
X1822280Y1519907D01*
X1814280Y1522270D02*
X1822280Y1530270D01*
X1814280D02*
X1822280Y1522270D01*
X1817098Y1523907D02*
G03X1819461I1182J0D01*
G01Y1526270*
G03X1817098I-1181J-0*
G01Y1523907*
X1848335Y1535852D02*
X1856335D01*
Y1543852*
X1848335*
Y1535852*
X1852335Y1539852D02*
Y1543852D01*
X1848335Y1539396D02*
X1856335D01*
Y1547396*
X1848335*
Y1539396*
X1852335Y1543396D02*
Y1547396D01*
X1851154Y1539852D02*
G03X1853516I1181J0D01*
G01Y1543396*
G03X1851154I-1181J-0*
G01Y1539852*
X1848335Y1519907D02*
X1856335Y1527907D01*
X1848335D02*
X1856335Y1519907D01*
X1848335Y1522270D02*
X1856335Y1530270D01*
X1848335D02*
X1856335Y1522270D01*
X1851153Y1523907D02*
G03X1853516I1182J0D01*
G01Y1526270*
G03X1851153I-1181J-0*
G01Y1523907*
X1859461Y1517604D02*
X1863461Y1521604D01*
X1859461Y1525604*
X1855461Y1521604*
X1859461Y1517604*
Y1521604D02*
Y1525604D01*
X1871236Y1517502D02*
X1875236Y1521502D01*
X1871236Y1525502*
X1867236Y1521502*
X1871236Y1517502*
Y1521502D02*
Y1525502D01*
X1838331Y1516530D02*
X1846331D01*
X1838331Y1524530*
X1846331*
X1838331Y1516530*
X1834327Y1516474D02*
X1842327D01*
X1834327Y1524474*
X1842327*
X1834327Y1516474*
X1842465Y1516356D02*
X1850465D01*
X1842465Y1524356*
X1850465*
X1842465Y1516356*
X1842102Y1520427D02*
X1850102D01*
X1842102Y1528427*
X1850102*
X1842102Y1520427*
X1815370Y1530120D02*
X1823370D01*
X1815370Y1538120*
X1823370*
X1815370Y1530120*
X1817846Y1530096D02*
X1825846D01*
X1817846Y1538096*
X1825846*
X1817846Y1530096*
X1828972Y1527187D02*
X1836972D01*
X1828972Y1535187*
X1836972*
X1828972Y1527187*
X1829008Y1524907D02*
X1837008D01*
X1829008Y1532907*
X1837008*
X1829008Y1524907*
X1820209Y1523900D02*
X1828209Y1531900D01*
Y1523900*
X1820209Y1531900*
Y1523900*
X1839323Y1523770D02*
X1847323D01*
X1839323Y1531770*
X1847323*
X1839323Y1523770*
X1839342Y1526006D02*
X1847342D01*
X1839342Y1534006*
X1847342*
X1839342Y1526006*
X1832201Y1526565D02*
X1840201D01*
X1832201Y1534565*
X1840201*
X1832201Y1526565*
X1834779Y1525919D02*
X1842779D01*
X1842779D02*
X1834779Y1533919D01*
X1834779D02*
X1842779D01*
X1842779D02*
X1834779Y1525919D01*
X1833386Y1523868D02*
X1841386D01*
X1833386Y1531868*
X1841386*
X1833386Y1523868*
X1859591Y1523919D02*
X1867591D01*
X1859591Y1531919*
X1867591*
X1859591Y1523919*
X1871638Y1524738D02*
X1879638D01*
X1871638Y1532738*
X1879638*
X1871638Y1524738*
X1871870Y1521715D02*
X1879870D01*
X1871870Y1529715*
X1879870*
X1871870Y1521715*
X1871842Y1527254D02*
X1879842D01*
X1871842Y1535254*
X1879842*
X1871842Y1527254*
X1817846Y1532848D02*
X1825846D01*
X1817846Y1540848*
X1825846*
X1817846Y1532848*
X1829362Y1531931D02*
X1837362D01*
X1829362Y1539931*
X1837362*
X1829362Y1531931*
X1829350Y1534246D02*
X1837350D01*
X1829350Y1542246*
X1837350*
X1829350Y1534246*
X1826913Y1531907D02*
X1834913D01*
X1826913Y1539907*
X1834913*
X1826913Y1531907*
X1826370Y1536089D02*
X1834370D01*
X1826370Y1544089*
X1834370*
X1826370Y1536089*
X1837563Y1536026D02*
X1845563D01*
X1837563Y1544026*
X1845563*
X1837563Y1536026*
X1847012Y1531982D02*
X1855012D01*
X1847012Y1539982*
X1855012*
X1847012Y1531982*
X1857224Y1537246D02*
X1865224Y1545246D01*
Y1537246*
X1857224Y1545246*
Y1537246*
X1854531Y1537285D02*
X1862531Y1545285D01*
Y1537285*
X1854531Y1545285*
Y1537285*
X1865472Y1539561D02*
X1873472Y1547561D01*
Y1539561*
X1865472Y1547561*
Y1539561*
X1814378Y1543301D02*
X1822378D01*
X1814378Y1551301*
X1822378*
X1814378Y1543301*
X1821299Y1544037D02*
X1829299D01*
X1821299Y1552037*
X1829299*
X1821299Y1544037*
X1847528Y1544006D02*
X1855528D01*
X1847528Y1552006*
X1855528*
X1847528Y1544006*
X1850071Y1544144D02*
X1858071D01*
X1850071Y1552144*
X1858071*
X1850071Y1544144*
X1865465Y1545093D02*
X1873465Y1553093D01*
Y1545093*
X1865465Y1553093*
Y1545093*
X1865437Y1542380D02*
X1873437Y1550380D01*
Y1542380*
X1865437Y1550380*
Y1542380*
X1872327Y1541711D02*
X1880327D01*
X1872327Y1549711*
X1880327*
X1872327Y1541711*
X1872307Y1544195D02*
X1880307D01*
X1872307Y1552195*
X1880307*
X1872307Y1544195*
X1817953Y1556219D02*
X1825953D01*
X1817953Y1564219*
X1825953*
X1817953Y1556219*
X1818563Y1559990D02*
X1826563D01*
X1818563Y1567990*
X1826563*
X1818563Y1559990*
X1823976Y1556632D02*
X1831976D01*
X1823976Y1564632*
X1831976*
X1823976Y1556632*
X1825748Y1553085D02*
X1833748D01*
X1825748Y1561085*
X1833748*
X1825748Y1553085*
X1832433Y1559364D02*
X1840433D01*
X1832433Y1567364*
X1840433*
X1832433Y1559364*
X1829657Y1560864D02*
X1837657D01*
X1829657Y1568864*
X1837657*
X1829657Y1560864*
X1835197Y1559384D02*
X1843197D01*
X1835197Y1567384*
X1843197*
X1835197Y1559384*
X1833213Y1552254D02*
X1841213D01*
X1833213Y1560254*
X1841213*
X1833213Y1552254*
X1829839Y1552262D02*
X1837839D01*
X1829839Y1560262*
X1837839*
X1829839Y1552262*
X1847425Y1557742D02*
X1855425D01*
X1847425Y1565742*
X1855425*
X1847425Y1557742*
X1849102Y1555195D02*
X1857102D01*
X1849102Y1563195*
X1857102*
X1849102Y1555195*
X1842476Y1559195D02*
X1850476D01*
X1842476Y1567195*
X1850476*
X1842476Y1559195*
X1851480Y1557199D02*
X1859480D01*
X1851480Y1565199*
X1859480*
X1851480Y1557199*
X1851405Y1553018D02*
X1859405D01*
X1851405Y1561018*
X1859405*
X1851405Y1553018*
X1818043Y1565396D02*
X1826043D01*
X1818043Y1573396*
X1826043*
X1818043Y1565396*
X1817484Y1569447D02*
X1825484D01*
X1817484Y1577447*
X1825484*
X1817484Y1569447*
X1823201Y1568880D02*
X1831201D01*
X1823201Y1576880*
X1831201*
X1823201Y1568880*
X1823941Y1563104D02*
X1831941D01*
X1823941Y1571104*
X1831941*
X1823941Y1563104*
X1832961Y1563935D02*
X1840961D01*
X1832961Y1571935*
X1840961*
X1832961Y1563935*
X1837618Y1565561D02*
X1845618D01*
X1837618Y1573561*
X1845618*
X1837618Y1565561*
X1840220Y1563986D02*
X1848220D01*
X1840220Y1571986*
X1848220*
X1840220Y1563986*
X1844709Y1563939D02*
X1852709D01*
X1844709Y1571939*
X1852709*
X1844709Y1563939*
X1859020Y1571096D02*
X1867020D01*
X1859020Y1579096*
X1867020*
X1859020Y1571096*
X1865465Y1568321D02*
X1873465D01*
X1865465Y1576321*
X1873465*
X1865465Y1568321*
X1817528Y1576459D02*
X1825528D01*
X1817528Y1584459*
X1825528*
X1817528Y1576459*
X1817516Y1572959D02*
X1825516D01*
X1817516Y1580959*
X1825516*
X1817516Y1572959*
X1823657Y1579281D02*
X1831657D01*
X1823657Y1587281*
X1831657*
X1823657Y1579281*
X1833232Y1580947D02*
X1841232D01*
X1833232Y1588947*
X1841232*
X1833232Y1580947*
X1852268Y1572974D02*
X1860268D01*
X1852268Y1580974*
X1860268*
X1852268Y1572974*
X1858205Y1579293D02*
X1866205D01*
X1858205Y1587293*
X1866205*
X1858205Y1579293*
X1861150Y1575848D02*
X1869150D01*
X1861150Y1583848*
X1869150*
X1861150Y1575848*
X1865528Y1572947D02*
X1873528D01*
X1865528Y1580947*
X1873528*
X1865528Y1572947*
X1818016Y1582376D02*
X1826016D01*
X1818016Y1590376*
X1826016*
X1818016Y1582376*
X1817953Y1588632D02*
X1825953D01*
X1817953Y1596632*
X1825953*
X1817953Y1588632*
X1835492Y1590522D02*
X1843492D01*
X1835492Y1598522*
X1843492*
X1835492Y1590522*
X1831047Y1585876D02*
X1839047D01*
X1831047Y1593876*
X1839047*
X1831047Y1585876*
X1835272Y1585738D02*
X1843272D01*
X1835272Y1593738*
X1843272*
X1835272Y1585738*
X1846020Y1582770D02*
X1854020D01*
X1846020Y1590770*
X1854020*
X1846020Y1582770*
X1846543Y1587514D02*
X1854543D01*
X1846543Y1595514*
X1854543*
X1846543Y1587514*
X1858248Y1582266D02*
X1866248D01*
X1858248Y1590266*
X1866248*
X1858248Y1582266*
X1855929Y1586120D02*
X1863929D01*
X1855929Y1594120*
X1863929*
X1855929Y1586120*
X1866657Y1583195D02*
X1874657D01*
X1866657Y1591195*
X1874657*
X1866657Y1583195*
X1859480Y1586266D02*
X1867480D01*
X1859480Y1594266*
X1867480*
X1859480Y1586266*
X1863378Y1589136D02*
X1871378Y1597136D01*
Y1589136*
X1863378Y1597136*
Y1589136*
X1817965Y1593963D02*
X1825965D01*
X1817965Y1601963*
X1825965*
X1817965Y1593963*
X1817976Y1600427D02*
X1825976D01*
X1817976Y1608427*
X1825976*
X1817976Y1600427*
X1827429Y1592951D02*
X1835429D01*
X1827429Y1600951*
X1835429*
X1827429Y1592951*
X1830024Y1600636D02*
X1838024D01*
X1830024Y1608636*
X1838024*
X1830024Y1600636*
X1844531Y1595785D02*
X1852531D01*
X1844531Y1603785*
X1852531*
X1844531Y1595785*
X1844508Y1598994D02*
X1852508D01*
X1844508Y1606994*
X1852508*
X1844508Y1598994*
X1852468Y1600463D02*
X1860468D01*
X1852468Y1608463*
X1860468*
X1852468Y1600463*
X1851425Y1591994D02*
X1859425D01*
X1851425Y1599994*
X1859425*
X1851425Y1591994*
X1855594Y1600443D02*
X1863594D01*
X1855594Y1608443*
X1863594*
X1855594Y1600443*
X1859520Y1592037D02*
X1867520D01*
X1859520Y1600037*
X1867520*
X1859520Y1592037*
X1866051Y1592301D02*
X1874051D01*
X1866051Y1600301*
X1874051*
X1866051Y1592301*
X1863055Y1599478D02*
X1871055D01*
X1863055Y1607478*
X1871055*
X1863055Y1599478*
X1871638Y1595514D02*
X1879638D01*
X1871638Y1603514*
X1879638*
X1871638Y1595514*
X1811319Y1607065D02*
X1819319D01*
X1811319Y1615065*
X1819319*
X1811319Y1607065*
X1815567Y1604415D02*
X1823567D01*
X1815567Y1612415*
X1823567*
X1815567Y1604415*
X1846736Y1607093D02*
X1854736D01*
X1846736Y1615093*
X1854736*
X1846736Y1607093*
X1853756Y1608215D02*
X1861756D01*
X1853756Y1616215*
X1861756*
X1853756Y1608215*
X1858953Y1610207D02*
X1866953Y1618207D01*
Y1610207*
X1858953Y1618207*
Y1610207*
X1850193Y1607608D02*
X1858193D01*
X1850193Y1615608*
X1858193*
X1850193Y1607608*
X1866819Y1603809D02*
X1874819D01*
X1866819Y1611809*
X1874819*
X1866819Y1603809*
X1871772Y1604041D02*
X1879772D01*
X1871772Y1612041*
X1879772*
X1871772Y1604041*
X1817795Y1619329D02*
X1825795D01*
X1817795Y1627329*
X1825795*
X1817795Y1619329*
X1811236Y1618482D02*
X1819236D01*
X1811236Y1626482*
X1819236*
X1811236Y1618482*
X1811283Y1612577D02*
X1819283D01*
X1811283Y1620577*
X1819283*
X1811283Y1612577*
X1818177Y1612447D02*
X1826177D01*
X1818177Y1620447*
X1826177*
X1818177Y1612447*
X1826378Y1613152D02*
X1834378D01*
X1826378Y1621152*
X1834378*
X1826378Y1613152*
X1824039Y1613577D02*
X1832039D01*
X1824039Y1621577*
X1832039*
X1824039Y1613577*
X1834764Y1619604D02*
X1842764D01*
X1834764Y1627604*
X1842764*
X1834764Y1619604*
X1831551Y1618833D02*
X1839551D01*
X1831551Y1626833*
X1839551*
X1831551Y1618833*
X1845445Y1618278D02*
X1853445D01*
X1845445Y1626278*
X1853445*
X1845445Y1618278*
X1847827Y1618317D02*
X1855827D01*
X1847827Y1626317*
X1855827*
X1847827Y1618317*
X1843551Y1615360D02*
X1851551D01*
X1843551Y1623360*
X1851551*
X1843551Y1615360*
X1840543Y1614848D02*
X1848543D01*
X1840543Y1622848*
X1848543*
X1840543Y1614848*
X1859008Y1618506D02*
X1867008D01*
X1859008Y1626506*
X1867008*
X1859008Y1618506*
X1861059Y1617258D02*
X1869059D01*
X1861059Y1625258*
X1869059*
X1861059Y1617258*
X1872433Y1613616D02*
X1880433D01*
X1872433Y1621616*
X1880433*
X1872433Y1613616*
X1931220Y1685998D02*
X2189220D01*
X1931220Y1661998D02*
X2189220D01*
X1931220Y1637998D02*
X2189220D01*
X1931220Y1613998D02*
X2189220D01*
X1931220Y1589998D02*
X2189220D01*
X1931220Y1565998D02*
X2189220D01*
X1931220Y1541998D02*
X2189220D01*
X1931220Y1517998D02*
X2189220D01*
X1931220Y1685998D02*
Y1517998D01*
X2015220Y1685998D02*
Y1517998D01*
X2051220Y1685998D02*
Y1517998D01*
X2087220Y1685998D02*
Y1517998D01*
X2141220Y1685998D02*
Y1517998D01*
X2189220Y1685998D02*
Y1517998D01*
X1966720Y1674748D02*
X1966175Y1675498D01*
X1965357Y1675873*
X1964266*
X1963448Y1675498*
X1962902Y1674748*
Y1673998*
X1963175Y1673248*
X1963448Y1672873*
X1963993Y1672498*
X1965630Y1671748*
X1966175Y1671373*
X1966448Y1670998*
X1966720Y1670248*
Y1669123*
X1966175Y1668373*
X1965357Y1667998*
X1964266*
X1963448Y1668373*
X1962902Y1669123*
X1969175Y1675873D02*
Y1667998D01*
X1975448Y1675873D02*
X1971630Y1667998D01*
Y1675873D02*
X1975448D01*
X1971630Y1667998D02*
X1975448D01*
X1977902Y1675873D02*
Y1667998D01*
Y1675873D02*
X1981448D01*
X1977902Y1672123D02*
X1980084D01*
X1977902Y1667998D02*
X1981448D01*
X2025084Y1675873D02*
X2024539Y1675498D01*
X2023993Y1674748*
X2023720Y1673998*
X2023448Y1672873*
Y1670998*
X2023720Y1669873*
X2023993Y1669123*
X2024539Y1668373*
X2025084Y1667998*
X2026175*
X2026720Y1668373*
X2027266Y1669123*
X2027539Y1669873*
X2027811Y1670998*
Y1672873*
X2027539Y1673998*
X2027266Y1674748*
X2026720Y1675498*
X2026175Y1675873*
X2025084*
X2025902Y1669498D02*
X2027539Y1667248D01*
X2032175Y1675873D02*
Y1667998D01*
X2030266Y1675873D02*
X2034084D01*
X2036539D02*
X2038720Y1672123D01*
Y1667998*
X2040902Y1675873D02*
X2038720Y1672123D01*
X2063266Y1674748D02*
X2062720Y1675498D01*
X2061902Y1675873*
X2060811*
X2059993Y1675498*
X2059448Y1674748*
Y1673998*
X2059720Y1673248*
X2059993Y1672873*
X2060539Y1672498*
X2062175Y1671748*
X2062720Y1671373*
X2062993Y1670998*
X2063266Y1670248*
Y1669123*
X2062720Y1668373*
X2061902Y1667998*
X2060811*
X2059993Y1668373*
X2059448Y1669123*
X2065720Y1675873D02*
X2067902Y1672123D01*
Y1667998*
X2070084Y1675873D02*
X2067902Y1672123D01*
X2072539Y1675873D02*
Y1667998D01*
Y1675873D02*
X2074720Y1667998D01*
X2076902Y1675873D02*
X2074720Y1667998D01*
X2076902Y1675873D02*
Y1667998D01*
X2098720Y1675873D02*
Y1667998D01*
Y1675873D02*
X2101175D01*
X2101993Y1675498*
X2102266Y1675123*
X2102539Y1674373*
Y1673248*
X2102266Y1672498*
X2101993Y1672123*
X2101175Y1671748*
X2098720*
X2104993Y1675873D02*
Y1667998D01*
X2108266*
X2112902Y1675873D02*
X2110720Y1667998D01*
X2112902Y1675873D02*
X2115084Y1667998D01*
X2111539Y1670623D02*
X2114266D01*
X2119448Y1675873D02*
Y1667998D01*
X2117539Y1675873D02*
X2121357D01*
X2123811D02*
Y1667998D01*
Y1675873D02*
X2127357D01*
X2123811Y1672123D02*
X2125993D01*
X2123811Y1667998D02*
X2127357D01*
X2129811Y1675873D02*
Y1667998D01*
Y1675873D02*
X2131720D01*
X2132539Y1675498*
X2133084Y1674748*
X2133357Y1673998*
X2133630Y1672873*
Y1670998*
X2133357Y1669873*
X2133084Y1669123*
X2132539Y1668373*
X2131720Y1667998*
X2129811*
X2157902Y1675873D02*
Y1667998D01*
X2155993Y1675873D02*
X2159811D01*
X2163902D02*
X2163357Y1675498D01*
X2162811Y1674748*
X2162539Y1673998*
X2162266Y1672873*
Y1670998*
X2162539Y1669873*
X2162811Y1669123*
X2163357Y1668373*
X2163902Y1667998*
X2164993*
X2165539Y1668373*
X2166084Y1669123*
X2166357Y1669873*
X2166630Y1670998*
Y1672873*
X2166357Y1673998*
X2166084Y1674748*
X2165539Y1675498*
X2164993Y1675873*
X2163902*
X2169084D02*
Y1667998D01*
X2172357*
X1938857Y1651873D02*
X1938039Y1651498D01*
X1937493Y1650373*
X1937220Y1648498*
Y1647373*
X1937493Y1645498*
X1938039Y1644373*
X1938857Y1643998*
X1939402*
X1940220Y1644373*
X1940766Y1645498*
X1941039Y1647373*
Y1648498*
X1940766Y1650373*
X1940220Y1651498*
X1939402Y1651873*
X1938857*
X1943766Y1644748D02*
X1943493Y1644373D01*
X1943766Y1643998*
X1944039Y1644373*
X1943766Y1644748*
X1949766Y1650748D02*
X1949493Y1651498D01*
X1948675Y1651873*
X1948130*
X1947311Y1651498*
X1946766Y1650373*
X1946493Y1648498*
Y1646623*
X1946766Y1645123*
X1947311Y1644373*
X1948130Y1643998*
X1948402*
X1949220Y1644373*
X1949766Y1645123*
X1950039Y1646248*
Y1646623*
X1949766Y1647748*
X1949220Y1648498*
X1948402Y1648873*
X1948130*
X1947311Y1648498*
X1946766Y1647748*
X1946493Y1646623*
X1958766Y1649248D02*
X1961766Y1643998D01*
Y1649248D02*
X1958766Y1643998D01*
X1970493Y1650373D02*
X1971039Y1650748D01*
X1971857Y1651873*
Y1643998*
X1974584Y1644748D02*
X1974311Y1644373D01*
X1974584Y1643998*
X1974857Y1644373*
X1974584Y1644748*
X1980857Y1651873D02*
X1978130D01*
X1977857Y1648498*
X1978130Y1648873*
X1978948Y1649248*
X1979766*
X1980584Y1648873*
X1981130Y1648123*
X1981402Y1646998*
X1981130Y1646248*
X1980857Y1645123*
X1980311Y1644373*
X1979493Y1643998*
X1978675*
X1977857Y1644373*
X1977584Y1644748*
X1977311Y1645498*
X2031493Y1650373D02*
X2032039Y1650748D01*
X2032857Y1651873*
Y1643998*
X2063220Y1649998D02*
X2075220D01*
X2069220Y1643998D02*
Y1655998D01*
X2095857Y1651873D02*
X2098039Y1648123D01*
Y1643998*
X2100220Y1651873D02*
X2098039Y1648123D01*
X2102675Y1651873D02*
Y1643998D01*
Y1651873D02*
X2106220D01*
X2102675Y1648123D02*
X2104857D01*
X2102675Y1643998D02*
X2106220D01*
X2112493Y1650748D02*
X2111948Y1651498D01*
X2111130Y1651873*
X2110039*
X2109220Y1651498*
X2108675Y1650748*
Y1649998*
X2108948Y1649248*
X2109220Y1648873*
X2109766Y1648498*
X2111402Y1647748*
X2111948Y1647373*
X2112220Y1646998*
X2112493Y1646248*
Y1645123*
X2111948Y1644373*
X2111130Y1643998*
X2110039*
X2109220Y1644373*
X2108675Y1645123*
X2149039Y1650748D02*
Y1643998D01*
X2146584Y1647373D02*
X2151493D01*
X2158857Y1653373D02*
X2153948Y1641373D01*
X2161311Y1647373D02*
X2166220D01*
X2170311Y1651873D02*
X2169493Y1651498D01*
X2168948Y1650373*
X2168675Y1648498*
Y1647373*
X2168948Y1645498*
X2169493Y1644373*
X2170311Y1643998*
X2170857*
X2171675Y1644373*
X2172220Y1645498*
X2172493Y1647373*
Y1648498*
X2172220Y1650373*
X2171675Y1651498*
X2170857Y1651873*
X2170311*
X2175220Y1644748D02*
X2174948Y1644373D01*
X2175220Y1643998*
X2175493Y1644373*
X2175220Y1644748*
X2179584Y1651873D02*
X2178766Y1651498D01*
X2178220Y1650373*
X2177948Y1648498*
Y1647373*
X2178220Y1645498*
X2178766Y1644373*
X2179584Y1643998*
X2180130*
X2180948Y1644373*
X2181493Y1645498*
X2181766Y1647373*
Y1648498*
X2181493Y1650373*
X2180948Y1651498*
X2180130Y1651873*
X2179584*
X1938857Y1627873D02*
X1938039Y1627498D01*
X1937493Y1626373*
X1937220Y1624498*
Y1623373*
X1937493Y1621498*
X1938039Y1620373*
X1938857Y1619998*
X1939402*
X1940220Y1620373*
X1940766Y1621498*
X1941039Y1623373*
Y1624498*
X1940766Y1626373*
X1940220Y1627498*
X1939402Y1627873*
X1938857*
X1943766Y1620748D02*
X1943493Y1620373D01*
X1943766Y1619998*
X1944039Y1620373*
X1943766Y1620748*
X1949766Y1626748D02*
X1949493Y1627498D01*
X1948675Y1627873*
X1948130*
X1947311Y1627498*
X1946766Y1626373*
X1946493Y1624498*
Y1622623*
X1946766Y1621123*
X1947311Y1620373*
X1948130Y1619998*
X1948402*
X1949220Y1620373*
X1949766Y1621123*
X1950039Y1622248*
Y1622623*
X1949766Y1623748*
X1949220Y1624498*
X1948402Y1624873*
X1948130*
X1947311Y1624498*
X1946766Y1623748*
X1946493Y1622623*
X1958766Y1625248D02*
X1961766Y1619998D01*
Y1625248D02*
X1958766Y1619998D01*
X1970493Y1626373D02*
X1971039Y1626748D01*
X1971857Y1627873*
Y1619998*
X1974584Y1620748D02*
X1974311Y1620373D01*
X1974584Y1619998*
X1974857Y1620373*
X1974584Y1620748*
X1977584Y1625998D02*
Y1626373D01*
X1977857Y1627123*
X1978130Y1627498*
X1978675Y1627873*
X1979766*
X1980311Y1627498*
X1980584Y1627123*
X1980857Y1626373*
Y1625623*
X1980584Y1624873*
X1980039Y1623748*
X1977311Y1619998*
X1981130*
X2030539Y1625998D02*
Y1626373D01*
X2030811Y1627123*
X2031084Y1627498*
X2031630Y1627873*
X2032720*
X2033266Y1627498*
X2033539Y1627123*
X2033811Y1626373*
Y1625623*
X2033539Y1624873*
X2032993Y1623748*
X2030266Y1619998*
X2034084*
X2063220D02*
X2075220Y1631998D01*
X2063220D02*
X2075220Y1619998D01*
X2095857Y1627873D02*
X2098039Y1624123D01*
Y1619998*
X2100220Y1627873D02*
X2098039Y1624123D01*
X2102675Y1627873D02*
Y1619998D01*
Y1627873D02*
X2106220D01*
X2102675Y1624123D02*
X2104857D01*
X2102675Y1619998D02*
X2106220D01*
X2112493Y1626748D02*
X2111948Y1627498D01*
X2111130Y1627873*
X2110039*
X2109220Y1627498*
X2108675Y1626748*
Y1625998*
X2108948Y1625248*
X2109220Y1624873*
X2109766Y1624498*
X2111402Y1623748*
X2111948Y1623373*
X2112220Y1622998*
X2112493Y1622248*
Y1621123*
X2111948Y1620373*
X2111130Y1619998*
X2110039*
X2109220Y1620373*
X2108675Y1621123*
X2149039Y1626748D02*
Y1619998D01*
X2146584Y1623373D02*
X2151493D01*
X2158857Y1629373D02*
X2153948Y1617373D01*
X2161311Y1623373D02*
X2166220D01*
X2170311Y1627873D02*
X2169493Y1627498D01*
X2168948Y1626373*
X2168675Y1624498*
Y1623373*
X2168948Y1621498*
X2169493Y1620373*
X2170311Y1619998*
X2170857*
X2171675Y1620373*
X2172220Y1621498*
X2172493Y1623373*
Y1624498*
X2172220Y1626373*
X2171675Y1627498*
X2170857Y1627873*
X2170311*
X2175220Y1620748D02*
X2174948Y1620373D01*
X2175220Y1619998*
X2175493Y1620373*
X2175220Y1620748*
X2179584Y1627873D02*
X2178766Y1627498D01*
X2178220Y1626373*
X2177948Y1624498*
Y1623373*
X2178220Y1621498*
X2178766Y1620373*
X2179584Y1619998*
X2180130*
X2180948Y1620373*
X2181493Y1621498*
X2181766Y1623373*
Y1624498*
X2181493Y1626373*
X2180948Y1627498*
X2180130Y1627873*
X2179584*
X1938857Y1603873D02*
X1938039Y1603498D01*
X1937493Y1602373*
X1937220Y1600498*
Y1599373*
X1937493Y1597498*
X1938039Y1596373*
X1938857Y1595998*
X1939402*
X1940220Y1596373*
X1940766Y1597498*
X1941039Y1599373*
Y1600498*
X1940766Y1602373*
X1940220Y1603498*
X1939402Y1603873*
X1938857*
X1943766Y1596748D02*
X1943493Y1596373D01*
X1943766Y1595998*
X1944039Y1596373*
X1943766Y1596748*
X1949766Y1602748D02*
X1949493Y1603498D01*
X1948675Y1603873*
X1948130*
X1947311Y1603498*
X1946766Y1602373*
X1946493Y1600498*
Y1598623*
X1946766Y1597123*
X1947311Y1596373*
X1948130Y1595998*
X1948402*
X1949220Y1596373*
X1949766Y1597123*
X1950039Y1598248*
Y1598623*
X1949766Y1599748*
X1949220Y1600498*
X1948402Y1600873*
X1948130*
X1947311Y1600498*
X1946766Y1599748*
X1946493Y1598623*
X1958766Y1601248D02*
X1961766Y1595998D01*
Y1601248D02*
X1958766Y1595998D01*
X1970493Y1602373D02*
X1971039Y1602748D01*
X1971857Y1603873*
Y1595998*
X1974584Y1596748D02*
X1974311Y1596373D01*
X1974584Y1595998*
X1974857Y1596373*
X1974584Y1596748*
X1980857Y1603873D02*
X1978130D01*
X1977857Y1600498*
X1978130Y1600873*
X1978948Y1601248*
X1979766*
X1980584Y1600873*
X1981130Y1600123*
X1981402Y1598998*
X1981130Y1598248*
X1980857Y1597123*
X1980311Y1596373*
X1979493Y1595998*
X1978675*
X1977857Y1596373*
X1977584Y1596748*
X1977311Y1597498*
X1985493Y1603873D02*
X1984675Y1603498D01*
X1984130Y1602373*
X1983857Y1600498*
Y1599373*
X1984130Y1597498*
X1984675Y1596373*
X1985493Y1595998*
X1986039*
X1986857Y1596373*
X1987402Y1597498*
X1987675Y1599373*
Y1600498*
X1987402Y1602373*
X1986857Y1603498*
X1986039Y1603873*
X1985493*
X1991766D02*
X1990948Y1603498D01*
X1990402Y1602373*
X1990130Y1600498*
Y1599373*
X1990402Y1597498*
X1990948Y1596373*
X1991766Y1595998*
X1992311*
X1993130Y1596373*
X1993675Y1597498*
X1993948Y1599373*
Y1600498*
X1993675Y1602373*
X1993130Y1603498*
X1992311Y1603873*
X1991766*
X1998039D02*
X1997220Y1603498D01*
X1996675Y1602373*
X1996402Y1600498*
Y1599373*
X1996675Y1597498*
X1997220Y1596373*
X1998039Y1595998*
X1998584*
X1999402Y1596373*
X1999948Y1597498*
X2000220Y1599373*
Y1600498*
X1999948Y1602373*
X1999402Y1603498*
X1998584Y1603873*
X1998039*
X2002948Y1601998D02*
Y1602373D01*
X2003220Y1603123*
X2003493Y1603498*
X2004039Y1603873*
X2005130*
X2005675Y1603498*
X2005948Y1603123*
X2006220Y1602373*
Y1601623*
X2005948Y1600873*
X2005402Y1599748*
X2002675Y1595998*
X2006493*
X2031493Y1602373D02*
X2032039Y1602748D01*
X2032857Y1603873*
Y1595998*
X2063220D02*
X2075220D01*
Y1607998*
X2063220*
Y1595998*
X2069220Y1601998D02*
Y1607998D01*
X2095857Y1603873D02*
X2098039Y1600123D01*
Y1595998*
X2100220Y1603873D02*
X2098039Y1600123D01*
X2102675Y1603873D02*
Y1595998D01*
Y1603873D02*
X2106220D01*
X2102675Y1600123D02*
X2104857D01*
X2102675Y1595998D02*
X2106220D01*
X2112493Y1602748D02*
X2111948Y1603498D01*
X2111130Y1603873*
X2110039*
X2109220Y1603498*
X2108675Y1602748*
Y1601998*
X2108948Y1601248*
X2109220Y1600873*
X2109766Y1600498*
X2111402Y1599748*
X2111948Y1599373*
X2112220Y1598998*
X2112493Y1598248*
Y1597123*
X2111948Y1596373*
X2111130Y1595998*
X2110039*
X2109220Y1596373*
X2108675Y1597123*
X2149039Y1602748D02*
Y1595998D01*
X2146584Y1599373D02*
X2151493D01*
X2158857Y1605373D02*
X2153948Y1593373D01*
X2161311Y1599373D02*
X2166220D01*
X2170311Y1603873D02*
X2169493Y1603498D01*
X2168948Y1602373*
X2168675Y1600498*
Y1599373*
X2168948Y1597498*
X2169493Y1596373*
X2170311Y1595998*
X2170857*
X2171675Y1596373*
X2172220Y1597498*
X2172493Y1599373*
Y1600498*
X2172220Y1602373*
X2171675Y1603498*
X2170857Y1603873*
X2170311*
X2175220Y1596748D02*
X2174948Y1596373D01*
X2175220Y1595998*
X2175493Y1596373*
X2175220Y1596748*
X2179584Y1603873D02*
X2178766Y1603498D01*
X2178220Y1602373*
X2177948Y1600498*
Y1599373*
X2178220Y1597498*
X2178766Y1596373*
X2179584Y1595998*
X2180130*
X2180948Y1596373*
X2181493Y1597498*
X2181766Y1599373*
Y1600498*
X2181493Y1602373*
X2180948Y1603498*
X2180130Y1603873*
X2179584*
X1938857Y1579873D02*
X1938039Y1579498D01*
X1937493Y1578373*
X1937220Y1576498*
Y1575373*
X1937493Y1573498*
X1938039Y1572373*
X1938857Y1571998*
X1939402*
X1940220Y1572373*
X1940766Y1573498*
X1941039Y1575373*
Y1576498*
X1940766Y1578373*
X1940220Y1579498*
X1939402Y1579873*
X1938857*
X1943766Y1572748D02*
X1943493Y1572373D01*
X1943766Y1571998*
X1944039Y1572373*
X1943766Y1572748*
X1947857Y1579873D02*
X1947039Y1579498D01*
X1946766Y1578748*
Y1577998*
X1947039Y1577248*
X1947584Y1576873*
X1948675Y1576498*
X1949493Y1576123*
X1950039Y1575373*
X1950311Y1574623*
Y1573498*
X1950039Y1572748*
X1949766Y1572373*
X1948948Y1571998*
X1947857*
X1947039Y1572373*
X1946766Y1572748*
X1946493Y1573498*
Y1574623*
X1946766Y1575373*
X1947311Y1576123*
X1948130Y1576498*
X1949220Y1576873*
X1949766Y1577248*
X1950039Y1577998*
Y1578748*
X1949766Y1579498*
X1948948Y1579873*
X1947857*
X2030539Y1577998D02*
Y1578373D01*
X2030811Y1579123*
X2031084Y1579498*
X2031630Y1579873*
X2032720*
X2033266Y1579498*
X2033539Y1579123*
X2033811Y1578373*
Y1577623*
X2033539Y1576873*
X2032993Y1575748*
X2030266Y1571998*
X2034084*
X2069220D02*
X2075220Y1577998D01*
X2069220Y1583998*
X2063220Y1577998*
X2069220Y1571998*
Y1577998D02*
Y1583998D01*
X2095857Y1579873D02*
X2098039Y1576123D01*
Y1571998*
X2100220Y1579873D02*
X2098039Y1576123D01*
X2102675Y1579873D02*
Y1571998D01*
Y1579873D02*
X2106220D01*
X2102675Y1576123D02*
X2104857D01*
X2102675Y1571998D02*
X2106220D01*
X2112493Y1578748D02*
X2111948Y1579498D01*
X2111130Y1579873*
X2110039*
X2109220Y1579498*
X2108675Y1578748*
Y1577998*
X2108948Y1577248*
X2109220Y1576873*
X2109766Y1576498*
X2111402Y1575748*
X2111948Y1575373*
X2112220Y1574998*
X2112493Y1574248*
Y1573123*
X2111948Y1572373*
X2111130Y1571998*
X2110039*
X2109220Y1572373*
X2108675Y1573123*
X2149039Y1578748D02*
Y1571998D01*
X2146584Y1575373D02*
X2151493D01*
X2158857Y1581373D02*
X2153948Y1569373D01*
X2161311Y1575373D02*
X2166220D01*
X2170311Y1579873D02*
X2169493Y1579498D01*
X2168948Y1578373*
X2168675Y1576498*
Y1575373*
X2168948Y1573498*
X2169493Y1572373*
X2170311Y1571998*
X2170857*
X2171675Y1572373*
X2172220Y1573498*
X2172493Y1575373*
Y1576498*
X2172220Y1578373*
X2171675Y1579498*
X2170857Y1579873*
X2170311*
X2175220Y1572748D02*
X2174948Y1572373D01*
X2175220Y1571998*
X2175493Y1572373*
X2175220Y1572748*
X2179584Y1579873D02*
X2178766Y1579498D01*
X2178220Y1578373*
X2177948Y1576498*
Y1575373*
X2178220Y1573498*
X2178766Y1572373*
X2179584Y1571998*
X2180130*
X2180948Y1572373*
X2181493Y1573498*
X2181766Y1575373*
Y1576498*
X2181493Y1578373*
X2180948Y1579498*
X2180130Y1579873*
X2179584*
X1938857Y1555873D02*
X1938039Y1555498D01*
X1937493Y1554373*
X1937220Y1552498*
Y1551373*
X1937493Y1549498*
X1938039Y1548373*
X1938857Y1547998*
X1939402*
X1940220Y1548373*
X1940766Y1549498*
X1941039Y1551373*
Y1552498*
X1940766Y1554373*
X1940220Y1555498*
X1939402Y1555873*
X1938857*
X1943766Y1548748D02*
X1943493Y1548373D01*
X1943766Y1547998*
X1944039Y1548373*
X1943766Y1548748*
X1947039Y1555873D02*
X1950039D01*
X1948402Y1552873*
X1949220*
X1949766Y1552498*
X1950039Y1552123*
X1950311Y1550998*
Y1550248*
X1950039Y1549123*
X1949493Y1548373*
X1948675Y1547998*
X1947857*
X1947039Y1548373*
X1946766Y1548748*
X1946493Y1549498*
X2025220Y1554373D02*
X2025766Y1554748D01*
X2026584Y1555873*
Y1547998*
X2030675Y1555873D02*
X2029857Y1555498D01*
X2029311Y1554373*
X2029039Y1552498*
Y1551373*
X2029311Y1549498*
X2029857Y1548373*
X2030675Y1547998*
X2031220*
X2032039Y1548373*
X2032584Y1549498*
X2032857Y1551373*
Y1552498*
X2032584Y1554373*
X2032039Y1555498*
X2031220Y1555873*
X2030675*
X2036675D02*
X2035857Y1555498D01*
X2035584Y1554748*
Y1553998*
X2035857Y1553248*
X2036402Y1552873*
X2037493Y1552498*
X2038311Y1552123*
X2038857Y1551373*
X2039130Y1550623*
Y1549498*
X2038857Y1548748*
X2038584Y1548373*
X2037766Y1547998*
X2036675*
X2035857Y1548373*
X2035584Y1548748*
X2035311Y1549498*
Y1550623*
X2035584Y1551373*
X2036130Y1552123*
X2036948Y1552498*
X2038039Y1552873*
X2038584Y1553248*
X2038857Y1553998*
Y1554748*
X2038584Y1555498*
X2037766Y1555873*
X2036675*
X2063220Y1547998D02*
X2075220D01*
X2063220Y1559998*
X2075220*
X2063220Y1547998*
X2095857Y1555873D02*
X2098039Y1552123D01*
Y1547998*
X2100220Y1555873D02*
X2098039Y1552123D01*
X2102675Y1555873D02*
Y1547998D01*
Y1555873D02*
X2106220D01*
X2102675Y1552123D02*
X2104857D01*
X2102675Y1547998D02*
X2106220D01*
X2112493Y1554748D02*
X2111948Y1555498D01*
X2111130Y1555873*
X2110039*
X2109220Y1555498*
X2108675Y1554748*
Y1553998*
X2108948Y1553248*
X2109220Y1552873*
X2109766Y1552498*
X2111402Y1551748*
X2111948Y1551373*
X2112220Y1550998*
X2112493Y1550248*
Y1549123*
X2111948Y1548373*
X2111130Y1547998*
X2110039*
X2109220Y1548373*
X2108675Y1549123*
X2149039Y1554748D02*
Y1547998D01*
X2146584Y1551373D02*
X2151493D01*
X2158857Y1557373D02*
X2153948Y1545373D01*
X2161311Y1551373D02*
X2166220D01*
X2170311Y1555873D02*
X2169493Y1555498D01*
X2168948Y1554373*
X2168675Y1552498*
Y1551373*
X2168948Y1549498*
X2169493Y1548373*
X2170311Y1547998*
X2170857*
X2171675Y1548373*
X2172220Y1549498*
X2172493Y1551373*
Y1552498*
X2172220Y1554373*
X2171675Y1555498*
X2170857Y1555873*
X2170311*
X2175220Y1548748D02*
X2174948Y1548373D01*
X2175220Y1547998*
X2175493Y1548373*
X2175220Y1548748*
X2179584Y1555873D02*
X2178766Y1555498D01*
X2178220Y1554373*
X2177948Y1552498*
Y1551373*
X2178220Y1549498*
X2178766Y1548373*
X2179584Y1547998*
X2180130*
X2180948Y1548373*
X2181493Y1549498*
X2181766Y1551373*
Y1552498*
X2181493Y1554373*
X2180948Y1555498*
X2180130Y1555873*
X2179584*
X1938857Y1531873D02*
X1938039Y1531498D01*
X1937493Y1530373*
X1937220Y1528498*
Y1527373*
X1937493Y1525498*
X1938039Y1524373*
X1938857Y1523998*
X1939402*
X1940220Y1524373*
X1940766Y1525498*
X1941039Y1527373*
Y1528498*
X1940766Y1530373*
X1940220Y1531498*
X1939402Y1531873*
X1938857*
X1943766Y1524748D02*
X1943493Y1524373D01*
X1943766Y1523998*
X1944039Y1524373*
X1943766Y1524748*
X1949220Y1531873D02*
X1946493Y1526623D01*
X1950584*
X1949220Y1531873D02*
Y1523998D01*
X2031630Y1531873D02*
X2030811Y1531498D01*
X2030539Y1530748*
Y1529998*
X2030811Y1529248*
X2031357Y1528873*
X2032448Y1528498*
X2033266Y1528123*
X2033811Y1527373*
X2034084Y1526623*
Y1525498*
X2033811Y1524748*
X2033539Y1524373*
X2032720Y1523998*
X2031630*
X2030811Y1524373*
X2030539Y1524748*
X2030266Y1525498*
Y1526623*
X2030539Y1527373*
X2031084Y1528123*
X2031902Y1528498*
X2032993Y1528873*
X2033539Y1529248*
X2033811Y1529998*
Y1530748*
X2033539Y1531498*
X2032720Y1531873*
X2031630*
X2063220Y1523998D02*
X2075220Y1535998D01*
Y1523998*
X2063220Y1535998*
Y1523998*
X2095857Y1531873D02*
X2098039Y1528123D01*
Y1523998*
X2100220Y1531873D02*
X2098039Y1528123D01*
X2102675Y1531873D02*
Y1523998D01*
Y1531873D02*
X2106220D01*
X2102675Y1528123D02*
X2104857D01*
X2102675Y1523998D02*
X2106220D01*
X2112493Y1530748D02*
X2111948Y1531498D01*
X2111130Y1531873*
X2110039*
X2109220Y1531498*
X2108675Y1530748*
Y1529998*
X2108948Y1529248*
X2109220Y1528873*
X2109766Y1528498*
X2111402Y1527748*
X2111948Y1527373*
X2112220Y1526998*
X2112493Y1526248*
Y1525123*
X2111948Y1524373*
X2111130Y1523998*
X2110039*
X2109220Y1524373*
X2108675Y1525123*
X2149039Y1530748D02*
Y1523998D01*
X2146584Y1527373D02*
X2151493D01*
X2158857Y1533373D02*
X2153948Y1521373D01*
X2161311Y1527373D02*
X2166220D01*
X2170311Y1531873D02*
X2169493Y1531498D01*
X2168948Y1530373*
X2168675Y1528498*
Y1527373*
X2168948Y1525498*
X2169493Y1524373*
X2170311Y1523998*
X2170857*
X2171675Y1524373*
X2172220Y1525498*
X2172493Y1527373*
Y1528498*
X2172220Y1530373*
X2171675Y1531498*
X2170857Y1531873*
X2170311*
X2175220Y1524748D02*
X2174948Y1524373D01*
X2175220Y1523998*
X2175493Y1524373*
X2175220Y1524748*
X2179584Y1531873D02*
X2178766Y1531498D01*
X2178220Y1530373*
X2177948Y1528498*
Y1527373*
X2178220Y1525498*
X2178766Y1524373*
X2179584Y1523998*
X2180130*
X2180948Y1524373*
X2181493Y1525498*
X2181766Y1527373*
Y1528498*
X2181493Y1530373*
X2180948Y1531498*
X2180130Y1531873*
X2179584*
G74*
X0Y0D02*
M02*
