M48
;FILE_FORMAT=2:4
INCH,LZ
FMAT,2
ICI,OFF
;TYPE=PLATED
T1C.01181
T2C.01575
T3C.02362
T4C.0315
%
M72
G90
G93X0Y0
T1C.01181F095S3
X010626Y011612
X010874Y01161
X010874Y011885
X011726Y012209
X01178Y011791
X011986Y011319
X01199Y011091
X012024Y012025
X012025Y011793
X012309Y011257
X012428Y010987
X012522Y010248
X012567Y011192
X012845Y012203
X012922Y010253
X013021Y010977
X013023Y011201
X013299Y010643
X013335Y010236
X01379Y011798
X015048Y010992
X016253Y011074
X016273Y011326
X016276Y010772
X016322Y012771
X01632Y01302
X014237Y01432
X01423Y013902
X014096Y013015
X013999Y01412
X013842Y013001
X013831Y014374
X01356Y014994
X013337Y01452
X013111Y014999
X012851Y015156
X012609Y014539
X01241Y013826
X012385Y014994
X012332Y014537
X012073Y013826
X012055Y014687
X011664Y013909
X011487Y014263
X011483Y014911
X011219Y013004
X010945Y014599
X010893Y01514
X010884Y014222
X010527Y01293
X010837Y015545
X010841Y015896
X010842Y016246
X010884Y017463
X010891Y016838
X011409Y015488
X011455Y016528
X012194Y017188
X012412Y016695
X012616Y017174
X012638Y017652
X013691Y016877
X013743Y017352
X014316Y015898
X014682Y017212
X014909Y01653
X014914Y016827
X014991Y01571
X015037Y017227
X015204Y016185
X015635Y015432
X015642Y015895
X015755Y01692
X016332Y019962
X016266Y019004
X016253Y018152
X015771Y018981
X015694Y01783
X015394Y018548
X015041Y017804
X014648Y018644
X014465Y019422
X014336Y018646
X014231Y0178
X014108Y019361
X013763Y019309
X013542Y018179
X01354Y0185
X013444Y020136
X013143Y020085
X012091Y018664
X011832Y017895
X011727Y019915
X011493Y019958
X010907Y019845
X010887Y018643
X010885Y017996
X010646Y019042
X010221Y019307
X010217Y019858
X010213Y020448
X010869Y020533
X012244Y020483
X012565Y020561
X013633Y020428
X013872Y020432
X01499Y020451
X015195Y020326
T2C.01575F095S3
X01111Y01099
X014542Y012329
X014811Y012325
X015636Y012556
X015635Y013109
X015633Y012838
X015427Y017514
X014984Y019621
T3C.02362F197S55
X010517Y012185G85X010517Y01254
X010517Y010591G85X010517Y010827
X013922Y012185G85X013922Y01254
X013922Y010591G85X013922Y010827
T4C.0315F197S55
X014635Y010361
X015813Y01035
M30
