*
*
G04 PADS VX.2.2 Build Number: 7607494 generated Gerber (RS-274-X) file*
G04 PC Version=2.1*
*
%IN "ZHOU0905nn_pads.pcb"*%
*
%MOIN*%
*
%FSLAX35Y35*%
*
*
*
*
G04 PC Standard Apertures*
*
*
G04 Thermal Relief Aperture macro.*
%AMTER*
1,1,$1,0,0*
1,0,$1-$2,0,0*
21,0,$3,$4,0,0,45*
21,0,$3,$4,0,0,135*
%
*
*
G04 Annular Aperture macro.*
%AMANN*
1,1,$1,0,0*
1,0,$2,0,0*
%
*
*
G04 Odd Aperture macro.*
%AMODD*
1,1,$1,0,0*
1,0,$1-0.005,0,0*
%
*
*
G04 PC Custom Aperture Macros*
*
*
*
*
*
*
G04 PC Aperture Table*
*
%ADD010C,0.00394*%
%ADD014R,0.01969X0.01969*%
%ADD025C,0.00315*%
%ADD031C,0.05512*%
%ADD032C,0.00787*%
%ADD033C,0.0001*%
%ADD067C,0.04737*%
%ADD068R,0.01784X0.02769*%
%ADD069R,0.01784X0.03556*%
%ADD070R,0.03556X0.01784*%
%ADD071R,0.04343X0.01784*%
%ADD072R,0.01784X0.02375*%
%ADD073R,0.01194X0.01194*%
%ADD074R,0.028X0.028*%
%ADD075R,0.04343X0.04343*%
%ADD076R,0.00984X0.01969*%
%ADD077R,0.01969X0.01909*%
%ADD078R,0.02559X0.04724*%
%ADD079R,0.01575X0.04724*%
%ADD080O,0.04724X0.08268*%
%ADD081O,0.05118X0.0748*%
%ADD082O,0.03353X0.01384*%
%ADD083R,0.01575X0.02756*%
%ADD084R,0.05912X0.05124*%
*
*
*
*
G04 PC Circuitry*
G04 Layer Name ZHOU0905nn_pads.pcb - circuitry*
%LPD*%
*
*
G04 PC Custom Flashes*
G04 Layer Name ZHOU0905nn_pads.pcb - flashes*
%LPD*%
*
*
G04 PC Circuitry*
G04 Layer Name ZHOU0905nn_pads.pcb - circuitry*
%LPD*%
*
G54D10*
G54D14*
G01X1986427Y1576976D03*
Y1580551D03*
X1992526Y1576976D03*
Y1580551D03*
X2021451Y1556866D03*
X2025026D03*
X1978329Y1584303D03*
Y1587878D03*
X1984404Y1590780D03*
X1987978D03*
X1984356Y1594768D03*
X1987931D03*
X2017309Y1556866D03*
X2013734D03*
X2029447Y1567831D03*
Y1564256D03*
G54D25*
X2007931Y1624749D02*
X2009666Y1626484D01*
X2007931Y1628219*
X2006196Y1626484*
X2007931Y1624749*
X2007645Y1625035D02*
X2008217D01*
X2007330Y1625350D02*
X2008532D01*
X2007015Y1625665D02*
X2008847D01*
X2006700Y1625980D02*
X2009162D01*
X2006385Y1626295D02*
X2009477D01*
X2006322Y1626610D02*
X2009540D01*
X2006637Y1626925D02*
X2009225D01*
X2006952Y1627240D02*
X2008910D01*
X2007267Y1627555D02*
X2008595D01*
X2007582Y1627870D02*
X2008280D01*
X2007897Y1628185D02*
X2007965D01*
X2006199Y1626482D02*
Y1626487D01*
X2006514Y1626167D02*
Y1626802D01*
X2006829Y1625852D02*
Y1627117D01*
X2007144Y1625537D02*
Y1627432D01*
X2007459Y1625222D02*
Y1627747D01*
X2007774Y1624907D02*
Y1628062D01*
X2008089Y1624907D02*
Y1628062D01*
X2008404Y1625222D02*
Y1627747D01*
X2008719Y1625537D02*
Y1627432D01*
X2009033Y1625852D02*
Y1627117D01*
X2009348Y1626167D02*
Y1626802D01*
X2009663Y1626482D02*
Y1626487D01*
G54D31*
X2013809Y1549272D03*
X2025585Y1549169D03*
G54D32*
X2012380Y1562912D02*
X2012375Y1562910D01*
X2012374Y1562906*
Y1561925*
X2012375Y1561921*
X2012380Y1561919*
X2015640*
X2015644Y1561921*
X2015932Y1562208*
X2015933Y1562213*
Y1562906*
X2015932Y1562910*
X2015927Y1562912*
X2012380*
Y1561919D02*
Y1562912D01*
X2012774Y1561919D02*
Y1562912D01*
X2013167Y1561919D02*
Y1562912D01*
X2013561Y1561919D02*
Y1562912D01*
X2013955Y1561919D02*
Y1562912D01*
X2014348Y1561919D02*
Y1562912D01*
X2014742Y1561919D02*
Y1562912D01*
X2015136Y1561919D02*
Y1562912D01*
X2015530Y1561919D02*
Y1562912D01*
X2015923Y1562200D02*
Y1562912D01*
X2012380Y1566859D02*
X2012375Y1566857D01*
X2012374Y1566852*
Y1565864*
X2012375Y1565860*
X2012380Y1565858*
X2015915*
X2015920Y1565860*
X2015922Y1565864*
Y1566533*
X2015920Y1566538*
X2015601Y1566857*
X2015596Y1566859*
X2012380*
Y1565858D02*
Y1566859D01*
X2012774Y1565858D02*
Y1566859D01*
X2013167Y1565858D02*
Y1566859D01*
X2013561Y1565858D02*
Y1566859D01*
X2013955Y1565858D02*
Y1566859D01*
X2014348Y1565858D02*
Y1566859D01*
X2014742Y1565858D02*
Y1566859D01*
X2015136Y1565858D02*
Y1566859D01*
X2015530Y1565858D02*
Y1566859D01*
X2017337Y1562034D02*
X2017332Y1562032D01*
X2016994Y1561693*
X2016992Y1561689*
Y1559268*
X2016994Y1559263*
X2016998Y1559261*
X2017990*
X2017995Y1559263*
X2017996Y1559268*
Y1562028*
X2017995Y1562032*
X2017990Y1562034*
X2017337*
X2017104Y1559261D02*
Y1561804D01*
X2017498Y1559261D02*
Y1562034D01*
X2017892Y1559261D02*
Y1562034D01*
X2017006Y1569522D02*
X2017001Y1569520D01*
X2017000Y1569516*
Y1567087*
X2017001Y1567082*
X2017332Y1566751*
X2017337Y1566750*
X2017990*
X2017995Y1566751*
X2017996Y1566756*
Y1569516*
X2017995Y1569520*
X2017990Y1569522*
X2017006*
X2017104Y1566979D02*
Y1569522D01*
X2017498Y1566750D02*
Y1569522D01*
X2017892Y1566750D02*
Y1569522D01*
X2020947Y1562036D02*
X2020942Y1562034D01*
X2020941Y1562030*
Y1559270*
X2020942Y1559265*
X2020947Y1559263*
X2021931*
X2021936Y1559265*
X2021937Y1559270*
Y1561699*
X2021936Y1561703*
X2021605Y1562034*
X2021600Y1562036*
X2020947*
X2021041Y1559263D02*
Y1562036D01*
X2021435Y1559263D02*
Y1562036D01*
X2021829Y1559263D02*
Y1561810D01*
X2020943Y1569516D02*
X2020938Y1569514D01*
X2020937Y1569510*
Y1566750*
X2020938Y1566746*
X2020943Y1566744*
X2021596*
X2021601Y1566746*
X2021939Y1567084*
X2021941Y1567089*
Y1569510*
X2021939Y1569514*
X2021935Y1569516*
X2020943*
X2021041Y1566744D02*
Y1569516D01*
X2021435Y1566744D02*
Y1569516D01*
X2021829Y1566973D02*
Y1569516D01*
X2023014Y1562916D02*
X2023009Y1562914D01*
X2023007Y1562909*
Y1562240*
X2023009Y1562236*
X2023328Y1561917*
X2023333Y1561915*
X2026549*
X2026554Y1561917*
X2026556Y1561921*
Y1562909*
X2026554Y1562914*
X2026549Y1562916*
X2023014*
X2023010Y1562235D02*
Y1562914D01*
X2023404Y1561915D02*
Y1562916D01*
X2023797Y1561915D02*
Y1562916D01*
X2024191Y1561915D02*
Y1562916D01*
X2024585Y1561915D02*
Y1562916D01*
X2024978Y1561915D02*
Y1562916D01*
X2025372Y1561915D02*
Y1562916D01*
X2025766Y1561915D02*
Y1562916D01*
X2026159Y1561915D02*
Y1562916D01*
X2026553Y1561917D02*
Y1562914D01*
X2023299Y1566855D02*
X2023295Y1566853D01*
X2023007Y1566565*
X2023006Y1566561*
Y1565868*
X2023007Y1565864*
X2023012Y1565862*
X2026559*
X2026564Y1565864*
X2026565Y1565868*
Y1566848*
X2026564Y1566853*
X2026559Y1566855*
X2023299*
X2023010Y1565863D02*
Y1566568D01*
X2023404Y1565862D02*
Y1566855D01*
X2023797Y1565862D02*
Y1566855D01*
X2024191Y1565862D02*
Y1566855D01*
X2024585Y1565862D02*
Y1566855D01*
X2024978Y1565862D02*
Y1566855D01*
X2025372Y1565862D02*
Y1566855D01*
X2025766Y1565862D02*
Y1566855D01*
X2026159Y1565862D02*
Y1566855D01*
X2026553Y1565862D02*
Y1566855D01*
X2014187Y1566857D02*
X2014183Y1566855D01*
X2014181Y1566850*
Y1561921*
X2014183Y1561917*
X2014187Y1561915*
X2015510*
X2015514Y1561917*
X2015936Y1562338*
X2015937Y1562343*
Y1566437*
X2015936Y1566441*
X2015522Y1566855*
X2015518Y1566857*
X2014187*
X2014348Y1561915D02*
Y1566857D01*
X2014742Y1561915D02*
Y1566857D01*
X2015136Y1561915D02*
Y1566857D01*
X2015530Y1561932D02*
Y1566847D01*
X2015923Y1562326D02*
Y1566454D01*
X1967459Y1654335D02*
X2032541D01*
Y1545665*
X1967459*
Y1654335*
G54D33*
X2008520Y1624713D02*
X2008521Y1624697D01*
X2008522Y1624682*
X2008523Y1624666*
X2008525Y1624651*
X2008528Y1624636*
X2008531Y1624620*
X2008535Y1624605*
X2008540Y1624591*
X2008545Y1624576*
X2008550Y1624561*
X2008557Y1624547*
X2008563Y1624533*
X2008571Y1624520*
X2008579Y1624506*
X2008587Y1624493*
X2008596Y1624480*
X2008605Y1624468*
X2008615Y1624456*
X2008625Y1624444*
X2008636Y1624433*
X2008647Y1624423*
X2008659Y1624412*
X2008671Y1624402*
X2008683Y1624393*
X2008696Y1624384*
X2008709Y1624376*
X2008722Y1624368*
X2008736Y1624361*
X2008750Y1624354*
X2008764Y1624348*
X2008779Y1624342*
X2008793Y1624337*
X2008808Y1624332*
X2008823Y1624329*
X2008838Y1624325*
X2008854Y1624322*
X2008869Y1624320*
X2008884Y1624319*
X2008900Y1624318*
X2008915*
X2010490*
X2010506*
X2010521Y1624319*
X2010537Y1624320*
X2010552Y1624322*
X2010567Y1624325*
X2010582Y1624329*
X2010597Y1624332*
X2010612Y1624337*
X2010627Y1624342*
X2010641Y1624348*
X2010656Y1624354*
X2010669Y1624361*
X2010683Y1624368*
X2010697Y1624376*
X2010710Y1624384*
X2010722Y1624393*
X2010735Y1624402*
X2010747Y1624412*
X2010758Y1624423*
X2010769Y1624433*
X2010780Y1624444*
X2010791Y1624456*
X2010800Y1624468*
X2010810Y1624480*
X2010819Y1624493*
X2010827Y1624506*
X2010835Y1624520*
X2010842Y1624533*
X2010849Y1624547*
X2010855Y1624561*
X2010861Y1624576*
X2010866Y1624591*
X2010870Y1624605*
X2010874Y1624620*
X2010878Y1624636*
X2010880Y1624651*
X2010882Y1624666*
X2010884Y1624682*
X2010885Y1624697*
Y1624713*
Y1625697*
Y1625712*
X2010884Y1625728*
X2010882Y1625743*
X2010880Y1625759*
X2010878Y1625774*
X2010874Y1625789*
X2010870Y1625804*
X2010866Y1625819*
X2010861Y1625834*
X2010855Y1625848*
X2010849Y1625862*
X2010842Y1625876*
X2010835Y1625890*
X2010827Y1625903*
X2010819Y1625916*
X2010810Y1625929*
X2010800Y1625941*
X2010791Y1625953*
X2010780Y1625965*
X2010769Y1625976*
X2010758Y1625987*
X2010747Y1625997*
X2010735Y1626007*
X2010722Y1626016*
X2010710Y1626025*
X2010697Y1626034*
X2010683Y1626041*
X2010669Y1626049*
X2010656Y1626056*
X2010641Y1626062*
X2010627Y1626067*
X2010612Y1626073*
X2010597Y1626077*
X2010582Y1626081*
X2010567Y1626084*
X2010552Y1626087*
X2010537Y1626089*
X2010521Y1626091*
X2010506Y1626092*
X2010490*
X2009644*
X2009628*
X2009613Y1626091*
X2009597Y1626089*
X2009582Y1626087*
X2009567Y1626084*
X2009551Y1626081*
X2009536Y1626077*
X2009522Y1626073*
X2009507Y1626067*
X2009493Y1626062*
X2009478Y1626056*
X2009464Y1626049*
X2009451Y1626041*
X2009437Y1626034*
X2009424Y1626025*
X2009412Y1626016*
X2009399Y1626007*
X2009387Y1625997*
X2009376Y1625987*
X2009364Y1625976*
X2008636Y1625248*
X2008625Y1625237*
X2008615Y1625225*
X2008605Y1625213*
X2008596Y1625201*
X2008587Y1625188*
X2008579Y1625175*
X2008571Y1625162*
X2008563Y1625148*
X2008557Y1625134*
X2008550Y1625120*
X2008545Y1625105*
X2008540Y1625091*
X2008535Y1625076*
X2008531Y1625061*
X2008528Y1625046*
X2008525Y1625030*
X2008523Y1625015*
X2008522Y1624999*
X2008521Y1624984*
X2008520Y1624969*
Y1624713*
X2008521Y1624690D02*
Y1624992D01*
X2008526Y1624646D02*
Y1625035D01*
X2008531Y1624621D02*
Y1625060D01*
X2008536Y1624602D02*
Y1625079D01*
X2008541Y1624586D02*
Y1625095D01*
X2008546Y1624572D02*
Y1625109D01*
X2008551Y1624560D02*
Y1625121D01*
X2008556Y1624548D02*
Y1625133D01*
X2008561Y1624538D02*
Y1625143D01*
X2008566Y1624528D02*
Y1625153D01*
X2008571Y1624519D02*
Y1625162D01*
X2008576Y1624510D02*
Y1625171D01*
X2008581Y1624502D02*
Y1625179D01*
X2008586Y1624494D02*
Y1625187D01*
X2008591Y1624487D02*
Y1625194D01*
X2008596Y1624480D02*
Y1625201D01*
X2008601Y1624473D02*
Y1625208D01*
X2008606Y1624467D02*
Y1625214D01*
X2008611Y1624461D02*
Y1625220D01*
X2008616Y1624455D02*
Y1625226D01*
X2008621Y1624449D02*
Y1625232D01*
X2008626Y1624444D02*
Y1625237D01*
X2008631Y1624438D02*
Y1625243D01*
X2008636Y1624433D02*
Y1625248D01*
X2008641Y1624428D02*
Y1625253D01*
X2008646Y1624424D02*
Y1625258D01*
X2008651Y1624419D02*
Y1625263D01*
X2008656Y1624415D02*
Y1625268D01*
X2008661Y1624410D02*
Y1625273D01*
X2008666Y1624406D02*
Y1625278D01*
X2008671Y1624402D02*
Y1625283D01*
X2008676Y1624398D02*
Y1625288D01*
X2008681Y1624395D02*
Y1625293D01*
X2008686Y1624391D02*
Y1625298D01*
X2008691Y1624388D02*
Y1625303D01*
X2008696Y1624384D02*
Y1625308D01*
X2008701Y1624381D02*
Y1625313D01*
X2008706Y1624378D02*
Y1625318D01*
X2008711Y1624375D02*
Y1625323D01*
X2008716Y1624372D02*
Y1625328D01*
X2008721Y1624369D02*
Y1625333D01*
X2008726Y1624366D02*
Y1625338D01*
X2008731Y1624363D02*
Y1625343D01*
X2008736Y1624361D02*
Y1625348D01*
X2008741Y1624358D02*
Y1625353D01*
X2008746Y1624356D02*
Y1625358D01*
X2008751Y1624353D02*
Y1625363D01*
X2008756Y1624351D02*
Y1625368D01*
X2008761Y1624349D02*
Y1625373D01*
X2008766Y1624347D02*
Y1625378D01*
X2008771Y1624345D02*
Y1625383D01*
X2008776Y1624343D02*
Y1625388D01*
X2008781Y1624341D02*
Y1625393D01*
X2008786Y1624339D02*
Y1625398D01*
X2008791Y1624338D02*
Y1625403D01*
X2008796Y1624336D02*
Y1625408D01*
X2008801Y1624335D02*
Y1625413D01*
X2008806Y1624333D02*
Y1625418D01*
X2008811Y1624332D02*
Y1625423D01*
X2008816Y1624330D02*
Y1625428D01*
X2008821Y1624329D02*
Y1625433D01*
X2008826Y1624328D02*
Y1625438D01*
X2008831Y1624327D02*
Y1625443D01*
X2008836Y1624326D02*
Y1625448D01*
X2008841Y1624325D02*
Y1625453D01*
X2008846Y1624324D02*
Y1625458D01*
X2008851Y1624323D02*
Y1625463D01*
X2008856Y1624322D02*
Y1625468D01*
X2008861Y1624321D02*
Y1625473D01*
X2008866Y1624321D02*
Y1625478D01*
X2008871Y1624320D02*
Y1625483D01*
X2008876Y1624320D02*
Y1625488D01*
X2008881Y1624319D02*
Y1625493D01*
X2008886Y1624319D02*
Y1625498D01*
X2008891Y1624318D02*
Y1625503D01*
X2008896Y1624318D02*
Y1625508D01*
X2008901Y1624318D02*
Y1625513D01*
X2008906Y1624318D02*
Y1625518D01*
X2008911Y1624318D02*
Y1625523D01*
X2008916Y1624318D02*
Y1625528D01*
X2008921Y1624318D02*
Y1625533D01*
X2008926Y1624318D02*
Y1625538D01*
X2008931Y1624318D02*
Y1625543D01*
X2008936Y1624318D02*
Y1625548D01*
X2008941Y1624318D02*
Y1625553D01*
X2008946Y1624318D02*
Y1625558D01*
X2008951Y1624318D02*
Y1625563D01*
X2008956Y1624318D02*
Y1625568D01*
X2008961Y1624318D02*
Y1625573D01*
X2008966Y1624318D02*
Y1625578D01*
X2008971Y1624318D02*
Y1625583D01*
X2008976Y1624318D02*
Y1625588D01*
X2008981Y1624318D02*
Y1625593D01*
X2008986Y1624318D02*
Y1625598D01*
X2008991Y1624318D02*
Y1625603D01*
X2008996Y1624318D02*
Y1625608D01*
X2009001Y1624318D02*
Y1625613D01*
X2009006Y1624318D02*
Y1625618D01*
X2009011Y1624318D02*
Y1625623D01*
X2009016Y1624318D02*
Y1625628D01*
X2009021Y1624318D02*
Y1625633D01*
X2009026Y1624318D02*
Y1625638D01*
X2009031Y1624318D02*
Y1625643D01*
X2009036Y1624318D02*
Y1625648D01*
X2009041Y1624318D02*
Y1625653D01*
X2009046Y1624318D02*
Y1625658D01*
X2009051Y1624318D02*
Y1625663D01*
X2009056Y1624318D02*
Y1625668D01*
X2009061Y1624318D02*
Y1625673D01*
X2009066Y1624318D02*
Y1625678D01*
X2009071Y1624318D02*
Y1625683D01*
X2009076Y1624318D02*
Y1625688D01*
X2009081Y1624318D02*
Y1625693D01*
X2009086Y1624318D02*
Y1625698D01*
X2009091Y1624318D02*
Y1625703D01*
X2009096Y1624318D02*
Y1625708D01*
X2009101Y1624318D02*
Y1625713D01*
X2009106Y1624318D02*
Y1625718D01*
X2009111Y1624318D02*
Y1625723D01*
X2009116Y1624318D02*
Y1625728D01*
X2009121Y1624318D02*
Y1625733D01*
X2009126Y1624318D02*
Y1625738D01*
X2009131Y1624318D02*
Y1625743D01*
X2009136Y1624318D02*
Y1625748D01*
X2009141Y1624318D02*
Y1625753D01*
X2009146Y1624318D02*
Y1625758D01*
X2009151Y1624318D02*
Y1625763D01*
X2009156Y1624318D02*
Y1625768D01*
X2009161Y1624318D02*
Y1625773D01*
X2009166Y1624318D02*
Y1625778D01*
X2009171Y1624318D02*
Y1625783D01*
X2009176Y1624318D02*
Y1625788D01*
X2009181Y1624318D02*
Y1625793D01*
X2009186Y1624318D02*
Y1625798D01*
X2009191Y1624318D02*
Y1625803D01*
X2009196Y1624318D02*
Y1625808D01*
X2009201Y1624318D02*
Y1625813D01*
X2009206Y1624318D02*
Y1625818D01*
X2009211Y1624318D02*
Y1625823D01*
X2009216Y1624318D02*
Y1625828D01*
X2009221Y1624318D02*
Y1625833D01*
X2009226Y1624318D02*
Y1625838D01*
X2009231Y1624318D02*
Y1625843D01*
X2009236Y1624318D02*
Y1625848D01*
X2009241Y1624318D02*
Y1625853D01*
X2009246Y1624318D02*
Y1625858D01*
X2009251Y1624318D02*
Y1625863D01*
X2009256Y1624318D02*
Y1625868D01*
X2009261Y1624318D02*
Y1625873D01*
X2009266Y1624318D02*
Y1625878D01*
X2009271Y1624318D02*
Y1625883D01*
X2009276Y1624318D02*
Y1625888D01*
X2009281Y1624318D02*
Y1625893D01*
X2009286Y1624318D02*
Y1625898D01*
X2009291Y1624318D02*
Y1625903D01*
X2009296Y1624318D02*
Y1625908D01*
X2009301Y1624318D02*
Y1625913D01*
X2009306Y1624318D02*
Y1625918D01*
X2009311Y1624318D02*
Y1625923D01*
X2009316Y1624318D02*
Y1625928D01*
X2009321Y1624318D02*
Y1625933D01*
X2009326Y1624318D02*
Y1625938D01*
X2009331Y1624318D02*
Y1625943D01*
X2009336Y1624318D02*
Y1625948D01*
X2009341Y1624318D02*
Y1625953D01*
X2009346Y1624318D02*
Y1625958D01*
X2009351Y1624318D02*
Y1625963D01*
X2009356Y1624318D02*
Y1625968D01*
X2009361Y1624318D02*
Y1625973D01*
X2009366Y1624318D02*
Y1625978D01*
X2009371Y1624318D02*
Y1625983D01*
X2009376Y1624318D02*
Y1625987D01*
X2009381Y1624318D02*
Y1625992D01*
X2009386Y1624318D02*
Y1625996D01*
X2009391Y1624318D02*
Y1626000D01*
X2009396Y1624318D02*
Y1626005D01*
X2009401Y1624318D02*
Y1626009D01*
X2009406Y1624318D02*
Y1626012D01*
X2009411Y1624318D02*
Y1626016D01*
X2009416Y1624318D02*
Y1626020D01*
X2009421Y1624318D02*
Y1626023D01*
X2009426Y1624318D02*
Y1626026D01*
X2009431Y1624318D02*
Y1626030D01*
X2009436Y1624318D02*
Y1626033D01*
X2009441Y1624318D02*
Y1626036D01*
X2009446Y1624318D02*
Y1626039D01*
X2009451Y1624318D02*
Y1626042D01*
X2009456Y1624318D02*
Y1626044D01*
X2009461Y1624318D02*
Y1626047D01*
X2009466Y1624318D02*
Y1626050D01*
X2009471Y1624318D02*
Y1626052D01*
X2009476Y1624318D02*
Y1626054D01*
X2009481Y1624318D02*
Y1626057D01*
X2009486Y1624318D02*
Y1626059D01*
X2009491Y1624318D02*
Y1626061D01*
X2009496Y1624318D02*
Y1626063D01*
X2009501Y1624318D02*
Y1626065D01*
X2009506Y1624318D02*
Y1626067D01*
X2009511Y1624318D02*
Y1626069D01*
X2009516Y1624318D02*
Y1626071D01*
X2009521Y1624318D02*
Y1626072D01*
X2009526Y1624318D02*
Y1626074D01*
X2009531Y1624318D02*
Y1626075D01*
X2009536Y1624318D02*
Y1626077D01*
X2009541Y1624318D02*
Y1626078D01*
X2009546Y1624318D02*
Y1626080D01*
X2009551Y1624318D02*
Y1626081D01*
X2009556Y1624318D02*
Y1626082D01*
X2009561Y1624318D02*
Y1626083D01*
X2009566Y1624318D02*
Y1626084D01*
X2009571Y1624318D02*
Y1626085D01*
X2009576Y1624318D02*
Y1626086D01*
X2009581Y1624318D02*
Y1626087D01*
X2009586Y1624318D02*
Y1626088D01*
X2009591Y1624318D02*
Y1626088D01*
X2009596Y1624318D02*
Y1626089D01*
X2009601Y1624318D02*
Y1626089D01*
X2009606Y1624318D02*
Y1626090D01*
X2009611Y1624318D02*
Y1626090D01*
X2009616Y1624318D02*
Y1626091D01*
X2009621Y1624318D02*
Y1626091D01*
X2009626Y1624318D02*
Y1626091D01*
X2009631Y1624318D02*
Y1626092D01*
X2009636Y1624318D02*
Y1626092D01*
X2009641Y1624318D02*
Y1626092D01*
X2009646Y1624318D02*
Y1626092D01*
X2009651Y1624318D02*
Y1626092D01*
X2009656Y1624318D02*
Y1626092D01*
X2009661Y1624318D02*
Y1626092D01*
X2009666Y1624318D02*
Y1626092D01*
X2009671Y1624318D02*
Y1626092D01*
X2009676Y1624318D02*
Y1626092D01*
X2009681Y1624318D02*
Y1626092D01*
X2009686Y1624318D02*
Y1626092D01*
X2009691Y1624318D02*
Y1626092D01*
X2009696Y1624318D02*
Y1626092D01*
X2009701Y1624318D02*
Y1626092D01*
X2009706Y1624318D02*
Y1626092D01*
X2009711Y1624318D02*
Y1626092D01*
X2009716Y1624318D02*
Y1626092D01*
X2009721Y1624318D02*
Y1626092D01*
X2009726Y1624318D02*
Y1626092D01*
X2009731Y1624318D02*
Y1626092D01*
X2009736Y1624318D02*
Y1626092D01*
X2009741Y1624318D02*
Y1626092D01*
X2009746Y1624318D02*
Y1626092D01*
X2009751Y1624318D02*
Y1626092D01*
X2009756Y1624318D02*
Y1626092D01*
X2009761Y1624318D02*
Y1626092D01*
X2009766Y1624318D02*
Y1626092D01*
X2009771Y1624318D02*
Y1626092D01*
X2009776Y1624318D02*
Y1626092D01*
X2009781Y1624318D02*
Y1626092D01*
X2009786Y1624318D02*
Y1626092D01*
X2009791Y1624318D02*
Y1626092D01*
X2009796Y1624318D02*
Y1626092D01*
X2009801Y1624318D02*
Y1626092D01*
X2009806Y1624318D02*
Y1626092D01*
X2009811Y1624318D02*
Y1626092D01*
X2009816Y1624318D02*
Y1626092D01*
X2009821Y1624318D02*
Y1626092D01*
X2009826Y1624318D02*
Y1626092D01*
X2009831Y1624318D02*
Y1626092D01*
X2009836Y1624318D02*
Y1626092D01*
X2009841Y1624318D02*
Y1626092D01*
X2009846Y1624318D02*
Y1626092D01*
X2009851Y1624318D02*
Y1626092D01*
X2009856Y1624318D02*
Y1626092D01*
X2009861Y1624318D02*
Y1626092D01*
X2009866Y1624318D02*
Y1626092D01*
X2009871Y1624318D02*
Y1626092D01*
X2009876Y1624318D02*
Y1626092D01*
X2009881Y1624318D02*
Y1626092D01*
X2009886Y1624318D02*
Y1626092D01*
X2009891Y1624318D02*
Y1626092D01*
X2009896Y1624318D02*
Y1626092D01*
X2009901Y1624318D02*
Y1626092D01*
X2009906Y1624318D02*
Y1626092D01*
X2009911Y1624318D02*
Y1626092D01*
X2009916Y1624318D02*
Y1626092D01*
X2009921Y1624318D02*
Y1626092D01*
X2009926Y1624318D02*
Y1626092D01*
X2009931Y1624318D02*
Y1626092D01*
X2009936Y1624318D02*
Y1626092D01*
X2009941Y1624318D02*
Y1626092D01*
X2009946Y1624318D02*
Y1626092D01*
X2009951Y1624318D02*
Y1626092D01*
X2009956Y1624318D02*
Y1626092D01*
X2009961Y1624318D02*
Y1626092D01*
X2009966Y1624318D02*
Y1626092D01*
X2009971Y1624318D02*
Y1626092D01*
X2009976Y1624318D02*
Y1626092D01*
X2009981Y1624318D02*
Y1626092D01*
X2009986Y1624318D02*
Y1626092D01*
X2009991Y1624318D02*
Y1626092D01*
X2009996Y1624318D02*
Y1626092D01*
X2010001Y1624318D02*
Y1626092D01*
X2010006Y1624318D02*
Y1626092D01*
X2010011Y1624318D02*
Y1626092D01*
X2010016Y1624318D02*
Y1626092D01*
X2010021Y1624318D02*
Y1626092D01*
X2010026Y1624318D02*
Y1626092D01*
X2010031Y1624318D02*
Y1626092D01*
X2010036Y1624318D02*
Y1626092D01*
X2010041Y1624318D02*
Y1626092D01*
X2010046Y1624318D02*
Y1626092D01*
X2010051Y1624318D02*
Y1626092D01*
X2010056Y1624318D02*
Y1626092D01*
X2010061Y1624318D02*
Y1626092D01*
X2010066Y1624318D02*
Y1626092D01*
X2010071Y1624318D02*
Y1626092D01*
X2010076Y1624318D02*
Y1626092D01*
X2010081Y1624318D02*
Y1626092D01*
X2010086Y1624318D02*
Y1626092D01*
X2010091Y1624318D02*
Y1626092D01*
X2010096Y1624318D02*
Y1626092D01*
X2010101Y1624318D02*
Y1626092D01*
X2010106Y1624318D02*
Y1626092D01*
X2010111Y1624318D02*
Y1626092D01*
X2010116Y1624318D02*
Y1626092D01*
X2010121Y1624318D02*
Y1626092D01*
X2010126Y1624318D02*
Y1626092D01*
X2010131Y1624318D02*
Y1626092D01*
X2010136Y1624318D02*
Y1626092D01*
X2010141Y1624318D02*
Y1626092D01*
X2010146Y1624318D02*
Y1626092D01*
X2010151Y1624318D02*
Y1626092D01*
X2010156Y1624318D02*
Y1626092D01*
X2010161Y1624318D02*
Y1626092D01*
X2010166Y1624318D02*
Y1626092D01*
X2010171Y1624318D02*
Y1626092D01*
X2010176Y1624318D02*
Y1626092D01*
X2010181Y1624318D02*
Y1626092D01*
X2010186Y1624318D02*
Y1626092D01*
X2010191Y1624318D02*
Y1626092D01*
X2010196Y1624318D02*
Y1626092D01*
X2010201Y1624318D02*
Y1626092D01*
X2010206Y1624318D02*
Y1626092D01*
X2010211Y1624318D02*
Y1626092D01*
X2010216Y1624318D02*
Y1626092D01*
X2010221Y1624318D02*
Y1626092D01*
X2010226Y1624318D02*
Y1626092D01*
X2010231Y1624318D02*
Y1626092D01*
X2010236Y1624318D02*
Y1626092D01*
X2010241Y1624318D02*
Y1626092D01*
X2010246Y1624318D02*
Y1626092D01*
X2010251Y1624318D02*
Y1626092D01*
X2010256Y1624318D02*
Y1626092D01*
X2010261Y1624318D02*
Y1626092D01*
X2010266Y1624318D02*
Y1626092D01*
X2010271Y1624318D02*
Y1626092D01*
X2010276Y1624318D02*
Y1626092D01*
X2010281Y1624318D02*
Y1626092D01*
X2010286Y1624318D02*
Y1626092D01*
X2010291Y1624318D02*
Y1626092D01*
X2010296Y1624318D02*
Y1626092D01*
X2010301Y1624318D02*
Y1626092D01*
X2010306Y1624318D02*
Y1626092D01*
X2010311Y1624318D02*
Y1626092D01*
X2010316Y1624318D02*
Y1626092D01*
X2010321Y1624318D02*
Y1626092D01*
X2010326Y1624318D02*
Y1626092D01*
X2010331Y1624318D02*
Y1626092D01*
X2010336Y1624318D02*
Y1626092D01*
X2010341Y1624318D02*
Y1626092D01*
X2010346Y1624318D02*
Y1626092D01*
X2010351Y1624318D02*
Y1626092D01*
X2010356Y1624318D02*
Y1626092D01*
X2010361Y1624318D02*
Y1626092D01*
X2010366Y1624318D02*
Y1626092D01*
X2010371Y1624318D02*
Y1626092D01*
X2010376Y1624318D02*
Y1626092D01*
X2010381Y1624318D02*
Y1626092D01*
X2010386Y1624318D02*
Y1626092D01*
X2010391Y1624318D02*
Y1626092D01*
X2010396Y1624318D02*
Y1626092D01*
X2010401Y1624318D02*
Y1626092D01*
X2010406Y1624318D02*
Y1626092D01*
X2010411Y1624318D02*
Y1626092D01*
X2010416Y1624318D02*
Y1626092D01*
X2010421Y1624318D02*
Y1626092D01*
X2010426Y1624318D02*
Y1626092D01*
X2010431Y1624318D02*
Y1626092D01*
X2010436Y1624318D02*
Y1626092D01*
X2010441Y1624318D02*
Y1626092D01*
X2010446Y1624318D02*
Y1626092D01*
X2010451Y1624318D02*
Y1626092D01*
X2010456Y1624318D02*
Y1626092D01*
X2010461Y1624318D02*
Y1626092D01*
X2010466Y1624318D02*
Y1626092D01*
X2010471Y1624318D02*
Y1626092D01*
X2010476Y1624318D02*
Y1626092D01*
X2010481Y1624318D02*
Y1626092D01*
X2010486Y1624318D02*
Y1626092D01*
X2010491Y1624318D02*
Y1626092D01*
X2010496Y1624318D02*
Y1626092D01*
X2010501Y1624318D02*
Y1626092D01*
X2010506Y1624318D02*
Y1626092D01*
X2010511Y1624318D02*
Y1626091D01*
X2010516Y1624319D02*
Y1626091D01*
X2010521Y1624319D02*
Y1626091D01*
X2010526Y1624319D02*
Y1626090D01*
X2010531Y1624320D02*
Y1626090D01*
X2010536Y1624320D02*
Y1626089D01*
X2010541Y1624321D02*
Y1626088D01*
X2010546Y1624322D02*
Y1626088D01*
X2010551Y1624322D02*
Y1626087D01*
X2010556Y1624323D02*
Y1626086D01*
X2010561Y1624324D02*
Y1626085D01*
X2010566Y1624325D02*
Y1626084D01*
X2010571Y1624326D02*
Y1626083D01*
X2010576Y1624327D02*
Y1626082D01*
X2010581Y1624328D02*
Y1626081D01*
X2010586Y1624329D02*
Y1626080D01*
X2010591Y1624331D02*
Y1626079D01*
X2010596Y1624332D02*
Y1626077D01*
X2010601Y1624334D02*
Y1626076D01*
X2010606Y1624335D02*
Y1626074D01*
X2010611Y1624337D02*
Y1626073D01*
X2010616Y1624338D02*
Y1626071D01*
X2010621Y1624340D02*
Y1626069D01*
X2010626Y1624342D02*
Y1626068D01*
X2010631Y1624344D02*
Y1626066D01*
X2010636Y1624346D02*
Y1626064D01*
X2010641Y1624348D02*
Y1626062D01*
X2010646Y1624350D02*
Y1626060D01*
X2010651Y1624352D02*
Y1626058D01*
X2010656Y1624354D02*
Y1626055D01*
X2010661Y1624357D02*
Y1626053D01*
X2010666Y1624359D02*
Y1626050D01*
X2010671Y1624362D02*
Y1626048D01*
X2010676Y1624364D02*
Y1626045D01*
X2010681Y1624367D02*
Y1626043D01*
X2010686Y1624370D02*
Y1626040D01*
X2010691Y1624373D02*
Y1626037D01*
X2010696Y1624376D02*
Y1626034D01*
X2010701Y1624379D02*
Y1626031D01*
X2010706Y1624382D02*
Y1626028D01*
X2010711Y1624385D02*
Y1626024D01*
X2010716Y1624389D02*
Y1626021D01*
X2010721Y1624392D02*
Y1626017D01*
X2010726Y1624396D02*
Y1626014D01*
X2010731Y1624400D02*
Y1626010D01*
X2010736Y1624404D02*
Y1626006D01*
X2010741Y1624408D02*
Y1626002D01*
X2010746Y1624412D02*
Y1625998D01*
X2010751Y1624416D02*
Y1625993D01*
X2010756Y1624421D02*
Y1625989D01*
X2010761Y1624425D02*
Y1625984D01*
X2010766Y1624430D02*
Y1625979D01*
X2010771Y1624435D02*
Y1625974D01*
X2010776Y1624440D02*
Y1625969D01*
X2010781Y1624445D02*
Y1625964D01*
X2010786Y1624451D02*
Y1625958D01*
X2010791Y1624457D02*
Y1625953D01*
X2010796Y1624463D02*
Y1625947D01*
X2010801Y1624469D02*
Y1625940D01*
X2010806Y1624476D02*
Y1625934D01*
X2010811Y1624482D02*
Y1625927D01*
X2010816Y1624490D02*
Y1625920D01*
X2010821Y1624497D02*
Y1625912D01*
X2010826Y1624505D02*
Y1625905D01*
X2010831Y1624513D02*
Y1625896D01*
X2010836Y1624522D02*
Y1625887D01*
X2010841Y1624531D02*
Y1625878D01*
X2010846Y1624542D02*
Y1625868D01*
X2010851Y1624552D02*
Y1625857D01*
X2010856Y1624564D02*
Y1625845D01*
X2010861Y1624577D02*
Y1625833D01*
X2010866Y1624591D02*
Y1625818D01*
X2010871Y1624608D02*
Y1625801D01*
X2010876Y1624629D02*
Y1625781D01*
X2010881Y1624657D02*
Y1625753D01*
X2008520Y1628000D02*
Y1627984D01*
X2008521Y1627969*
X2008523Y1627953*
X2008525Y1627938*
X2008527Y1627923*
X2008531Y1627908*
X2008535Y1627893*
X2008539Y1627878*
X2008544Y1627863*
X2008550Y1627849*
X2008556Y1627835*
X2008563Y1627821*
X2008570Y1627807*
X2008578Y1627794*
X2008586Y1627780*
X2008595Y1627768*
X2008605Y1627755*
X2008614Y1627743*
X2008614D02*
X2008625Y1627732D01*
X2008636Y1627721*
X2009364Y1626992*
X2009375Y1626982*
X2009387Y1626971*
X2009399Y1626961*
X2009411Y1626952*
X2009424Y1626943*
X2009437Y1626935*
X2009450Y1626927*
X2009464Y1626920*
X2009478Y1626913*
X2009492Y1626907*
X2009506Y1626901*
X2009521Y1626896*
X2009536Y1626891*
X2009551Y1626888*
X2009566Y1626884*
X2009581Y1626882*
X2009597Y1626879*
X2009612Y1626878*
X2009628Y1626877*
X2009643*
X2010490*
X2010506*
X2010521Y1626878*
X2010537Y1626879*
X2010552Y1626882*
X2010567Y1626884*
X2010582Y1626888*
X2010597Y1626891*
X2010612Y1626896*
X2010627Y1626901*
X2010641Y1626907*
X2010656Y1626913*
X2010669Y1626920*
X2010683Y1626927*
X2010697Y1626935*
X2010710Y1626943*
X2010722Y1626952*
X2010735Y1626961*
X2010747Y1626971*
X2010758Y1626982*
X2010769Y1626992*
X2010780Y1627004*
X2010791Y1627015*
X2010800Y1627027*
X2010810Y1627039*
X2010819Y1627052*
X2010827Y1627065*
X2010835Y1627079*
X2010842Y1627092*
X2010849Y1627106*
X2010855Y1627120*
X2010861Y1627135*
X2010866Y1627150*
X2010870Y1627164*
X2010874Y1627179*
X2010878Y1627195*
X2010880Y1627210*
X2010882Y1627225*
X2010884Y1627241*
X2010885Y1627256*
Y1627272*
Y1628256*
Y1628271*
X2010884Y1628287*
X2010882Y1628302*
X2010880Y1628318*
X2010878Y1628333*
X2010874Y1628348*
X2010870Y1628363*
X2010866Y1628378*
X2010861Y1628393*
X2010855Y1628407*
X2010849Y1628421*
X2010842Y1628435*
X2010835Y1628449*
X2010827Y1628462*
X2010819Y1628475*
X2010810Y1628488*
X2010800Y1628500*
X2010791Y1628512*
X2010780Y1628524*
X2010769Y1628535*
X2010758Y1628546*
X2010747Y1628556*
X2010735Y1628566*
X2010722Y1628575*
X2010710Y1628584*
X2010697Y1628593*
X2010683Y1628601*
X2010669Y1628608*
X2010656Y1628615*
X2010641Y1628621*
X2010627Y1628626*
X2010612Y1628632*
X2010597Y1628636*
X2010582Y1628640*
X2010567Y1628643*
X2010552Y1628646*
X2010537Y1628648*
X2010521Y1628650*
X2010506Y1628651*
X2010490*
X2008915*
X2008899*
X2008884Y1628650*
X2008868Y1628648*
X2008853Y1628646*
X2008838Y1628643*
X2008823Y1628640*
X2008808Y1628636*
X2008793Y1628632*
X2008778Y1628626*
X2008764Y1628621*
X2008749Y1628615*
X2008736Y1628608*
X2008722Y1628601*
X2008708Y1628593*
X2008695Y1628584*
X2008683Y1628575*
X2008670Y1628566*
X2008658Y1628556*
X2008647Y1628546*
X2008636Y1628535*
X2008625Y1628524*
X2008614Y1628512*
X2008614D02*
X2008605Y1628500D01*
X2008595Y1628488*
X2008586Y1628475*
X2008578Y1628462*
X2008570Y1628449*
X2008563Y1628435*
X2008556Y1628421*
X2008550Y1628407*
X2008544Y1628393*
X2008539Y1628378*
X2008535Y1628363*
X2008531Y1628348*
X2008527Y1628333*
X2008525Y1628318*
X2008523Y1628302*
X2008521Y1628287*
X2008520Y1628271*
Y1628256*
Y1628000*
X2008521Y1627969D02*
Y1628287D01*
X2008526Y1627930D02*
Y1628325D01*
X2008531Y1627906D02*
Y1628349D01*
X2008536Y1627888D02*
Y1628368D01*
X2008541Y1627872D02*
Y1628383D01*
X2008546Y1627859D02*
Y1628397D01*
X2008551Y1627846D02*
Y1628410D01*
X2008556Y1627835D02*
Y1628421D01*
X2008561Y1627824D02*
Y1628432D01*
X2008566Y1627815D02*
Y1628441D01*
X2008571Y1627805D02*
Y1628450D01*
X2008576Y1627797D02*
Y1628459D01*
X2008581Y1627789D02*
Y1628467D01*
X2008586Y1627781D02*
Y1628475D01*
X2008591Y1627774D02*
Y1628482D01*
X2008596Y1627767D02*
Y1628489D01*
X2008601Y1627760D02*
Y1628496D01*
X2008606Y1627754D02*
Y1628502D01*
X2008611Y1627748D02*
Y1628508D01*
X2008616Y1627742D02*
Y1628514D01*
X2008621Y1627736D02*
Y1628520D01*
X2008626Y1627730D02*
Y1628525D01*
X2008631Y1627725D02*
Y1628531D01*
X2008636Y1627720D02*
Y1628536D01*
X2008641Y1627715D02*
Y1628541D01*
X2008646Y1627710D02*
Y1628545D01*
X2008651Y1627705D02*
Y1628550D01*
X2008656Y1627700D02*
Y1628554D01*
X2008661Y1627695D02*
Y1628559D01*
X2008666Y1627690D02*
Y1628563D01*
X2008671Y1627685D02*
Y1628567D01*
X2008676Y1627680D02*
Y1628570D01*
X2008681Y1627675D02*
Y1628574D01*
X2008686Y1627670D02*
Y1628578D01*
X2008691Y1627665D02*
Y1628581D01*
X2008696Y1627660D02*
Y1628585D01*
X2008701Y1627655D02*
Y1628588D01*
X2008706Y1627650D02*
Y1628591D01*
X2008711Y1627645D02*
Y1628594D01*
X2008716Y1627640D02*
Y1628597D01*
X2008721Y1627635D02*
Y1628600D01*
X2008726Y1627630D02*
Y1628603D01*
X2008731Y1627625D02*
Y1628605D01*
X2008736Y1627620D02*
Y1628608D01*
X2008741Y1627615D02*
Y1628611D01*
X2008746Y1627610D02*
Y1628613D01*
X2008751Y1627605D02*
Y1628615D01*
X2008756Y1627600D02*
Y1628618D01*
X2008761Y1627595D02*
Y1628620D01*
X2008766Y1627590D02*
Y1628622D01*
X2008771Y1627585D02*
Y1628624D01*
X2008776Y1627580D02*
Y1628626D01*
X2008781Y1627575D02*
Y1628628D01*
X2008786Y1627570D02*
Y1628629D01*
X2008791Y1627565D02*
Y1628631D01*
X2008796Y1627560D02*
Y1628633D01*
X2008801Y1627555D02*
Y1628634D01*
X2008806Y1627550D02*
Y1628636D01*
X2008811Y1627545D02*
Y1628637D01*
X2008816Y1627540D02*
Y1628638D01*
X2008821Y1627535D02*
Y1628640D01*
X2008826Y1627530D02*
Y1628641D01*
X2008831Y1627525D02*
Y1628642D01*
X2008836Y1627520D02*
Y1628643D01*
X2008841Y1627515D02*
Y1628644D01*
X2008846Y1627510D02*
Y1628645D01*
X2008851Y1627505D02*
Y1628646D01*
X2008856Y1627500D02*
Y1628646D01*
X2008861Y1627495D02*
Y1628647D01*
X2008866Y1627490D02*
Y1628648D01*
X2008871Y1627485D02*
Y1628648D01*
X2008876Y1627480D02*
Y1628649D01*
X2008881Y1627475D02*
Y1628649D01*
X2008886Y1627470D02*
Y1628650D01*
X2008891Y1627465D02*
Y1628650D01*
X2008896Y1627460D02*
Y1628650D01*
X2008901Y1627455D02*
Y1628651D01*
X2008906Y1627450D02*
Y1628651D01*
X2008911Y1627445D02*
Y1628651D01*
X2008916Y1627440D02*
Y1628651D01*
X2008921Y1627435D02*
Y1628651D01*
X2008926Y1627430D02*
Y1628651D01*
X2008931Y1627425D02*
Y1628651D01*
X2008936Y1627420D02*
Y1628651D01*
X2008941Y1627415D02*
Y1628651D01*
X2008946Y1627410D02*
Y1628651D01*
X2008951Y1627405D02*
Y1628651D01*
X2008956Y1627400D02*
Y1628651D01*
X2008961Y1627395D02*
Y1628651D01*
X2008966Y1627390D02*
Y1628651D01*
X2008971Y1627385D02*
Y1628651D01*
X2008976Y1627380D02*
Y1628651D01*
X2008981Y1627375D02*
Y1628651D01*
X2008986Y1627370D02*
Y1628651D01*
X2008991Y1627365D02*
Y1628651D01*
X2008996Y1627360D02*
Y1628651D01*
X2009001Y1627355D02*
Y1628651D01*
X2009006Y1627350D02*
Y1628651D01*
X2009011Y1627345D02*
Y1628651D01*
X2009016Y1627340D02*
Y1628651D01*
X2009021Y1627335D02*
Y1628651D01*
X2009026Y1627330D02*
Y1628651D01*
X2009031Y1627325D02*
Y1628651D01*
X2009036Y1627320D02*
Y1628651D01*
X2009041Y1627315D02*
Y1628651D01*
X2009046Y1627310D02*
Y1628651D01*
X2009051Y1627305D02*
Y1628651D01*
X2009056Y1627300D02*
Y1628651D01*
X2009061Y1627295D02*
Y1628651D01*
X2009066Y1627290D02*
Y1628651D01*
X2009071Y1627285D02*
Y1628651D01*
X2009076Y1627280D02*
Y1628651D01*
X2009081Y1627275D02*
Y1628651D01*
X2009086Y1627270D02*
Y1628651D01*
X2009091Y1627265D02*
Y1628651D01*
X2009096Y1627260D02*
Y1628651D01*
X2009101Y1627255D02*
Y1628651D01*
X2009106Y1627250D02*
Y1628651D01*
X2009111Y1627245D02*
Y1628651D01*
X2009116Y1627240D02*
Y1628651D01*
X2009121Y1627235D02*
Y1628651D01*
X2009126Y1627230D02*
Y1628651D01*
X2009131Y1627225D02*
Y1628651D01*
X2009136Y1627220D02*
Y1628651D01*
X2009141Y1627215D02*
Y1628651D01*
X2009146Y1627210D02*
Y1628651D01*
X2009151Y1627205D02*
Y1628651D01*
X2009156Y1627200D02*
Y1628651D01*
X2009161Y1627195D02*
Y1628651D01*
X2009166Y1627190D02*
Y1628651D01*
X2009171Y1627185D02*
Y1628651D01*
X2009176Y1627180D02*
Y1628651D01*
X2009181Y1627175D02*
Y1628651D01*
X2009186Y1627170D02*
Y1628651D01*
X2009191Y1627165D02*
Y1628651D01*
X2009196Y1627160D02*
Y1628651D01*
X2009201Y1627155D02*
Y1628651D01*
X2009206Y1627150D02*
Y1628651D01*
X2009211Y1627145D02*
Y1628651D01*
X2009216Y1627140D02*
Y1628651D01*
X2009221Y1627135D02*
Y1628651D01*
X2009226Y1627130D02*
Y1628651D01*
X2009231Y1627125D02*
Y1628651D01*
X2009236Y1627120D02*
Y1628651D01*
X2009241Y1627115D02*
Y1628651D01*
X2009246Y1627110D02*
Y1628651D01*
X2009251Y1627105D02*
Y1628651D01*
X2009256Y1627100D02*
Y1628651D01*
X2009261Y1627095D02*
Y1628651D01*
X2009266Y1627090D02*
Y1628651D01*
X2009271Y1627085D02*
Y1628651D01*
X2009276Y1627080D02*
Y1628651D01*
X2009281Y1627075D02*
Y1628651D01*
X2009286Y1627070D02*
Y1628651D01*
X2009291Y1627065D02*
Y1628651D01*
X2009296Y1627060D02*
Y1628651D01*
X2009301Y1627055D02*
Y1628651D01*
X2009306Y1627050D02*
Y1628651D01*
X2009311Y1627045D02*
Y1628651D01*
X2009316Y1627040D02*
Y1628651D01*
X2009321Y1627035D02*
Y1628651D01*
X2009326Y1627030D02*
Y1628651D01*
X2009331Y1627025D02*
Y1628651D01*
X2009336Y1627020D02*
Y1628651D01*
X2009341Y1627015D02*
Y1628651D01*
X2009346Y1627010D02*
Y1628651D01*
X2009351Y1627005D02*
Y1628651D01*
X2009356Y1627000D02*
Y1628651D01*
X2009361Y1626995D02*
Y1628651D01*
X2009366Y1626990D02*
Y1628651D01*
X2009371Y1626985D02*
Y1628651D01*
X2009376Y1626981D02*
Y1628651D01*
X2009381Y1626976D02*
Y1628651D01*
X2009386Y1626972D02*
Y1628651D01*
X2009391Y1626968D02*
Y1628651D01*
X2009396Y1626963D02*
Y1628651D01*
X2009401Y1626960D02*
Y1628651D01*
X2009406Y1626956D02*
Y1628651D01*
X2009411Y1626952D02*
Y1628651D01*
X2009416Y1626948D02*
Y1628651D01*
X2009421Y1626945D02*
Y1628651D01*
X2009426Y1626942D02*
Y1628651D01*
X2009431Y1626938D02*
Y1628651D01*
X2009436Y1626935D02*
Y1628651D01*
X2009441Y1626932D02*
Y1628651D01*
X2009446Y1626929D02*
Y1628651D01*
X2009451Y1626926D02*
Y1628651D01*
X2009456Y1626924D02*
Y1628651D01*
X2009461Y1626921D02*
Y1628651D01*
X2009466Y1626919D02*
Y1628651D01*
X2009471Y1626916D02*
Y1628651D01*
X2009476Y1626914D02*
Y1628651D01*
X2009481Y1626911D02*
Y1628651D01*
X2009486Y1626909D02*
Y1628651D01*
X2009491Y1626907D02*
Y1628651D01*
X2009496Y1626905D02*
Y1628651D01*
X2009501Y1626903D02*
Y1628651D01*
X2009506Y1626901D02*
Y1628651D01*
X2009511Y1626899D02*
Y1628651D01*
X2009516Y1626898D02*
Y1628651D01*
X2009521Y1626896D02*
Y1628651D01*
X2009526Y1626894D02*
Y1628651D01*
X2009531Y1626893D02*
Y1628651D01*
X2009536Y1626891D02*
Y1628651D01*
X2009541Y1626890D02*
Y1628651D01*
X2009546Y1626889D02*
Y1628651D01*
X2009551Y1626888D02*
Y1628651D01*
X2009556Y1626886D02*
Y1628651D01*
X2009561Y1626885D02*
Y1628651D01*
X2009566Y1626884D02*
Y1628651D01*
X2009571Y1626883D02*
Y1628651D01*
X2009576Y1626882D02*
Y1628651D01*
X2009581Y1626882D02*
Y1628651D01*
X2009586Y1626881D02*
Y1628651D01*
X2009591Y1626880D02*
Y1628651D01*
X2009596Y1626879D02*
Y1628651D01*
X2009601Y1626879D02*
Y1628651D01*
X2009606Y1626878D02*
Y1628651D01*
X2009611Y1626878D02*
Y1628651D01*
X2009616Y1626878D02*
Y1628651D01*
X2009621Y1626877D02*
Y1628651D01*
X2009626Y1626877D02*
Y1628651D01*
X2009631Y1626877D02*
Y1628651D01*
X2009636Y1626877D02*
Y1628651D01*
X2009641Y1626877D02*
Y1628651D01*
X2009646Y1626877D02*
Y1628651D01*
X2009651Y1626877D02*
Y1628651D01*
X2009656Y1626877D02*
Y1628651D01*
X2009661Y1626877D02*
Y1628651D01*
X2009666Y1626877D02*
Y1628651D01*
X2009671Y1626877D02*
Y1628651D01*
X2009676Y1626877D02*
Y1628651D01*
X2009681Y1626877D02*
Y1628651D01*
X2009686Y1626877D02*
Y1628651D01*
X2009691Y1626877D02*
Y1628651D01*
X2009696Y1626877D02*
Y1628651D01*
X2009701Y1626877D02*
Y1628651D01*
X2009706Y1626877D02*
Y1628651D01*
X2009711Y1626877D02*
Y1628651D01*
X2009716Y1626877D02*
Y1628651D01*
X2009721Y1626877D02*
Y1628651D01*
X2009726Y1626877D02*
Y1628651D01*
X2009731Y1626877D02*
Y1628651D01*
X2009736Y1626877D02*
Y1628651D01*
X2009741Y1626877D02*
Y1628651D01*
X2009746Y1626877D02*
Y1628651D01*
X2009751Y1626877D02*
Y1628651D01*
X2009756Y1626877D02*
Y1628651D01*
X2009761Y1626877D02*
Y1628651D01*
X2009766Y1626877D02*
Y1628651D01*
X2009771Y1626877D02*
Y1628651D01*
X2009776Y1626877D02*
Y1628651D01*
X2009781Y1626877D02*
Y1628651D01*
X2009786Y1626877D02*
Y1628651D01*
X2009791Y1626877D02*
Y1628651D01*
X2009796Y1626877D02*
Y1628651D01*
X2009801Y1626877D02*
Y1628651D01*
X2009806Y1626877D02*
Y1628651D01*
X2009811Y1626877D02*
Y1628651D01*
X2009816Y1626877D02*
Y1628651D01*
X2009821Y1626877D02*
Y1628651D01*
X2009826Y1626877D02*
Y1628651D01*
X2009831Y1626877D02*
Y1628651D01*
X2009836Y1626877D02*
Y1628651D01*
X2009841Y1626877D02*
Y1628651D01*
X2009846Y1626877D02*
Y1628651D01*
X2009851Y1626877D02*
Y1628651D01*
X2009856Y1626877D02*
Y1628651D01*
X2009861Y1626877D02*
Y1628651D01*
X2009866Y1626877D02*
Y1628651D01*
X2009871Y1626877D02*
Y1628651D01*
X2009876Y1626877D02*
Y1628651D01*
X2009881Y1626877D02*
Y1628651D01*
X2009886Y1626877D02*
Y1628651D01*
X2009891Y1626877D02*
Y1628651D01*
X2009896Y1626877D02*
Y1628651D01*
X2009901Y1626877D02*
Y1628651D01*
X2009906Y1626877D02*
Y1628651D01*
X2009911Y1626877D02*
Y1628651D01*
X2009916Y1626877D02*
Y1628651D01*
X2009921Y1626877D02*
Y1628651D01*
X2009926Y1626877D02*
Y1628651D01*
X2009931Y1626877D02*
Y1628651D01*
X2009936Y1626877D02*
Y1628651D01*
X2009941Y1626877D02*
Y1628651D01*
X2009946Y1626877D02*
Y1628651D01*
X2009951Y1626877D02*
Y1628651D01*
X2009956Y1626877D02*
Y1628651D01*
X2009961Y1626877D02*
Y1628651D01*
X2009966Y1626877D02*
Y1628651D01*
X2009971Y1626877D02*
Y1628651D01*
X2009976Y1626877D02*
Y1628651D01*
X2009981Y1626877D02*
Y1628651D01*
X2009986Y1626877D02*
Y1628651D01*
X2009991Y1626877D02*
Y1628651D01*
X2009996Y1626877D02*
Y1628651D01*
X2010001Y1626877D02*
Y1628651D01*
X2010006Y1626877D02*
Y1628651D01*
X2010011Y1626877D02*
Y1628651D01*
X2010016Y1626877D02*
Y1628651D01*
X2010021Y1626877D02*
Y1628651D01*
X2010026Y1626877D02*
Y1628651D01*
X2010031Y1626877D02*
Y1628651D01*
X2010036Y1626877D02*
Y1628651D01*
X2010041Y1626877D02*
Y1628651D01*
X2010046Y1626877D02*
Y1628651D01*
X2010051Y1626877D02*
Y1628651D01*
X2010056Y1626877D02*
Y1628651D01*
X2010061Y1626877D02*
Y1628651D01*
X2010066Y1626877D02*
Y1628651D01*
X2010071Y1626877D02*
Y1628651D01*
X2010076Y1626877D02*
Y1628651D01*
X2010081Y1626877D02*
Y1628651D01*
X2010086Y1626877D02*
Y1628651D01*
X2010091Y1626877D02*
Y1628651D01*
X2010096Y1626877D02*
Y1628651D01*
X2010101Y1626877D02*
Y1628651D01*
X2010106Y1626877D02*
Y1628651D01*
X2010111Y1626877D02*
Y1628651D01*
X2010116Y1626877D02*
Y1628651D01*
X2010121Y1626877D02*
Y1628651D01*
X2010126Y1626877D02*
Y1628651D01*
X2010131Y1626877D02*
Y1628651D01*
X2010136Y1626877D02*
Y1628651D01*
X2010141Y1626877D02*
Y1628651D01*
X2010146Y1626877D02*
Y1628651D01*
X2010151Y1626877D02*
Y1628651D01*
X2010156Y1626877D02*
Y1628651D01*
X2010161Y1626877D02*
Y1628651D01*
X2010166Y1626877D02*
Y1628651D01*
X2010171Y1626877D02*
Y1628651D01*
X2010176Y1626877D02*
Y1628651D01*
X2010181Y1626877D02*
Y1628651D01*
X2010186Y1626877D02*
Y1628651D01*
X2010191Y1626877D02*
Y1628651D01*
X2010196Y1626877D02*
Y1628651D01*
X2010201Y1626877D02*
Y1628651D01*
X2010206Y1626877D02*
Y1628651D01*
X2010211Y1626877D02*
Y1628651D01*
X2010216Y1626877D02*
Y1628651D01*
X2010221Y1626877D02*
Y1628651D01*
X2010226Y1626877D02*
Y1628651D01*
X2010231Y1626877D02*
Y1628651D01*
X2010236Y1626877D02*
Y1628651D01*
X2010241Y1626877D02*
Y1628651D01*
X2010246Y1626877D02*
Y1628651D01*
X2010251Y1626877D02*
Y1628651D01*
X2010256Y1626877D02*
Y1628651D01*
X2010261Y1626877D02*
Y1628651D01*
X2010266Y1626877D02*
Y1628651D01*
X2010271Y1626877D02*
Y1628651D01*
X2010276Y1626877D02*
Y1628651D01*
X2010281Y1626877D02*
Y1628651D01*
X2010286Y1626877D02*
Y1628651D01*
X2010291Y1626877D02*
Y1628651D01*
X2010296Y1626877D02*
Y1628651D01*
X2010301Y1626877D02*
Y1628651D01*
X2010306Y1626877D02*
Y1628651D01*
X2010311Y1626877D02*
Y1628651D01*
X2010316Y1626877D02*
Y1628651D01*
X2010321Y1626877D02*
Y1628651D01*
X2010326Y1626877D02*
Y1628651D01*
X2010331Y1626877D02*
Y1628651D01*
X2010336Y1626877D02*
Y1628651D01*
X2010341Y1626877D02*
Y1628651D01*
X2010346Y1626877D02*
Y1628651D01*
X2010351Y1626877D02*
Y1628651D01*
X2010356Y1626877D02*
Y1628651D01*
X2010361Y1626877D02*
Y1628651D01*
X2010366Y1626877D02*
Y1628651D01*
X2010371Y1626877D02*
Y1628651D01*
X2010376Y1626877D02*
Y1628651D01*
X2010381Y1626877D02*
Y1628651D01*
X2010386Y1626877D02*
Y1628651D01*
X2010391Y1626877D02*
Y1628651D01*
X2010396Y1626877D02*
Y1628651D01*
X2010401Y1626877D02*
Y1628651D01*
X2010406Y1626877D02*
Y1628651D01*
X2010411Y1626877D02*
Y1628651D01*
X2010416Y1626877D02*
Y1628651D01*
X2010421Y1626877D02*
Y1628651D01*
X2010426Y1626877D02*
Y1628651D01*
X2010431Y1626877D02*
Y1628651D01*
X2010436Y1626877D02*
Y1628651D01*
X2010441Y1626877D02*
Y1628651D01*
X2010446Y1626877D02*
Y1628651D01*
X2010451Y1626877D02*
Y1628651D01*
X2010456Y1626877D02*
Y1628651D01*
X2010461Y1626877D02*
Y1628651D01*
X2010466Y1626877D02*
Y1628651D01*
X2010471Y1626877D02*
Y1628651D01*
X2010476Y1626877D02*
Y1628651D01*
X2010481Y1626877D02*
Y1628651D01*
X2010486Y1626877D02*
Y1628651D01*
X2010491Y1626877D02*
Y1628651D01*
X2010496Y1626877D02*
Y1628651D01*
X2010501Y1626877D02*
Y1628651D01*
X2010506Y1626877D02*
Y1628651D01*
X2010511Y1626877D02*
Y1628650D01*
X2010516Y1626878D02*
Y1628650D01*
X2010521Y1626878D02*
Y1628650D01*
X2010526Y1626878D02*
Y1628649D01*
X2010531Y1626879D02*
Y1628649D01*
X2010536Y1626879D02*
Y1628648D01*
X2010541Y1626880D02*
Y1628648D01*
X2010546Y1626881D02*
Y1628647D01*
X2010551Y1626881D02*
Y1628646D01*
X2010556Y1626882D02*
Y1628645D01*
X2010561Y1626883D02*
Y1628644D01*
X2010566Y1626884D02*
Y1628644D01*
X2010571Y1626885D02*
Y1628642D01*
X2010576Y1626886D02*
Y1628641D01*
X2010581Y1626887D02*
Y1628640D01*
X2010586Y1626889D02*
Y1628639D01*
X2010591Y1626890D02*
Y1628638D01*
X2010596Y1626891D02*
Y1628636D01*
X2010601Y1626893D02*
Y1628635D01*
X2010606Y1626894D02*
Y1628633D01*
X2010611Y1626896D02*
Y1628632D01*
X2010616Y1626897D02*
Y1628630D01*
X2010621Y1626899D02*
Y1628628D01*
X2010626Y1626901D02*
Y1628627D01*
X2010631Y1626903D02*
Y1628625D01*
X2010636Y1626905D02*
Y1628623D01*
X2010641Y1626907D02*
Y1628621D01*
X2010646Y1626909D02*
Y1628619D01*
X2010651Y1626911D02*
Y1628617D01*
X2010656Y1626913D02*
Y1628614D01*
X2010661Y1626916D02*
Y1628612D01*
X2010666Y1626918D02*
Y1628609D01*
X2010671Y1626921D02*
Y1628607D01*
X2010676Y1626923D02*
Y1628604D01*
X2010681Y1626926D02*
Y1628602D01*
X2010686Y1626929D02*
Y1628599D01*
X2010691Y1626932D02*
Y1628596D01*
X2010696Y1626935D02*
Y1628593D01*
X2010701Y1626938D02*
Y1628590D01*
X2010706Y1626941D02*
Y1628587D01*
X2010711Y1626944D02*
Y1628583D01*
X2010716Y1626948D02*
Y1628580D01*
X2010721Y1626951D02*
Y1628576D01*
X2010726Y1626955D02*
Y1628573D01*
X2010731Y1626959D02*
Y1628569D01*
X2010736Y1626963D02*
Y1628565D01*
X2010741Y1626967D02*
Y1628561D01*
X2010746Y1626971D02*
Y1628557D01*
X2010751Y1626975D02*
Y1628552D01*
X2010756Y1626980D02*
Y1628548D01*
X2010761Y1626984D02*
Y1628543D01*
X2010766Y1626989D02*
Y1628538D01*
X2010771Y1626994D02*
Y1628534D01*
X2010776Y1626999D02*
Y1628528D01*
X2010781Y1627005D02*
Y1628523D01*
X2010786Y1627010D02*
Y1628517D01*
X2010791Y1627016D02*
Y1628512D01*
X2010796Y1627022D02*
Y1628506D01*
X2010801Y1627028D02*
Y1628499D01*
X2010806Y1627035D02*
Y1628493D01*
X2010811Y1627041D02*
Y1628486D01*
X2010816Y1627049D02*
Y1628479D01*
X2010821Y1627056D02*
Y1628471D01*
X2010826Y1627064D02*
Y1628464D01*
X2010831Y1627072D02*
Y1628455D01*
X2010836Y1627081D02*
Y1628446D01*
X2010841Y1627090D02*
Y1628437D01*
X2010846Y1627101D02*
Y1628427D01*
X2010851Y1627111D02*
Y1628416D01*
X2010856Y1627123D02*
Y1628404D01*
X2010861Y1627136D02*
Y1628392D01*
X2010866Y1627151D02*
Y1628377D01*
X2010871Y1627167D02*
Y1628360D01*
X2010876Y1627188D02*
Y1628340D01*
X2010881Y1627216D02*
Y1628312D01*
X2004977Y1627272D02*
Y1627256D01*
X2004978Y1627241*
X2004980Y1627225*
X2004982Y1627210*
X2004985Y1627195*
X2004988Y1627179*
X2004992Y1627164*
X2004996Y1627150*
X2005001Y1627135*
X2005007Y1627120*
X2005013Y1627106*
X2005020Y1627092*
X2005027Y1627079*
X2005035Y1627065*
X2005044Y1627052*
X2005052Y1627039*
X2005062Y1627027*
X2005072Y1627015*
X2005082Y1627004*
X2005093Y1626992*
X2005104Y1626982*
X2005116Y1626971*
X2005128Y1626961*
X2005140Y1626952*
X2005153Y1626943*
X2005166Y1626935*
X2005179Y1626927*
X2005193Y1626920*
X2005207Y1626913*
X2005221Y1626907*
X2005235Y1626901*
X2005250Y1626896*
X2005265Y1626891*
X2005280Y1626888*
X2005295Y1626884*
X2005310Y1626882*
X2005326Y1626879*
X2005341Y1626878*
X2005357Y1626877*
X2005372*
X2006219*
X2006234*
X2006249Y1626878*
X2006265Y1626879*
X2006280Y1626882*
X2006296Y1626884*
X2006311Y1626888*
X2006326Y1626891*
X2006341Y1626896*
X2006355Y1626901*
X2006370Y1626907*
X2006384Y1626913*
X2006398Y1626920*
X2006412Y1626927*
X2006425Y1626935*
X2006438Y1626943*
X2006451Y1626952*
X2006463Y1626961*
X2006475Y1626971*
X2006487Y1626982*
X2006498Y1626992*
X2007226Y1627721*
X2007237Y1627732*
X2007247Y1627743*
X2007257Y1627755*
X2007266Y1627768*
X2007275Y1627781*
X2007284Y1627794*
X2007291Y1627807*
X2007299Y1627821*
X2007306Y1627835*
X2007312Y1627849*
X2007317Y1627863*
X2007323Y1627878*
X2007327Y1627893*
X2007331Y1627908*
X2007334Y1627923*
X2007337Y1627938*
X2007339Y1627954*
X2007341Y1627969*
X2007342Y1627984*
Y1628000*
Y1628256*
Y1628271*
X2007341Y1628287*
X2007339Y1628302*
X2007337Y1628318*
X2007334Y1628333*
X2007331Y1628348*
X2007327Y1628363*
X2007323Y1628378*
X2007317Y1628393*
X2007312Y1628407*
X2007306Y1628421*
X2007299Y1628435*
X2007291Y1628449*
X2007284Y1628462*
X2007275Y1628475*
X2007266Y1628488*
X2007257Y1628500*
X2007247Y1628512*
X2007237Y1628524*
X2007226Y1628535*
X2007215Y1628546*
X2007203Y1628556*
X2007191Y1628566*
X2007179Y1628575*
X2007166Y1628584*
X2007153Y1628593*
X2007140Y1628601*
X2007126Y1628608*
X2007112Y1628615*
X2007098Y1628621*
X2007084Y1628626*
X2007069Y1628632*
X2007054Y1628636*
X2007039Y1628640*
X2007024Y1628643*
X2007009Y1628646*
X2006993Y1628648*
X2006978Y1628650*
X2006962Y1628651*
X2006947*
X2005372*
X2005357*
X2005341Y1628650*
X2005326Y1628648*
X2005310Y1628646*
X2005295Y1628643*
X2005280Y1628640*
X2005265Y1628636*
X2005250Y1628632*
X2005235Y1628626*
X2005221Y1628621*
X2005207Y1628615*
X2005193Y1628608*
X2005179Y1628601*
X2005166Y1628593*
X2005153Y1628584*
X2005140Y1628575*
X2005128Y1628566*
X2005116Y1628556*
X2005104Y1628546*
X2005093Y1628535*
X2005082Y1628524*
X2005072Y1628512*
X2005062Y1628500*
X2005052Y1628488*
X2005044Y1628475*
X2005035Y1628462*
X2005027Y1628449*
X2005020Y1628435*
X2005013Y1628421*
X2005007Y1628407*
X2005001Y1628393*
X2004996Y1628378*
X2004992Y1628363*
X2004988Y1628348*
X2004985Y1628333*
X2004982Y1628318*
X2004980Y1628302*
X2004978Y1628287*
X2004977Y1628271*
Y1628256*
Y1627272*
X2004981Y1627216D02*
Y1628312D01*
X2004986Y1627188D02*
Y1628340D01*
X2004991Y1627167D02*
Y1628360D01*
X2004996Y1627151D02*
Y1628377D01*
X2005001Y1627136D02*
Y1628392D01*
X2005006Y1627123D02*
Y1628404D01*
X2005011Y1627111D02*
Y1628416D01*
X2005016Y1627101D02*
Y1628427D01*
X2005021Y1627090D02*
Y1628437D01*
X2005026Y1627081D02*
Y1628446D01*
X2005031Y1627072D02*
Y1628455D01*
X2005036Y1627064D02*
Y1628464D01*
X2005041Y1627056D02*
Y1628471D01*
X2005046Y1627049D02*
Y1628479D01*
X2005051Y1627041D02*
Y1628486D01*
X2005056Y1627035D02*
Y1628493D01*
X2005061Y1627028D02*
Y1628499D01*
X2005066Y1627022D02*
Y1628506D01*
X2005071Y1627016D02*
Y1628512D01*
X2005076Y1627010D02*
Y1628517D01*
X2005081Y1627005D02*
Y1628523D01*
X2005086Y1626999D02*
Y1628528D01*
X2005091Y1626994D02*
Y1628534D01*
X2005096Y1626989D02*
Y1628538D01*
X2005101Y1626984D02*
Y1628543D01*
X2005106Y1626980D02*
Y1628548D01*
X2005111Y1626975D02*
Y1628552D01*
X2005116Y1626971D02*
Y1628557D01*
X2005121Y1626967D02*
Y1628561D01*
X2005126Y1626963D02*
Y1628565D01*
X2005131Y1626959D02*
Y1628569D01*
X2005136Y1626955D02*
Y1628573D01*
X2005141Y1626951D02*
Y1628576D01*
X2005146Y1626948D02*
Y1628580D01*
X2005151Y1626944D02*
Y1628583D01*
X2005156Y1626941D02*
Y1628587D01*
X2005161Y1626938D02*
Y1628590D01*
X2005166Y1626935D02*
Y1628593D01*
X2005171Y1626932D02*
Y1628596D01*
X2005176Y1626929D02*
Y1628599D01*
X2005181Y1626926D02*
Y1628602D01*
X2005186Y1626923D02*
Y1628604D01*
X2005191Y1626921D02*
Y1628607D01*
X2005196Y1626918D02*
Y1628609D01*
X2005201Y1626916D02*
Y1628612D01*
X2005206Y1626913D02*
Y1628614D01*
X2005211Y1626911D02*
Y1628617D01*
X2005216Y1626909D02*
Y1628619D01*
X2005221Y1626907D02*
Y1628621D01*
X2005226Y1626905D02*
Y1628623D01*
X2005231Y1626903D02*
Y1628625D01*
X2005236Y1626901D02*
Y1628627D01*
X2005241Y1626899D02*
Y1628628D01*
X2005246Y1626897D02*
Y1628630D01*
X2005251Y1626896D02*
Y1628632D01*
X2005256Y1626894D02*
Y1628633D01*
X2005261Y1626893D02*
Y1628635D01*
X2005266Y1626891D02*
Y1628636D01*
X2005271Y1626890D02*
Y1628638D01*
X2005276Y1626889D02*
Y1628639D01*
X2005281Y1626887D02*
Y1628640D01*
X2005286Y1626886D02*
Y1628641D01*
X2005291Y1626885D02*
Y1628642D01*
X2005296Y1626884D02*
Y1628644D01*
X2005301Y1626883D02*
Y1628644D01*
X2005306Y1626882D02*
Y1628645D01*
X2005311Y1626881D02*
Y1628646D01*
X2005316Y1626881D02*
Y1628647D01*
X2005321Y1626880D02*
Y1628648D01*
X2005326Y1626879D02*
Y1628648D01*
X2005331Y1626879D02*
Y1628649D01*
X2005336Y1626878D02*
Y1628649D01*
X2005341Y1626878D02*
Y1628650D01*
X2005346Y1626878D02*
Y1628650D01*
X2005351Y1626877D02*
Y1628650D01*
X2005356Y1626877D02*
Y1628651D01*
X2005361Y1626877D02*
Y1628651D01*
X2005366Y1626877D02*
Y1628651D01*
X2005371Y1626877D02*
Y1628651D01*
X2005376Y1626877D02*
Y1628651D01*
X2005381Y1626877D02*
Y1628651D01*
X2005386Y1626877D02*
Y1628651D01*
X2005391Y1626877D02*
Y1628651D01*
X2005396Y1626877D02*
Y1628651D01*
X2005401Y1626877D02*
Y1628651D01*
X2005406Y1626877D02*
Y1628651D01*
X2005411Y1626877D02*
Y1628651D01*
X2005416Y1626877D02*
Y1628651D01*
X2005421Y1626877D02*
Y1628651D01*
X2005426Y1626877D02*
Y1628651D01*
X2005431Y1626877D02*
Y1628651D01*
X2005436Y1626877D02*
Y1628651D01*
X2005441Y1626877D02*
Y1628651D01*
X2005446Y1626877D02*
Y1628651D01*
X2005451Y1626877D02*
Y1628651D01*
X2005456Y1626877D02*
Y1628651D01*
X2005461Y1626877D02*
Y1628651D01*
X2005466Y1626877D02*
Y1628651D01*
X2005471Y1626877D02*
Y1628651D01*
X2005476Y1626877D02*
Y1628651D01*
X2005481Y1626877D02*
Y1628651D01*
X2005486Y1626877D02*
Y1628651D01*
X2005491Y1626877D02*
Y1628651D01*
X2005496Y1626877D02*
Y1628651D01*
X2005501Y1626877D02*
Y1628651D01*
X2005506Y1626877D02*
Y1628651D01*
X2005511Y1626877D02*
Y1628651D01*
X2005516Y1626877D02*
Y1628651D01*
X2005521Y1626877D02*
Y1628651D01*
X2005526Y1626877D02*
Y1628651D01*
X2005531Y1626877D02*
Y1628651D01*
X2005536Y1626877D02*
Y1628651D01*
X2005541Y1626877D02*
Y1628651D01*
X2005546Y1626877D02*
Y1628651D01*
X2005551Y1626877D02*
Y1628651D01*
X2005556Y1626877D02*
Y1628651D01*
X2005561Y1626877D02*
Y1628651D01*
X2005566Y1626877D02*
Y1628651D01*
X2005571Y1626877D02*
Y1628651D01*
X2005576Y1626877D02*
Y1628651D01*
X2005581Y1626877D02*
Y1628651D01*
X2005586Y1626877D02*
Y1628651D01*
X2005591Y1626877D02*
Y1628651D01*
X2005596Y1626877D02*
Y1628651D01*
X2005601Y1626877D02*
Y1628651D01*
X2005606Y1626877D02*
Y1628651D01*
X2005611Y1626877D02*
Y1628651D01*
X2005616Y1626877D02*
Y1628651D01*
X2005621Y1626877D02*
Y1628651D01*
X2005626Y1626877D02*
Y1628651D01*
X2005631Y1626877D02*
Y1628651D01*
X2005636Y1626877D02*
Y1628651D01*
X2005641Y1626877D02*
Y1628651D01*
X2005646Y1626877D02*
Y1628651D01*
X2005651Y1626877D02*
Y1628651D01*
X2005656Y1626877D02*
Y1628651D01*
X2005661Y1626877D02*
Y1628651D01*
X2005666Y1626877D02*
Y1628651D01*
X2005671Y1626877D02*
Y1628651D01*
X2005676Y1626877D02*
Y1628651D01*
X2005681Y1626877D02*
Y1628651D01*
X2005686Y1626877D02*
Y1628651D01*
X2005691Y1626877D02*
Y1628651D01*
X2005696Y1626877D02*
Y1628651D01*
X2005701Y1626877D02*
Y1628651D01*
X2005706Y1626877D02*
Y1628651D01*
X2005711Y1626877D02*
Y1628651D01*
X2005716Y1626877D02*
Y1628651D01*
X2005721Y1626877D02*
Y1628651D01*
X2005726Y1626877D02*
Y1628651D01*
X2005731Y1626877D02*
Y1628651D01*
X2005736Y1626877D02*
Y1628651D01*
X2005741Y1626877D02*
Y1628651D01*
X2005746Y1626877D02*
Y1628651D01*
X2005751Y1626877D02*
Y1628651D01*
X2005756Y1626877D02*
Y1628651D01*
X2005761Y1626877D02*
Y1628651D01*
X2005766Y1626877D02*
Y1628651D01*
X2005771Y1626877D02*
Y1628651D01*
X2005776Y1626877D02*
Y1628651D01*
X2005781Y1626877D02*
Y1628651D01*
X2005786Y1626877D02*
Y1628651D01*
X2005791Y1626877D02*
Y1628651D01*
X2005796Y1626877D02*
Y1628651D01*
X2005801Y1626877D02*
Y1628651D01*
X2005806Y1626877D02*
Y1628651D01*
X2005811Y1626877D02*
Y1628651D01*
X2005816Y1626877D02*
Y1628651D01*
X2005821Y1626877D02*
Y1628651D01*
X2005826Y1626877D02*
Y1628651D01*
X2005831Y1626877D02*
Y1628651D01*
X2005836Y1626877D02*
Y1628651D01*
X2005841Y1626877D02*
Y1628651D01*
X2005846Y1626877D02*
Y1628651D01*
X2005851Y1626877D02*
Y1628651D01*
X2005856Y1626877D02*
Y1628651D01*
X2005861Y1626877D02*
Y1628651D01*
X2005866Y1626877D02*
Y1628651D01*
X2005871Y1626877D02*
Y1628651D01*
X2005876Y1626877D02*
Y1628651D01*
X2005881Y1626877D02*
Y1628651D01*
X2005886Y1626877D02*
Y1628651D01*
X2005891Y1626877D02*
Y1628651D01*
X2005896Y1626877D02*
Y1628651D01*
X2005901Y1626877D02*
Y1628651D01*
X2005906Y1626877D02*
Y1628651D01*
X2005911Y1626877D02*
Y1628651D01*
X2005916Y1626877D02*
Y1628651D01*
X2005921Y1626877D02*
Y1628651D01*
X2005926Y1626877D02*
Y1628651D01*
X2005931Y1626877D02*
Y1628651D01*
X2005936Y1626877D02*
Y1628651D01*
X2005941Y1626877D02*
Y1628651D01*
X2005946Y1626877D02*
Y1628651D01*
X2005951Y1626877D02*
Y1628651D01*
X2005956Y1626877D02*
Y1628651D01*
X2005961Y1626877D02*
Y1628651D01*
X2005966Y1626877D02*
Y1628651D01*
X2005971Y1626877D02*
Y1628651D01*
X2005976Y1626877D02*
Y1628651D01*
X2005981Y1626877D02*
Y1628651D01*
X2005986Y1626877D02*
Y1628651D01*
X2005991Y1626877D02*
Y1628651D01*
X2005996Y1626877D02*
Y1628651D01*
X2006001Y1626877D02*
Y1628651D01*
X2006006Y1626877D02*
Y1628651D01*
X2006011Y1626877D02*
Y1628651D01*
X2006016Y1626877D02*
Y1628651D01*
X2006021Y1626877D02*
Y1628651D01*
X2006026Y1626877D02*
Y1628651D01*
X2006031Y1626877D02*
Y1628651D01*
X2006036Y1626877D02*
Y1628651D01*
X2006041Y1626877D02*
Y1628651D01*
X2006046Y1626877D02*
Y1628651D01*
X2006051Y1626877D02*
Y1628651D01*
X2006056Y1626877D02*
Y1628651D01*
X2006061Y1626877D02*
Y1628651D01*
X2006066Y1626877D02*
Y1628651D01*
X2006071Y1626877D02*
Y1628651D01*
X2006076Y1626877D02*
Y1628651D01*
X2006081Y1626877D02*
Y1628651D01*
X2006086Y1626877D02*
Y1628651D01*
X2006091Y1626877D02*
Y1628651D01*
X2006096Y1626877D02*
Y1628651D01*
X2006101Y1626877D02*
Y1628651D01*
X2006106Y1626877D02*
Y1628651D01*
X2006111Y1626877D02*
Y1628651D01*
X2006116Y1626877D02*
Y1628651D01*
X2006121Y1626877D02*
Y1628651D01*
X2006126Y1626877D02*
Y1628651D01*
X2006131Y1626877D02*
Y1628651D01*
X2006136Y1626877D02*
Y1628651D01*
X2006141Y1626877D02*
Y1628651D01*
X2006146Y1626877D02*
Y1628651D01*
X2006151Y1626877D02*
Y1628651D01*
X2006156Y1626877D02*
Y1628651D01*
X2006161Y1626877D02*
Y1628651D01*
X2006166Y1626877D02*
Y1628651D01*
X2006171Y1626877D02*
Y1628651D01*
X2006176Y1626877D02*
Y1628651D01*
X2006181Y1626877D02*
Y1628651D01*
X2006186Y1626877D02*
Y1628651D01*
X2006191Y1626877D02*
Y1628651D01*
X2006196Y1626877D02*
Y1628651D01*
X2006201Y1626877D02*
Y1628651D01*
X2006206Y1626877D02*
Y1628651D01*
X2006211Y1626877D02*
Y1628651D01*
X2006216Y1626877D02*
Y1628651D01*
X2006221Y1626877D02*
Y1628651D01*
X2006226Y1626877D02*
Y1628651D01*
X2006231Y1626877D02*
Y1628651D01*
X2006236Y1626877D02*
Y1628651D01*
X2006241Y1626877D02*
Y1628651D01*
X2006246Y1626878D02*
Y1628651D01*
X2006251Y1626878D02*
Y1628651D01*
X2006256Y1626879D02*
Y1628651D01*
X2006261Y1626879D02*
Y1628651D01*
X2006266Y1626880D02*
Y1628651D01*
X2006271Y1626880D02*
Y1628651D01*
X2006276Y1626881D02*
Y1628651D01*
X2006281Y1626882D02*
Y1628651D01*
X2006286Y1626883D02*
Y1628651D01*
X2006291Y1626883D02*
Y1628651D01*
X2006296Y1626884D02*
Y1628651D01*
X2006301Y1626885D02*
Y1628651D01*
X2006306Y1626887D02*
Y1628651D01*
X2006311Y1626888D02*
Y1628651D01*
X2006316Y1626889D02*
Y1628651D01*
X2006321Y1626890D02*
Y1628651D01*
X2006326Y1626892D02*
Y1628651D01*
X2006331Y1626893D02*
Y1628651D01*
X2006336Y1626895D02*
Y1628651D01*
X2006341Y1626896D02*
Y1628651D01*
X2006346Y1626898D02*
Y1628651D01*
X2006351Y1626900D02*
Y1628651D01*
X2006356Y1626901D02*
Y1628651D01*
X2006361Y1626903D02*
Y1628651D01*
X2006366Y1626905D02*
Y1628651D01*
X2006371Y1626907D02*
Y1628651D01*
X2006376Y1626910D02*
Y1628651D01*
X2006381Y1626912D02*
Y1628651D01*
X2006386Y1626914D02*
Y1628651D01*
X2006391Y1626916D02*
Y1628651D01*
X2006396Y1626919D02*
Y1628651D01*
X2006401Y1626921D02*
Y1628651D01*
X2006406Y1626924D02*
Y1628651D01*
X2006411Y1626927D02*
Y1628651D01*
X2006416Y1626930D02*
Y1628651D01*
X2006421Y1626933D02*
Y1628651D01*
X2006426Y1626936D02*
Y1628651D01*
X2006431Y1626939D02*
Y1628651D01*
X2006436Y1626942D02*
Y1628651D01*
X2006441Y1626945D02*
Y1628651D01*
X2006446Y1626949D02*
Y1628651D01*
X2006451Y1626952D02*
Y1628651D01*
X2006456Y1626956D02*
Y1628651D01*
X2006461Y1626960D02*
Y1628651D01*
X2006466Y1626964D02*
Y1628651D01*
X2006471Y1626968D02*
Y1628651D01*
X2006476Y1626972D02*
Y1628651D01*
X2006481Y1626977D02*
Y1628651D01*
X2006486Y1626981D02*
Y1628651D01*
X2006491Y1626986D02*
Y1628651D01*
X2006496Y1626991D02*
Y1628651D01*
X2006501Y1626996D02*
Y1628651D01*
X2006506Y1627001D02*
Y1628651D01*
X2006511Y1627006D02*
Y1628651D01*
X2006516Y1627011D02*
Y1628651D01*
X2006521Y1627016D02*
Y1628651D01*
X2006526Y1627021D02*
Y1628651D01*
X2006531Y1627026D02*
Y1628651D01*
X2006536Y1627031D02*
Y1628651D01*
X2006541Y1627036D02*
Y1628651D01*
X2006546Y1627041D02*
Y1628651D01*
X2006551Y1627046D02*
Y1628651D01*
X2006556Y1627051D02*
Y1628651D01*
X2006561Y1627056D02*
Y1628651D01*
X2006566Y1627061D02*
Y1628651D01*
X2006571Y1627066D02*
Y1628651D01*
X2006576Y1627071D02*
Y1628651D01*
X2006581Y1627076D02*
Y1628651D01*
X2006586Y1627081D02*
Y1628651D01*
X2006591Y1627086D02*
Y1628651D01*
X2006596Y1627091D02*
Y1628651D01*
X2006601Y1627096D02*
Y1628651D01*
X2006606Y1627101D02*
Y1628651D01*
X2006611Y1627106D02*
Y1628651D01*
X2006616Y1627111D02*
Y1628651D01*
X2006621Y1627116D02*
Y1628651D01*
X2006626Y1627121D02*
Y1628651D01*
X2006631Y1627126D02*
Y1628651D01*
X2006636Y1627131D02*
Y1628651D01*
X2006641Y1627136D02*
Y1628651D01*
X2006646Y1627141D02*
Y1628651D01*
X2006651Y1627146D02*
Y1628651D01*
X2006656Y1627151D02*
Y1628651D01*
X2006661Y1627156D02*
Y1628651D01*
X2006666Y1627161D02*
Y1628651D01*
X2006671Y1627166D02*
Y1628651D01*
X2006676Y1627171D02*
Y1628651D01*
X2006681Y1627176D02*
Y1628651D01*
X2006686Y1627181D02*
Y1628651D01*
X2006691Y1627186D02*
Y1628651D01*
X2006696Y1627191D02*
Y1628651D01*
X2006701Y1627196D02*
Y1628651D01*
X2006706Y1627201D02*
Y1628651D01*
X2006711Y1627206D02*
Y1628651D01*
X2006716Y1627211D02*
Y1628651D01*
X2006721Y1627216D02*
Y1628651D01*
X2006726Y1627221D02*
Y1628651D01*
X2006731Y1627226D02*
Y1628651D01*
X2006736Y1627231D02*
Y1628651D01*
X2006741Y1627236D02*
Y1628651D01*
X2006746Y1627241D02*
Y1628651D01*
X2006751Y1627246D02*
Y1628651D01*
X2006756Y1627251D02*
Y1628651D01*
X2006761Y1627256D02*
Y1628651D01*
X2006766Y1627261D02*
Y1628651D01*
X2006771Y1627266D02*
Y1628651D01*
X2006776Y1627271D02*
Y1628651D01*
X2006781Y1627276D02*
Y1628651D01*
X2006786Y1627281D02*
Y1628651D01*
X2006791Y1627286D02*
Y1628651D01*
X2006796Y1627291D02*
Y1628651D01*
X2006801Y1627296D02*
Y1628651D01*
X2006806Y1627301D02*
Y1628651D01*
X2006811Y1627306D02*
Y1628651D01*
X2006816Y1627311D02*
Y1628651D01*
X2006821Y1627316D02*
Y1628651D01*
X2006826Y1627321D02*
Y1628651D01*
X2006831Y1627326D02*
Y1628651D01*
X2006836Y1627331D02*
Y1628651D01*
X2006841Y1627336D02*
Y1628651D01*
X2006846Y1627341D02*
Y1628651D01*
X2006851Y1627346D02*
Y1628651D01*
X2006856Y1627351D02*
Y1628651D01*
X2006861Y1627356D02*
Y1628651D01*
X2006866Y1627361D02*
Y1628651D01*
X2006871Y1627366D02*
Y1628651D01*
X2006876Y1627371D02*
Y1628651D01*
X2006881Y1627376D02*
Y1628651D01*
X2006886Y1627381D02*
Y1628651D01*
X2006891Y1627386D02*
Y1628651D01*
X2006896Y1627391D02*
Y1628651D01*
X2006901Y1627396D02*
Y1628651D01*
X2006906Y1627401D02*
Y1628651D01*
X2006911Y1627406D02*
Y1628651D01*
X2006916Y1627411D02*
Y1628651D01*
X2006921Y1627416D02*
Y1628651D01*
X2006926Y1627421D02*
Y1628651D01*
X2006931Y1627426D02*
Y1628651D01*
X2006936Y1627431D02*
Y1628651D01*
X2006941Y1627436D02*
Y1628651D01*
X2006946Y1627441D02*
Y1628651D01*
X2006951Y1627446D02*
Y1628651D01*
X2006956Y1627451D02*
Y1628651D01*
X2006961Y1627456D02*
Y1628651D01*
X2006966Y1627461D02*
Y1628650D01*
X2006971Y1627466D02*
Y1628650D01*
X2006976Y1627471D02*
Y1628650D01*
X2006981Y1627476D02*
Y1628649D01*
X2006986Y1627481D02*
Y1628649D01*
X2006991Y1627486D02*
Y1628648D01*
X2006996Y1627491D02*
Y1628648D01*
X2007001Y1627496D02*
Y1628647D01*
X2007006Y1627501D02*
Y1628646D01*
X2007011Y1627506D02*
Y1628646D01*
X2007016Y1627511D02*
Y1628645D01*
X2007021Y1627516D02*
Y1628644D01*
X2007026Y1627521D02*
Y1628643D01*
X2007031Y1627526D02*
Y1628642D01*
X2007036Y1627531D02*
Y1628641D01*
X2007041Y1627536D02*
Y1628639D01*
X2007046Y1627541D02*
Y1628638D01*
X2007051Y1627546D02*
Y1628637D01*
X2007056Y1627551D02*
Y1628635D01*
X2007061Y1627556D02*
Y1628634D01*
X2007066Y1627561D02*
Y1628632D01*
X2007071Y1627566D02*
Y1628631D01*
X2007076Y1627571D02*
Y1628629D01*
X2007081Y1627576D02*
Y1628627D01*
X2007086Y1627581D02*
Y1628625D01*
X2007091Y1627586D02*
Y1628624D01*
X2007096Y1627591D02*
Y1628622D01*
X2007101Y1627596D02*
Y1628619D01*
X2007106Y1627601D02*
Y1628617D01*
X2007111Y1627606D02*
Y1628615D01*
X2007116Y1627611D02*
Y1628613D01*
X2007121Y1627616D02*
Y1628610D01*
X2007126Y1627621D02*
Y1628608D01*
X2007131Y1627626D02*
Y1628605D01*
X2007136Y1627631D02*
Y1628603D01*
X2007141Y1627636D02*
Y1628600D01*
X2007146Y1627641D02*
Y1628597D01*
X2007151Y1627646D02*
Y1628594D01*
X2007156Y1627651D02*
Y1628591D01*
X2007161Y1627656D02*
Y1628588D01*
X2007166Y1627661D02*
Y1628584D01*
X2007171Y1627666D02*
Y1628581D01*
X2007176Y1627671D02*
Y1628578D01*
X2007181Y1627676D02*
Y1628574D01*
X2007186Y1627681D02*
Y1628570D01*
X2007191Y1627686D02*
Y1628566D01*
X2007196Y1627691D02*
Y1628562D01*
X2007201Y1627696D02*
Y1628558D01*
X2007206Y1627701D02*
Y1628554D01*
X2007211Y1627706D02*
Y1628549D01*
X2007216Y1627711D02*
Y1628545D01*
X2007221Y1627716D02*
Y1628540D01*
X2007226Y1627721D02*
Y1628535D01*
X2007231Y1627726D02*
Y1628530D01*
X2007236Y1627731D02*
Y1628525D01*
X2007241Y1627737D02*
Y1628519D01*
X2007246Y1627742D02*
Y1628514D01*
X2007251Y1627748D02*
Y1628508D01*
X2007256Y1627754D02*
Y1628502D01*
X2007261Y1627761D02*
Y1628495D01*
X2007266Y1627767D02*
Y1628488D01*
X2007271Y1627775D02*
Y1628481D01*
X2007276Y1627782D02*
Y1628474D01*
X2007281Y1627790D02*
Y1628466D01*
X2007286Y1627798D02*
Y1628458D01*
X2007291Y1627806D02*
Y1628450D01*
X2007296Y1627816D02*
Y1628440D01*
X2007301Y1627825D02*
Y1628430D01*
X2007306Y1627836D02*
Y1628420D01*
X2007311Y1627847D02*
Y1628409D01*
X2007316Y1627860D02*
Y1628396D01*
X2007321Y1627874D02*
Y1628382D01*
X2007326Y1627890D02*
Y1628366D01*
X2007331Y1627909D02*
Y1628347D01*
X2007336Y1627933D02*
Y1628323D01*
X2007341Y1627977D02*
Y1628279D01*
X2004977Y1624713D02*
Y1624697D01*
X2004978Y1624682*
X2004980Y1624666*
X2004982Y1624651*
X2004985Y1624636*
X2004988Y1624620*
X2004992Y1624605*
X2004996Y1624591*
X2005001Y1624576*
X2005007Y1624561*
X2005013Y1624547*
X2005020Y1624533*
X2005027Y1624520*
X2005035Y1624506*
X2005044Y1624493*
X2005052Y1624480*
X2005062Y1624468*
X2005072Y1624456*
X2005082Y1624444*
X2005093Y1624433*
X2005104Y1624423*
X2005116Y1624412*
X2005128Y1624402*
X2005140Y1624393*
X2005153Y1624384*
X2005166Y1624376*
X2005179Y1624368*
X2005193Y1624361*
X2005207Y1624354*
X2005221Y1624348*
X2005235Y1624342*
X2005250Y1624337*
X2005265Y1624332*
X2005280Y1624329*
X2005295Y1624325*
X2005310Y1624322*
X2005326Y1624320*
X2005341Y1624319*
X2005357Y1624318*
X2005372*
X2006947*
X2006962*
X2006978Y1624319*
X2006993Y1624320*
X2007009Y1624322*
X2007024Y1624325*
X2007039Y1624329*
X2007054Y1624332*
X2007069Y1624337*
X2007084Y1624342*
X2007098Y1624348*
X2007112Y1624354*
X2007126Y1624361*
X2007140Y1624368*
X2007153Y1624376*
X2007166Y1624384*
X2007179Y1624393*
X2007191Y1624402*
X2007203Y1624412*
X2007215Y1624423*
X2007226Y1624433*
X2007237Y1624444*
X2007247Y1624456*
X2007257Y1624468*
X2007266Y1624480*
X2007275Y1624493*
X2007284Y1624506*
X2007291Y1624520*
X2007299Y1624533*
X2007306Y1624547*
X2007312Y1624561*
X2007317Y1624576*
X2007323Y1624591*
X2007327Y1624605*
X2007331Y1624620*
X2007334Y1624636*
X2007337Y1624651*
X2007339Y1624666*
X2007341Y1624682*
X2007342Y1624697*
Y1624713*
Y1624969*
Y1624984*
X2007341Y1624999*
X2007339Y1625015*
X2007337Y1625030*
X2007334Y1625046*
X2007331Y1625061*
X2007327Y1625076*
X2007323Y1625091*
X2007317Y1625105*
X2007312Y1625120*
X2007306Y1625134*
X2007299Y1625148*
X2007291Y1625162*
X2007284Y1625175*
X2007275Y1625188*
X2007266Y1625201*
X2007257Y1625213*
X2007247Y1625225*
X2007237Y1625237*
X2007226Y1625248*
X2006498Y1625976*
X2006487Y1625987*
X2006475Y1625997*
X2006463Y1626007*
X2006451Y1626016*
X2006438Y1626025*
X2006425Y1626034*
X2006412Y1626041*
X2006398Y1626049*
X2006384Y1626056*
X2006370Y1626062*
X2006355Y1626067*
X2006341Y1626073*
X2006326Y1626077*
X2006311Y1626081*
X2006296Y1626084*
X2006280Y1626087*
X2006265Y1626089*
X2006249Y1626091*
X2006234Y1626092*
X2006219*
X2005372*
X2005357*
X2005341Y1626091*
X2005326Y1626089*
X2005310Y1626087*
X2005295Y1626084*
X2005280Y1626081*
X2005265Y1626077*
X2005250Y1626073*
X2005235Y1626067*
X2005221Y1626062*
X2005207Y1626056*
X2005193Y1626049*
X2005179Y1626041*
X2005166Y1626034*
X2005153Y1626025*
X2005140Y1626016*
X2005128Y1626007*
X2005116Y1625997*
X2005104Y1625987*
X2005093Y1625976*
X2005082Y1625965*
X2005072Y1625953*
X2005062Y1625941*
X2005052Y1625929*
X2005044Y1625916*
X2005035Y1625903*
X2005027Y1625890*
X2005020Y1625876*
X2005013Y1625862*
X2005007Y1625848*
X2005001Y1625834*
X2004996Y1625819*
X2004992Y1625804*
X2004988Y1625789*
X2004985Y1625774*
X2004982Y1625759*
X2004980Y1625743*
X2004978Y1625728*
X2004977Y1625712*
Y1625697*
Y1624713*
X2004981Y1624657D02*
Y1625753D01*
X2004986Y1624629D02*
Y1625781D01*
X2004991Y1624608D02*
Y1625801D01*
X2004996Y1624591D02*
Y1625818D01*
X2005001Y1624577D02*
Y1625833D01*
X2005006Y1624564D02*
Y1625845D01*
X2005011Y1624552D02*
Y1625857D01*
X2005016Y1624542D02*
Y1625868D01*
X2005021Y1624531D02*
Y1625878D01*
X2005026Y1624522D02*
Y1625887D01*
X2005031Y1624513D02*
Y1625896D01*
X2005036Y1624505D02*
Y1625905D01*
X2005041Y1624497D02*
Y1625912D01*
X2005046Y1624490D02*
Y1625920D01*
X2005051Y1624482D02*
Y1625927D01*
X2005056Y1624476D02*
Y1625934D01*
X2005061Y1624469D02*
Y1625940D01*
X2005066Y1624463D02*
Y1625947D01*
X2005071Y1624457D02*
Y1625953D01*
X2005076Y1624451D02*
Y1625958D01*
X2005081Y1624445D02*
Y1625964D01*
X2005086Y1624440D02*
Y1625969D01*
X2005091Y1624435D02*
Y1625974D01*
X2005096Y1624430D02*
Y1625979D01*
X2005101Y1624425D02*
Y1625984D01*
X2005106Y1624421D02*
Y1625989D01*
X2005111Y1624416D02*
Y1625993D01*
X2005116Y1624412D02*
Y1625998D01*
X2005121Y1624408D02*
Y1626002D01*
X2005126Y1624404D02*
Y1626006D01*
X2005131Y1624400D02*
Y1626010D01*
X2005136Y1624396D02*
Y1626014D01*
X2005141Y1624392D02*
Y1626017D01*
X2005146Y1624389D02*
Y1626021D01*
X2005151Y1624385D02*
Y1626024D01*
X2005156Y1624382D02*
Y1626028D01*
X2005161Y1624379D02*
Y1626031D01*
X2005166Y1624376D02*
Y1626034D01*
X2005171Y1624373D02*
Y1626037D01*
X2005176Y1624370D02*
Y1626040D01*
X2005181Y1624367D02*
Y1626043D01*
X2005186Y1624364D02*
Y1626045D01*
X2005191Y1624362D02*
Y1626048D01*
X2005196Y1624359D02*
Y1626050D01*
X2005201Y1624357D02*
Y1626053D01*
X2005206Y1624354D02*
Y1626055D01*
X2005211Y1624352D02*
Y1626058D01*
X2005216Y1624350D02*
Y1626060D01*
X2005221Y1624348D02*
Y1626062D01*
X2005226Y1624346D02*
Y1626064D01*
X2005231Y1624344D02*
Y1626066D01*
X2005236Y1624342D02*
Y1626068D01*
X2005241Y1624340D02*
Y1626069D01*
X2005246Y1624338D02*
Y1626071D01*
X2005251Y1624337D02*
Y1626073D01*
X2005256Y1624335D02*
Y1626074D01*
X2005261Y1624334D02*
Y1626076D01*
X2005266Y1624332D02*
Y1626077D01*
X2005271Y1624331D02*
Y1626079D01*
X2005276Y1624329D02*
Y1626080D01*
X2005281Y1624328D02*
Y1626081D01*
X2005286Y1624327D02*
Y1626082D01*
X2005291Y1624326D02*
Y1626083D01*
X2005296Y1624325D02*
Y1626084D01*
X2005301Y1624324D02*
Y1626085D01*
X2005306Y1624323D02*
Y1626086D01*
X2005311Y1624322D02*
Y1626087D01*
X2005316Y1624322D02*
Y1626088D01*
X2005321Y1624321D02*
Y1626088D01*
X2005326Y1624320D02*
Y1626089D01*
X2005331Y1624320D02*
Y1626090D01*
X2005336Y1624319D02*
Y1626090D01*
X2005341Y1624319D02*
Y1626091D01*
X2005346Y1624319D02*
Y1626091D01*
X2005351Y1624318D02*
Y1626091D01*
X2005356Y1624318D02*
Y1626092D01*
X2005361Y1624318D02*
Y1626092D01*
X2005366Y1624318D02*
Y1626092D01*
X2005371Y1624318D02*
Y1626092D01*
X2005376Y1624318D02*
Y1626092D01*
X2005381Y1624318D02*
Y1626092D01*
X2005386Y1624318D02*
Y1626092D01*
X2005391Y1624318D02*
Y1626092D01*
X2005396Y1624318D02*
Y1626092D01*
X2005401Y1624318D02*
Y1626092D01*
X2005406Y1624318D02*
Y1626092D01*
X2005411Y1624318D02*
Y1626092D01*
X2005416Y1624318D02*
Y1626092D01*
X2005421Y1624318D02*
Y1626092D01*
X2005426Y1624318D02*
Y1626092D01*
X2005431Y1624318D02*
Y1626092D01*
X2005436Y1624318D02*
Y1626092D01*
X2005441Y1624318D02*
Y1626092D01*
X2005446Y1624318D02*
Y1626092D01*
X2005451Y1624318D02*
Y1626092D01*
X2005456Y1624318D02*
Y1626092D01*
X2005461Y1624318D02*
Y1626092D01*
X2005466Y1624318D02*
Y1626092D01*
X2005471Y1624318D02*
Y1626092D01*
X2005476Y1624318D02*
Y1626092D01*
X2005481Y1624318D02*
Y1626092D01*
X2005486Y1624318D02*
Y1626092D01*
X2005491Y1624318D02*
Y1626092D01*
X2005496Y1624318D02*
Y1626092D01*
X2005501Y1624318D02*
Y1626092D01*
X2005506Y1624318D02*
Y1626092D01*
X2005511Y1624318D02*
Y1626092D01*
X2005516Y1624318D02*
Y1626092D01*
X2005521Y1624318D02*
Y1626092D01*
X2005526Y1624318D02*
Y1626092D01*
X2005531Y1624318D02*
Y1626092D01*
X2005536Y1624318D02*
Y1626092D01*
X2005541Y1624318D02*
Y1626092D01*
X2005546Y1624318D02*
Y1626092D01*
X2005551Y1624318D02*
Y1626092D01*
X2005556Y1624318D02*
Y1626092D01*
X2005561Y1624318D02*
Y1626092D01*
X2005566Y1624318D02*
Y1626092D01*
X2005571Y1624318D02*
Y1626092D01*
X2005576Y1624318D02*
Y1626092D01*
X2005581Y1624318D02*
Y1626092D01*
X2005586Y1624318D02*
Y1626092D01*
X2005591Y1624318D02*
Y1626092D01*
X2005596Y1624318D02*
Y1626092D01*
X2005601Y1624318D02*
Y1626092D01*
X2005606Y1624318D02*
Y1626092D01*
X2005611Y1624318D02*
Y1626092D01*
X2005616Y1624318D02*
Y1626092D01*
X2005621Y1624318D02*
Y1626092D01*
X2005626Y1624318D02*
Y1626092D01*
X2005631Y1624318D02*
Y1626092D01*
X2005636Y1624318D02*
Y1626092D01*
X2005641Y1624318D02*
Y1626092D01*
X2005646Y1624318D02*
Y1626092D01*
X2005651Y1624318D02*
Y1626092D01*
X2005656Y1624318D02*
Y1626092D01*
X2005661Y1624318D02*
Y1626092D01*
X2005666Y1624318D02*
Y1626092D01*
X2005671Y1624318D02*
Y1626092D01*
X2005676Y1624318D02*
Y1626092D01*
X2005681Y1624318D02*
Y1626092D01*
X2005686Y1624318D02*
Y1626092D01*
X2005691Y1624318D02*
Y1626092D01*
X2005696Y1624318D02*
Y1626092D01*
X2005701Y1624318D02*
Y1626092D01*
X2005706Y1624318D02*
Y1626092D01*
X2005711Y1624318D02*
Y1626092D01*
X2005716Y1624318D02*
Y1626092D01*
X2005721Y1624318D02*
Y1626092D01*
X2005726Y1624318D02*
Y1626092D01*
X2005731Y1624318D02*
Y1626092D01*
X2005736Y1624318D02*
Y1626092D01*
X2005741Y1624318D02*
Y1626092D01*
X2005746Y1624318D02*
Y1626092D01*
X2005751Y1624318D02*
Y1626092D01*
X2005756Y1624318D02*
Y1626092D01*
X2005761Y1624318D02*
Y1626092D01*
X2005766Y1624318D02*
Y1626092D01*
X2005771Y1624318D02*
Y1626092D01*
X2005776Y1624318D02*
Y1626092D01*
X2005781Y1624318D02*
Y1626092D01*
X2005786Y1624318D02*
Y1626092D01*
X2005791Y1624318D02*
Y1626092D01*
X2005796Y1624318D02*
Y1626092D01*
X2005801Y1624318D02*
Y1626092D01*
X2005806Y1624318D02*
Y1626092D01*
X2005811Y1624318D02*
Y1626092D01*
X2005816Y1624318D02*
Y1626092D01*
X2005821Y1624318D02*
Y1626092D01*
X2005826Y1624318D02*
Y1626092D01*
X2005831Y1624318D02*
Y1626092D01*
X2005836Y1624318D02*
Y1626092D01*
X2005841Y1624318D02*
Y1626092D01*
X2005846Y1624318D02*
Y1626092D01*
X2005851Y1624318D02*
Y1626092D01*
X2005856Y1624318D02*
Y1626092D01*
X2005861Y1624318D02*
Y1626092D01*
X2005866Y1624318D02*
Y1626092D01*
X2005871Y1624318D02*
Y1626092D01*
X2005876Y1624318D02*
Y1626092D01*
X2005881Y1624318D02*
Y1626092D01*
X2005886Y1624318D02*
Y1626092D01*
X2005891Y1624318D02*
Y1626092D01*
X2005896Y1624318D02*
Y1626092D01*
X2005901Y1624318D02*
Y1626092D01*
X2005906Y1624318D02*
Y1626092D01*
X2005911Y1624318D02*
Y1626092D01*
X2005916Y1624318D02*
Y1626092D01*
X2005921Y1624318D02*
Y1626092D01*
X2005926Y1624318D02*
Y1626092D01*
X2005931Y1624318D02*
Y1626092D01*
X2005936Y1624318D02*
Y1626092D01*
X2005941Y1624318D02*
Y1626092D01*
X2005946Y1624318D02*
Y1626092D01*
X2005951Y1624318D02*
Y1626092D01*
X2005956Y1624318D02*
Y1626092D01*
X2005961Y1624318D02*
Y1626092D01*
X2005966Y1624318D02*
Y1626092D01*
X2005971Y1624318D02*
Y1626092D01*
X2005976Y1624318D02*
Y1626092D01*
X2005981Y1624318D02*
Y1626092D01*
X2005986Y1624318D02*
Y1626092D01*
X2005991Y1624318D02*
Y1626092D01*
X2005996Y1624318D02*
Y1626092D01*
X2006001Y1624318D02*
Y1626092D01*
X2006006Y1624318D02*
Y1626092D01*
X2006011Y1624318D02*
Y1626092D01*
X2006016Y1624318D02*
Y1626092D01*
X2006021Y1624318D02*
Y1626092D01*
X2006026Y1624318D02*
Y1626092D01*
X2006031Y1624318D02*
Y1626092D01*
X2006036Y1624318D02*
Y1626092D01*
X2006041Y1624318D02*
Y1626092D01*
X2006046Y1624318D02*
Y1626092D01*
X2006051Y1624318D02*
Y1626092D01*
X2006056Y1624318D02*
Y1626092D01*
X2006061Y1624318D02*
Y1626092D01*
X2006066Y1624318D02*
Y1626092D01*
X2006071Y1624318D02*
Y1626092D01*
X2006076Y1624318D02*
Y1626092D01*
X2006081Y1624318D02*
Y1626092D01*
X2006086Y1624318D02*
Y1626092D01*
X2006091Y1624318D02*
Y1626092D01*
X2006096Y1624318D02*
Y1626092D01*
X2006101Y1624318D02*
Y1626092D01*
X2006106Y1624318D02*
Y1626092D01*
X2006111Y1624318D02*
Y1626092D01*
X2006116Y1624318D02*
Y1626092D01*
X2006121Y1624318D02*
Y1626092D01*
X2006126Y1624318D02*
Y1626092D01*
X2006131Y1624318D02*
Y1626092D01*
X2006136Y1624318D02*
Y1626092D01*
X2006141Y1624318D02*
Y1626092D01*
X2006146Y1624318D02*
Y1626092D01*
X2006151Y1624318D02*
Y1626092D01*
X2006156Y1624318D02*
Y1626092D01*
X2006161Y1624318D02*
Y1626092D01*
X2006166Y1624318D02*
Y1626092D01*
X2006171Y1624318D02*
Y1626092D01*
X2006176Y1624318D02*
Y1626092D01*
X2006181Y1624318D02*
Y1626092D01*
X2006186Y1624318D02*
Y1626092D01*
X2006191Y1624318D02*
Y1626092D01*
X2006196Y1624318D02*
Y1626092D01*
X2006201Y1624318D02*
Y1626092D01*
X2006206Y1624318D02*
Y1626092D01*
X2006211Y1624318D02*
Y1626092D01*
X2006216Y1624318D02*
Y1626092D01*
X2006221Y1624318D02*
Y1626092D01*
X2006226Y1624318D02*
Y1626092D01*
X2006231Y1624318D02*
Y1626092D01*
X2006236Y1624318D02*
Y1626091D01*
X2006241Y1624318D02*
Y1626091D01*
X2006246Y1624318D02*
Y1626091D01*
X2006251Y1624318D02*
Y1626090D01*
X2006256Y1624318D02*
Y1626090D01*
X2006261Y1624318D02*
Y1626089D01*
X2006266Y1624318D02*
Y1626089D01*
X2006271Y1624318D02*
Y1626088D01*
X2006276Y1624318D02*
Y1626088D01*
X2006281Y1624318D02*
Y1626087D01*
X2006286Y1624318D02*
Y1626086D01*
X2006291Y1624318D02*
Y1626085D01*
X2006296Y1624318D02*
Y1626084D01*
X2006301Y1624318D02*
Y1626083D01*
X2006306Y1624318D02*
Y1626082D01*
X2006311Y1624318D02*
Y1626081D01*
X2006316Y1624318D02*
Y1626080D01*
X2006321Y1624318D02*
Y1626078D01*
X2006326Y1624318D02*
Y1626077D01*
X2006331Y1624318D02*
Y1626075D01*
X2006336Y1624318D02*
Y1626074D01*
X2006341Y1624318D02*
Y1626072D01*
X2006346Y1624318D02*
Y1626071D01*
X2006351Y1624318D02*
Y1626069D01*
X2006356Y1624318D02*
Y1626067D01*
X2006361Y1624318D02*
Y1626065D01*
X2006366Y1624318D02*
Y1626063D01*
X2006371Y1624318D02*
Y1626061D01*
X2006376Y1624318D02*
Y1626059D01*
X2006381Y1624318D02*
Y1626057D01*
X2006386Y1624318D02*
Y1626054D01*
X2006391Y1624318D02*
Y1626052D01*
X2006396Y1624318D02*
Y1626050D01*
X2006401Y1624318D02*
Y1626047D01*
X2006406Y1624318D02*
Y1626044D01*
X2006411Y1624318D02*
Y1626042D01*
X2006416Y1624318D02*
Y1626039D01*
X2006421Y1624318D02*
Y1626036D01*
X2006426Y1624318D02*
Y1626033D01*
X2006431Y1624318D02*
Y1626030D01*
X2006436Y1624318D02*
Y1626026D01*
X2006441Y1624318D02*
Y1626023D01*
X2006446Y1624318D02*
Y1626020D01*
X2006451Y1624318D02*
Y1626016D01*
X2006456Y1624318D02*
Y1626012D01*
X2006461Y1624318D02*
Y1626009D01*
X2006466Y1624318D02*
Y1626005D01*
X2006471Y1624318D02*
Y1626000D01*
X2006476Y1624318D02*
Y1625996D01*
X2006481Y1624318D02*
Y1625992D01*
X2006486Y1624318D02*
Y1625987D01*
X2006491Y1624318D02*
Y1625983D01*
X2006496Y1624318D02*
Y1625978D01*
X2006501Y1624318D02*
Y1625973D01*
X2006506Y1624318D02*
Y1625968D01*
X2006511Y1624318D02*
Y1625963D01*
X2006516Y1624318D02*
Y1625958D01*
X2006521Y1624318D02*
Y1625953D01*
X2006526Y1624318D02*
Y1625948D01*
X2006531Y1624318D02*
Y1625943D01*
X2006536Y1624318D02*
Y1625938D01*
X2006541Y1624318D02*
Y1625933D01*
X2006546Y1624318D02*
Y1625928D01*
X2006551Y1624318D02*
Y1625923D01*
X2006556Y1624318D02*
Y1625918D01*
X2006561Y1624318D02*
Y1625913D01*
X2006566Y1624318D02*
Y1625908D01*
X2006571Y1624318D02*
Y1625903D01*
X2006576Y1624318D02*
Y1625898D01*
X2006581Y1624318D02*
Y1625893D01*
X2006586Y1624318D02*
Y1625888D01*
X2006591Y1624318D02*
Y1625883D01*
X2006596Y1624318D02*
Y1625878D01*
X2006601Y1624318D02*
Y1625873D01*
X2006606Y1624318D02*
Y1625868D01*
X2006611Y1624318D02*
Y1625863D01*
X2006616Y1624318D02*
Y1625858D01*
X2006621Y1624318D02*
Y1625853D01*
X2006626Y1624318D02*
Y1625848D01*
X2006631Y1624318D02*
Y1625843D01*
X2006636Y1624318D02*
Y1625838D01*
X2006641Y1624318D02*
Y1625833D01*
X2006646Y1624318D02*
Y1625828D01*
X2006651Y1624318D02*
Y1625823D01*
X2006656Y1624318D02*
Y1625818D01*
X2006661Y1624318D02*
Y1625813D01*
X2006666Y1624318D02*
Y1625808D01*
X2006671Y1624318D02*
Y1625803D01*
X2006676Y1624318D02*
Y1625798D01*
X2006681Y1624318D02*
Y1625793D01*
X2006686Y1624318D02*
Y1625788D01*
X2006691Y1624318D02*
Y1625783D01*
X2006696Y1624318D02*
Y1625778D01*
X2006701Y1624318D02*
Y1625773D01*
X2006706Y1624318D02*
Y1625768D01*
X2006711Y1624318D02*
Y1625763D01*
X2006716Y1624318D02*
Y1625758D01*
X2006721Y1624318D02*
Y1625753D01*
X2006726Y1624318D02*
Y1625748D01*
X2006731Y1624318D02*
Y1625743D01*
X2006736Y1624318D02*
Y1625738D01*
X2006741Y1624318D02*
Y1625733D01*
X2006746Y1624318D02*
Y1625728D01*
X2006751Y1624318D02*
Y1625723D01*
X2006756Y1624318D02*
Y1625718D01*
X2006761Y1624318D02*
Y1625713D01*
X2006766Y1624318D02*
Y1625708D01*
X2006771Y1624318D02*
Y1625703D01*
X2006776Y1624318D02*
Y1625698D01*
X2006781Y1624318D02*
Y1625693D01*
X2006786Y1624318D02*
Y1625688D01*
X2006791Y1624318D02*
Y1625683D01*
X2006796Y1624318D02*
Y1625678D01*
X2006801Y1624318D02*
Y1625673D01*
X2006806Y1624318D02*
Y1625668D01*
X2006811Y1624318D02*
Y1625663D01*
X2006816Y1624318D02*
Y1625658D01*
X2006821Y1624318D02*
Y1625653D01*
X2006826Y1624318D02*
Y1625648D01*
X2006831Y1624318D02*
Y1625643D01*
X2006836Y1624318D02*
Y1625638D01*
X2006841Y1624318D02*
Y1625633D01*
X2006846Y1624318D02*
Y1625628D01*
X2006851Y1624318D02*
Y1625623D01*
X2006856Y1624318D02*
Y1625618D01*
X2006861Y1624318D02*
Y1625613D01*
X2006866Y1624318D02*
Y1625608D01*
X2006871Y1624318D02*
Y1625603D01*
X2006876Y1624318D02*
Y1625598D01*
X2006881Y1624318D02*
Y1625593D01*
X2006886Y1624318D02*
Y1625588D01*
X2006891Y1624318D02*
Y1625583D01*
X2006896Y1624318D02*
Y1625578D01*
X2006901Y1624318D02*
Y1625573D01*
X2006906Y1624318D02*
Y1625568D01*
X2006911Y1624318D02*
Y1625563D01*
X2006916Y1624318D02*
Y1625558D01*
X2006921Y1624318D02*
Y1625553D01*
X2006926Y1624318D02*
Y1625548D01*
X2006931Y1624318D02*
Y1625543D01*
X2006936Y1624318D02*
Y1625538D01*
X2006941Y1624318D02*
Y1625533D01*
X2006946Y1624318D02*
Y1625528D01*
X2006951Y1624318D02*
Y1625523D01*
X2006956Y1624318D02*
Y1625518D01*
X2006961Y1624318D02*
Y1625513D01*
X2006966Y1624318D02*
Y1625508D01*
X2006971Y1624318D02*
Y1625503D01*
X2006976Y1624319D02*
Y1625498D01*
X2006981Y1624319D02*
Y1625493D01*
X2006986Y1624320D02*
Y1625488D01*
X2006991Y1624320D02*
Y1625483D01*
X2006996Y1624321D02*
Y1625478D01*
X2007001Y1624321D02*
Y1625473D01*
X2007006Y1624322D02*
Y1625468D01*
X2007011Y1624323D02*
Y1625463D01*
X2007016Y1624324D02*
Y1625458D01*
X2007021Y1624325D02*
Y1625453D01*
X2007026Y1624326D02*
Y1625448D01*
X2007031Y1624327D02*
Y1625443D01*
X2007036Y1624328D02*
Y1625438D01*
X2007041Y1624329D02*
Y1625433D01*
X2007046Y1624330D02*
Y1625428D01*
X2007051Y1624332D02*
Y1625423D01*
X2007056Y1624333D02*
Y1625418D01*
X2007061Y1624335D02*
Y1625413D01*
X2007066Y1624336D02*
Y1625408D01*
X2007071Y1624338D02*
Y1625403D01*
X2007076Y1624339D02*
Y1625398D01*
X2007081Y1624341D02*
Y1625393D01*
X2007086Y1624343D02*
Y1625388D01*
X2007091Y1624345D02*
Y1625383D01*
X2007096Y1624347D02*
Y1625378D01*
X2007101Y1624349D02*
Y1625373D01*
X2007106Y1624351D02*
Y1625368D01*
X2007111Y1624353D02*
Y1625363D01*
X2007116Y1624356D02*
Y1625358D01*
X2007121Y1624358D02*
Y1625353D01*
X2007126Y1624361D02*
Y1625348D01*
X2007131Y1624363D02*
Y1625343D01*
X2007136Y1624366D02*
Y1625338D01*
X2007141Y1624369D02*
Y1625333D01*
X2007146Y1624372D02*
Y1625328D01*
X2007151Y1624375D02*
Y1625323D01*
X2007156Y1624378D02*
Y1625318D01*
X2007161Y1624381D02*
Y1625313D01*
X2007166Y1624384D02*
Y1625308D01*
X2007171Y1624388D02*
Y1625303D01*
X2007176Y1624391D02*
Y1625298D01*
X2007181Y1624395D02*
Y1625293D01*
X2007186Y1624398D02*
Y1625288D01*
X2007191Y1624402D02*
Y1625283D01*
X2007196Y1624406D02*
Y1625278D01*
X2007201Y1624410D02*
Y1625273D01*
X2007206Y1624415D02*
Y1625268D01*
X2007211Y1624419D02*
Y1625263D01*
X2007216Y1624424D02*
Y1625258D01*
X2007221Y1624428D02*
Y1625253D01*
X2007226Y1624433D02*
Y1625248D01*
X2007231Y1624438D02*
Y1625243D01*
X2007236Y1624444D02*
Y1625237D01*
X2007241Y1624449D02*
Y1625232D01*
X2007246Y1624455D02*
Y1625226D01*
X2007251Y1624461D02*
Y1625220D01*
X2007256Y1624467D02*
Y1625214D01*
X2007261Y1624473D02*
Y1625208D01*
X2007266Y1624480D02*
Y1625201D01*
X2007271Y1624487D02*
Y1625194D01*
X2007276Y1624494D02*
Y1625187D01*
X2007281Y1624502D02*
Y1625179D01*
X2007286Y1624510D02*
Y1625171D01*
X2007291Y1624519D02*
Y1625162D01*
X2007296Y1624528D02*
Y1625153D01*
X2007301Y1624538D02*
Y1625143D01*
X2007306Y1624548D02*
Y1625133D01*
X2007311Y1624560D02*
Y1625121D01*
X2007316Y1624572D02*
Y1625109D01*
X2007321Y1624586D02*
Y1625095D01*
X2007326Y1624602D02*
Y1625079D01*
X2007331Y1624621D02*
Y1625060D01*
X2007336Y1624646D02*
Y1625035D01*
X2007341Y1624690D02*
Y1624992D01*
G54D67*
X1972766Y1609531D03*
Y1603626D03*
Y1597720D03*
Y1591815D03*
X1972333Y1615780D03*
Y1621685D03*
Y1627591D03*
Y1633496D03*
G54D68*
X2017498Y1560646D03*
X2021435D03*
Y1568126D03*
X2017498D03*
G54D69*
X2019467Y1560646D03*
Y1568126D03*
G54D70*
X2024781Y1562417D03*
Y1566354D03*
X2014152D03*
Y1562417D03*
G54D71*
X2024781Y1564386D03*
X2014152D03*
G54D72*
X2019467D03*
G54D73*
X2009897Y1627798D03*
X2005946Y1627766D03*
X2006045Y1625172D03*
X2009837Y1625180D03*
G54D74*
X2019463Y1642091D03*
Y1645665D03*
X1996762Y1576976D03*
Y1580551D03*
X1982270Y1576976D03*
Y1580551D03*
X2020545Y1579831D03*
X2016970D03*
X2020750Y1583638D03*
X2017175D03*
X2026789Y1619480D03*
Y1623055D03*
X1976703Y1580398D03*
Y1576823D03*
X2006762Y1621610D03*
X2010337D03*
X2002852Y1621736D03*
Y1625311D03*
G54D75*
X2021402Y1628081D03*
X2027702D03*
X2014505Y1592113D03*
X2020804D03*
X2015126Y1627786D03*
X2015127Y1621487D03*
X2028783Y1587519D03*
Y1593818D03*
X2013233Y1575042D03*
X2019532D03*
X2028858Y1573562D03*
Y1579861D03*
G54D76*
X1990340Y1641532D03*
X1991718D03*
X1993096D03*
X1994474D03*
X1995852D03*
X1997230D03*
X1998608D03*
Y1649012D03*
X1997230D03*
X1995852D03*
X1994474D03*
X1993096D03*
X1991718D03*
X1990340D03*
G54D77*
X1985301Y1647169D03*
Y1643374D03*
X2003647Y1643372D03*
Y1647171D03*
G54D78*
X1977057Y1571457D03*
X1980207D03*
X1999105D03*
X2002254D03*
G54D79*
X1982766D03*
X1984735D03*
X1986703D03*
X1988671D03*
X1990640D03*
X1992608D03*
X1994577D03*
X1996546D03*
G54D80*
X1972628Y1569292D03*
X2006683D03*
G54D81*
X1972628Y1552756D03*
X2006683D03*
G54D82*
X1996234Y1598705D03*
Y1600674D03*
Y1602642D03*
Y1604611D03*
X1984030D03*
Y1602642D03*
Y1600674D03*
Y1598705D03*
X2019841Y1608980D03*
Y1610949D03*
Y1612917D03*
Y1614886D03*
X2007637D03*
Y1612917D03*
Y1610949D03*
Y1608980D03*
X2020022Y1598843D03*
Y1600812D03*
Y1602780D03*
Y1604749D03*
X2007818D03*
Y1602780D03*
Y1600812D03*
Y1598843D03*
X1996234Y1608980D03*
Y1610949D03*
Y1612917D03*
Y1614886D03*
X1984030D03*
Y1612917D03*
Y1610949D03*
Y1608980D03*
G54D83*
X2017439Y1587118D03*
X2019998D03*
G54D84*
X1997089Y1629071D03*
X1988427D03*
Y1622181D03*
X1997089D03*
X0Y0D02*
M02*
