*
*
G04 PADS VX.2.2 Build Number: 7607494 generated Gerber (RS-274-X) file*
G04 PC Version=2.1*
*
%IN "ZHOU0905nn_pads.pcb"*%
*
%MOIN*%
*
%FSLAX35Y35*%
*
*
*
*
G04 PC Standard Apertures*
*
*
G04 Thermal Relief Aperture macro.*
%AMTER*
1,1,$1,0,0*
1,0,$1-$2,0,0*
21,0,$3,$4,0,0,45*
21,0,$3,$4,0,0,135*
%
*
*
G04 Annular Aperture macro.*
%AMANN*
1,1,$1,0,0*
1,0,$2,0,0*
%
*
*
G04 Odd Aperture macro.*
%AMODD*
1,1,$1,0,0*
1,0,$1-0.005,0,0*
%
*
*
G04 PC Custom Aperture Macros*
*
*
*
*
*
*
G04 PC Aperture Table*
*
%ADD010C,0.00394*%
%ADD014R,0.01969X0.01969*%
%ADD025C,0.00315*%
%ADD031C,0.05512*%
%ADD032C,0.00787*%
%ADD033C,0.0001*%
%ADD073R,0.01194X0.01194*%
%ADD074R,0.028X0.028*%
%ADD075R,0.04343X0.04343*%
%ADD080O,0.04724X0.08268*%
%ADD081O,0.05118X0.0748*%
%ADD085C,0.01745*%
%ADD086R,0.05524X0.06705*%
%ADD087R,0.06706X0.1458*%
%ADD088R,0.02769X0.0328*%
%ADD089R,0.03543X0.01969*%
%ADD090R,0.01969X0.03543*%
%ADD091R,0.05118X0.05118*%
%ADD092R,0.03543X0.03543*%
%ADD093R,0.04731X0.02762*%
%ADD094R,0.04337X0.0355*%
*
*
*
*
G04 PC Circuitry*
G04 Layer Name ZHOU0905nn_pads.pcb - circuitry*
%LPD*%
*
*
G04 PC Custom Flashes*
G04 Layer Name ZHOU0905nn_pads.pcb - flashes*
%LPD*%
*
*
G04 PC Circuitry*
G04 Layer Name ZHOU0905nn_pads.pcb - circuitry*
%LPD*%
*
G54D10*
G54D14*
G01X2000124Y1572709D03*
X1996549D03*
X1981179Y1572579D03*
X1984754D03*
X1990841Y1548315D03*
Y1551890D03*
X1983104Y1548232D03*
X1986679D03*
X1994667D03*
Y1551807D03*
X1997089Y1643803D03*
Y1647378D03*
G54D25*
X1988156Y1645518D02*
X1986421Y1643783D01*
X1988156Y1642049*
X1989890Y1643783*
X1988156Y1645518*
X1987846Y1642358D02*
X1988465D01*
X1987531Y1642673D02*
X1988780D01*
X1987216Y1642988D02*
X1989095D01*
X1986901Y1643303D02*
X1989410D01*
X1986586Y1643618D02*
X1989725D01*
X1986570Y1643933D02*
X1989741D01*
X1986885Y1644248D02*
X1989426D01*
X1987200Y1644563D02*
X1989111D01*
X1987515Y1644878D02*
X1988796D01*
X1987830Y1645193D02*
X1988481D01*
X1988145Y1645508D02*
X1988166D01*
X1986671Y1643533D02*
Y1644034D01*
X1986986Y1643218D02*
Y1644349D01*
X1987301Y1642903D02*
Y1644664D01*
X1987616Y1642588D02*
Y1644979D01*
X1987931Y1642273D02*
Y1645294D01*
X1988246Y1642139D02*
Y1645428D01*
X1988561Y1642454D02*
Y1645113D01*
X1988876Y1642769D02*
Y1644798D01*
X1989191Y1643084D02*
Y1644483D01*
X1989506Y1643399D02*
Y1644168D01*
X1989821Y1643714D02*
Y1643853D01*
X1971590Y1645512D02*
X1973325Y1643777D01*
X1975060Y1645512*
X1973325Y1647247*
X1971590Y1645512*
X1973169Y1643933D02*
X1973481D01*
X1972854Y1644248D02*
X1973796D01*
X1972539Y1644563D02*
X1974111D01*
X1972224Y1644878D02*
X1974426D01*
X1971909Y1645193D02*
X1974741D01*
X1971594Y1645508D02*
X1975056D01*
X1971901Y1645823D02*
X1974749D01*
X1972216Y1646138D02*
X1974434D01*
X1972531Y1646453D02*
X1974119D01*
X1972846Y1646768D02*
X1973804D01*
X1973161Y1647083D02*
X1973489D01*
X1971868Y1645234D02*
Y1645790D01*
X1972183Y1644919D02*
Y1646105D01*
X1972498Y1644604D02*
Y1646420D01*
X1972813Y1644289D02*
Y1646735D01*
X1973128Y1643974D02*
Y1647050D01*
X1973443Y1643895D02*
Y1647129D01*
X1973758Y1644210D02*
Y1646814D01*
X1974073Y1644525D02*
Y1646499D01*
X1974388Y1644840D02*
Y1646184D01*
X1974703Y1645155D02*
Y1645869D01*
X1975018Y1645470D02*
Y1645554D01*
G54D31*
X2013809Y1549272D03*
X2025585Y1549169D03*
G54D32*
X1983806Y1553681D02*
G75*
G03X1983806I-111J0D01*
G01X1985400Y1553685D02*
G03X1985400I-111J0D01*
G01X1986955Y1553681D02*
G03X1986955I-111J0D01*
G01X1986940Y1552106D02*
G03X1986940I-111J0D01*
G01X1985385Y1552091D02*
G03X1985385I-111J0D01*
G01X1983806Y1552098D02*
G03X1983806I-111J0D01*
G01Y1553681D02*
G03X1983806I-111J0D01*
G01X1985400Y1553685D02*
G03X1985400I-111J0D01*
G01X1986955Y1553681D02*
G03X1986955I-111J0D01*
G01X1986940Y1552106D02*
G03X1986940I-111J0D01*
G01X1985385Y1552091D02*
G03X1985385I-111J0D01*
G01X1983806Y1552098D02*
G03X1983806I-111J0D01*
G01X1967459Y1654335D02*
X2032541D01*
Y1545665*
X1967459*
Y1654335*
G54D33*
X1989927Y1643194D02*
X1989943D01*
X1989958Y1643193*
X1989974Y1643191*
X1989989Y1643189*
X1990004Y1643187*
X1990019Y1643183*
X1990034Y1643179*
X1990049Y1643175*
X1990064Y1643170*
X1990078Y1643164*
X1990093Y1643158*
X1990106Y1643151*
X1990120Y1643144*
X1990134Y1643136*
X1990147Y1643128*
X1990159Y1643119*
X1990172Y1643109*
X1990184Y1643100*
X1990195Y1643089*
X1990206Y1643079*
X1990217Y1643067*
X1990228Y1643056*
X1990237Y1643044*
X1990247Y1643031*
X1990256Y1643019*
X1990264Y1643006*
X1990272Y1642992*
X1990279Y1642979*
X1990286Y1642965*
X1990292Y1642950*
X1990298Y1642936*
X1990303Y1642921*
X1990307Y1642906*
X1990311Y1642891*
X1990315Y1642876*
X1990317Y1642861*
X1990319Y1642846*
X1990321Y1642830*
X1990322Y1642815*
Y1642799*
Y1641224*
Y1641209*
X1990321Y1641193*
X1990319Y1641178*
X1990317Y1641163*
X1990315Y1641147*
X1990311Y1641132*
X1990307Y1641117*
X1990303Y1641102*
X1990298Y1641088*
X1990292Y1641073*
X1990286Y1641059*
X1990279Y1641045*
X1990272Y1641031*
X1990264Y1641018*
X1990256Y1641005*
X1990247Y1640992*
X1990237Y1640980*
X1990228Y1640968*
X1990217Y1640956*
X1990206Y1640945*
X1990195Y1640934*
X1990184Y1640924*
X1990172Y1640914*
X1990159Y1640905*
X1990147Y1640896*
X1990134Y1640888*
X1990120Y1640880*
X1990106Y1640872*
X1990093Y1640866*
X1990078Y1640859*
X1990064Y1640854*
X1990049Y1640849*
X1990034Y1640844*
X1990019Y1640840*
X1990004Y1640837*
X1989989Y1640834*
X1989974Y1640832*
X1989958Y1640831*
X1989943Y1640830*
X1989927Y1640829*
X1988943*
X1988927Y1640830*
X1988912Y1640831*
X1988896Y1640832*
X1988881Y1640834*
X1988866Y1640837*
X1988851Y1640840*
X1988836Y1640844*
X1988821Y1640849*
X1988806Y1640854*
X1988792Y1640859*
X1988778Y1640866*
X1988764Y1640872*
X1988750Y1640880*
X1988737Y1640888*
X1988723Y1640896*
X1988711Y1640905*
X1988698Y1640914*
X1988686Y1640924*
X1988675Y1640934*
X1988664Y1640945*
X1988653Y1640956*
X1988643Y1640968*
X1988633Y1640980*
X1988623Y1640992*
X1988614Y1641005*
X1988606Y1641018*
X1988598Y1641031*
X1988591Y1641045*
X1988584Y1641059*
X1988578Y1641073*
X1988572Y1641088*
X1988567Y1641102*
X1988563Y1641117*
X1988559Y1641132*
X1988556Y1641147*
X1988553Y1641163*
X1988551Y1641178*
X1988549Y1641193*
X1988548Y1641209*
Y1641224*
Y1642071*
Y1642086*
X1988549Y1642102*
X1988551Y1642117*
X1988553Y1642133*
X1988556Y1642148*
X1988559Y1642163*
X1988563Y1642178*
X1988567Y1642193*
X1988572Y1642208*
X1988578Y1642222*
X1988584Y1642236*
X1988591Y1642250*
X1988598Y1642264*
X1988606Y1642277*
X1988614Y1642290*
X1988623Y1642303*
X1988633Y1642315*
X1988643Y1642327*
X1988653Y1642339*
X1988664Y1642350*
X1989392Y1643079*
X1989403Y1643089*
X1989415Y1643100*
X1989427Y1643109*
X1989439Y1643119*
X1989452Y1643128*
X1989465Y1643136*
X1989478Y1643144*
X1989492Y1643151*
X1989506Y1643158*
X1989520Y1643164*
X1989535Y1643170*
X1989549Y1643175*
X1989564Y1643179*
X1989579Y1643183*
X1989594Y1643187*
X1989609Y1643189*
X1989625Y1643191*
X1989640Y1643193*
X1989656Y1643194*
X1989671*
X1989927*
X1988551Y1641179D02*
Y1642116D01*
X1988556Y1641147D02*
Y1642148D01*
X1988561Y1641126D02*
Y1642170D01*
X1988566Y1641108D02*
Y1642187D01*
X1988571Y1641093D02*
Y1642202D01*
X1988576Y1641080D02*
Y1642216D01*
X1988581Y1641067D02*
Y1642228D01*
X1988586Y1641056D02*
Y1642239D01*
X1988591Y1641046D02*
Y1642249D01*
X1988596Y1641037D02*
Y1642259D01*
X1988601Y1641028D02*
Y1642268D01*
X1988606Y1641019D02*
Y1642276D01*
X1988611Y1641011D02*
Y1642284D01*
X1988616Y1641003D02*
Y1642292D01*
X1988621Y1640996D02*
Y1642299D01*
X1988626Y1640989D02*
Y1642306D01*
X1988631Y1640983D02*
Y1642313D01*
X1988636Y1640976D02*
Y1642319D01*
X1988641Y1640970D02*
Y1642325D01*
X1988646Y1640965D02*
Y1642331D01*
X1988651Y1640959D02*
Y1642336D01*
X1988656Y1640954D02*
Y1642342D01*
X1988661Y1640948D02*
Y1642347D01*
X1988666Y1640943D02*
Y1642352D01*
X1988671Y1640938D02*
Y1642357D01*
X1988676Y1640934D02*
Y1642362D01*
X1988681Y1640929D02*
Y1642367D01*
X1988686Y1640925D02*
Y1642372D01*
X1988691Y1640921D02*
Y1642377D01*
X1988696Y1640917D02*
Y1642382D01*
X1988701Y1640913D02*
Y1642387D01*
X1988706Y1640909D02*
Y1642392D01*
X1988711Y1640905D02*
Y1642397D01*
X1988716Y1640902D02*
Y1642402D01*
X1988721Y1640898D02*
Y1642407D01*
X1988726Y1640895D02*
Y1642412D01*
X1988731Y1640891D02*
Y1642417D01*
X1988736Y1640888D02*
Y1642422D01*
X1988741Y1640885D02*
Y1642427D01*
X1988746Y1640882D02*
Y1642432D01*
X1988751Y1640879D02*
Y1642437D01*
X1988756Y1640877D02*
Y1642442D01*
X1988761Y1640874D02*
Y1642447D01*
X1988766Y1640872D02*
Y1642452D01*
X1988771Y1640869D02*
Y1642457D01*
X1988776Y1640867D02*
Y1642462D01*
X1988781Y1640864D02*
Y1642467D01*
X1988786Y1640862D02*
Y1642472D01*
X1988791Y1640860D02*
Y1642477D01*
X1988796Y1640858D02*
Y1642482D01*
X1988801Y1640856D02*
Y1642487D01*
X1988806Y1640854D02*
Y1642492D01*
X1988811Y1640852D02*
Y1642497D01*
X1988816Y1640851D02*
Y1642502D01*
X1988821Y1640849D02*
Y1642507D01*
X1988826Y1640847D02*
Y1642512D01*
X1988831Y1640846D02*
Y1642517D01*
X1988836Y1640844D02*
Y1642522D01*
X1988841Y1640843D02*
Y1642527D01*
X1988846Y1640842D02*
Y1642532D01*
X1988851Y1640840D02*
Y1642537D01*
X1988856Y1640839D02*
Y1642542D01*
X1988861Y1640838D02*
Y1642547D01*
X1988866Y1640837D02*
Y1642552D01*
X1988871Y1640836D02*
Y1642557D01*
X1988876Y1640835D02*
Y1642562D01*
X1988881Y1640834D02*
Y1642567D01*
X1988886Y1640834D02*
Y1642572D01*
X1988891Y1640833D02*
Y1642577D01*
X1988896Y1640832D02*
Y1642582D01*
X1988901Y1640832D02*
Y1642587D01*
X1988906Y1640831D02*
Y1642592D01*
X1988911Y1640831D02*
Y1642597D01*
X1988916Y1640830D02*
Y1642602D01*
X1988921Y1640830D02*
Y1642607D01*
X1988926Y1640830D02*
Y1642612D01*
X1988931Y1640830D02*
Y1642617D01*
X1988936Y1640830D02*
Y1642622D01*
X1988941Y1640829D02*
Y1642627D01*
X1988946Y1640829D02*
Y1642632D01*
X1988951Y1640829D02*
Y1642637D01*
X1988956Y1640829D02*
Y1642642D01*
X1988961Y1640829D02*
Y1642647D01*
X1988966Y1640829D02*
Y1642652D01*
X1988971Y1640829D02*
Y1642657D01*
X1988976Y1640829D02*
Y1642662D01*
X1988981Y1640829D02*
Y1642667D01*
X1988986Y1640829D02*
Y1642672D01*
X1988991Y1640829D02*
Y1642677D01*
X1988996Y1640829D02*
Y1642682D01*
X1989001Y1640829D02*
Y1642687D01*
X1989006Y1640829D02*
Y1642692D01*
X1989011Y1640829D02*
Y1642697D01*
X1989016Y1640829D02*
Y1642702D01*
X1989021Y1640829D02*
Y1642707D01*
X1989026Y1640829D02*
Y1642712D01*
X1989031Y1640829D02*
Y1642717D01*
X1989036Y1640829D02*
Y1642722D01*
X1989041Y1640829D02*
Y1642727D01*
X1989046Y1640829D02*
Y1642732D01*
X1989051Y1640829D02*
Y1642737D01*
X1989056Y1640829D02*
Y1642742D01*
X1989061Y1640829D02*
Y1642747D01*
X1989066Y1640829D02*
Y1642752D01*
X1989071Y1640829D02*
Y1642757D01*
X1989076Y1640829D02*
Y1642762D01*
X1989081Y1640829D02*
Y1642767D01*
X1989086Y1640829D02*
Y1642772D01*
X1989091Y1640829D02*
Y1642777D01*
X1989096Y1640829D02*
Y1642782D01*
X1989101Y1640829D02*
Y1642787D01*
X1989106Y1640829D02*
Y1642792D01*
X1989111Y1640829D02*
Y1642797D01*
X1989116Y1640829D02*
Y1642802D01*
X1989121Y1640829D02*
Y1642807D01*
X1989126Y1640829D02*
Y1642812D01*
X1989131Y1640829D02*
Y1642817D01*
X1989136Y1640829D02*
Y1642822D01*
X1989141Y1640829D02*
Y1642827D01*
X1989146Y1640829D02*
Y1642832D01*
X1989151Y1640829D02*
Y1642837D01*
X1989156Y1640829D02*
Y1642842D01*
X1989161Y1640829D02*
Y1642847D01*
X1989166Y1640829D02*
Y1642852D01*
X1989171Y1640829D02*
Y1642857D01*
X1989176Y1640829D02*
Y1642862D01*
X1989181Y1640829D02*
Y1642867D01*
X1989186Y1640829D02*
Y1642872D01*
X1989191Y1640829D02*
Y1642877D01*
X1989196Y1640829D02*
Y1642882D01*
X1989201Y1640829D02*
Y1642887D01*
X1989206Y1640829D02*
Y1642892D01*
X1989211Y1640829D02*
Y1642897D01*
X1989216Y1640829D02*
Y1642902D01*
X1989221Y1640829D02*
Y1642907D01*
X1989226Y1640829D02*
Y1642912D01*
X1989231Y1640829D02*
Y1642917D01*
X1989236Y1640829D02*
Y1642922D01*
X1989241Y1640829D02*
Y1642927D01*
X1989246Y1640829D02*
Y1642932D01*
X1989251Y1640829D02*
Y1642937D01*
X1989256Y1640829D02*
Y1642942D01*
X1989261Y1640829D02*
Y1642947D01*
X1989266Y1640829D02*
Y1642952D01*
X1989271Y1640829D02*
Y1642957D01*
X1989276Y1640829D02*
Y1642962D01*
X1989281Y1640829D02*
Y1642967D01*
X1989286Y1640829D02*
Y1642972D01*
X1989291Y1640829D02*
Y1642977D01*
X1989296Y1640829D02*
Y1642982D01*
X1989301Y1640829D02*
Y1642987D01*
X1989306Y1640829D02*
Y1642992D01*
X1989311Y1640829D02*
Y1642997D01*
X1989316Y1640829D02*
Y1643002D01*
X1989321Y1640829D02*
Y1643007D01*
X1989326Y1640829D02*
Y1643012D01*
X1989331Y1640829D02*
Y1643017D01*
X1989336Y1640829D02*
Y1643022D01*
X1989341Y1640829D02*
Y1643027D01*
X1989346Y1640829D02*
Y1643032D01*
X1989351Y1640829D02*
Y1643037D01*
X1989356Y1640829D02*
Y1643042D01*
X1989361Y1640829D02*
Y1643047D01*
X1989366Y1640829D02*
Y1643052D01*
X1989371Y1640829D02*
Y1643057D01*
X1989376Y1640829D02*
Y1643062D01*
X1989381Y1640829D02*
Y1643067D01*
X1989386Y1640829D02*
Y1643072D01*
X1989391Y1640829D02*
Y1643077D01*
X1989396Y1640829D02*
Y1643082D01*
X1989401Y1640829D02*
Y1643087D01*
X1989406Y1640829D02*
Y1643091D01*
X1989411Y1640829D02*
Y1643096D01*
X1989416Y1640829D02*
Y1643100D01*
X1989421Y1640829D02*
Y1643104D01*
X1989426Y1640829D02*
Y1643108D01*
X1989431Y1640829D02*
Y1643112D01*
X1989436Y1640829D02*
Y1643116D01*
X1989441Y1640829D02*
Y1643120D01*
X1989446Y1640829D02*
Y1643123D01*
X1989451Y1640829D02*
Y1643127D01*
X1989456Y1640829D02*
Y1643130D01*
X1989461Y1640829D02*
Y1643133D01*
X1989466Y1640829D02*
Y1643136D01*
X1989471Y1640829D02*
Y1643139D01*
X1989476Y1640829D02*
Y1643142D01*
X1989481Y1640829D02*
Y1643145D01*
X1989486Y1640829D02*
Y1643148D01*
X1989491Y1640829D02*
Y1643150D01*
X1989496Y1640829D02*
Y1643153D01*
X1989501Y1640829D02*
Y1643155D01*
X1989506Y1640829D02*
Y1643158D01*
X1989511Y1640829D02*
Y1643160D01*
X1989516Y1640829D02*
Y1643162D01*
X1989521Y1640829D02*
Y1643164D01*
X1989526Y1640829D02*
Y1643166D01*
X1989531Y1640829D02*
Y1643168D01*
X1989536Y1640829D02*
Y1643170D01*
X1989541Y1640829D02*
Y1643172D01*
X1989546Y1640829D02*
Y1643174D01*
X1989551Y1640829D02*
Y1643175D01*
X1989556Y1640829D02*
Y1643177D01*
X1989561Y1640829D02*
Y1643178D01*
X1989566Y1640829D02*
Y1643180D01*
X1989571Y1640829D02*
Y1643181D01*
X1989576Y1640829D02*
Y1643182D01*
X1989581Y1640829D02*
Y1643184D01*
X1989586Y1640829D02*
Y1643185D01*
X1989591Y1640829D02*
Y1643186D01*
X1989596Y1640829D02*
Y1643187D01*
X1989601Y1640829D02*
Y1643188D01*
X1989606Y1640829D02*
Y1643189D01*
X1989611Y1640829D02*
Y1643189D01*
X1989616Y1640829D02*
Y1643190D01*
X1989621Y1640829D02*
Y1643191D01*
X1989626Y1640829D02*
Y1643192D01*
X1989631Y1640829D02*
Y1643192D01*
X1989636Y1640829D02*
Y1643193D01*
X1989641Y1640829D02*
Y1643193D01*
X1989646Y1640829D02*
Y1643193D01*
X1989651Y1640829D02*
Y1643194D01*
X1989656Y1640829D02*
Y1643194D01*
X1989661Y1640829D02*
Y1643194D01*
X1989666Y1640829D02*
Y1643194D01*
X1989671Y1640829D02*
Y1643194D01*
X1989676Y1640829D02*
Y1643194D01*
X1989681Y1640829D02*
Y1643194D01*
X1989686Y1640829D02*
Y1643194D01*
X1989691Y1640829D02*
Y1643194D01*
X1989696Y1640829D02*
Y1643194D01*
X1989701Y1640829D02*
Y1643194D01*
X1989706Y1640829D02*
Y1643194D01*
X1989711Y1640829D02*
Y1643194D01*
X1989716Y1640829D02*
Y1643194D01*
X1989721Y1640829D02*
Y1643194D01*
X1989726Y1640829D02*
Y1643194D01*
X1989731Y1640829D02*
Y1643194D01*
X1989736Y1640829D02*
Y1643194D01*
X1989741Y1640829D02*
Y1643194D01*
X1989746Y1640829D02*
Y1643194D01*
X1989751Y1640829D02*
Y1643194D01*
X1989756Y1640829D02*
Y1643194D01*
X1989761Y1640829D02*
Y1643194D01*
X1989766Y1640829D02*
Y1643194D01*
X1989771Y1640829D02*
Y1643194D01*
X1989776Y1640829D02*
Y1643194D01*
X1989781Y1640829D02*
Y1643194D01*
X1989786Y1640829D02*
Y1643194D01*
X1989791Y1640829D02*
Y1643194D01*
X1989796Y1640829D02*
Y1643194D01*
X1989801Y1640829D02*
Y1643194D01*
X1989806Y1640829D02*
Y1643194D01*
X1989811Y1640829D02*
Y1643194D01*
X1989816Y1640829D02*
Y1643194D01*
X1989821Y1640829D02*
Y1643194D01*
X1989826Y1640829D02*
Y1643194D01*
X1989831Y1640829D02*
Y1643194D01*
X1989836Y1640829D02*
Y1643194D01*
X1989841Y1640829D02*
Y1643194D01*
X1989846Y1640829D02*
Y1643194D01*
X1989851Y1640829D02*
Y1643194D01*
X1989856Y1640829D02*
Y1643194D01*
X1989861Y1640829D02*
Y1643194D01*
X1989866Y1640829D02*
Y1643194D01*
X1989871Y1640829D02*
Y1643194D01*
X1989876Y1640829D02*
Y1643194D01*
X1989881Y1640829D02*
Y1643194D01*
X1989886Y1640829D02*
Y1643194D01*
X1989891Y1640829D02*
Y1643194D01*
X1989896Y1640829D02*
Y1643194D01*
X1989901Y1640829D02*
Y1643194D01*
X1989906Y1640829D02*
Y1643194D01*
X1989911Y1640829D02*
Y1643194D01*
X1989916Y1640829D02*
Y1643194D01*
X1989921Y1640829D02*
Y1643194D01*
X1989926Y1640829D02*
Y1643194D01*
X1989931Y1640829D02*
Y1643194D01*
X1989936Y1640830D02*
Y1643194D01*
X1989941Y1640830D02*
Y1643194D01*
X1989946Y1640830D02*
Y1643194D01*
X1989951Y1640830D02*
Y1643193D01*
X1989956Y1640830D02*
Y1643193D01*
X1989961Y1640831D02*
Y1643193D01*
X1989966Y1640831D02*
Y1643192D01*
X1989971Y1640832D02*
Y1643192D01*
X1989976Y1640832D02*
Y1643191D01*
X1989981Y1640833D02*
Y1643191D01*
X1989986Y1640834D02*
Y1643190D01*
X1989991Y1640835D02*
Y1643189D01*
X1989996Y1640835D02*
Y1643188D01*
X1990001Y1640836D02*
Y1643187D01*
X1990006Y1640837D02*
Y1643186D01*
X1990011Y1640838D02*
Y1643185D01*
X1990016Y1640839D02*
Y1643184D01*
X1990021Y1640841D02*
Y1643183D01*
X1990026Y1640842D02*
Y1643182D01*
X1990031Y1640843D02*
Y1643180D01*
X1990036Y1640845D02*
Y1643179D01*
X1990041Y1640846D02*
Y1643178D01*
X1990046Y1640848D02*
Y1643176D01*
X1990051Y1640849D02*
Y1643174D01*
X1990056Y1640851D02*
Y1643173D01*
X1990061Y1640853D02*
Y1643171D01*
X1990066Y1640854D02*
Y1643169D01*
X1990071Y1640856D02*
Y1643167D01*
X1990076Y1640858D02*
Y1643165D01*
X1990081Y1640860D02*
Y1643163D01*
X1990086Y1640863D02*
Y1643161D01*
X1990091Y1640865D02*
Y1643159D01*
X1990096Y1640867D02*
Y1643156D01*
X1990101Y1640870D02*
Y1643154D01*
X1990106Y1640872D02*
Y1643152D01*
X1990111Y1640875D02*
Y1643149D01*
X1990116Y1640877D02*
Y1643146D01*
X1990121Y1640880D02*
Y1643144D01*
X1990126Y1640883D02*
Y1643141D01*
X1990131Y1640886D02*
Y1643138D01*
X1990136Y1640889D02*
Y1643135D01*
X1990141Y1640892D02*
Y1643132D01*
X1990146Y1640895D02*
Y1643128D01*
X1990151Y1640899D02*
Y1643125D01*
X1990156Y1640902D02*
Y1643121D01*
X1990161Y1640906D02*
Y1643118D01*
X1990166Y1640910D02*
Y1643114D01*
X1990171Y1640913D02*
Y1643110D01*
X1990176Y1640917D02*
Y1643106D01*
X1990181Y1640921D02*
Y1643102D01*
X1990186Y1640926D02*
Y1643098D01*
X1990191Y1640930D02*
Y1643094D01*
X1990196Y1640935D02*
Y1643089D01*
X1990201Y1640939D02*
Y1643084D01*
X1990206Y1640944D02*
Y1643079D01*
X1990211Y1640949D02*
Y1643074D01*
X1990216Y1640955D02*
Y1643069D01*
X1990221Y1640960D02*
Y1643064D01*
X1990226Y1640966D02*
Y1643058D01*
X1990231Y1640972D02*
Y1643052D01*
X1990236Y1640978D02*
Y1643046D01*
X1990241Y1640984D02*
Y1643040D01*
X1990246Y1640991D02*
Y1643033D01*
X1990251Y1640998D02*
Y1643026D01*
X1990256Y1641005D02*
Y1643019D01*
X1990261Y1641013D02*
Y1643011D01*
X1990266Y1641021D02*
Y1643003D01*
X1990271Y1641029D02*
Y1642994D01*
X1990276Y1641038D02*
Y1642985D01*
X1990281Y1641048D02*
Y1642976D01*
X1990286Y1641058D02*
Y1642965D01*
X1990291Y1641070D02*
Y1642954D01*
X1990296Y1641082D02*
Y1642942D01*
X1990301Y1641096D02*
Y1642928D01*
X1990306Y1641111D02*
Y1642912D01*
X1990311Y1641129D02*
Y1642894D01*
X1990316Y1641153D02*
Y1642871D01*
X1990321Y1641189D02*
Y1642835D01*
X1986640Y1643195D02*
X1986655Y1643194D01*
X1986671Y1643193*
X1986686Y1643192*
X1986702Y1643190*
X1986717Y1643187*
X1986732Y1643184*
X1986747Y1643180*
X1986762Y1643175*
X1986777Y1643170*
X1986791Y1643165*
X1986805Y1643158*
X1986819Y1643152*
X1986833Y1643144*
X1986846Y1643137*
X1986846D02*
X1986859Y1643128D01*
X1986872Y1643119*
X1986884Y1643110*
X1986896Y1643100*
X1986908Y1643090*
X1986919Y1643079*
X1987647Y1642351*
X1987658Y1642340*
X1987668Y1642328*
X1987678Y1642316*
X1987688Y1642304*
X1987697Y1642291*
X1987705Y1642278*
X1987713Y1642264*
X1987720Y1642251*
X1987727Y1642237*
X1987733Y1642223*
X1987739Y1642208*
X1987744Y1642194*
X1987748Y1642179*
X1987752Y1642164*
X1987756Y1642149*
X1987758Y1642133*
X1987760Y1642118*
X1987762Y1642102*
X1987763Y1642087*
Y1642071*
Y1641224*
Y1641209*
X1987762Y1641193*
X1987760Y1641178*
X1987758Y1641163*
X1987756Y1641147*
X1987752Y1641132*
X1987748Y1641117*
X1987744Y1641102*
X1987739Y1641088*
X1987733Y1641073*
X1987727Y1641059*
X1987720Y1641045*
X1987713Y1641031*
X1987705Y1641018*
X1987697Y1641005*
X1987688Y1640992*
X1987678Y1640980*
X1987668Y1640968*
X1987658Y1640956*
X1987647Y1640945*
X1987636Y1640934*
X1987625Y1640924*
X1987613Y1640914*
X1987600Y1640905*
X1987588Y1640896*
X1987574Y1640888*
X1987561Y1640880*
X1987547Y1640872*
X1987533Y1640866*
X1987519Y1640859*
X1987505Y1640854*
X1987490Y1640849*
X1987475Y1640844*
X1987460Y1640840*
X1987445Y1640837*
X1987430Y1640834*
X1987415Y1640832*
X1987399Y1640831*
X1987384Y1640830*
X1987368Y1640829*
X1986384*
X1986368Y1640830*
X1986353Y1640831*
X1986337Y1640832*
X1986322Y1640834*
X1986307Y1640837*
X1986292Y1640840*
X1986277Y1640844*
X1986262Y1640849*
X1986247Y1640854*
X1986233Y1640859*
X1986218Y1640866*
X1986205Y1640872*
X1986191Y1640880*
X1986177Y1640888*
X1986164Y1640896*
X1986152Y1640905*
X1986139Y1640914*
X1986127Y1640924*
X1986116Y1640934*
X1986105Y1640945*
X1986094Y1640956*
X1986083Y1640968*
X1986083D02*
X1986074Y1640980D01*
X1986064Y1640992*
X1986055Y1641005*
X1986047Y1641018*
X1986039Y1641031*
X1986032Y1641045*
X1986025Y1641059*
X1986019Y1641073*
X1986013Y1641088*
X1986008Y1641102*
X1986004Y1641117*
X1986000Y1641132*
X1985996Y1641147*
X1985994Y1641163*
X1985992Y1641178*
X1985990Y1641193*
X1985989Y1641209*
Y1641224*
Y1642800*
Y1642815*
X1985990Y1642831*
X1985992Y1642846*
X1985994Y1642862*
X1985994D02*
X1985996Y1642877D01*
X1986000Y1642892*
X1986004Y1642907*
X1986008Y1642922*
X1986013Y1642936*
X1986019Y1642951*
X1986025Y1642965*
X1986032Y1642979*
X1986039Y1642993*
X1986047Y1643006*
X1986055Y1643019*
X1986064Y1643032*
X1986074Y1643044*
X1986083Y1643056*
X1986083D02*
X1986094Y1643068D01*
X1986105Y1643079*
X1986116Y1643090*
X1986127Y1643100*
X1986139Y1643110*
X1986152Y1643119*
X1986164Y1643128*
X1986177Y1643137*
X1986177D02*
X1986191Y1643144D01*
X1986205Y1643152*
X1986218Y1643158*
X1986233Y1643165*
X1986247Y1643170*
X1986262Y1643175*
X1986277Y1643180*
X1986292Y1643184*
X1986307Y1643187*
X1986322Y1643190*
X1986337Y1643192*
X1986353Y1643193*
X1986368Y1643194*
X1986384Y1643195*
X1986640*
X1985991Y1641189D02*
Y1642835D01*
X1985996Y1641153D02*
Y1642872D01*
X1986001Y1641129D02*
Y1642895D01*
X1986006Y1641111D02*
Y1642913D01*
X1986011Y1641096D02*
Y1642928D01*
X1986016Y1641082D02*
Y1642942D01*
X1986021Y1641070D02*
Y1642954D01*
X1986026Y1641058D02*
Y1642966D01*
X1986031Y1641048D02*
Y1642976D01*
X1986036Y1641038D02*
Y1642986D01*
X1986041Y1641029D02*
Y1642995D01*
X1986046Y1641021D02*
Y1643003D01*
X1986051Y1641013D02*
Y1643011D01*
X1986056Y1641005D02*
Y1643019D01*
X1986061Y1640998D02*
Y1643026D01*
X1986066Y1640991D02*
Y1643033D01*
X1986071Y1640984D02*
Y1643040D01*
X1986076Y1640978D02*
Y1643047D01*
X1986081Y1640972D02*
Y1643053D01*
X1986086Y1640966D02*
Y1643059D01*
X1986091Y1640960D02*
Y1643064D01*
X1986096Y1640955D02*
Y1643070D01*
X1986101Y1640949D02*
Y1643075D01*
X1986106Y1640944D02*
Y1643080D01*
X1986111Y1640939D02*
Y1643085D01*
X1986116Y1640935D02*
Y1643090D01*
X1986121Y1640930D02*
Y1643094D01*
X1986126Y1640926D02*
Y1643098D01*
X1986131Y1640921D02*
Y1643103D01*
X1986136Y1640917D02*
Y1643107D01*
X1986141Y1640913D02*
Y1643111D01*
X1986146Y1640910D02*
Y1643115D01*
X1986151Y1640906D02*
Y1643118D01*
X1986156Y1640902D02*
Y1643122D01*
X1986161Y1640899D02*
Y1643125D01*
X1986166Y1640895D02*
Y1643129D01*
X1986171Y1640892D02*
Y1643132D01*
X1986176Y1640889D02*
Y1643135D01*
X1986181Y1640886D02*
Y1643138D01*
X1986186Y1640883D02*
Y1643141D01*
X1986191Y1640880D02*
Y1643144D01*
X1986196Y1640877D02*
Y1643147D01*
X1986201Y1640875D02*
Y1643150D01*
X1986206Y1640872D02*
Y1643152D01*
X1986211Y1640870D02*
Y1643155D01*
X1986216Y1640867D02*
Y1643157D01*
X1986221Y1640865D02*
Y1643159D01*
X1986226Y1640863D02*
Y1643161D01*
X1986231Y1640860D02*
Y1643164D01*
X1986236Y1640858D02*
Y1643166D01*
X1986241Y1640856D02*
Y1643168D01*
X1986246Y1640854D02*
Y1643170D01*
X1986251Y1640853D02*
Y1643171D01*
X1986256Y1640851D02*
Y1643173D01*
X1986261Y1640849D02*
Y1643175D01*
X1986266Y1640848D02*
Y1643177D01*
X1986271Y1640846D02*
Y1643178D01*
X1986276Y1640845D02*
Y1643180D01*
X1986281Y1640843D02*
Y1643181D01*
X1986286Y1640842D02*
Y1643182D01*
X1986291Y1640841D02*
Y1643183D01*
X1986296Y1640839D02*
Y1643185D01*
X1986301Y1640838D02*
Y1643186D01*
X1986306Y1640837D02*
Y1643187D01*
X1986311Y1640836D02*
Y1643188D01*
X1986316Y1640835D02*
Y1643189D01*
X1986321Y1640835D02*
Y1643190D01*
X1986326Y1640834D02*
Y1643190D01*
X1986331Y1640833D02*
Y1643191D01*
X1986336Y1640832D02*
Y1643192D01*
X1986341Y1640832D02*
Y1643192D01*
X1986346Y1640831D02*
Y1643193D01*
X1986351Y1640831D02*
Y1643193D01*
X1986356Y1640830D02*
Y1643194D01*
X1986361Y1640830D02*
Y1643194D01*
X1986366Y1640830D02*
Y1643194D01*
X1986371Y1640830D02*
Y1643194D01*
X1986376Y1640830D02*
Y1643195D01*
X1986381Y1640829D02*
Y1643195D01*
X1986386Y1640829D02*
Y1643195D01*
X1986391Y1640829D02*
Y1643195D01*
X1986396Y1640829D02*
Y1643195D01*
X1986401Y1640829D02*
Y1643195D01*
X1986406Y1640829D02*
Y1643195D01*
X1986411Y1640829D02*
Y1643195D01*
X1986416Y1640829D02*
Y1643195D01*
X1986421Y1640829D02*
Y1643195D01*
X1986426Y1640829D02*
Y1643195D01*
X1986431Y1640829D02*
Y1643195D01*
X1986436Y1640829D02*
Y1643195D01*
X1986441Y1640829D02*
Y1643195D01*
X1986446Y1640829D02*
Y1643195D01*
X1986451Y1640829D02*
Y1643195D01*
X1986456Y1640829D02*
Y1643195D01*
X1986461Y1640829D02*
Y1643195D01*
X1986466Y1640829D02*
Y1643195D01*
X1986471Y1640829D02*
Y1643195D01*
X1986476Y1640829D02*
Y1643195D01*
X1986481Y1640829D02*
Y1643195D01*
X1986486Y1640829D02*
Y1643195D01*
X1986491Y1640829D02*
Y1643195D01*
X1986496Y1640829D02*
Y1643195D01*
X1986501Y1640829D02*
Y1643195D01*
X1986506Y1640829D02*
Y1643195D01*
X1986511Y1640829D02*
Y1643195D01*
X1986516Y1640829D02*
Y1643195D01*
X1986521Y1640829D02*
Y1643195D01*
X1986526Y1640829D02*
Y1643195D01*
X1986531Y1640829D02*
Y1643195D01*
X1986536Y1640829D02*
Y1643195D01*
X1986541Y1640829D02*
Y1643195D01*
X1986546Y1640829D02*
Y1643195D01*
X1986551Y1640829D02*
Y1643195D01*
X1986556Y1640829D02*
Y1643195D01*
X1986561Y1640829D02*
Y1643195D01*
X1986566Y1640829D02*
Y1643195D01*
X1986571Y1640829D02*
Y1643195D01*
X1986576Y1640829D02*
Y1643195D01*
X1986581Y1640829D02*
Y1643195D01*
X1986586Y1640829D02*
Y1643195D01*
X1986591Y1640829D02*
Y1643195D01*
X1986596Y1640829D02*
Y1643195D01*
X1986601Y1640829D02*
Y1643195D01*
X1986606Y1640829D02*
Y1643195D01*
X1986611Y1640829D02*
Y1643195D01*
X1986616Y1640829D02*
Y1643195D01*
X1986621Y1640829D02*
Y1643195D01*
X1986626Y1640829D02*
Y1643195D01*
X1986631Y1640829D02*
Y1643195D01*
X1986636Y1640829D02*
Y1643195D01*
X1986641Y1640829D02*
Y1643195D01*
X1986646Y1640829D02*
Y1643195D01*
X1986651Y1640829D02*
Y1643194D01*
X1986656Y1640829D02*
Y1643194D01*
X1986661Y1640829D02*
Y1643194D01*
X1986666Y1640829D02*
Y1643194D01*
X1986671Y1640829D02*
Y1643194D01*
X1986676Y1640829D02*
Y1643193D01*
X1986681Y1640829D02*
Y1643193D01*
X1986686Y1640829D02*
Y1643192D01*
X1986691Y1640829D02*
Y1643191D01*
X1986696Y1640829D02*
Y1643191D01*
X1986701Y1640829D02*
Y1643190D01*
X1986706Y1640829D02*
Y1643189D01*
X1986711Y1640829D02*
Y1643188D01*
X1986716Y1640829D02*
Y1643187D01*
X1986721Y1640829D02*
Y1643186D01*
X1986726Y1640829D02*
Y1643185D01*
X1986731Y1640829D02*
Y1643184D01*
X1986736Y1640829D02*
Y1643183D01*
X1986741Y1640829D02*
Y1643182D01*
X1986746Y1640829D02*
Y1643180D01*
X1986751Y1640829D02*
Y1643179D01*
X1986756Y1640829D02*
Y1643177D01*
X1986761Y1640829D02*
Y1643176D01*
X1986766Y1640829D02*
Y1643174D01*
X1986771Y1640829D02*
Y1643172D01*
X1986776Y1640829D02*
Y1643171D01*
X1986781Y1640829D02*
Y1643169D01*
X1986786Y1640829D02*
Y1643167D01*
X1986791Y1640829D02*
Y1643165D01*
X1986796Y1640829D02*
Y1643163D01*
X1986801Y1640829D02*
Y1643160D01*
X1986806Y1640829D02*
Y1643158D01*
X1986811Y1640829D02*
Y1643156D01*
X1986816Y1640829D02*
Y1643153D01*
X1986821Y1640829D02*
Y1643151D01*
X1986826Y1640829D02*
Y1643148D01*
X1986831Y1640829D02*
Y1643146D01*
X1986836Y1640829D02*
Y1643143D01*
X1986841Y1640829D02*
Y1643140D01*
X1986846Y1640829D02*
Y1643137D01*
X1986851Y1640829D02*
Y1643134D01*
X1986856Y1640829D02*
Y1643131D01*
X1986861Y1640829D02*
Y1643127D01*
X1986866Y1640829D02*
Y1643124D01*
X1986871Y1640829D02*
Y1643120D01*
X1986876Y1640829D02*
Y1643117D01*
X1986881Y1640829D02*
Y1643113D01*
X1986886Y1640829D02*
Y1643109D01*
X1986891Y1640829D02*
Y1643105D01*
X1986896Y1640829D02*
Y1643101D01*
X1986901Y1640829D02*
Y1643096D01*
X1986906Y1640829D02*
Y1643092D01*
X1986911Y1640829D02*
Y1643087D01*
X1986916Y1640829D02*
Y1643083D01*
X1986921Y1640829D02*
Y1643078D01*
X1986926Y1640829D02*
Y1643073D01*
X1986931Y1640829D02*
Y1643068D01*
X1986936Y1640829D02*
Y1643063D01*
X1986941Y1640829D02*
Y1643058D01*
X1986946Y1640829D02*
Y1643053D01*
X1986951Y1640829D02*
Y1643048D01*
X1986956Y1640829D02*
Y1643043D01*
X1986961Y1640829D02*
Y1643038D01*
X1986966Y1640829D02*
Y1643033D01*
X1986971Y1640829D02*
Y1643028D01*
X1986976Y1640829D02*
Y1643023D01*
X1986981Y1640829D02*
Y1643018D01*
X1986986Y1640829D02*
Y1643013D01*
X1986991Y1640829D02*
Y1643008D01*
X1986996Y1640829D02*
Y1643003D01*
X1987001Y1640829D02*
Y1642998D01*
X1987006Y1640829D02*
Y1642993D01*
X1987011Y1640829D02*
Y1642988D01*
X1987016Y1640829D02*
Y1642983D01*
X1987021Y1640829D02*
Y1642978D01*
X1987026Y1640829D02*
Y1642973D01*
X1987031Y1640829D02*
Y1642968D01*
X1987036Y1640829D02*
Y1642963D01*
X1987041Y1640829D02*
Y1642958D01*
X1987046Y1640829D02*
Y1642953D01*
X1987051Y1640829D02*
Y1642948D01*
X1987056Y1640829D02*
Y1642943D01*
X1987061Y1640829D02*
Y1642938D01*
X1987066Y1640829D02*
Y1642933D01*
X1987071Y1640829D02*
Y1642928D01*
X1987076Y1640829D02*
Y1642923D01*
X1987081Y1640829D02*
Y1642918D01*
X1987086Y1640829D02*
Y1642913D01*
X1987091Y1640829D02*
Y1642908D01*
X1987096Y1640829D02*
Y1642903D01*
X1987101Y1640829D02*
Y1642898D01*
X1987106Y1640829D02*
Y1642893D01*
X1987111Y1640829D02*
Y1642888D01*
X1987116Y1640829D02*
Y1642883D01*
X1987121Y1640829D02*
Y1642878D01*
X1987126Y1640829D02*
Y1642873D01*
X1987131Y1640829D02*
Y1642868D01*
X1987136Y1640829D02*
Y1642863D01*
X1987141Y1640829D02*
Y1642858D01*
X1987146Y1640829D02*
Y1642853D01*
X1987151Y1640829D02*
Y1642848D01*
X1987156Y1640829D02*
Y1642843D01*
X1987161Y1640829D02*
Y1642838D01*
X1987166Y1640829D02*
Y1642833D01*
X1987171Y1640829D02*
Y1642828D01*
X1987176Y1640829D02*
Y1642823D01*
X1987181Y1640829D02*
Y1642818D01*
X1987186Y1640829D02*
Y1642813D01*
X1987191Y1640829D02*
Y1642808D01*
X1987196Y1640829D02*
Y1642803D01*
X1987201Y1640829D02*
Y1642798D01*
X1987206Y1640829D02*
Y1642793D01*
X1987211Y1640829D02*
Y1642788D01*
X1987216Y1640829D02*
Y1642783D01*
X1987221Y1640829D02*
Y1642778D01*
X1987226Y1640829D02*
Y1642773D01*
X1987231Y1640829D02*
Y1642768D01*
X1987236Y1640829D02*
Y1642763D01*
X1987241Y1640829D02*
Y1642758D01*
X1987246Y1640829D02*
Y1642753D01*
X1987251Y1640829D02*
Y1642748D01*
X1987256Y1640829D02*
Y1642743D01*
X1987261Y1640829D02*
Y1642738D01*
X1987266Y1640829D02*
Y1642733D01*
X1987271Y1640829D02*
Y1642728D01*
X1987276Y1640829D02*
Y1642723D01*
X1987281Y1640829D02*
Y1642718D01*
X1987286Y1640829D02*
Y1642713D01*
X1987291Y1640829D02*
Y1642708D01*
X1987296Y1640829D02*
Y1642703D01*
X1987301Y1640829D02*
Y1642698D01*
X1987306Y1640829D02*
Y1642693D01*
X1987311Y1640829D02*
Y1642688D01*
X1987316Y1640829D02*
Y1642683D01*
X1987321Y1640829D02*
Y1642678D01*
X1987326Y1640829D02*
Y1642673D01*
X1987331Y1640829D02*
Y1642668D01*
X1987336Y1640829D02*
Y1642663D01*
X1987341Y1640829D02*
Y1642658D01*
X1987346Y1640829D02*
Y1642653D01*
X1987351Y1640829D02*
Y1642648D01*
X1987356Y1640829D02*
Y1642643D01*
X1987361Y1640829D02*
Y1642638D01*
X1987366Y1640829D02*
Y1642633D01*
X1987371Y1640829D02*
Y1642628D01*
X1987376Y1640830D02*
Y1642623D01*
X1987381Y1640830D02*
Y1642618D01*
X1987386Y1640830D02*
Y1642613D01*
X1987391Y1640830D02*
Y1642608D01*
X1987396Y1640830D02*
Y1642603D01*
X1987401Y1640831D02*
Y1642598D01*
X1987406Y1640831D02*
Y1642593D01*
X1987411Y1640832D02*
Y1642588D01*
X1987416Y1640832D02*
Y1642583D01*
X1987421Y1640833D02*
Y1642578D01*
X1987426Y1640834D02*
Y1642573D01*
X1987431Y1640834D02*
Y1642568D01*
X1987436Y1640835D02*
Y1642563D01*
X1987441Y1640836D02*
Y1642558D01*
X1987446Y1640837D02*
Y1642553D01*
X1987451Y1640838D02*
Y1642548D01*
X1987456Y1640839D02*
Y1642543D01*
X1987461Y1640840D02*
Y1642538D01*
X1987466Y1640842D02*
Y1642533D01*
X1987471Y1640843D02*
Y1642528D01*
X1987476Y1640844D02*
Y1642523D01*
X1987481Y1640846D02*
Y1642518D01*
X1987486Y1640847D02*
Y1642513D01*
X1987491Y1640849D02*
Y1642508D01*
X1987496Y1640851D02*
Y1642503D01*
X1987501Y1640852D02*
Y1642498D01*
X1987506Y1640854D02*
Y1642493D01*
X1987511Y1640856D02*
Y1642488D01*
X1987516Y1640858D02*
Y1642483D01*
X1987521Y1640860D02*
Y1642478D01*
X1987526Y1640862D02*
Y1642473D01*
X1987531Y1640864D02*
Y1642468D01*
X1987536Y1640867D02*
Y1642463D01*
X1987541Y1640869D02*
Y1642458D01*
X1987546Y1640872D02*
Y1642453D01*
X1987551Y1640874D02*
Y1642448D01*
X1987556Y1640877D02*
Y1642443D01*
X1987561Y1640879D02*
Y1642438D01*
X1987566Y1640882D02*
Y1642433D01*
X1987571Y1640885D02*
Y1642428D01*
X1987576Y1640888D02*
Y1642423D01*
X1987581Y1640891D02*
Y1642418D01*
X1987586Y1640895D02*
Y1642413D01*
X1987591Y1640898D02*
Y1642408D01*
X1987596Y1640902D02*
Y1642403D01*
X1987601Y1640905D02*
Y1642398D01*
X1987606Y1640909D02*
Y1642393D01*
X1987611Y1640913D02*
Y1642388D01*
X1987616Y1640917D02*
Y1642383D01*
X1987621Y1640921D02*
Y1642378D01*
X1987626Y1640925D02*
Y1642373D01*
X1987631Y1640929D02*
Y1642368D01*
X1987636Y1640934D02*
Y1642363D01*
X1987641Y1640938D02*
Y1642358D01*
X1987646Y1640943D02*
Y1642353D01*
X1987651Y1640948D02*
Y1642348D01*
X1987656Y1640954D02*
Y1642342D01*
X1987661Y1640959D02*
Y1642337D01*
X1987666Y1640965D02*
Y1642331D01*
X1987671Y1640970D02*
Y1642326D01*
X1987676Y1640976D02*
Y1642319D01*
X1987681Y1640983D02*
Y1642313D01*
X1987686Y1640989D02*
Y1642306D01*
X1987691Y1640996D02*
Y1642300D01*
X1987696Y1641003D02*
Y1642292D01*
X1987701Y1641011D02*
Y1642285D01*
X1987706Y1641019D02*
Y1642277D01*
X1987711Y1641028D02*
Y1642268D01*
X1987716Y1641037D02*
Y1642259D01*
X1987721Y1641046D02*
Y1642250D01*
X1987726Y1641056D02*
Y1642240D01*
X1987731Y1641067D02*
Y1642228D01*
X1987736Y1641080D02*
Y1642216D01*
X1987741Y1641093D02*
Y1642203D01*
X1987746Y1641108D02*
Y1642188D01*
X1987751Y1641126D02*
Y1642170D01*
X1987756Y1641147D02*
Y1642149D01*
X1987761Y1641179D02*
Y1642116D01*
X1987368Y1646738D02*
X1987384Y1646737D01*
X1987399Y1646736*
X1987415Y1646735*
X1987430Y1646733*
X1987445Y1646730*
X1987460Y1646727*
X1987475Y1646723*
X1987490Y1646718*
X1987505Y1646713*
X1987519Y1646707*
X1987533Y1646701*
X1987547Y1646694*
X1987561Y1646687*
X1987574Y1646679*
X1987588Y1646671*
X1987600Y1646662*
X1987613Y1646653*
X1987625Y1646643*
X1987636Y1646633*
X1987647Y1646622*
X1987658Y1646611*
X1987668Y1646599*
X1987678Y1646587*
X1987688Y1646575*
X1987697Y1646562*
X1987705Y1646549*
X1987713Y1646536*
X1987720Y1646522*
X1987727Y1646508*
X1987733Y1646494*
X1987739Y1646479*
X1987744Y1646465*
X1987748Y1646450*
X1987752Y1646435*
X1987756Y1646420*
X1987758Y1646404*
X1987760Y1646389*
X1987762Y1646374*
X1987763Y1646358*
Y1646343*
Y1645496*
Y1645481*
X1987762Y1645465*
X1987760Y1645450*
X1987758Y1645434*
X1987756Y1645419*
X1987752Y1645404*
X1987748Y1645389*
X1987744Y1645374*
X1987739Y1645359*
X1987733Y1645345*
X1987727Y1645331*
X1987720Y1645317*
X1987713Y1645303*
X1987705Y1645290*
X1987697Y1645277*
X1987688Y1645264*
X1987678Y1645252*
X1987668Y1645240*
X1987658Y1645228*
X1987647Y1645217*
X1986919Y1644488*
X1986908Y1644478*
X1986896Y1644467*
X1986884Y1644458*
X1986872Y1644448*
X1986859Y1644439*
X1986846Y1644431*
X1986833Y1644423*
X1986819Y1644416*
X1986805Y1644409*
X1986791Y1644403*
X1986776Y1644397*
X1986762Y1644392*
X1986747Y1644388*
X1986732Y1644384*
X1986717Y1644380*
X1986702Y1644378*
X1986686Y1644375*
X1986671Y1644374*
X1986655Y1644373*
X1986640*
X1986384*
X1986368*
X1986353Y1644374*
X1986337Y1644375*
X1986322Y1644378*
X1986307Y1644380*
X1986292Y1644384*
X1986277Y1644388*
X1986262Y1644392*
X1986247Y1644397*
X1986233Y1644403*
X1986218Y1644409*
X1986205Y1644416*
X1986191Y1644423*
X1986177Y1644431*
X1986164Y1644439*
X1986152Y1644448*
X1986139Y1644458*
X1986127Y1644467*
X1986116Y1644478*
X1986105Y1644488*
X1986094Y1644500*
X1986083Y1644511*
X1986083D02*
X1986074Y1644523D01*
X1986064Y1644536*
X1986055Y1644548*
X1986047Y1644561*
X1986039Y1644575*
X1986032Y1644588*
X1986025Y1644602*
X1986019Y1644617*
X1986013Y1644631*
X1986008Y1644646*
X1986004Y1644660*
X1986004D02*
X1986000Y1644676D01*
X1985996Y1644691*
X1985994Y1644706*
X1985992Y1644721*
X1985990Y1644737*
X1985989Y1644752*
Y1644768*
Y1646343*
Y1646358*
X1985990Y1646374*
X1985992Y1646389*
X1985994Y1646404*
X1985996Y1646420*
X1986000Y1646435*
X1986004Y1646450*
X1986008Y1646465*
X1986013Y1646479*
X1986019Y1646494*
X1986025Y1646508*
X1986032Y1646522*
X1986039Y1646536*
X1986047Y1646549*
X1986055Y1646562*
X1986064Y1646575*
X1986074Y1646587*
X1986083Y1646599*
X1986083D02*
X1986094Y1646611D01*
X1986105Y1646622*
X1986116Y1646633*
X1986127Y1646643*
X1986139Y1646653*
X1986152Y1646662*
X1986164Y1646671*
X1986177Y1646679*
X1986191Y1646687*
X1986205Y1646694*
X1986218Y1646701*
X1986233Y1646707*
X1986247Y1646713*
X1986262Y1646718*
X1986277Y1646723*
X1986292Y1646727*
X1986307Y1646730*
X1986322Y1646733*
X1986337Y1646735*
X1986353Y1646736*
X1986368Y1646737*
X1986384Y1646738*
X1987368*
X1985991Y1644732D02*
Y1646378D01*
X1985996Y1644696D02*
Y1646414D01*
X1986001Y1644673D02*
Y1646438D01*
X1986006Y1644654D02*
Y1646456D01*
X1986011Y1644639D02*
Y1646471D01*
X1986016Y1644625D02*
Y1646485D01*
X1986021Y1644613D02*
Y1646497D01*
X1986026Y1644602D02*
Y1646509D01*
X1986031Y1644591D02*
Y1646519D01*
X1986036Y1644582D02*
Y1646529D01*
X1986041Y1644573D02*
Y1646538D01*
X1986046Y1644564D02*
Y1646546D01*
X1986051Y1644556D02*
Y1646554D01*
X1986056Y1644548D02*
Y1646562D01*
X1986061Y1644541D02*
Y1646569D01*
X1986066Y1644534D02*
Y1646576D01*
X1986071Y1644527D02*
Y1646583D01*
X1986076Y1644521D02*
Y1646589D01*
X1986081Y1644515D02*
Y1646595D01*
X1986086Y1644509D02*
Y1646601D01*
X1986091Y1644503D02*
Y1646607D01*
X1986096Y1644498D02*
Y1646612D01*
X1986101Y1644493D02*
Y1646618D01*
X1986106Y1644487D02*
Y1646623D01*
X1986111Y1644483D02*
Y1646628D01*
X1986116Y1644478D02*
Y1646632D01*
X1986121Y1644473D02*
Y1646637D01*
X1986126Y1644469D02*
Y1646641D01*
X1986131Y1644465D02*
Y1646645D01*
X1986136Y1644461D02*
Y1646650D01*
X1986141Y1644457D02*
Y1646654D01*
X1986146Y1644453D02*
Y1646657D01*
X1986151Y1644449D02*
Y1646661D01*
X1986156Y1644445D02*
Y1646665D01*
X1986161Y1644442D02*
Y1646668D01*
X1986166Y1644439D02*
Y1646672D01*
X1986171Y1644435D02*
Y1646675D01*
X1986176Y1644432D02*
Y1646678D01*
X1986181Y1644429D02*
Y1646681D01*
X1986186Y1644426D02*
Y1646684D01*
X1986191Y1644423D02*
Y1646687D01*
X1986196Y1644421D02*
Y1646690D01*
X1986201Y1644418D02*
Y1646692D01*
X1986206Y1644415D02*
Y1646695D01*
X1986211Y1644413D02*
Y1646697D01*
X1986216Y1644410D02*
Y1646700D01*
X1986221Y1644408D02*
Y1646702D01*
X1986226Y1644406D02*
Y1646704D01*
X1986231Y1644404D02*
Y1646706D01*
X1986236Y1644402D02*
Y1646709D01*
X1986241Y1644400D02*
Y1646711D01*
X1986246Y1644398D02*
Y1646712D01*
X1986251Y1644396D02*
Y1646714D01*
X1986256Y1644394D02*
Y1646716D01*
X1986261Y1644392D02*
Y1646718D01*
X1986266Y1644391D02*
Y1646719D01*
X1986271Y1644389D02*
Y1646721D01*
X1986276Y1644388D02*
Y1646722D01*
X1986281Y1644387D02*
Y1646724D01*
X1986286Y1644385D02*
Y1646725D01*
X1986291Y1644384D02*
Y1646726D01*
X1986296Y1644383D02*
Y1646727D01*
X1986301Y1644382D02*
Y1646729D01*
X1986306Y1644381D02*
Y1646730D01*
X1986311Y1644380D02*
Y1646731D01*
X1986316Y1644379D02*
Y1646731D01*
X1986321Y1644378D02*
Y1646732D01*
X1986326Y1644377D02*
Y1646733D01*
X1986331Y1644376D02*
Y1646734D01*
X1986336Y1644376D02*
Y1646735D01*
X1986341Y1644375D02*
Y1646735D01*
X1986346Y1644375D02*
Y1646736D01*
X1986351Y1644374D02*
Y1646736D01*
X1986356Y1644374D02*
Y1646736D01*
X1986361Y1644373D02*
Y1646737D01*
X1986366Y1644373D02*
Y1646737D01*
X1986371Y1644373D02*
Y1646737D01*
X1986376Y1644373D02*
Y1646737D01*
X1986381Y1644373D02*
Y1646737D01*
X1986386Y1644373D02*
Y1646738D01*
X1986391Y1644373D02*
Y1646738D01*
X1986396Y1644373D02*
Y1646738D01*
X1986401Y1644373D02*
Y1646738D01*
X1986406Y1644373D02*
Y1646738D01*
X1986411Y1644373D02*
Y1646738D01*
X1986416Y1644373D02*
Y1646738D01*
X1986421Y1644373D02*
Y1646738D01*
X1986426Y1644373D02*
Y1646738D01*
X1986431Y1644373D02*
Y1646738D01*
X1986436Y1644373D02*
Y1646738D01*
X1986441Y1644373D02*
Y1646738D01*
X1986446Y1644373D02*
Y1646738D01*
X1986451Y1644373D02*
Y1646738D01*
X1986456Y1644373D02*
Y1646738D01*
X1986461Y1644373D02*
Y1646738D01*
X1986466Y1644373D02*
Y1646738D01*
X1986471Y1644373D02*
Y1646738D01*
X1986476Y1644373D02*
Y1646738D01*
X1986481Y1644373D02*
Y1646738D01*
X1986486Y1644373D02*
Y1646738D01*
X1986491Y1644373D02*
Y1646738D01*
X1986496Y1644373D02*
Y1646738D01*
X1986501Y1644373D02*
Y1646738D01*
X1986506Y1644373D02*
Y1646738D01*
X1986511Y1644373D02*
Y1646738D01*
X1986516Y1644373D02*
Y1646738D01*
X1986521Y1644373D02*
Y1646738D01*
X1986526Y1644373D02*
Y1646738D01*
X1986531Y1644373D02*
Y1646738D01*
X1986536Y1644373D02*
Y1646738D01*
X1986541Y1644373D02*
Y1646738D01*
X1986546Y1644373D02*
Y1646738D01*
X1986551Y1644373D02*
Y1646738D01*
X1986556Y1644373D02*
Y1646738D01*
X1986561Y1644373D02*
Y1646738D01*
X1986566Y1644373D02*
Y1646738D01*
X1986571Y1644373D02*
Y1646738D01*
X1986576Y1644373D02*
Y1646738D01*
X1986581Y1644373D02*
Y1646738D01*
X1986586Y1644373D02*
Y1646738D01*
X1986591Y1644373D02*
Y1646738D01*
X1986596Y1644373D02*
Y1646738D01*
X1986601Y1644373D02*
Y1646738D01*
X1986606Y1644373D02*
Y1646738D01*
X1986611Y1644373D02*
Y1646738D01*
X1986616Y1644373D02*
Y1646738D01*
X1986621Y1644373D02*
Y1646738D01*
X1986626Y1644373D02*
Y1646738D01*
X1986631Y1644373D02*
Y1646738D01*
X1986636Y1644373D02*
Y1646738D01*
X1986641Y1644373D02*
Y1646738D01*
X1986646Y1644373D02*
Y1646738D01*
X1986651Y1644373D02*
Y1646738D01*
X1986656Y1644373D02*
Y1646738D01*
X1986661Y1644373D02*
Y1646738D01*
X1986666Y1644374D02*
Y1646738D01*
X1986671Y1644374D02*
Y1646738D01*
X1986676Y1644374D02*
Y1646738D01*
X1986681Y1644375D02*
Y1646738D01*
X1986686Y1644375D02*
Y1646738D01*
X1986691Y1644376D02*
Y1646738D01*
X1986696Y1644377D02*
Y1646738D01*
X1986701Y1644377D02*
Y1646738D01*
X1986706Y1644378D02*
Y1646738D01*
X1986711Y1644379D02*
Y1646738D01*
X1986716Y1644380D02*
Y1646738D01*
X1986721Y1644381D02*
Y1646738D01*
X1986726Y1644382D02*
Y1646738D01*
X1986731Y1644383D02*
Y1646738D01*
X1986736Y1644385D02*
Y1646738D01*
X1986741Y1644386D02*
Y1646738D01*
X1986746Y1644387D02*
Y1646738D01*
X1986751Y1644389D02*
Y1646738D01*
X1986756Y1644390D02*
Y1646738D01*
X1986761Y1644392D02*
Y1646738D01*
X1986766Y1644393D02*
Y1646738D01*
X1986771Y1644395D02*
Y1646738D01*
X1986776Y1644397D02*
Y1646738D01*
X1986781Y1644399D02*
Y1646738D01*
X1986786Y1644401D02*
Y1646738D01*
X1986791Y1644403D02*
Y1646738D01*
X1986796Y1644405D02*
Y1646738D01*
X1986801Y1644407D02*
Y1646738D01*
X1986806Y1644409D02*
Y1646738D01*
X1986811Y1644412D02*
Y1646738D01*
X1986816Y1644414D02*
Y1646738D01*
X1986821Y1644417D02*
Y1646738D01*
X1986826Y1644419D02*
Y1646738D01*
X1986831Y1644422D02*
Y1646738D01*
X1986836Y1644425D02*
Y1646738D01*
X1986841Y1644428D02*
Y1646738D01*
X1986846Y1644431D02*
Y1646738D01*
X1986851Y1644434D02*
Y1646738D01*
X1986856Y1644437D02*
Y1646738D01*
X1986861Y1644440D02*
Y1646738D01*
X1986866Y1644444D02*
Y1646738D01*
X1986871Y1644447D02*
Y1646738D01*
X1986876Y1644451D02*
Y1646738D01*
X1986881Y1644455D02*
Y1646738D01*
X1986886Y1644459D02*
Y1646738D01*
X1986891Y1644463D02*
Y1646738D01*
X1986896Y1644467D02*
Y1646738D01*
X1986901Y1644471D02*
Y1646738D01*
X1986906Y1644476D02*
Y1646738D01*
X1986911Y1644480D02*
Y1646738D01*
X1986916Y1644485D02*
Y1646738D01*
X1986921Y1644490D02*
Y1646738D01*
X1986926Y1644495D02*
Y1646738D01*
X1986931Y1644500D02*
Y1646738D01*
X1986936Y1644505D02*
Y1646738D01*
X1986941Y1644510D02*
Y1646738D01*
X1986946Y1644515D02*
Y1646738D01*
X1986951Y1644520D02*
Y1646738D01*
X1986956Y1644525D02*
Y1646738D01*
X1986961Y1644530D02*
Y1646738D01*
X1986966Y1644535D02*
Y1646738D01*
X1986971Y1644540D02*
Y1646738D01*
X1986976Y1644545D02*
Y1646738D01*
X1986981Y1644550D02*
Y1646738D01*
X1986986Y1644555D02*
Y1646738D01*
X1986991Y1644560D02*
Y1646738D01*
X1986996Y1644565D02*
Y1646738D01*
X1987001Y1644570D02*
Y1646738D01*
X1987006Y1644575D02*
Y1646738D01*
X1987011Y1644580D02*
Y1646738D01*
X1987016Y1644585D02*
Y1646738D01*
X1987021Y1644590D02*
Y1646738D01*
X1987026Y1644595D02*
Y1646738D01*
X1987031Y1644600D02*
Y1646738D01*
X1987036Y1644605D02*
Y1646738D01*
X1987041Y1644610D02*
Y1646738D01*
X1987046Y1644615D02*
Y1646738D01*
X1987051Y1644620D02*
Y1646738D01*
X1987056Y1644625D02*
Y1646738D01*
X1987061Y1644630D02*
Y1646738D01*
X1987066Y1644635D02*
Y1646738D01*
X1987071Y1644640D02*
Y1646738D01*
X1987076Y1644645D02*
Y1646738D01*
X1987081Y1644650D02*
Y1646738D01*
X1987086Y1644655D02*
Y1646738D01*
X1987091Y1644660D02*
Y1646738D01*
X1987096Y1644665D02*
Y1646738D01*
X1987101Y1644670D02*
Y1646738D01*
X1987106Y1644675D02*
Y1646738D01*
X1987111Y1644680D02*
Y1646738D01*
X1987116Y1644685D02*
Y1646738D01*
X1987121Y1644690D02*
Y1646738D01*
X1987126Y1644695D02*
Y1646738D01*
X1987131Y1644700D02*
Y1646738D01*
X1987136Y1644705D02*
Y1646738D01*
X1987141Y1644710D02*
Y1646738D01*
X1987146Y1644715D02*
Y1646738D01*
X1987151Y1644720D02*
Y1646738D01*
X1987156Y1644725D02*
Y1646738D01*
X1987161Y1644730D02*
Y1646738D01*
X1987166Y1644735D02*
Y1646738D01*
X1987171Y1644740D02*
Y1646738D01*
X1987176Y1644745D02*
Y1646738D01*
X1987181Y1644750D02*
Y1646738D01*
X1987186Y1644755D02*
Y1646738D01*
X1987191Y1644760D02*
Y1646738D01*
X1987196Y1644765D02*
Y1646738D01*
X1987201Y1644770D02*
Y1646738D01*
X1987206Y1644775D02*
Y1646738D01*
X1987211Y1644780D02*
Y1646738D01*
X1987216Y1644785D02*
Y1646738D01*
X1987221Y1644790D02*
Y1646738D01*
X1987226Y1644795D02*
Y1646738D01*
X1987231Y1644800D02*
Y1646738D01*
X1987236Y1644805D02*
Y1646738D01*
X1987241Y1644810D02*
Y1646738D01*
X1987246Y1644815D02*
Y1646738D01*
X1987251Y1644820D02*
Y1646738D01*
X1987256Y1644825D02*
Y1646738D01*
X1987261Y1644830D02*
Y1646738D01*
X1987266Y1644835D02*
Y1646738D01*
X1987271Y1644840D02*
Y1646738D01*
X1987276Y1644845D02*
Y1646738D01*
X1987281Y1644850D02*
Y1646738D01*
X1987286Y1644855D02*
Y1646738D01*
X1987291Y1644860D02*
Y1646738D01*
X1987296Y1644865D02*
Y1646738D01*
X1987301Y1644870D02*
Y1646738D01*
X1987306Y1644875D02*
Y1646738D01*
X1987311Y1644880D02*
Y1646738D01*
X1987316Y1644885D02*
Y1646738D01*
X1987321Y1644890D02*
Y1646738D01*
X1987326Y1644895D02*
Y1646738D01*
X1987331Y1644900D02*
Y1646738D01*
X1987336Y1644905D02*
Y1646738D01*
X1987341Y1644910D02*
Y1646738D01*
X1987346Y1644915D02*
Y1646738D01*
X1987351Y1644920D02*
Y1646738D01*
X1987356Y1644925D02*
Y1646738D01*
X1987361Y1644930D02*
Y1646738D01*
X1987366Y1644935D02*
Y1646738D01*
X1987371Y1644940D02*
Y1646737D01*
X1987376Y1644945D02*
Y1646737D01*
X1987381Y1644950D02*
Y1646737D01*
X1987386Y1644955D02*
Y1646737D01*
X1987391Y1644960D02*
Y1646737D01*
X1987396Y1644965D02*
Y1646737D01*
X1987401Y1644970D02*
Y1646736D01*
X1987406Y1644975D02*
Y1646736D01*
X1987411Y1644980D02*
Y1646735D01*
X1987416Y1644985D02*
Y1646735D01*
X1987421Y1644990D02*
Y1646734D01*
X1987426Y1644995D02*
Y1646733D01*
X1987431Y1645000D02*
Y1646733D01*
X1987436Y1645005D02*
Y1646732D01*
X1987441Y1645010D02*
Y1646731D01*
X1987446Y1645015D02*
Y1646730D01*
X1987451Y1645020D02*
Y1646729D01*
X1987456Y1645025D02*
Y1646728D01*
X1987461Y1645030D02*
Y1646727D01*
X1987466Y1645035D02*
Y1646725D01*
X1987471Y1645040D02*
Y1646724D01*
X1987476Y1645045D02*
Y1646723D01*
X1987481Y1645050D02*
Y1646721D01*
X1987486Y1645055D02*
Y1646720D01*
X1987491Y1645060D02*
Y1646718D01*
X1987496Y1645065D02*
Y1646716D01*
X1987501Y1645070D02*
Y1646715D01*
X1987506Y1645075D02*
Y1646713D01*
X1987511Y1645080D02*
Y1646711D01*
X1987516Y1645085D02*
Y1646709D01*
X1987521Y1645090D02*
Y1646707D01*
X1987526Y1645095D02*
Y1646705D01*
X1987531Y1645100D02*
Y1646703D01*
X1987536Y1645105D02*
Y1646700D01*
X1987541Y1645110D02*
Y1646698D01*
X1987546Y1645115D02*
Y1646695D01*
X1987551Y1645120D02*
Y1646693D01*
X1987556Y1645125D02*
Y1646690D01*
X1987561Y1645130D02*
Y1646687D01*
X1987566Y1645135D02*
Y1646685D01*
X1987571Y1645140D02*
Y1646682D01*
X1987576Y1645145D02*
Y1646679D01*
X1987581Y1645150D02*
Y1646675D01*
X1987586Y1645155D02*
Y1646672D01*
X1987591Y1645160D02*
Y1646669D01*
X1987596Y1645165D02*
Y1646665D01*
X1987601Y1645170D02*
Y1646662D01*
X1987606Y1645175D02*
Y1646658D01*
X1987611Y1645180D02*
Y1646654D01*
X1987616Y1645185D02*
Y1646650D01*
X1987621Y1645190D02*
Y1646646D01*
X1987626Y1645195D02*
Y1646642D01*
X1987631Y1645200D02*
Y1646638D01*
X1987636Y1645205D02*
Y1646633D01*
X1987641Y1645210D02*
Y1646628D01*
X1987646Y1645215D02*
Y1646624D01*
X1987651Y1645220D02*
Y1646619D01*
X1987656Y1645225D02*
Y1646613D01*
X1987661Y1645231D02*
Y1646608D01*
X1987666Y1645236D02*
Y1646602D01*
X1987671Y1645242D02*
Y1646597D01*
X1987676Y1645248D02*
Y1646590D01*
X1987681Y1645254D02*
Y1646584D01*
X1987686Y1645261D02*
Y1646578D01*
X1987691Y1645268D02*
Y1646571D01*
X1987696Y1645275D02*
Y1646563D01*
X1987701Y1645283D02*
Y1646556D01*
X1987706Y1645291D02*
Y1646548D01*
X1987711Y1645299D02*
Y1646539D01*
X1987716Y1645308D02*
Y1646530D01*
X1987721Y1645318D02*
Y1646521D01*
X1987726Y1645328D02*
Y1646511D01*
X1987731Y1645339D02*
Y1646499D01*
X1987736Y1645351D02*
Y1646487D01*
X1987741Y1645365D02*
Y1646474D01*
X1987746Y1645380D02*
Y1646459D01*
X1987751Y1645397D02*
Y1646441D01*
X1987756Y1645419D02*
Y1646420D01*
X1987761Y1645451D02*
Y1646388D01*
X1989927Y1646738D02*
X1989943Y1646737D01*
X1989958Y1646736*
X1989974Y1646735*
X1989989Y1646733*
X1990004Y1646730*
X1990019Y1646727*
X1990034Y1646723*
X1990049Y1646718*
X1990064Y1646713*
X1990078Y1646707*
X1990093Y1646701*
X1990106Y1646694*
X1990120Y1646687*
X1990134Y1646679*
X1990147Y1646671*
X1990159Y1646662*
X1990172Y1646653*
X1990184Y1646643*
X1990195Y1646633*
X1990206Y1646622*
X1990217Y1646611*
X1990228Y1646599*
X1990237Y1646587*
X1990247Y1646575*
X1990256Y1646562*
X1990264Y1646549*
X1990272Y1646536*
X1990279Y1646522*
X1990286Y1646508*
X1990292Y1646494*
X1990298Y1646479*
X1990303Y1646465*
X1990307Y1646450*
X1990311Y1646435*
X1990315Y1646420*
X1990317Y1646404*
X1990319Y1646389*
X1990321Y1646374*
X1990322Y1646358*
Y1646343*
Y1644768*
Y1644752*
X1990321Y1644737*
X1990319Y1644721*
X1990317Y1644706*
X1990315Y1644691*
X1990311Y1644676*
X1990307Y1644660*
X1990307D02*
X1990303Y1644646D01*
X1990298Y1644631*
X1990292Y1644617*
X1990286Y1644602*
X1990279Y1644588*
X1990272Y1644575*
X1990264Y1644561*
X1990256Y1644548*
X1990247Y1644536*
X1990237Y1644523*
X1990228Y1644511*
X1990217Y1644500*
X1990206Y1644488*
X1990195Y1644478*
X1990184Y1644467*
X1990172Y1644458*
X1990159Y1644448*
X1990147Y1644439*
X1990134Y1644431*
X1990120Y1644423*
X1990106Y1644416*
X1990093Y1644409*
X1990078Y1644403*
X1990064Y1644397*
X1990049Y1644392*
X1990034Y1644388*
X1990019Y1644384*
X1990004Y1644380*
X1989989Y1644378*
X1989974Y1644375*
X1989958Y1644374*
X1989943Y1644373*
X1989927*
X1989671*
X1989656*
X1989640Y1644374*
X1989625Y1644375*
X1989609Y1644378*
X1989594Y1644380*
X1989579Y1644384*
X1989564Y1644388*
X1989549Y1644392*
X1989535Y1644397*
X1989520Y1644403*
X1989506Y1644409*
X1989492Y1644416*
X1989478Y1644423*
X1989465Y1644431*
X1989452Y1644439*
X1989439Y1644448*
X1989427Y1644458*
X1989415Y1644467*
X1989403Y1644478*
X1989392Y1644488*
X1988664Y1645217*
X1988653Y1645228*
X1988643Y1645240*
X1988633Y1645252*
X1988623Y1645264*
X1988614Y1645277*
X1988606Y1645290*
X1988598Y1645303*
X1988591Y1645317*
X1988584Y1645331*
X1988578Y1645345*
X1988572Y1645359*
X1988567Y1645374*
X1988563Y1645389*
X1988559Y1645404*
X1988556Y1645419*
X1988553Y1645434*
X1988551Y1645450*
X1988549Y1645465*
X1988548Y1645481*
Y1645496*
Y1646343*
Y1646358*
X1988549Y1646374*
X1988551Y1646389*
X1988553Y1646404*
X1988556Y1646420*
X1988559Y1646435*
X1988563Y1646450*
X1988567Y1646465*
X1988572Y1646479*
X1988578Y1646494*
X1988584Y1646508*
X1988591Y1646522*
X1988598Y1646536*
X1988606Y1646549*
X1988614Y1646562*
X1988623Y1646575*
X1988633Y1646587*
X1988643Y1646599*
X1988653Y1646611*
X1988664Y1646622*
X1988675Y1646633*
X1988686Y1646643*
X1988698Y1646653*
X1988711Y1646662*
X1988723Y1646671*
X1988737Y1646679*
X1988750Y1646687*
X1988764Y1646694*
X1988778Y1646701*
X1988792Y1646707*
X1988806Y1646713*
X1988821Y1646718*
X1988836Y1646723*
X1988851Y1646727*
X1988866Y1646730*
X1988881Y1646733*
X1988896Y1646735*
X1988912Y1646736*
X1988927Y1646737*
X1988943Y1646738*
X1989927*
X1988551Y1645451D02*
Y1646388D01*
X1988556Y1645419D02*
Y1646420D01*
X1988561Y1645397D02*
Y1646441D01*
X1988566Y1645380D02*
Y1646459D01*
X1988571Y1645365D02*
Y1646474D01*
X1988576Y1645351D02*
Y1646487D01*
X1988581Y1645339D02*
Y1646499D01*
X1988586Y1645328D02*
Y1646511D01*
X1988591Y1645318D02*
Y1646521D01*
X1988596Y1645308D02*
Y1646530D01*
X1988601Y1645299D02*
Y1646539D01*
X1988606Y1645291D02*
Y1646548D01*
X1988611Y1645283D02*
Y1646556D01*
X1988616Y1645275D02*
Y1646563D01*
X1988621Y1645268D02*
Y1646571D01*
X1988626Y1645261D02*
Y1646578D01*
X1988631Y1645254D02*
Y1646584D01*
X1988636Y1645248D02*
Y1646590D01*
X1988641Y1645242D02*
Y1646597D01*
X1988646Y1645236D02*
Y1646602D01*
X1988651Y1645231D02*
Y1646608D01*
X1988656Y1645225D02*
Y1646613D01*
X1988661Y1645220D02*
Y1646619D01*
X1988666Y1645215D02*
Y1646624D01*
X1988671Y1645210D02*
Y1646628D01*
X1988676Y1645205D02*
Y1646633D01*
X1988681Y1645200D02*
Y1646638D01*
X1988686Y1645195D02*
Y1646642D01*
X1988691Y1645190D02*
Y1646646D01*
X1988696Y1645185D02*
Y1646650D01*
X1988701Y1645180D02*
Y1646654D01*
X1988706Y1645175D02*
Y1646658D01*
X1988711Y1645170D02*
Y1646662D01*
X1988716Y1645165D02*
Y1646665D01*
X1988721Y1645160D02*
Y1646669D01*
X1988726Y1645155D02*
Y1646672D01*
X1988731Y1645150D02*
Y1646675D01*
X1988736Y1645145D02*
Y1646679D01*
X1988741Y1645140D02*
Y1646682D01*
X1988746Y1645135D02*
Y1646685D01*
X1988751Y1645130D02*
Y1646687D01*
X1988756Y1645125D02*
Y1646690D01*
X1988761Y1645120D02*
Y1646693D01*
X1988766Y1645115D02*
Y1646695D01*
X1988771Y1645110D02*
Y1646698D01*
X1988776Y1645105D02*
Y1646700D01*
X1988781Y1645100D02*
Y1646703D01*
X1988786Y1645095D02*
Y1646705D01*
X1988791Y1645090D02*
Y1646707D01*
X1988796Y1645085D02*
Y1646709D01*
X1988801Y1645080D02*
Y1646711D01*
X1988806Y1645075D02*
Y1646713D01*
X1988811Y1645070D02*
Y1646715D01*
X1988816Y1645065D02*
Y1646716D01*
X1988821Y1645060D02*
Y1646718D01*
X1988826Y1645055D02*
Y1646720D01*
X1988831Y1645050D02*
Y1646721D01*
X1988836Y1645045D02*
Y1646723D01*
X1988841Y1645040D02*
Y1646724D01*
X1988846Y1645035D02*
Y1646725D01*
X1988851Y1645030D02*
Y1646727D01*
X1988856Y1645025D02*
Y1646728D01*
X1988861Y1645020D02*
Y1646729D01*
X1988866Y1645015D02*
Y1646730D01*
X1988871Y1645010D02*
Y1646731D01*
X1988876Y1645005D02*
Y1646732D01*
X1988881Y1645000D02*
Y1646733D01*
X1988886Y1644995D02*
Y1646733D01*
X1988891Y1644990D02*
Y1646734D01*
X1988896Y1644985D02*
Y1646735D01*
X1988901Y1644980D02*
Y1646735D01*
X1988906Y1644975D02*
Y1646736D01*
X1988911Y1644970D02*
Y1646736D01*
X1988916Y1644965D02*
Y1646737D01*
X1988921Y1644960D02*
Y1646737D01*
X1988926Y1644955D02*
Y1646737D01*
X1988931Y1644950D02*
Y1646737D01*
X1988936Y1644945D02*
Y1646737D01*
X1988941Y1644940D02*
Y1646737D01*
X1988946Y1644935D02*
Y1646738D01*
X1988951Y1644930D02*
Y1646738D01*
X1988956Y1644925D02*
Y1646738D01*
X1988961Y1644920D02*
Y1646738D01*
X1988966Y1644915D02*
Y1646738D01*
X1988971Y1644910D02*
Y1646738D01*
X1988976Y1644905D02*
Y1646738D01*
X1988981Y1644900D02*
Y1646738D01*
X1988986Y1644895D02*
Y1646738D01*
X1988991Y1644890D02*
Y1646738D01*
X1988996Y1644885D02*
Y1646738D01*
X1989001Y1644880D02*
Y1646738D01*
X1989006Y1644875D02*
Y1646738D01*
X1989011Y1644870D02*
Y1646738D01*
X1989016Y1644865D02*
Y1646738D01*
X1989021Y1644860D02*
Y1646738D01*
X1989026Y1644855D02*
Y1646738D01*
X1989031Y1644850D02*
Y1646738D01*
X1989036Y1644845D02*
Y1646738D01*
X1989041Y1644840D02*
Y1646738D01*
X1989046Y1644835D02*
Y1646738D01*
X1989051Y1644830D02*
Y1646738D01*
X1989056Y1644825D02*
Y1646738D01*
X1989061Y1644820D02*
Y1646738D01*
X1989066Y1644815D02*
Y1646738D01*
X1989071Y1644810D02*
Y1646738D01*
X1989076Y1644805D02*
Y1646738D01*
X1989081Y1644800D02*
Y1646738D01*
X1989086Y1644795D02*
Y1646738D01*
X1989091Y1644790D02*
Y1646738D01*
X1989096Y1644785D02*
Y1646738D01*
X1989101Y1644780D02*
Y1646738D01*
X1989106Y1644775D02*
Y1646738D01*
X1989111Y1644770D02*
Y1646738D01*
X1989116Y1644765D02*
Y1646738D01*
X1989121Y1644760D02*
Y1646738D01*
X1989126Y1644755D02*
Y1646738D01*
X1989131Y1644750D02*
Y1646738D01*
X1989136Y1644745D02*
Y1646738D01*
X1989141Y1644740D02*
Y1646738D01*
X1989146Y1644735D02*
Y1646738D01*
X1989151Y1644730D02*
Y1646738D01*
X1989156Y1644725D02*
Y1646738D01*
X1989161Y1644720D02*
Y1646738D01*
X1989166Y1644715D02*
Y1646738D01*
X1989171Y1644710D02*
Y1646738D01*
X1989176Y1644705D02*
Y1646738D01*
X1989181Y1644700D02*
Y1646738D01*
X1989186Y1644695D02*
Y1646738D01*
X1989191Y1644690D02*
Y1646738D01*
X1989196Y1644685D02*
Y1646738D01*
X1989201Y1644680D02*
Y1646738D01*
X1989206Y1644675D02*
Y1646738D01*
X1989211Y1644670D02*
Y1646738D01*
X1989216Y1644665D02*
Y1646738D01*
X1989221Y1644660D02*
Y1646738D01*
X1989226Y1644655D02*
Y1646738D01*
X1989231Y1644650D02*
Y1646738D01*
X1989236Y1644645D02*
Y1646738D01*
X1989241Y1644640D02*
Y1646738D01*
X1989246Y1644635D02*
Y1646738D01*
X1989251Y1644630D02*
Y1646738D01*
X1989256Y1644625D02*
Y1646738D01*
X1989261Y1644620D02*
Y1646738D01*
X1989266Y1644615D02*
Y1646738D01*
X1989271Y1644610D02*
Y1646738D01*
X1989276Y1644605D02*
Y1646738D01*
X1989281Y1644600D02*
Y1646738D01*
X1989286Y1644595D02*
Y1646738D01*
X1989291Y1644590D02*
Y1646738D01*
X1989296Y1644585D02*
Y1646738D01*
X1989301Y1644580D02*
Y1646738D01*
X1989306Y1644575D02*
Y1646738D01*
X1989311Y1644570D02*
Y1646738D01*
X1989316Y1644565D02*
Y1646738D01*
X1989321Y1644560D02*
Y1646738D01*
X1989326Y1644555D02*
Y1646738D01*
X1989331Y1644550D02*
Y1646738D01*
X1989336Y1644545D02*
Y1646738D01*
X1989341Y1644540D02*
Y1646738D01*
X1989346Y1644535D02*
Y1646738D01*
X1989351Y1644530D02*
Y1646738D01*
X1989356Y1644525D02*
Y1646738D01*
X1989361Y1644520D02*
Y1646738D01*
X1989366Y1644515D02*
Y1646738D01*
X1989371Y1644510D02*
Y1646738D01*
X1989376Y1644505D02*
Y1646738D01*
X1989381Y1644500D02*
Y1646738D01*
X1989386Y1644495D02*
Y1646738D01*
X1989391Y1644490D02*
Y1646738D01*
X1989396Y1644485D02*
Y1646738D01*
X1989401Y1644480D02*
Y1646738D01*
X1989406Y1644476D02*
Y1646738D01*
X1989411Y1644471D02*
Y1646738D01*
X1989416Y1644467D02*
Y1646738D01*
X1989421Y1644463D02*
Y1646738D01*
X1989426Y1644459D02*
Y1646738D01*
X1989431Y1644455D02*
Y1646738D01*
X1989436Y1644451D02*
Y1646738D01*
X1989441Y1644447D02*
Y1646738D01*
X1989446Y1644444D02*
Y1646738D01*
X1989451Y1644440D02*
Y1646738D01*
X1989456Y1644437D02*
Y1646738D01*
X1989461Y1644434D02*
Y1646738D01*
X1989466Y1644431D02*
Y1646738D01*
X1989471Y1644428D02*
Y1646738D01*
X1989476Y1644425D02*
Y1646738D01*
X1989481Y1644422D02*
Y1646738D01*
X1989486Y1644419D02*
Y1646738D01*
X1989491Y1644417D02*
Y1646738D01*
X1989496Y1644414D02*
Y1646738D01*
X1989501Y1644412D02*
Y1646738D01*
X1989506Y1644409D02*
Y1646738D01*
X1989511Y1644407D02*
Y1646738D01*
X1989516Y1644405D02*
Y1646738D01*
X1989521Y1644403D02*
Y1646738D01*
X1989526Y1644401D02*
Y1646738D01*
X1989531Y1644399D02*
Y1646738D01*
X1989536Y1644397D02*
Y1646738D01*
X1989541Y1644395D02*
Y1646738D01*
X1989546Y1644393D02*
Y1646738D01*
X1989551Y1644392D02*
Y1646738D01*
X1989556Y1644390D02*
Y1646738D01*
X1989561Y1644389D02*
Y1646738D01*
X1989566Y1644387D02*
Y1646738D01*
X1989571Y1644386D02*
Y1646738D01*
X1989576Y1644385D02*
Y1646738D01*
X1989581Y1644383D02*
Y1646738D01*
X1989586Y1644382D02*
Y1646738D01*
X1989591Y1644381D02*
Y1646738D01*
X1989596Y1644380D02*
Y1646738D01*
X1989601Y1644379D02*
Y1646738D01*
X1989606Y1644378D02*
Y1646738D01*
X1989611Y1644377D02*
Y1646738D01*
X1989616Y1644377D02*
Y1646738D01*
X1989621Y1644376D02*
Y1646738D01*
X1989626Y1644375D02*
Y1646738D01*
X1989631Y1644375D02*
Y1646738D01*
X1989636Y1644374D02*
Y1646738D01*
X1989641Y1644374D02*
Y1646738D01*
X1989646Y1644374D02*
Y1646738D01*
X1989651Y1644373D02*
Y1646738D01*
X1989656Y1644373D02*
Y1646738D01*
X1989661Y1644373D02*
Y1646738D01*
X1989666Y1644373D02*
Y1646738D01*
X1989671Y1644373D02*
Y1646738D01*
X1989676Y1644373D02*
Y1646738D01*
X1989681Y1644373D02*
Y1646738D01*
X1989686Y1644373D02*
Y1646738D01*
X1989691Y1644373D02*
Y1646738D01*
X1989696Y1644373D02*
Y1646738D01*
X1989701Y1644373D02*
Y1646738D01*
X1989706Y1644373D02*
Y1646738D01*
X1989711Y1644373D02*
Y1646738D01*
X1989716Y1644373D02*
Y1646738D01*
X1989721Y1644373D02*
Y1646738D01*
X1989726Y1644373D02*
Y1646738D01*
X1989731Y1644373D02*
Y1646738D01*
X1989736Y1644373D02*
Y1646738D01*
X1989741Y1644373D02*
Y1646738D01*
X1989746Y1644373D02*
Y1646738D01*
X1989751Y1644373D02*
Y1646738D01*
X1989756Y1644373D02*
Y1646738D01*
X1989761Y1644373D02*
Y1646738D01*
X1989766Y1644373D02*
Y1646738D01*
X1989771Y1644373D02*
Y1646738D01*
X1989776Y1644373D02*
Y1646738D01*
X1989781Y1644373D02*
Y1646738D01*
X1989786Y1644373D02*
Y1646738D01*
X1989791Y1644373D02*
Y1646738D01*
X1989796Y1644373D02*
Y1646738D01*
X1989801Y1644373D02*
Y1646738D01*
X1989806Y1644373D02*
Y1646738D01*
X1989811Y1644373D02*
Y1646738D01*
X1989816Y1644373D02*
Y1646738D01*
X1989821Y1644373D02*
Y1646738D01*
X1989826Y1644373D02*
Y1646738D01*
X1989831Y1644373D02*
Y1646738D01*
X1989836Y1644373D02*
Y1646738D01*
X1989841Y1644373D02*
Y1646738D01*
X1989846Y1644373D02*
Y1646738D01*
X1989851Y1644373D02*
Y1646738D01*
X1989856Y1644373D02*
Y1646738D01*
X1989861Y1644373D02*
Y1646738D01*
X1989866Y1644373D02*
Y1646738D01*
X1989871Y1644373D02*
Y1646738D01*
X1989876Y1644373D02*
Y1646738D01*
X1989881Y1644373D02*
Y1646738D01*
X1989886Y1644373D02*
Y1646738D01*
X1989891Y1644373D02*
Y1646738D01*
X1989896Y1644373D02*
Y1646738D01*
X1989901Y1644373D02*
Y1646738D01*
X1989906Y1644373D02*
Y1646738D01*
X1989911Y1644373D02*
Y1646738D01*
X1989916Y1644373D02*
Y1646738D01*
X1989921Y1644373D02*
Y1646738D01*
X1989926Y1644373D02*
Y1646738D01*
X1989931Y1644373D02*
Y1646737D01*
X1989936Y1644373D02*
Y1646737D01*
X1989941Y1644373D02*
Y1646737D01*
X1989946Y1644373D02*
Y1646737D01*
X1989951Y1644373D02*
Y1646737D01*
X1989956Y1644374D02*
Y1646736D01*
X1989961Y1644374D02*
Y1646736D01*
X1989966Y1644375D02*
Y1646736D01*
X1989971Y1644375D02*
Y1646735D01*
X1989976Y1644376D02*
Y1646735D01*
X1989981Y1644376D02*
Y1646734D01*
X1989986Y1644377D02*
Y1646733D01*
X1989991Y1644378D02*
Y1646732D01*
X1989996Y1644379D02*
Y1646731D01*
X1990001Y1644380D02*
Y1646731D01*
X1990006Y1644381D02*
Y1646730D01*
X1990011Y1644382D02*
Y1646729D01*
X1990016Y1644383D02*
Y1646727D01*
X1990021Y1644384D02*
Y1646726D01*
X1990026Y1644385D02*
Y1646725D01*
X1990031Y1644387D02*
Y1646724D01*
X1990036Y1644388D02*
Y1646722D01*
X1990041Y1644389D02*
Y1646721D01*
X1990046Y1644391D02*
Y1646719D01*
X1990051Y1644392D02*
Y1646718D01*
X1990056Y1644394D02*
Y1646716D01*
X1990061Y1644396D02*
Y1646714D01*
X1990066Y1644398D02*
Y1646712D01*
X1990071Y1644400D02*
Y1646711D01*
X1990076Y1644402D02*
Y1646709D01*
X1990081Y1644404D02*
Y1646706D01*
X1990086Y1644406D02*
Y1646704D01*
X1990091Y1644408D02*
Y1646702D01*
X1990096Y1644410D02*
Y1646700D01*
X1990101Y1644413D02*
Y1646697D01*
X1990106Y1644415D02*
Y1646695D01*
X1990111Y1644418D02*
Y1646692D01*
X1990116Y1644421D02*
Y1646690D01*
X1990121Y1644423D02*
Y1646687D01*
X1990126Y1644426D02*
Y1646684D01*
X1990131Y1644429D02*
Y1646681D01*
X1990136Y1644432D02*
Y1646678D01*
X1990141Y1644435D02*
Y1646675D01*
X1990146Y1644439D02*
Y1646672D01*
X1990151Y1644442D02*
Y1646668D01*
X1990156Y1644445D02*
Y1646665D01*
X1990161Y1644449D02*
Y1646661D01*
X1990166Y1644453D02*
Y1646657D01*
X1990171Y1644457D02*
Y1646654D01*
X1990176Y1644461D02*
Y1646650D01*
X1990181Y1644465D02*
Y1646645D01*
X1990186Y1644469D02*
Y1646641D01*
X1990191Y1644473D02*
Y1646637D01*
X1990196Y1644478D02*
Y1646632D01*
X1990201Y1644483D02*
Y1646628D01*
X1990206Y1644487D02*
Y1646623D01*
X1990211Y1644493D02*
Y1646618D01*
X1990216Y1644498D02*
Y1646612D01*
X1990221Y1644503D02*
Y1646607D01*
X1990226Y1644509D02*
Y1646601D01*
X1990231Y1644515D02*
Y1646595D01*
X1990236Y1644521D02*
Y1646589D01*
X1990241Y1644527D02*
Y1646583D01*
X1990246Y1644534D02*
Y1646576D01*
X1990251Y1644541D02*
Y1646569D01*
X1990256Y1644548D02*
Y1646562D01*
X1990261Y1644556D02*
Y1646554D01*
X1990266Y1644564D02*
Y1646546D01*
X1990271Y1644573D02*
Y1646538D01*
X1990276Y1644582D02*
Y1646529D01*
X1990281Y1644591D02*
Y1646519D01*
X1990286Y1644602D02*
Y1646509D01*
X1990291Y1644613D02*
Y1646497D01*
X1990296Y1644625D02*
Y1646485D01*
X1990301Y1644639D02*
Y1646471D01*
X1990306Y1644654D02*
Y1646456D01*
X1990311Y1644673D02*
Y1646438D01*
X1990316Y1644696D02*
Y1646414D01*
X1990321Y1644732D02*
Y1646378D01*
X1973914Y1647283D02*
Y1647299D01*
X1973915Y1647314*
X1973917Y1647330*
X1973919Y1647345*
X1973922Y1647361*
X1973925Y1647376*
X1973929Y1647391*
X1973933Y1647406*
X1973938Y1647420*
X1973944Y1647435*
X1973950Y1647449*
X1973957Y1647463*
X1973964Y1647476*
X1973972Y1647490*
X1973981Y1647503*
X1973989Y1647516*
X1973999Y1647528*
X1974009Y1647540*
X1974019Y1647552*
X1974030Y1647563*
X1974041Y1647574*
X1974053Y1647584*
X1974065Y1647594*
X1974077Y1647603*
X1974090Y1647612*
X1974103Y1647620*
X1974116Y1647628*
X1974130Y1647635*
X1974144Y1647642*
X1974158Y1647648*
X1974172Y1647654*
X1974187Y1647659*
X1974202Y1647664*
X1974217Y1647668*
X1974232Y1647671*
X1974247Y1647674*
X1974263Y1647676*
X1974278Y1647677*
X1974294Y1647678*
X1974309*
X1975884*
X1975899*
X1975915Y1647677*
X1975930Y1647676*
X1975946Y1647674*
X1975961Y1647671*
X1975976Y1647668*
X1975991Y1647664*
X1976006Y1647659*
X1976021Y1647654*
X1976035Y1647648*
X1976049Y1647642*
X1976063Y1647635*
X1976077Y1647628*
X1976090Y1647620*
X1976103Y1647612*
X1976116Y1647603*
X1976128Y1647594*
X1976140Y1647584*
X1976152Y1647574*
X1976163Y1647563*
X1976174Y1647552*
X1976184Y1647540*
X1976194Y1647528*
X1976203Y1647516*
X1976212Y1647503*
X1976221Y1647490*
X1976228Y1647476*
X1976236Y1647463*
X1976243Y1647449*
X1976249Y1647435*
X1976254Y1647420*
X1976260Y1647406*
X1976264Y1647391*
X1976268Y1647376*
X1976271Y1647361*
X1976274Y1647345*
X1976276Y1647330*
X1976278Y1647314*
X1976279Y1647299*
Y1647283*
Y1646299*
Y1646284*
X1976278Y1646268*
X1976276Y1646253*
X1976274Y1646237*
X1976271Y1646222*
X1976268Y1646207*
X1976264Y1646192*
X1976260Y1646177*
X1976254Y1646162*
X1976249Y1646148*
X1976243Y1646134*
X1976236Y1646120*
X1976228Y1646106*
X1976221Y1646093*
X1976212Y1646080*
X1976203Y1646067*
X1976194Y1646055*
X1976184Y1646043*
X1976174Y1646031*
X1976163Y1646020*
X1976152Y1646009*
X1976140Y1645999*
X1976128Y1645989*
X1976116Y1645980*
X1976103Y1645971*
X1976090Y1645962*
X1976077Y1645955*
X1976063Y1645947*
X1976049Y1645940*
X1976035Y1645934*
X1976021Y1645929*
X1976006Y1645924*
X1975991Y1645919*
X1975976Y1645915*
X1975961Y1645912*
X1975946Y1645909*
X1975930Y1645907*
X1975915Y1645905*
X1975899*
X1975884Y1645904*
X1975037*
X1975022Y1645905*
X1975006*
X1974991Y1645907*
X1974976Y1645909*
X1974960Y1645912*
X1974945Y1645915*
X1974930Y1645919*
X1974915Y1645924*
X1974901Y1645929*
X1974886Y1645934*
X1974872Y1645940*
X1974858Y1645947*
X1974844Y1645955*
X1974831Y1645962*
X1974818Y1645971*
X1974805Y1645980*
X1974793Y1645989*
X1974781Y1645999*
X1974769Y1646009*
X1974758Y1646020*
X1974030Y1646748*
X1974019Y1646759*
X1974009Y1646771*
X1973999Y1646783*
X1973989Y1646795*
X1973981Y1646808*
X1973972Y1646821*
X1973964Y1646835*
X1973957Y1646848*
X1973950Y1646862*
X1973944Y1646876*
X1973938Y1646891*
X1973933Y1646905*
X1973933D02*
X1973929Y1646920D01*
X1973925Y1646935*
X1973922Y1646950*
X1973922D02*
X1973919Y1646966D01*
X1973917Y1646981*
X1973915Y1646997*
X1973914Y1647012*
Y1647028*
Y1647283*
X1973915Y1647005D02*
Y1647306D01*
X1973920Y1646961D02*
Y1647350D01*
X1973925Y1646936D02*
Y1647375D01*
X1973930Y1646917D02*
Y1647394D01*
X1973935Y1646901D02*
Y1647410D01*
X1973940Y1646887D02*
Y1647424D01*
X1973945Y1646875D02*
Y1647436D01*
X1973950Y1646863D02*
Y1647448D01*
X1973955Y1646853D02*
Y1647458D01*
X1973960Y1646843D02*
Y1647468D01*
X1973965Y1646834D02*
Y1647477D01*
X1973970Y1646825D02*
Y1647486D01*
X1973975Y1646817D02*
Y1647494D01*
X1973980Y1646809D02*
Y1647502D01*
X1973985Y1646802D02*
Y1647509D01*
X1973990Y1646795D02*
Y1647516D01*
X1973995Y1646788D02*
Y1647523D01*
X1974000Y1646782D02*
Y1647529D01*
X1974005Y1646776D02*
Y1647535D01*
X1974010Y1646770D02*
Y1647541D01*
X1974015Y1646764D02*
Y1647547D01*
X1974020Y1646759D02*
Y1647552D01*
X1974025Y1646753D02*
Y1647558D01*
X1974030Y1646748D02*
Y1647563D01*
X1974035Y1646743D02*
Y1647568D01*
X1974040Y1646738D02*
Y1647572D01*
X1974045Y1646733D02*
Y1647577D01*
X1974050Y1646728D02*
Y1647581D01*
X1974055Y1646723D02*
Y1647586D01*
X1974060Y1646718D02*
Y1647590D01*
X1974065Y1646713D02*
Y1647594D01*
X1974070Y1646708D02*
Y1647598D01*
X1974075Y1646703D02*
Y1647601D01*
X1974080Y1646698D02*
Y1647605D01*
X1974085Y1646693D02*
Y1647609D01*
X1974090Y1646688D02*
Y1647612D01*
X1974095Y1646683D02*
Y1647615D01*
X1974100Y1646678D02*
Y1647618D01*
X1974105Y1646673D02*
Y1647622D01*
X1974110Y1646668D02*
Y1647624D01*
X1974115Y1646663D02*
Y1647627D01*
X1974120Y1646658D02*
Y1647630D01*
X1974125Y1646653D02*
Y1647633D01*
X1974130Y1646648D02*
Y1647635D01*
X1974135Y1646643D02*
Y1647638D01*
X1974140Y1646638D02*
Y1647640D01*
X1974145Y1646633D02*
Y1647643D01*
X1974150Y1646628D02*
Y1647645D01*
X1974155Y1646623D02*
Y1647647D01*
X1974160Y1646618D02*
Y1647649D01*
X1974165Y1646613D02*
Y1647651D01*
X1974170Y1646608D02*
Y1647653D01*
X1974175Y1646603D02*
Y1647655D01*
X1974180Y1646598D02*
Y1647657D01*
X1974185Y1646593D02*
Y1647658D01*
X1974190Y1646588D02*
Y1647660D01*
X1974195Y1646583D02*
Y1647662D01*
X1974200Y1646578D02*
Y1647663D01*
X1974205Y1646573D02*
Y1647664D01*
X1974210Y1646568D02*
Y1647666D01*
X1974215Y1646563D02*
Y1647667D01*
X1974220Y1646558D02*
Y1647668D01*
X1974225Y1646553D02*
Y1647669D01*
X1974230Y1646548D02*
Y1647670D01*
X1974235Y1646543D02*
Y1647671D01*
X1974240Y1646538D02*
Y1647672D01*
X1974245Y1646533D02*
Y1647673D01*
X1974250Y1646528D02*
Y1647674D01*
X1974255Y1646523D02*
Y1647675D01*
X1974260Y1646518D02*
Y1647675D01*
X1974265Y1646513D02*
Y1647676D01*
X1974270Y1646508D02*
Y1647676D01*
X1974275Y1646503D02*
Y1647677D01*
X1974280Y1646498D02*
Y1647677D01*
X1974285Y1646493D02*
Y1647678D01*
X1974290Y1646488D02*
Y1647678D01*
X1974295Y1646483D02*
Y1647678D01*
X1974300Y1646478D02*
Y1647678D01*
X1974305Y1646473D02*
Y1647678D01*
X1974310Y1646468D02*
Y1647678D01*
X1974315Y1646463D02*
Y1647678D01*
X1974320Y1646458D02*
Y1647678D01*
X1974325Y1646453D02*
Y1647678D01*
X1974330Y1646448D02*
Y1647678D01*
X1974335Y1646443D02*
Y1647678D01*
X1974340Y1646438D02*
Y1647678D01*
X1974345Y1646433D02*
Y1647678D01*
X1974350Y1646428D02*
Y1647678D01*
X1974355Y1646423D02*
Y1647678D01*
X1974360Y1646418D02*
Y1647678D01*
X1974365Y1646413D02*
Y1647678D01*
X1974370Y1646408D02*
Y1647678D01*
X1974375Y1646403D02*
Y1647678D01*
X1974380Y1646398D02*
Y1647678D01*
X1974385Y1646393D02*
Y1647678D01*
X1974390Y1646388D02*
Y1647678D01*
X1974395Y1646383D02*
Y1647678D01*
X1974400Y1646378D02*
Y1647678D01*
X1974405Y1646373D02*
Y1647678D01*
X1974410Y1646368D02*
Y1647678D01*
X1974415Y1646363D02*
Y1647678D01*
X1974420Y1646358D02*
Y1647678D01*
X1974425Y1646353D02*
Y1647678D01*
X1974430Y1646348D02*
Y1647678D01*
X1974435Y1646343D02*
Y1647678D01*
X1974440Y1646338D02*
Y1647678D01*
X1974445Y1646333D02*
Y1647678D01*
X1974450Y1646328D02*
Y1647678D01*
X1974455Y1646323D02*
Y1647678D01*
X1974460Y1646318D02*
Y1647678D01*
X1974465Y1646313D02*
Y1647678D01*
X1974470Y1646308D02*
Y1647678D01*
X1974475Y1646303D02*
Y1647678D01*
X1974480Y1646298D02*
Y1647678D01*
X1974485Y1646293D02*
Y1647678D01*
X1974490Y1646288D02*
Y1647678D01*
X1974495Y1646283D02*
Y1647678D01*
X1974500Y1646278D02*
Y1647678D01*
X1974505Y1646273D02*
Y1647678D01*
X1974510Y1646268D02*
Y1647678D01*
X1974515Y1646263D02*
Y1647678D01*
X1974520Y1646258D02*
Y1647678D01*
X1974525Y1646253D02*
Y1647678D01*
X1974530Y1646248D02*
Y1647678D01*
X1974535Y1646243D02*
Y1647678D01*
X1974540Y1646238D02*
Y1647678D01*
X1974545Y1646233D02*
Y1647678D01*
X1974550Y1646228D02*
Y1647678D01*
X1974555Y1646223D02*
Y1647678D01*
X1974560Y1646218D02*
Y1647678D01*
X1974565Y1646213D02*
Y1647678D01*
X1974570Y1646208D02*
Y1647678D01*
X1974575Y1646203D02*
Y1647678D01*
X1974580Y1646198D02*
Y1647678D01*
X1974585Y1646193D02*
Y1647678D01*
X1974590Y1646188D02*
Y1647678D01*
X1974595Y1646183D02*
Y1647678D01*
X1974600Y1646178D02*
Y1647678D01*
X1974605Y1646173D02*
Y1647678D01*
X1974610Y1646168D02*
Y1647678D01*
X1974615Y1646163D02*
Y1647678D01*
X1974620Y1646158D02*
Y1647678D01*
X1974625Y1646153D02*
Y1647678D01*
X1974630Y1646148D02*
Y1647678D01*
X1974635Y1646143D02*
Y1647678D01*
X1974640Y1646138D02*
Y1647678D01*
X1974645Y1646133D02*
Y1647678D01*
X1974650Y1646128D02*
Y1647678D01*
X1974655Y1646123D02*
Y1647678D01*
X1974660Y1646118D02*
Y1647678D01*
X1974665Y1646113D02*
Y1647678D01*
X1974670Y1646108D02*
Y1647678D01*
X1974675Y1646103D02*
Y1647678D01*
X1974680Y1646098D02*
Y1647678D01*
X1974685Y1646093D02*
Y1647678D01*
X1974690Y1646088D02*
Y1647678D01*
X1974695Y1646083D02*
Y1647678D01*
X1974700Y1646078D02*
Y1647678D01*
X1974705Y1646073D02*
Y1647678D01*
X1974710Y1646068D02*
Y1647678D01*
X1974715Y1646063D02*
Y1647678D01*
X1974720Y1646058D02*
Y1647678D01*
X1974725Y1646053D02*
Y1647678D01*
X1974730Y1646048D02*
Y1647678D01*
X1974735Y1646043D02*
Y1647678D01*
X1974740Y1646038D02*
Y1647678D01*
X1974745Y1646033D02*
Y1647678D01*
X1974750Y1646028D02*
Y1647678D01*
X1974755Y1646023D02*
Y1647678D01*
X1974760Y1646018D02*
Y1647678D01*
X1974765Y1646013D02*
Y1647678D01*
X1974770Y1646009D02*
Y1647678D01*
X1974775Y1646004D02*
Y1647678D01*
X1974780Y1646000D02*
Y1647678D01*
X1974785Y1645996D02*
Y1647678D01*
X1974790Y1645992D02*
Y1647678D01*
X1974795Y1645988D02*
Y1647678D01*
X1974800Y1645984D02*
Y1647678D01*
X1974805Y1645980D02*
Y1647678D01*
X1974810Y1645976D02*
Y1647678D01*
X1974815Y1645973D02*
Y1647678D01*
X1974820Y1645970D02*
Y1647678D01*
X1974825Y1645966D02*
Y1647678D01*
X1974830Y1645963D02*
Y1647678D01*
X1974835Y1645960D02*
Y1647678D01*
X1974840Y1645957D02*
Y1647678D01*
X1974845Y1645954D02*
Y1647678D01*
X1974850Y1645952D02*
Y1647678D01*
X1974855Y1645949D02*
Y1647678D01*
X1974860Y1645946D02*
Y1647678D01*
X1974865Y1645944D02*
Y1647678D01*
X1974870Y1645942D02*
Y1647678D01*
X1974875Y1645939D02*
Y1647678D01*
X1974880Y1645937D02*
Y1647678D01*
X1974885Y1645935D02*
Y1647678D01*
X1974890Y1645933D02*
Y1647678D01*
X1974895Y1645931D02*
Y1647678D01*
X1974900Y1645929D02*
Y1647678D01*
X1974905Y1645927D02*
Y1647678D01*
X1974910Y1645925D02*
Y1647678D01*
X1974915Y1645924D02*
Y1647678D01*
X1974920Y1645922D02*
Y1647678D01*
X1974925Y1645921D02*
Y1647678D01*
X1974930Y1645919D02*
Y1647678D01*
X1974935Y1645918D02*
Y1647678D01*
X1974940Y1645917D02*
Y1647678D01*
X1974945Y1645915D02*
Y1647678D01*
X1974950Y1645914D02*
Y1647678D01*
X1974955Y1645913D02*
Y1647678D01*
X1974960Y1645912D02*
Y1647678D01*
X1974965Y1645911D02*
Y1647678D01*
X1974970Y1645910D02*
Y1647678D01*
X1974975Y1645909D02*
Y1647678D01*
X1974980Y1645908D02*
Y1647678D01*
X1974985Y1645908D02*
Y1647678D01*
X1974990Y1645907D02*
Y1647678D01*
X1974995Y1645907D02*
Y1647678D01*
X1975000Y1645906D02*
Y1647678D01*
X1975005Y1645906D02*
Y1647678D01*
X1975010Y1645905D02*
Y1647678D01*
X1975015Y1645905D02*
Y1647678D01*
X1975020Y1645905D02*
Y1647678D01*
X1975025Y1645904D02*
Y1647678D01*
X1975030Y1645904D02*
Y1647678D01*
X1975035Y1645904D02*
Y1647678D01*
X1975040Y1645904D02*
Y1647678D01*
X1975045Y1645904D02*
Y1647678D01*
X1975050Y1645904D02*
Y1647678D01*
X1975055Y1645904D02*
Y1647678D01*
X1975060Y1645904D02*
Y1647678D01*
X1975065Y1645904D02*
Y1647678D01*
X1975070Y1645904D02*
Y1647678D01*
X1975075Y1645904D02*
Y1647678D01*
X1975080Y1645904D02*
Y1647678D01*
X1975085Y1645904D02*
Y1647678D01*
X1975090Y1645904D02*
Y1647678D01*
X1975095Y1645904D02*
Y1647678D01*
X1975100Y1645904D02*
Y1647678D01*
X1975105Y1645904D02*
Y1647678D01*
X1975110Y1645904D02*
Y1647678D01*
X1975115Y1645904D02*
Y1647678D01*
X1975120Y1645904D02*
Y1647678D01*
X1975125Y1645904D02*
Y1647678D01*
X1975130Y1645904D02*
Y1647678D01*
X1975135Y1645904D02*
Y1647678D01*
X1975140Y1645904D02*
Y1647678D01*
X1975145Y1645904D02*
Y1647678D01*
X1975150Y1645904D02*
Y1647678D01*
X1975155Y1645904D02*
Y1647678D01*
X1975160Y1645904D02*
Y1647678D01*
X1975165Y1645904D02*
Y1647678D01*
X1975170Y1645904D02*
Y1647678D01*
X1975175Y1645904D02*
Y1647678D01*
X1975180Y1645904D02*
Y1647678D01*
X1975185Y1645904D02*
Y1647678D01*
X1975190Y1645904D02*
Y1647678D01*
X1975195Y1645904D02*
Y1647678D01*
X1975200Y1645904D02*
Y1647678D01*
X1975205Y1645904D02*
Y1647678D01*
X1975210Y1645904D02*
Y1647678D01*
X1975215Y1645904D02*
Y1647678D01*
X1975220Y1645904D02*
Y1647678D01*
X1975225Y1645904D02*
Y1647678D01*
X1975230Y1645904D02*
Y1647678D01*
X1975235Y1645904D02*
Y1647678D01*
X1975240Y1645904D02*
Y1647678D01*
X1975245Y1645904D02*
Y1647678D01*
X1975250Y1645904D02*
Y1647678D01*
X1975255Y1645904D02*
Y1647678D01*
X1975260Y1645904D02*
Y1647678D01*
X1975265Y1645904D02*
Y1647678D01*
X1975270Y1645904D02*
Y1647678D01*
X1975275Y1645904D02*
Y1647678D01*
X1975280Y1645904D02*
Y1647678D01*
X1975285Y1645904D02*
Y1647678D01*
X1975290Y1645904D02*
Y1647678D01*
X1975295Y1645904D02*
Y1647678D01*
X1975300Y1645904D02*
Y1647678D01*
X1975305Y1645904D02*
Y1647678D01*
X1975310Y1645904D02*
Y1647678D01*
X1975315Y1645904D02*
Y1647678D01*
X1975320Y1645904D02*
Y1647678D01*
X1975325Y1645904D02*
Y1647678D01*
X1975330Y1645904D02*
Y1647678D01*
X1975335Y1645904D02*
Y1647678D01*
X1975340Y1645904D02*
Y1647678D01*
X1975345Y1645904D02*
Y1647678D01*
X1975350Y1645904D02*
Y1647678D01*
X1975355Y1645904D02*
Y1647678D01*
X1975360Y1645904D02*
Y1647678D01*
X1975365Y1645904D02*
Y1647678D01*
X1975370Y1645904D02*
Y1647678D01*
X1975375Y1645904D02*
Y1647678D01*
X1975380Y1645904D02*
Y1647678D01*
X1975385Y1645904D02*
Y1647678D01*
X1975390Y1645904D02*
Y1647678D01*
X1975395Y1645904D02*
Y1647678D01*
X1975400Y1645904D02*
Y1647678D01*
X1975405Y1645904D02*
Y1647678D01*
X1975410Y1645904D02*
Y1647678D01*
X1975415Y1645904D02*
Y1647678D01*
X1975420Y1645904D02*
Y1647678D01*
X1975425Y1645904D02*
Y1647678D01*
X1975430Y1645904D02*
Y1647678D01*
X1975435Y1645904D02*
Y1647678D01*
X1975440Y1645904D02*
Y1647678D01*
X1975445Y1645904D02*
Y1647678D01*
X1975450Y1645904D02*
Y1647678D01*
X1975455Y1645904D02*
Y1647678D01*
X1975460Y1645904D02*
Y1647678D01*
X1975465Y1645904D02*
Y1647678D01*
X1975470Y1645904D02*
Y1647678D01*
X1975475Y1645904D02*
Y1647678D01*
X1975480Y1645904D02*
Y1647678D01*
X1975485Y1645904D02*
Y1647678D01*
X1975490Y1645904D02*
Y1647678D01*
X1975495Y1645904D02*
Y1647678D01*
X1975500Y1645904D02*
Y1647678D01*
X1975505Y1645904D02*
Y1647678D01*
X1975510Y1645904D02*
Y1647678D01*
X1975515Y1645904D02*
Y1647678D01*
X1975520Y1645904D02*
Y1647678D01*
X1975525Y1645904D02*
Y1647678D01*
X1975530Y1645904D02*
Y1647678D01*
X1975535Y1645904D02*
Y1647678D01*
X1975540Y1645904D02*
Y1647678D01*
X1975545Y1645904D02*
Y1647678D01*
X1975550Y1645904D02*
Y1647678D01*
X1975555Y1645904D02*
Y1647678D01*
X1975560Y1645904D02*
Y1647678D01*
X1975565Y1645904D02*
Y1647678D01*
X1975570Y1645904D02*
Y1647678D01*
X1975575Y1645904D02*
Y1647678D01*
X1975580Y1645904D02*
Y1647678D01*
X1975585Y1645904D02*
Y1647678D01*
X1975590Y1645904D02*
Y1647678D01*
X1975595Y1645904D02*
Y1647678D01*
X1975600Y1645904D02*
Y1647678D01*
X1975605Y1645904D02*
Y1647678D01*
X1975610Y1645904D02*
Y1647678D01*
X1975615Y1645904D02*
Y1647678D01*
X1975620Y1645904D02*
Y1647678D01*
X1975625Y1645904D02*
Y1647678D01*
X1975630Y1645904D02*
Y1647678D01*
X1975635Y1645904D02*
Y1647678D01*
X1975640Y1645904D02*
Y1647678D01*
X1975645Y1645904D02*
Y1647678D01*
X1975650Y1645904D02*
Y1647678D01*
X1975655Y1645904D02*
Y1647678D01*
X1975660Y1645904D02*
Y1647678D01*
X1975665Y1645904D02*
Y1647678D01*
X1975670Y1645904D02*
Y1647678D01*
X1975675Y1645904D02*
Y1647678D01*
X1975680Y1645904D02*
Y1647678D01*
X1975685Y1645904D02*
Y1647678D01*
X1975690Y1645904D02*
Y1647678D01*
X1975695Y1645904D02*
Y1647678D01*
X1975700Y1645904D02*
Y1647678D01*
X1975705Y1645904D02*
Y1647678D01*
X1975710Y1645904D02*
Y1647678D01*
X1975715Y1645904D02*
Y1647678D01*
X1975720Y1645904D02*
Y1647678D01*
X1975725Y1645904D02*
Y1647678D01*
X1975730Y1645904D02*
Y1647678D01*
X1975735Y1645904D02*
Y1647678D01*
X1975740Y1645904D02*
Y1647678D01*
X1975745Y1645904D02*
Y1647678D01*
X1975750Y1645904D02*
Y1647678D01*
X1975755Y1645904D02*
Y1647678D01*
X1975760Y1645904D02*
Y1647678D01*
X1975765Y1645904D02*
Y1647678D01*
X1975770Y1645904D02*
Y1647678D01*
X1975775Y1645904D02*
Y1647678D01*
X1975780Y1645904D02*
Y1647678D01*
X1975785Y1645904D02*
Y1647678D01*
X1975790Y1645904D02*
Y1647678D01*
X1975795Y1645904D02*
Y1647678D01*
X1975800Y1645904D02*
Y1647678D01*
X1975805Y1645904D02*
Y1647678D01*
X1975810Y1645904D02*
Y1647678D01*
X1975815Y1645904D02*
Y1647678D01*
X1975820Y1645904D02*
Y1647678D01*
X1975825Y1645904D02*
Y1647678D01*
X1975830Y1645904D02*
Y1647678D01*
X1975835Y1645904D02*
Y1647678D01*
X1975840Y1645904D02*
Y1647678D01*
X1975845Y1645904D02*
Y1647678D01*
X1975850Y1645904D02*
Y1647678D01*
X1975855Y1645904D02*
Y1647678D01*
X1975860Y1645904D02*
Y1647678D01*
X1975865Y1645904D02*
Y1647678D01*
X1975870Y1645904D02*
Y1647678D01*
X1975875Y1645904D02*
Y1647678D01*
X1975880Y1645904D02*
Y1647678D01*
X1975885Y1645904D02*
Y1647678D01*
X1975890Y1645904D02*
Y1647678D01*
X1975895Y1645904D02*
Y1647678D01*
X1975900Y1645905D02*
Y1647678D01*
X1975905Y1645905D02*
Y1647678D01*
X1975910Y1645905D02*
Y1647678D01*
X1975915Y1645905D02*
Y1647677D01*
X1975920Y1645906D02*
Y1647677D01*
X1975925Y1645906D02*
Y1647676D01*
X1975930Y1645907D02*
Y1647676D01*
X1975935Y1645908D02*
Y1647675D01*
X1975940Y1645908D02*
Y1647674D01*
X1975945Y1645909D02*
Y1647674D01*
X1975950Y1645910D02*
Y1647673D01*
X1975955Y1645911D02*
Y1647672D01*
X1975960Y1645912D02*
Y1647671D01*
X1975965Y1645913D02*
Y1647670D01*
X1975970Y1645914D02*
Y1647669D01*
X1975975Y1645915D02*
Y1647668D01*
X1975980Y1645916D02*
Y1647667D01*
X1975985Y1645917D02*
Y1647665D01*
X1975990Y1645919D02*
Y1647664D01*
X1975995Y1645920D02*
Y1647663D01*
X1976000Y1645922D02*
Y1647661D01*
X1976005Y1645923D02*
Y1647659D01*
X1976010Y1645925D02*
Y1647658D01*
X1976015Y1645927D02*
Y1647656D01*
X1976020Y1645928D02*
Y1647654D01*
X1976025Y1645930D02*
Y1647652D01*
X1976030Y1645932D02*
Y1647650D01*
X1976035Y1645934D02*
Y1647648D01*
X1976040Y1645936D02*
Y1647646D01*
X1976045Y1645939D02*
Y1647644D01*
X1976050Y1645941D02*
Y1647642D01*
X1976055Y1645943D02*
Y1647639D01*
X1976060Y1645946D02*
Y1647637D01*
X1976065Y1645948D02*
Y1647635D01*
X1976070Y1645951D02*
Y1647632D01*
X1976075Y1645953D02*
Y1647629D01*
X1976080Y1645956D02*
Y1647626D01*
X1976085Y1645959D02*
Y1647623D01*
X1976090Y1645962D02*
Y1647621D01*
X1976095Y1645965D02*
Y1647617D01*
X1976100Y1645969D02*
Y1647614D01*
X1976105Y1645972D02*
Y1647611D01*
X1976110Y1645975D02*
Y1647607D01*
X1976115Y1645979D02*
Y1647604D01*
X1976120Y1645983D02*
Y1647600D01*
X1976125Y1645986D02*
Y1647596D01*
X1976130Y1645990D02*
Y1647593D01*
X1976135Y1645994D02*
Y1647588D01*
X1976140Y1645998D02*
Y1647584D01*
X1976145Y1646003D02*
Y1647580D01*
X1976150Y1646007D02*
Y1647575D01*
X1976155Y1646012D02*
Y1647571D01*
X1976160Y1646017D02*
Y1647566D01*
X1976165Y1646022D02*
Y1647561D01*
X1976170Y1646027D02*
Y1647556D01*
X1976175Y1646032D02*
Y1647551D01*
X1976180Y1646038D02*
Y1647545D01*
X1976185Y1646043D02*
Y1647539D01*
X1976190Y1646049D02*
Y1647533D01*
X1976195Y1646056D02*
Y1647527D01*
X1976200Y1646062D02*
Y1647520D01*
X1976205Y1646069D02*
Y1647514D01*
X1976210Y1646076D02*
Y1647506D01*
X1976215Y1646084D02*
Y1647499D01*
X1976220Y1646092D02*
Y1647491D01*
X1976225Y1646100D02*
Y1647483D01*
X1976230Y1646109D02*
Y1647474D01*
X1976235Y1646118D02*
Y1647465D01*
X1976240Y1646128D02*
Y1647455D01*
X1976245Y1646139D02*
Y1647444D01*
X1976250Y1646151D02*
Y1647432D01*
X1976255Y1646164D02*
Y1647419D01*
X1976260Y1646178D02*
Y1647405D01*
X1976265Y1646195D02*
Y1647388D01*
X1976270Y1646215D02*
Y1647367D01*
X1976275Y1646243D02*
Y1647339D01*
X1973914Y1643996D02*
Y1644012D01*
X1973915Y1644027*
X1973916Y1644043*
X1973918Y1644058*
X1973921Y1644073*
X1973924Y1644088*
X1973928Y1644103*
X1973933Y1644118*
X1973938Y1644133*
X1973944Y1644147*
X1973950Y1644162*
X1973957Y1644175*
X1973964Y1644189*
X1973972Y1644203*
X1973980Y1644216*
X1973989Y1644228*
X1973998Y1644241*
X1974008Y1644253*
X1974019Y1644264*
X1974019D02*
X1974029Y1644275D01*
X1974758Y1645004*
X1974769Y1645014*
X1974780Y1645025*
X1974792Y1645035*
X1974805Y1645044*
X1974817Y1645053*
X1974830Y1645061*
X1974844Y1645069*
X1974857Y1645076*
X1974871Y1645083*
X1974886Y1645089*
X1974900Y1645095*
X1974915Y1645100*
X1974930Y1645105*
X1974945Y1645108*
X1974960Y1645112*
X1974975Y1645115*
X1974990Y1645117*
X1975006Y1645118*
X1975021Y1645119*
X1975037*
X1975884*
X1975899*
X1975915Y1645118*
X1975930Y1645117*
X1975946Y1645115*
X1975961Y1645112*
X1975976Y1645108*
X1975991Y1645105*
X1976006Y1645100*
X1976021Y1645095*
X1976035Y1645089*
X1976049Y1645083*
X1976063Y1645076*
X1976077Y1645069*
X1976090Y1645061*
X1976103Y1645053*
X1976116Y1645044*
X1976128Y1645035*
X1976140Y1645025*
X1976152Y1645014*
X1976163Y1645004*
X1976174Y1644993*
X1976184Y1644981*
X1976194Y1644969*
X1976203Y1644957*
X1976212Y1644944*
X1976221Y1644931*
X1976228Y1644917*
X1976236Y1644904*
X1976243Y1644890*
X1976249Y1644876*
X1976254Y1644861*
X1976260Y1644846*
X1976264Y1644832*
X1976268Y1644817*
X1976271Y1644801*
X1976274Y1644786*
X1976276Y1644771*
X1976278Y1644755*
X1976279Y1644740*
Y1644724*
Y1643740*
Y1643725*
X1976278Y1643709*
X1976276Y1643694*
X1976274Y1643678*
X1976271Y1643663*
X1976268Y1643648*
X1976264Y1643633*
X1976260Y1643618*
X1976254Y1643603*
X1976249Y1643589*
X1976243Y1643575*
X1976236Y1643561*
X1976228Y1643547*
X1976221Y1643534*
X1976212Y1643521*
X1976203Y1643508*
X1976194Y1643496*
X1976184Y1643484*
X1976174Y1643472*
X1976163Y1643461*
X1976152Y1643450*
X1976140Y1643440*
X1976128Y1643430*
X1976116Y1643421*
X1976103Y1643412*
X1976090Y1643403*
X1976077Y1643396*
X1976063Y1643388*
X1976049Y1643381*
X1976035Y1643375*
X1976021Y1643370*
X1976006Y1643364*
X1975991Y1643360*
X1975976Y1643356*
X1975961Y1643353*
X1975946Y1643350*
X1975930Y1643348*
X1975915Y1643346*
X1975899Y1643345*
X1975884*
X1974309*
X1974293*
X1974278Y1643346*
X1974262Y1643348*
X1974247Y1643350*
X1974231Y1643353*
X1974231D02*
X1974216Y1643356D01*
X1974201Y1643360*
X1974186Y1643364*
X1974172Y1643370*
X1974157Y1643375*
X1974143Y1643381*
X1974129Y1643388*
X1974116Y1643396*
X1974102Y1643403*
X1974089Y1643412*
X1974076Y1643421*
X1974064Y1643430*
X1974052Y1643440*
X1974040Y1643450*
X1974029Y1643461*
X1974019Y1643472*
X1974019D02*
X1974008Y1643484D01*
X1973998Y1643496*
X1973989Y1643508*
X1973980Y1643521*
X1973972Y1643534*
X1973964Y1643547*
X1973957Y1643561*
X1973950Y1643575*
X1973944Y1643589*
X1973938Y1643603*
X1973933Y1643618*
X1973928Y1643633*
X1973924Y1643648*
X1973921Y1643663*
X1973918Y1643678*
X1973916Y1643694*
X1973915Y1643709*
X1973914Y1643725*
Y1643740*
Y1643996*
X1973915Y1643709D02*
Y1644027D01*
X1973920Y1643671D02*
Y1644066D01*
X1973925Y1643647D02*
Y1644090D01*
X1973930Y1643628D02*
Y1644108D01*
X1973935Y1643613D02*
Y1644124D01*
X1973940Y1643599D02*
Y1644138D01*
X1973945Y1643586D02*
Y1644150D01*
X1973950Y1643575D02*
Y1644161D01*
X1973955Y1643565D02*
Y1644172D01*
X1973960Y1643555D02*
Y1644181D01*
X1973965Y1643546D02*
Y1644191D01*
X1973970Y1643537D02*
Y1644199D01*
X1973975Y1643529D02*
Y1644207D01*
X1973980Y1643521D02*
Y1644215D01*
X1973985Y1643514D02*
Y1644222D01*
X1973990Y1643507D02*
Y1644229D01*
X1973995Y1643500D02*
Y1644236D01*
X1974000Y1643494D02*
Y1644242D01*
X1974005Y1643488D02*
Y1644249D01*
X1974010Y1643482D02*
Y1644254D01*
X1974015Y1643476D02*
Y1644260D01*
X1974020Y1643471D02*
Y1644266D01*
X1974025Y1643465D02*
Y1644271D01*
X1974030Y1643460D02*
Y1644276D01*
X1974035Y1643456D02*
Y1644281D01*
X1974040Y1643451D02*
Y1644286D01*
X1974045Y1643446D02*
Y1644291D01*
X1974050Y1643442D02*
Y1644296D01*
X1974055Y1643438D02*
Y1644301D01*
X1974060Y1643433D02*
Y1644306D01*
X1974065Y1643429D02*
Y1644311D01*
X1974070Y1643426D02*
Y1644316D01*
X1974075Y1643422D02*
Y1644321D01*
X1974080Y1643418D02*
Y1644326D01*
X1974085Y1643415D02*
Y1644331D01*
X1974090Y1643411D02*
Y1644336D01*
X1974095Y1643408D02*
Y1644341D01*
X1974100Y1643405D02*
Y1644346D01*
X1974105Y1643402D02*
Y1644351D01*
X1974110Y1643399D02*
Y1644356D01*
X1974115Y1643396D02*
Y1644361D01*
X1974120Y1643393D02*
Y1644366D01*
X1974125Y1643391D02*
Y1644371D01*
X1974130Y1643388D02*
Y1644376D01*
X1974135Y1643386D02*
Y1644381D01*
X1974140Y1643383D02*
Y1644386D01*
X1974145Y1643381D02*
Y1644391D01*
X1974150Y1643379D02*
Y1644396D01*
X1974155Y1643376D02*
Y1644401D01*
X1974160Y1643374D02*
Y1644406D01*
X1974165Y1643372D02*
Y1644411D01*
X1974170Y1643370D02*
Y1644416D01*
X1974175Y1643369D02*
Y1644421D01*
X1974180Y1643367D02*
Y1644426D01*
X1974185Y1643365D02*
Y1644431D01*
X1974190Y1643363D02*
Y1644436D01*
X1974195Y1643362D02*
Y1644441D01*
X1974200Y1643360D02*
Y1644446D01*
X1974205Y1643359D02*
Y1644451D01*
X1974210Y1643358D02*
Y1644456D01*
X1974215Y1643356D02*
Y1644461D01*
X1974220Y1643355D02*
Y1644466D01*
X1974225Y1643354D02*
Y1644471D01*
X1974230Y1643353D02*
Y1644476D01*
X1974235Y1643352D02*
Y1644481D01*
X1974240Y1643351D02*
Y1644486D01*
X1974245Y1643350D02*
Y1644491D01*
X1974250Y1643350D02*
Y1644496D01*
X1974255Y1643349D02*
Y1644501D01*
X1974260Y1643348D02*
Y1644506D01*
X1974265Y1643348D02*
Y1644511D01*
X1974270Y1643347D02*
Y1644516D01*
X1974275Y1643347D02*
Y1644521D01*
X1974280Y1643346D02*
Y1644526D01*
X1974285Y1643346D02*
Y1644531D01*
X1974290Y1643346D02*
Y1644536D01*
X1974295Y1643345D02*
Y1644541D01*
X1974300Y1643345D02*
Y1644546D01*
X1974305Y1643345D02*
Y1644551D01*
X1974310Y1643345D02*
Y1644556D01*
X1974315Y1643345D02*
Y1644561D01*
X1974320Y1643345D02*
Y1644566D01*
X1974325Y1643345D02*
Y1644571D01*
X1974330Y1643345D02*
Y1644576D01*
X1974335Y1643345D02*
Y1644581D01*
X1974340Y1643345D02*
Y1644586D01*
X1974345Y1643345D02*
Y1644591D01*
X1974350Y1643345D02*
Y1644596D01*
X1974355Y1643345D02*
Y1644601D01*
X1974360Y1643345D02*
Y1644606D01*
X1974365Y1643345D02*
Y1644611D01*
X1974370Y1643345D02*
Y1644616D01*
X1974375Y1643345D02*
Y1644621D01*
X1974380Y1643345D02*
Y1644626D01*
X1974385Y1643345D02*
Y1644631D01*
X1974390Y1643345D02*
Y1644636D01*
X1974395Y1643345D02*
Y1644641D01*
X1974400Y1643345D02*
Y1644646D01*
X1974405Y1643345D02*
Y1644651D01*
X1974410Y1643345D02*
Y1644656D01*
X1974415Y1643345D02*
Y1644661D01*
X1974420Y1643345D02*
Y1644666D01*
X1974425Y1643345D02*
Y1644671D01*
X1974430Y1643345D02*
Y1644676D01*
X1974435Y1643345D02*
Y1644681D01*
X1974440Y1643345D02*
Y1644686D01*
X1974445Y1643345D02*
Y1644691D01*
X1974450Y1643345D02*
Y1644696D01*
X1974455Y1643345D02*
Y1644701D01*
X1974460Y1643345D02*
Y1644706D01*
X1974465Y1643345D02*
Y1644711D01*
X1974470Y1643345D02*
Y1644716D01*
X1974475Y1643345D02*
Y1644721D01*
X1974480Y1643345D02*
Y1644726D01*
X1974485Y1643345D02*
Y1644731D01*
X1974490Y1643345D02*
Y1644736D01*
X1974495Y1643345D02*
Y1644741D01*
X1974500Y1643345D02*
Y1644746D01*
X1974505Y1643345D02*
Y1644751D01*
X1974510Y1643345D02*
Y1644756D01*
X1974515Y1643345D02*
Y1644761D01*
X1974520Y1643345D02*
Y1644766D01*
X1974525Y1643345D02*
Y1644771D01*
X1974530Y1643345D02*
Y1644776D01*
X1974535Y1643345D02*
Y1644781D01*
X1974540Y1643345D02*
Y1644786D01*
X1974545Y1643345D02*
Y1644791D01*
X1974550Y1643345D02*
Y1644796D01*
X1974555Y1643345D02*
Y1644801D01*
X1974560Y1643345D02*
Y1644806D01*
X1974565Y1643345D02*
Y1644811D01*
X1974570Y1643345D02*
Y1644816D01*
X1974575Y1643345D02*
Y1644821D01*
X1974580Y1643345D02*
Y1644826D01*
X1974585Y1643345D02*
Y1644831D01*
X1974590Y1643345D02*
Y1644836D01*
X1974595Y1643345D02*
Y1644841D01*
X1974600Y1643345D02*
Y1644846D01*
X1974605Y1643345D02*
Y1644851D01*
X1974610Y1643345D02*
Y1644856D01*
X1974615Y1643345D02*
Y1644861D01*
X1974620Y1643345D02*
Y1644866D01*
X1974625Y1643345D02*
Y1644871D01*
X1974630Y1643345D02*
Y1644876D01*
X1974635Y1643345D02*
Y1644881D01*
X1974640Y1643345D02*
Y1644886D01*
X1974645Y1643345D02*
Y1644891D01*
X1974650Y1643345D02*
Y1644896D01*
X1974655Y1643345D02*
Y1644901D01*
X1974660Y1643345D02*
Y1644906D01*
X1974665Y1643345D02*
Y1644911D01*
X1974670Y1643345D02*
Y1644916D01*
X1974675Y1643345D02*
Y1644921D01*
X1974680Y1643345D02*
Y1644926D01*
X1974685Y1643345D02*
Y1644931D01*
X1974690Y1643345D02*
Y1644936D01*
X1974695Y1643345D02*
Y1644941D01*
X1974700Y1643345D02*
Y1644946D01*
X1974705Y1643345D02*
Y1644951D01*
X1974710Y1643345D02*
Y1644956D01*
X1974715Y1643345D02*
Y1644961D01*
X1974720Y1643345D02*
Y1644966D01*
X1974725Y1643345D02*
Y1644971D01*
X1974730Y1643345D02*
Y1644976D01*
X1974735Y1643345D02*
Y1644981D01*
X1974740Y1643345D02*
Y1644986D01*
X1974745Y1643345D02*
Y1644991D01*
X1974750Y1643345D02*
Y1644996D01*
X1974755Y1643345D02*
Y1645001D01*
X1974760Y1643345D02*
Y1645006D01*
X1974765Y1643345D02*
Y1645011D01*
X1974770Y1643345D02*
Y1645015D01*
X1974775Y1643345D02*
Y1645020D01*
X1974780Y1643345D02*
Y1645024D01*
X1974785Y1643345D02*
Y1645028D01*
X1974790Y1643345D02*
Y1645033D01*
X1974795Y1643345D02*
Y1645037D01*
X1974800Y1643345D02*
Y1645040D01*
X1974805Y1643345D02*
Y1645044D01*
X1974810Y1643345D02*
Y1645048D01*
X1974815Y1643345D02*
Y1645051D01*
X1974820Y1643345D02*
Y1645054D01*
X1974825Y1643345D02*
Y1645058D01*
X1974830Y1643345D02*
Y1645061D01*
X1974835Y1643345D02*
Y1645064D01*
X1974840Y1643345D02*
Y1645067D01*
X1974845Y1643345D02*
Y1645070D01*
X1974850Y1643345D02*
Y1645072D01*
X1974855Y1643345D02*
Y1645075D01*
X1974860Y1643345D02*
Y1645077D01*
X1974865Y1643345D02*
Y1645080D01*
X1974870Y1643345D02*
Y1645082D01*
X1974875Y1643345D02*
Y1645085D01*
X1974880Y1643345D02*
Y1645087D01*
X1974885Y1643345D02*
Y1645089D01*
X1974890Y1643345D02*
Y1645091D01*
X1974895Y1643345D02*
Y1645093D01*
X1974900Y1643345D02*
Y1645095D01*
X1974905Y1643345D02*
Y1645097D01*
X1974910Y1643345D02*
Y1645098D01*
X1974915Y1643345D02*
Y1645100D01*
X1974920Y1643345D02*
Y1645102D01*
X1974925Y1643345D02*
Y1645103D01*
X1974930Y1643345D02*
Y1645105D01*
X1974935Y1643345D02*
Y1645106D01*
X1974940Y1643345D02*
Y1645107D01*
X1974945Y1643345D02*
Y1645109D01*
X1974950Y1643345D02*
Y1645110D01*
X1974955Y1643345D02*
Y1645111D01*
X1974960Y1643345D02*
Y1645112D01*
X1974965Y1643345D02*
Y1645113D01*
X1974970Y1643345D02*
Y1645114D01*
X1974975Y1643345D02*
Y1645115D01*
X1974980Y1643345D02*
Y1645115D01*
X1974985Y1643345D02*
Y1645116D01*
X1974990Y1643345D02*
Y1645117D01*
X1974995Y1643345D02*
Y1645117D01*
X1975000Y1643345D02*
Y1645118D01*
X1975005Y1643345D02*
Y1645118D01*
X1975010Y1643345D02*
Y1645118D01*
X1975015Y1643345D02*
Y1645119D01*
X1975020Y1643345D02*
Y1645119D01*
X1975025Y1643345D02*
Y1645119D01*
X1975030Y1643345D02*
Y1645119D01*
X1975035Y1643345D02*
Y1645119D01*
X1975040Y1643345D02*
Y1645119D01*
X1975045Y1643345D02*
Y1645119D01*
X1975050Y1643345D02*
Y1645119D01*
X1975055Y1643345D02*
Y1645119D01*
X1975060Y1643345D02*
Y1645119D01*
X1975065Y1643345D02*
Y1645119D01*
X1975070Y1643345D02*
Y1645119D01*
X1975075Y1643345D02*
Y1645119D01*
X1975080Y1643345D02*
Y1645119D01*
X1975085Y1643345D02*
Y1645119D01*
X1975090Y1643345D02*
Y1645119D01*
X1975095Y1643345D02*
Y1645119D01*
X1975100Y1643345D02*
Y1645119D01*
X1975105Y1643345D02*
Y1645119D01*
X1975110Y1643345D02*
Y1645119D01*
X1975115Y1643345D02*
Y1645119D01*
X1975120Y1643345D02*
Y1645119D01*
X1975125Y1643345D02*
Y1645119D01*
X1975130Y1643345D02*
Y1645119D01*
X1975135Y1643345D02*
Y1645119D01*
X1975140Y1643345D02*
Y1645119D01*
X1975145Y1643345D02*
Y1645119D01*
X1975150Y1643345D02*
Y1645119D01*
X1975155Y1643345D02*
Y1645119D01*
X1975160Y1643345D02*
Y1645119D01*
X1975165Y1643345D02*
Y1645119D01*
X1975170Y1643345D02*
Y1645119D01*
X1975175Y1643345D02*
Y1645119D01*
X1975180Y1643345D02*
Y1645119D01*
X1975185Y1643345D02*
Y1645119D01*
X1975190Y1643345D02*
Y1645119D01*
X1975195Y1643345D02*
Y1645119D01*
X1975200Y1643345D02*
Y1645119D01*
X1975205Y1643345D02*
Y1645119D01*
X1975210Y1643345D02*
Y1645119D01*
X1975215Y1643345D02*
Y1645119D01*
X1975220Y1643345D02*
Y1645119D01*
X1975225Y1643345D02*
Y1645119D01*
X1975230Y1643345D02*
Y1645119D01*
X1975235Y1643345D02*
Y1645119D01*
X1975240Y1643345D02*
Y1645119D01*
X1975245Y1643345D02*
Y1645119D01*
X1975250Y1643345D02*
Y1645119D01*
X1975255Y1643345D02*
Y1645119D01*
X1975260Y1643345D02*
Y1645119D01*
X1975265Y1643345D02*
Y1645119D01*
X1975270Y1643345D02*
Y1645119D01*
X1975275Y1643345D02*
Y1645119D01*
X1975280Y1643345D02*
Y1645119D01*
X1975285Y1643345D02*
Y1645119D01*
X1975290Y1643345D02*
Y1645119D01*
X1975295Y1643345D02*
Y1645119D01*
X1975300Y1643345D02*
Y1645119D01*
X1975305Y1643345D02*
Y1645119D01*
X1975310Y1643345D02*
Y1645119D01*
X1975315Y1643345D02*
Y1645119D01*
X1975320Y1643345D02*
Y1645119D01*
X1975325Y1643345D02*
Y1645119D01*
X1975330Y1643345D02*
Y1645119D01*
X1975335Y1643345D02*
Y1645119D01*
X1975340Y1643345D02*
Y1645119D01*
X1975345Y1643345D02*
Y1645119D01*
X1975350Y1643345D02*
Y1645119D01*
X1975355Y1643345D02*
Y1645119D01*
X1975360Y1643345D02*
Y1645119D01*
X1975365Y1643345D02*
Y1645119D01*
X1975370Y1643345D02*
Y1645119D01*
X1975375Y1643345D02*
Y1645119D01*
X1975380Y1643345D02*
Y1645119D01*
X1975385Y1643345D02*
Y1645119D01*
X1975390Y1643345D02*
Y1645119D01*
X1975395Y1643345D02*
Y1645119D01*
X1975400Y1643345D02*
Y1645119D01*
X1975405Y1643345D02*
Y1645119D01*
X1975410Y1643345D02*
Y1645119D01*
X1975415Y1643345D02*
Y1645119D01*
X1975420Y1643345D02*
Y1645119D01*
X1975425Y1643345D02*
Y1645119D01*
X1975430Y1643345D02*
Y1645119D01*
X1975435Y1643345D02*
Y1645119D01*
X1975440Y1643345D02*
Y1645119D01*
X1975445Y1643345D02*
Y1645119D01*
X1975450Y1643345D02*
Y1645119D01*
X1975455Y1643345D02*
Y1645119D01*
X1975460Y1643345D02*
Y1645119D01*
X1975465Y1643345D02*
Y1645119D01*
X1975470Y1643345D02*
Y1645119D01*
X1975475Y1643345D02*
Y1645119D01*
X1975480Y1643345D02*
Y1645119D01*
X1975485Y1643345D02*
Y1645119D01*
X1975490Y1643345D02*
Y1645119D01*
X1975495Y1643345D02*
Y1645119D01*
X1975500Y1643345D02*
Y1645119D01*
X1975505Y1643345D02*
Y1645119D01*
X1975510Y1643345D02*
Y1645119D01*
X1975515Y1643345D02*
Y1645119D01*
X1975520Y1643345D02*
Y1645119D01*
X1975525Y1643345D02*
Y1645119D01*
X1975530Y1643345D02*
Y1645119D01*
X1975535Y1643345D02*
Y1645119D01*
X1975540Y1643345D02*
Y1645119D01*
X1975545Y1643345D02*
Y1645119D01*
X1975550Y1643345D02*
Y1645119D01*
X1975555Y1643345D02*
Y1645119D01*
X1975560Y1643345D02*
Y1645119D01*
X1975565Y1643345D02*
Y1645119D01*
X1975570Y1643345D02*
Y1645119D01*
X1975575Y1643345D02*
Y1645119D01*
X1975580Y1643345D02*
Y1645119D01*
X1975585Y1643345D02*
Y1645119D01*
X1975590Y1643345D02*
Y1645119D01*
X1975595Y1643345D02*
Y1645119D01*
X1975600Y1643345D02*
Y1645119D01*
X1975605Y1643345D02*
Y1645119D01*
X1975610Y1643345D02*
Y1645119D01*
X1975615Y1643345D02*
Y1645119D01*
X1975620Y1643345D02*
Y1645119D01*
X1975625Y1643345D02*
Y1645119D01*
X1975630Y1643345D02*
Y1645119D01*
X1975635Y1643345D02*
Y1645119D01*
X1975640Y1643345D02*
Y1645119D01*
X1975645Y1643345D02*
Y1645119D01*
X1975650Y1643345D02*
Y1645119D01*
X1975655Y1643345D02*
Y1645119D01*
X1975660Y1643345D02*
Y1645119D01*
X1975665Y1643345D02*
Y1645119D01*
X1975670Y1643345D02*
Y1645119D01*
X1975675Y1643345D02*
Y1645119D01*
X1975680Y1643345D02*
Y1645119D01*
X1975685Y1643345D02*
Y1645119D01*
X1975690Y1643345D02*
Y1645119D01*
X1975695Y1643345D02*
Y1645119D01*
X1975700Y1643345D02*
Y1645119D01*
X1975705Y1643345D02*
Y1645119D01*
X1975710Y1643345D02*
Y1645119D01*
X1975715Y1643345D02*
Y1645119D01*
X1975720Y1643345D02*
Y1645119D01*
X1975725Y1643345D02*
Y1645119D01*
X1975730Y1643345D02*
Y1645119D01*
X1975735Y1643345D02*
Y1645119D01*
X1975740Y1643345D02*
Y1645119D01*
X1975745Y1643345D02*
Y1645119D01*
X1975750Y1643345D02*
Y1645119D01*
X1975755Y1643345D02*
Y1645119D01*
X1975760Y1643345D02*
Y1645119D01*
X1975765Y1643345D02*
Y1645119D01*
X1975770Y1643345D02*
Y1645119D01*
X1975775Y1643345D02*
Y1645119D01*
X1975780Y1643345D02*
Y1645119D01*
X1975785Y1643345D02*
Y1645119D01*
X1975790Y1643345D02*
Y1645119D01*
X1975795Y1643345D02*
Y1645119D01*
X1975800Y1643345D02*
Y1645119D01*
X1975805Y1643345D02*
Y1645119D01*
X1975810Y1643345D02*
Y1645119D01*
X1975815Y1643345D02*
Y1645119D01*
X1975820Y1643345D02*
Y1645119D01*
X1975825Y1643345D02*
Y1645119D01*
X1975830Y1643345D02*
Y1645119D01*
X1975835Y1643345D02*
Y1645119D01*
X1975840Y1643345D02*
Y1645119D01*
X1975845Y1643345D02*
Y1645119D01*
X1975850Y1643345D02*
Y1645119D01*
X1975855Y1643345D02*
Y1645119D01*
X1975860Y1643345D02*
Y1645119D01*
X1975865Y1643345D02*
Y1645119D01*
X1975870Y1643345D02*
Y1645119D01*
X1975875Y1643345D02*
Y1645119D01*
X1975880Y1643345D02*
Y1645119D01*
X1975885Y1643345D02*
Y1645119D01*
X1975890Y1643345D02*
Y1645119D01*
X1975895Y1643345D02*
Y1645119D01*
X1975900Y1643345D02*
Y1645119D01*
X1975905Y1643346D02*
Y1645119D01*
X1975910Y1643346D02*
Y1645118D01*
X1975915Y1643346D02*
Y1645118D01*
X1975920Y1643347D02*
Y1645118D01*
X1975925Y1643347D02*
Y1645117D01*
X1975930Y1643348D02*
Y1645117D01*
X1975935Y1643349D02*
Y1645116D01*
X1975940Y1643349D02*
Y1645115D01*
X1975945Y1643350D02*
Y1645115D01*
X1975950Y1643351D02*
Y1645114D01*
X1975955Y1643352D02*
Y1645113D01*
X1975960Y1643353D02*
Y1645112D01*
X1975965Y1643354D02*
Y1645111D01*
X1975970Y1643355D02*
Y1645110D01*
X1975975Y1643356D02*
Y1645109D01*
X1975980Y1643357D02*
Y1645108D01*
X1975985Y1643358D02*
Y1645106D01*
X1975990Y1643360D02*
Y1645105D01*
X1975995Y1643361D02*
Y1645103D01*
X1976000Y1643363D02*
Y1645102D01*
X1976005Y1643364D02*
Y1645100D01*
X1976010Y1643366D02*
Y1645099D01*
X1976015Y1643368D02*
Y1645097D01*
X1976020Y1643369D02*
Y1645095D01*
X1976025Y1643371D02*
Y1645093D01*
X1976030Y1643373D02*
Y1645091D01*
X1976035Y1643375D02*
Y1645089D01*
X1976040Y1643377D02*
Y1645087D01*
X1976045Y1643380D02*
Y1645085D01*
X1976050Y1643382D02*
Y1645083D01*
X1976055Y1643384D02*
Y1645080D01*
X1976060Y1643387D02*
Y1645078D01*
X1976065Y1643389D02*
Y1645075D01*
X1976070Y1643392D02*
Y1645073D01*
X1976075Y1643394D02*
Y1645070D01*
X1976080Y1643397D02*
Y1645067D01*
X1976085Y1643400D02*
Y1645064D01*
X1976090Y1643403D02*
Y1645061D01*
X1976095Y1643406D02*
Y1645058D01*
X1976100Y1643409D02*
Y1645055D01*
X1976105Y1643413D02*
Y1645052D01*
X1976110Y1643416D02*
Y1645048D01*
X1976115Y1643420D02*
Y1645045D01*
X1976120Y1643423D02*
Y1645041D01*
X1976125Y1643427D02*
Y1645037D01*
X1976130Y1643431D02*
Y1645033D01*
X1976135Y1643435D02*
Y1645029D01*
X1976140Y1643439D02*
Y1645025D01*
X1976145Y1643444D02*
Y1645021D01*
X1976150Y1643448D02*
Y1645016D01*
X1976155Y1643453D02*
Y1645012D01*
X1976160Y1643458D02*
Y1645007D01*
X1976165Y1643463D02*
Y1645002D01*
X1976170Y1643468D02*
Y1644997D01*
X1976175Y1643473D02*
Y1644992D01*
X1976180Y1643479D02*
Y1644986D01*
X1976185Y1643484D02*
Y1644980D01*
X1976190Y1643490D02*
Y1644974D01*
X1976195Y1643497D02*
Y1644968D01*
X1976200Y1643503D02*
Y1644961D01*
X1976205Y1643510D02*
Y1644955D01*
X1976210Y1643517D02*
Y1644947D01*
X1976215Y1643525D02*
Y1644940D01*
X1976220Y1643532D02*
Y1644932D01*
X1976225Y1643541D02*
Y1644924D01*
X1976230Y1643550D02*
Y1644915D01*
X1976235Y1643559D02*
Y1644906D01*
X1976240Y1643569D02*
Y1644895D01*
X1976245Y1643580D02*
Y1644885D01*
X1976250Y1643592D02*
Y1644873D01*
X1976255Y1643604D02*
Y1644860D01*
X1976260Y1643619D02*
Y1644846D01*
X1976265Y1643636D02*
Y1644829D01*
X1976270Y1643656D02*
Y1644808D01*
X1976275Y1643684D02*
Y1644780D01*
X1970371Y1644724D02*
Y1644740D01*
X1970372Y1644755*
X1970373Y1644771*
X1970376Y1644786*
X1970378Y1644801*
X1970382Y1644817*
X1970386Y1644832*
X1970390Y1644846*
X1970395Y1644861*
X1970401Y1644876*
X1970407Y1644890*
X1970414Y1644904*
X1970421Y1644917*
X1970429Y1644931*
X1970437Y1644944*
X1970446Y1644957*
X1970456Y1644969*
X1970465Y1644981*
X1970476Y1644993*
X1970486Y1645004*
X1970498Y1645014*
X1970509Y1645025*
X1970521Y1645035*
X1970534Y1645044*
X1970546Y1645053*
X1970559Y1645061*
X1970573Y1645069*
X1970586Y1645076*
X1970600Y1645083*
X1970615Y1645089*
X1970629Y1645095*
X1970644Y1645100*
X1970659Y1645105*
X1970674Y1645108*
X1970689Y1645112*
X1970704Y1645115*
X1970719Y1645117*
X1970735Y1645118*
X1970750Y1645119*
X1970766*
X1971612*
X1971628*
X1971643Y1645118*
X1971659Y1645117*
X1971674Y1645115*
X1971689Y1645112*
X1971704Y1645108*
X1971719Y1645105*
X1971734Y1645100*
X1971749Y1645095*
X1971763Y1645089*
X1971778Y1645083*
X1971792Y1645076*
X1971805Y1645069*
X1971819Y1645061*
X1971832Y1645053*
X1971844Y1645044*
X1971857Y1645035*
X1971869Y1645025*
X1971880Y1645014*
X1971892Y1645004*
X1972620Y1644275*
X1972631Y1644264*
X1972641Y1644253*
X1972651Y1644241*
X1972660Y1644228*
X1972669Y1644216*
X1972677Y1644202*
X1972685Y1644189*
X1972692Y1644175*
X1972692D02*
X1972699Y1644161D01*
X1972705Y1644147*
X1972711Y1644133*
X1972716Y1644118*
X1972721Y1644103*
X1972725Y1644088*
X1972728Y1644073*
X1972731Y1644058*
X1972733Y1644042*
X1972734Y1644027*
X1972735Y1644012*
X1972736Y1643996*
Y1643740*
X1972735Y1643725*
X1972734Y1643709*
X1972733Y1643694*
X1972731Y1643678*
X1972728Y1643663*
X1972725Y1643648*
X1972721Y1643633*
X1972716Y1643618*
X1972711Y1643603*
X1972705Y1643589*
X1972699Y1643575*
X1972692Y1643561*
X1972692D02*
X1972685Y1643547D01*
X1972677Y1643534*
X1972669Y1643521*
X1972660Y1643508*
X1972651Y1643496*
X1972641Y1643484*
X1972631Y1643472*
X1972620Y1643461*
X1972609Y1643450*
X1972597Y1643440*
X1972585Y1643430*
X1972573Y1643421*
X1972560Y1643412*
X1972547Y1643403*
X1972534Y1643396*
X1972520Y1643388*
X1972506Y1643381*
X1972492Y1643375*
X1972477Y1643370*
X1972463Y1643364*
X1972448Y1643360*
X1972433Y1643356*
X1972418Y1643353*
X1972402Y1643350*
X1972387Y1643348*
X1972372Y1643346*
X1972356Y1643345*
X1972341*
X1970766*
X1970750*
X1970735Y1643346*
X1970719Y1643348*
X1970704Y1643350*
X1970689Y1643353*
X1970674Y1643356*
X1970659Y1643360*
X1970644Y1643364*
X1970629Y1643370*
X1970615Y1643375*
X1970600Y1643381*
X1970586Y1643388*
X1970573Y1643396*
X1970559Y1643403*
X1970546Y1643412*
X1970534Y1643421*
X1970521Y1643430*
X1970509Y1643440*
X1970498Y1643450*
X1970486Y1643461*
X1970476Y1643472*
X1970465Y1643484*
X1970456Y1643496*
X1970446Y1643508*
X1970437Y1643521*
X1970429Y1643534*
X1970421Y1643547*
X1970414Y1643561*
X1970407Y1643575*
X1970401Y1643589*
X1970395Y1643603*
X1970390Y1643618*
X1970386Y1643633*
X1970382Y1643648*
X1970378Y1643663*
X1970376Y1643678*
X1970373Y1643694*
X1970372Y1643709*
X1970371Y1643725*
Y1643740*
Y1644724*
X1970375Y1643684D02*
Y1644780D01*
X1970380Y1643656D02*
Y1644808D01*
X1970385Y1643636D02*
Y1644829D01*
X1970390Y1643619D02*
Y1644846D01*
X1970395Y1643604D02*
Y1644860D01*
X1970400Y1643592D02*
Y1644873D01*
X1970405Y1643580D02*
Y1644885D01*
X1970410Y1643569D02*
Y1644895D01*
X1970415Y1643559D02*
Y1644906D01*
X1970420Y1643550D02*
Y1644915D01*
X1970425Y1643541D02*
Y1644924D01*
X1970430Y1643532D02*
Y1644932D01*
X1970435Y1643525D02*
Y1644940D01*
X1970440Y1643517D02*
Y1644947D01*
X1970445Y1643510D02*
Y1644955D01*
X1970450Y1643503D02*
Y1644961D01*
X1970455Y1643497D02*
Y1644968D01*
X1970460Y1643490D02*
Y1644974D01*
X1970465Y1643484D02*
Y1644980D01*
X1970470Y1643479D02*
Y1644986D01*
X1970475Y1643473D02*
Y1644992D01*
X1970480Y1643468D02*
Y1644997D01*
X1970485Y1643463D02*
Y1645002D01*
X1970490Y1643458D02*
Y1645007D01*
X1970495Y1643453D02*
Y1645012D01*
X1970500Y1643448D02*
Y1645016D01*
X1970505Y1643444D02*
Y1645021D01*
X1970510Y1643439D02*
Y1645025D01*
X1970515Y1643435D02*
Y1645029D01*
X1970520Y1643431D02*
Y1645033D01*
X1970525Y1643427D02*
Y1645037D01*
X1970530Y1643423D02*
Y1645041D01*
X1970535Y1643420D02*
Y1645045D01*
X1970540Y1643416D02*
Y1645048D01*
X1970545Y1643413D02*
Y1645052D01*
X1970550Y1643409D02*
Y1645055D01*
X1970555Y1643406D02*
Y1645058D01*
X1970560Y1643403D02*
Y1645061D01*
X1970565Y1643400D02*
Y1645064D01*
X1970570Y1643397D02*
Y1645067D01*
X1970575Y1643394D02*
Y1645070D01*
X1970580Y1643392D02*
Y1645073D01*
X1970585Y1643389D02*
Y1645075D01*
X1970590Y1643387D02*
Y1645078D01*
X1970595Y1643384D02*
Y1645080D01*
X1970600Y1643382D02*
Y1645083D01*
X1970605Y1643380D02*
Y1645085D01*
X1970610Y1643377D02*
Y1645087D01*
X1970615Y1643375D02*
Y1645089D01*
X1970620Y1643373D02*
Y1645091D01*
X1970625Y1643371D02*
Y1645093D01*
X1970630Y1643369D02*
Y1645095D01*
X1970635Y1643368D02*
Y1645097D01*
X1970640Y1643366D02*
Y1645099D01*
X1970645Y1643364D02*
Y1645100D01*
X1970650Y1643363D02*
Y1645102D01*
X1970655Y1643361D02*
Y1645103D01*
X1970660Y1643360D02*
Y1645105D01*
X1970665Y1643358D02*
Y1645106D01*
X1970670Y1643357D02*
Y1645108D01*
X1970675Y1643356D02*
Y1645109D01*
X1970680Y1643355D02*
Y1645110D01*
X1970685Y1643354D02*
Y1645111D01*
X1970690Y1643353D02*
Y1645112D01*
X1970695Y1643352D02*
Y1645113D01*
X1970700Y1643351D02*
Y1645114D01*
X1970705Y1643350D02*
Y1645115D01*
X1970710Y1643349D02*
Y1645115D01*
X1970715Y1643349D02*
Y1645116D01*
X1970720Y1643348D02*
Y1645117D01*
X1970725Y1643347D02*
Y1645117D01*
X1970730Y1643347D02*
Y1645118D01*
X1970735Y1643346D02*
Y1645118D01*
X1970740Y1643346D02*
Y1645118D01*
X1970745Y1643346D02*
Y1645119D01*
X1970750Y1643345D02*
Y1645119D01*
X1970755Y1643345D02*
Y1645119D01*
X1970760Y1643345D02*
Y1645119D01*
X1970765Y1643345D02*
Y1645119D01*
X1970770Y1643345D02*
Y1645119D01*
X1970775Y1643345D02*
Y1645119D01*
X1970780Y1643345D02*
Y1645119D01*
X1970785Y1643345D02*
Y1645119D01*
X1970790Y1643345D02*
Y1645119D01*
X1970795Y1643345D02*
Y1645119D01*
X1970800Y1643345D02*
Y1645119D01*
X1970805Y1643345D02*
Y1645119D01*
X1970810Y1643345D02*
Y1645119D01*
X1970815Y1643345D02*
Y1645119D01*
X1970820Y1643345D02*
Y1645119D01*
X1970825Y1643345D02*
Y1645119D01*
X1970830Y1643345D02*
Y1645119D01*
X1970835Y1643345D02*
Y1645119D01*
X1970840Y1643345D02*
Y1645119D01*
X1970845Y1643345D02*
Y1645119D01*
X1970850Y1643345D02*
Y1645119D01*
X1970855Y1643345D02*
Y1645119D01*
X1970860Y1643345D02*
Y1645119D01*
X1970865Y1643345D02*
Y1645119D01*
X1970870Y1643345D02*
Y1645119D01*
X1970875Y1643345D02*
Y1645119D01*
X1970880Y1643345D02*
Y1645119D01*
X1970885Y1643345D02*
Y1645119D01*
X1970890Y1643345D02*
Y1645119D01*
X1970895Y1643345D02*
Y1645119D01*
X1970900Y1643345D02*
Y1645119D01*
X1970905Y1643345D02*
Y1645119D01*
X1970910Y1643345D02*
Y1645119D01*
X1970915Y1643345D02*
Y1645119D01*
X1970920Y1643345D02*
Y1645119D01*
X1970925Y1643345D02*
Y1645119D01*
X1970930Y1643345D02*
Y1645119D01*
X1970935Y1643345D02*
Y1645119D01*
X1970940Y1643345D02*
Y1645119D01*
X1970945Y1643345D02*
Y1645119D01*
X1970950Y1643345D02*
Y1645119D01*
X1970955Y1643345D02*
Y1645119D01*
X1970960Y1643345D02*
Y1645119D01*
X1970965Y1643345D02*
Y1645119D01*
X1970970Y1643345D02*
Y1645119D01*
X1970975Y1643345D02*
Y1645119D01*
X1970980Y1643345D02*
Y1645119D01*
X1970985Y1643345D02*
Y1645119D01*
X1970990Y1643345D02*
Y1645119D01*
X1970995Y1643345D02*
Y1645119D01*
X1971000Y1643345D02*
Y1645119D01*
X1971005Y1643345D02*
Y1645119D01*
X1971010Y1643345D02*
Y1645119D01*
X1971015Y1643345D02*
Y1645119D01*
X1971020Y1643345D02*
Y1645119D01*
X1971025Y1643345D02*
Y1645119D01*
X1971030Y1643345D02*
Y1645119D01*
X1971035Y1643345D02*
Y1645119D01*
X1971040Y1643345D02*
Y1645119D01*
X1971045Y1643345D02*
Y1645119D01*
X1971050Y1643345D02*
Y1645119D01*
X1971055Y1643345D02*
Y1645119D01*
X1971060Y1643345D02*
Y1645119D01*
X1971065Y1643345D02*
Y1645119D01*
X1971070Y1643345D02*
Y1645119D01*
X1971075Y1643345D02*
Y1645119D01*
X1971080Y1643345D02*
Y1645119D01*
X1971085Y1643345D02*
Y1645119D01*
X1971090Y1643345D02*
Y1645119D01*
X1971095Y1643345D02*
Y1645119D01*
X1971100Y1643345D02*
Y1645119D01*
X1971105Y1643345D02*
Y1645119D01*
X1971110Y1643345D02*
Y1645119D01*
X1971115Y1643345D02*
Y1645119D01*
X1971120Y1643345D02*
Y1645119D01*
X1971125Y1643345D02*
Y1645119D01*
X1971130Y1643345D02*
Y1645119D01*
X1971135Y1643345D02*
Y1645119D01*
X1971140Y1643345D02*
Y1645119D01*
X1971145Y1643345D02*
Y1645119D01*
X1971150Y1643345D02*
Y1645119D01*
X1971155Y1643345D02*
Y1645119D01*
X1971160Y1643345D02*
Y1645119D01*
X1971165Y1643345D02*
Y1645119D01*
X1971170Y1643345D02*
Y1645119D01*
X1971175Y1643345D02*
Y1645119D01*
X1971180Y1643345D02*
Y1645119D01*
X1971185Y1643345D02*
Y1645119D01*
X1971190Y1643345D02*
Y1645119D01*
X1971195Y1643345D02*
Y1645119D01*
X1971200Y1643345D02*
Y1645119D01*
X1971205Y1643345D02*
Y1645119D01*
X1971210Y1643345D02*
Y1645119D01*
X1971215Y1643345D02*
Y1645119D01*
X1971220Y1643345D02*
Y1645119D01*
X1971225Y1643345D02*
Y1645119D01*
X1971230Y1643345D02*
Y1645119D01*
X1971235Y1643345D02*
Y1645119D01*
X1971240Y1643345D02*
Y1645119D01*
X1971245Y1643345D02*
Y1645119D01*
X1971250Y1643345D02*
Y1645119D01*
X1971255Y1643345D02*
Y1645119D01*
X1971260Y1643345D02*
Y1645119D01*
X1971265Y1643345D02*
Y1645119D01*
X1971270Y1643345D02*
Y1645119D01*
X1971275Y1643345D02*
Y1645119D01*
X1971280Y1643345D02*
Y1645119D01*
X1971285Y1643345D02*
Y1645119D01*
X1971290Y1643345D02*
Y1645119D01*
X1971295Y1643345D02*
Y1645119D01*
X1971300Y1643345D02*
Y1645119D01*
X1971305Y1643345D02*
Y1645119D01*
X1971310Y1643345D02*
Y1645119D01*
X1971315Y1643345D02*
Y1645119D01*
X1971320Y1643345D02*
Y1645119D01*
X1971325Y1643345D02*
Y1645119D01*
X1971330Y1643345D02*
Y1645119D01*
X1971335Y1643345D02*
Y1645119D01*
X1971340Y1643345D02*
Y1645119D01*
X1971345Y1643345D02*
Y1645119D01*
X1971350Y1643345D02*
Y1645119D01*
X1971355Y1643345D02*
Y1645119D01*
X1971360Y1643345D02*
Y1645119D01*
X1971365Y1643345D02*
Y1645119D01*
X1971370Y1643345D02*
Y1645119D01*
X1971375Y1643345D02*
Y1645119D01*
X1971380Y1643345D02*
Y1645119D01*
X1971385Y1643345D02*
Y1645119D01*
X1971390Y1643345D02*
Y1645119D01*
X1971395Y1643345D02*
Y1645119D01*
X1971400Y1643345D02*
Y1645119D01*
X1971405Y1643345D02*
Y1645119D01*
X1971410Y1643345D02*
Y1645119D01*
X1971415Y1643345D02*
Y1645119D01*
X1971420Y1643345D02*
Y1645119D01*
X1971425Y1643345D02*
Y1645119D01*
X1971430Y1643345D02*
Y1645119D01*
X1971435Y1643345D02*
Y1645119D01*
X1971440Y1643345D02*
Y1645119D01*
X1971445Y1643345D02*
Y1645119D01*
X1971450Y1643345D02*
Y1645119D01*
X1971455Y1643345D02*
Y1645119D01*
X1971460Y1643345D02*
Y1645119D01*
X1971465Y1643345D02*
Y1645119D01*
X1971470Y1643345D02*
Y1645119D01*
X1971475Y1643345D02*
Y1645119D01*
X1971480Y1643345D02*
Y1645119D01*
X1971485Y1643345D02*
Y1645119D01*
X1971490Y1643345D02*
Y1645119D01*
X1971495Y1643345D02*
Y1645119D01*
X1971500Y1643345D02*
Y1645119D01*
X1971505Y1643345D02*
Y1645119D01*
X1971510Y1643345D02*
Y1645119D01*
X1971515Y1643345D02*
Y1645119D01*
X1971520Y1643345D02*
Y1645119D01*
X1971525Y1643345D02*
Y1645119D01*
X1971530Y1643345D02*
Y1645119D01*
X1971535Y1643345D02*
Y1645119D01*
X1971540Y1643345D02*
Y1645119D01*
X1971545Y1643345D02*
Y1645119D01*
X1971550Y1643345D02*
Y1645119D01*
X1971555Y1643345D02*
Y1645119D01*
X1971560Y1643345D02*
Y1645119D01*
X1971565Y1643345D02*
Y1645119D01*
X1971570Y1643345D02*
Y1645119D01*
X1971575Y1643345D02*
Y1645119D01*
X1971580Y1643345D02*
Y1645119D01*
X1971585Y1643345D02*
Y1645119D01*
X1971590Y1643345D02*
Y1645119D01*
X1971595Y1643345D02*
Y1645119D01*
X1971600Y1643345D02*
Y1645119D01*
X1971605Y1643345D02*
Y1645119D01*
X1971610Y1643345D02*
Y1645119D01*
X1971615Y1643345D02*
Y1645119D01*
X1971620Y1643345D02*
Y1645119D01*
X1971625Y1643345D02*
Y1645119D01*
X1971630Y1643345D02*
Y1645119D01*
X1971635Y1643345D02*
Y1645119D01*
X1971640Y1643345D02*
Y1645118D01*
X1971645Y1643345D02*
Y1645118D01*
X1971650Y1643345D02*
Y1645118D01*
X1971655Y1643345D02*
Y1645117D01*
X1971660Y1643345D02*
Y1645117D01*
X1971665Y1643345D02*
Y1645116D01*
X1971670Y1643345D02*
Y1645115D01*
X1971675Y1643345D02*
Y1645114D01*
X1971680Y1643345D02*
Y1645114D01*
X1971685Y1643345D02*
Y1645113D01*
X1971690Y1643345D02*
Y1645112D01*
X1971695Y1643345D02*
Y1645111D01*
X1971700Y1643345D02*
Y1645110D01*
X1971705Y1643345D02*
Y1645108D01*
X1971710Y1643345D02*
Y1645107D01*
X1971715Y1643345D02*
Y1645106D01*
X1971720Y1643345D02*
Y1645104D01*
X1971725Y1643345D02*
Y1645103D01*
X1971730Y1643345D02*
Y1645101D01*
X1971735Y1643345D02*
Y1645100D01*
X1971740Y1643345D02*
Y1645098D01*
X1971745Y1643345D02*
Y1645096D01*
X1971750Y1643345D02*
Y1645095D01*
X1971755Y1643345D02*
Y1645093D01*
X1971760Y1643345D02*
Y1645091D01*
X1971765Y1643345D02*
Y1645089D01*
X1971770Y1643345D02*
Y1645087D01*
X1971775Y1643345D02*
Y1645084D01*
X1971780Y1643345D02*
Y1645082D01*
X1971785Y1643345D02*
Y1645080D01*
X1971790Y1643345D02*
Y1645077D01*
X1971795Y1643345D02*
Y1645075D01*
X1971800Y1643345D02*
Y1645072D01*
X1971805Y1643345D02*
Y1645069D01*
X1971810Y1643345D02*
Y1645066D01*
X1971815Y1643345D02*
Y1645063D01*
X1971820Y1643345D02*
Y1645060D01*
X1971825Y1643345D02*
Y1645057D01*
X1971830Y1643345D02*
Y1645054D01*
X1971835Y1643345D02*
Y1645051D01*
X1971840Y1643345D02*
Y1645047D01*
X1971845Y1643345D02*
Y1645044D01*
X1971850Y1643345D02*
Y1645040D01*
X1971855Y1643345D02*
Y1645036D01*
X1971860Y1643345D02*
Y1645032D01*
X1971865Y1643345D02*
Y1645028D01*
X1971870Y1643345D02*
Y1645024D01*
X1971875Y1643345D02*
Y1645019D01*
X1971880Y1643345D02*
Y1645015D01*
X1971885Y1643345D02*
Y1645010D01*
X1971890Y1643345D02*
Y1645005D01*
X1971895Y1643345D02*
Y1645000D01*
X1971900Y1643345D02*
Y1644995D01*
X1971905Y1643345D02*
Y1644990D01*
X1971910Y1643345D02*
Y1644985D01*
X1971915Y1643345D02*
Y1644980D01*
X1971920Y1643345D02*
Y1644975D01*
X1971925Y1643345D02*
Y1644970D01*
X1971930Y1643345D02*
Y1644965D01*
X1971935Y1643345D02*
Y1644960D01*
X1971940Y1643345D02*
Y1644955D01*
X1971945Y1643345D02*
Y1644950D01*
X1971950Y1643345D02*
Y1644945D01*
X1971955Y1643345D02*
Y1644940D01*
X1971960Y1643345D02*
Y1644935D01*
X1971965Y1643345D02*
Y1644930D01*
X1971970Y1643345D02*
Y1644925D01*
X1971975Y1643345D02*
Y1644920D01*
X1971980Y1643345D02*
Y1644915D01*
X1971985Y1643345D02*
Y1644910D01*
X1971990Y1643345D02*
Y1644905D01*
X1971995Y1643345D02*
Y1644900D01*
X1972000Y1643345D02*
Y1644895D01*
X1972005Y1643345D02*
Y1644890D01*
X1972010Y1643345D02*
Y1644885D01*
X1972015Y1643345D02*
Y1644880D01*
X1972020Y1643345D02*
Y1644875D01*
X1972025Y1643345D02*
Y1644870D01*
X1972030Y1643345D02*
Y1644865D01*
X1972035Y1643345D02*
Y1644860D01*
X1972040Y1643345D02*
Y1644855D01*
X1972045Y1643345D02*
Y1644850D01*
X1972050Y1643345D02*
Y1644845D01*
X1972055Y1643345D02*
Y1644840D01*
X1972060Y1643345D02*
Y1644835D01*
X1972065Y1643345D02*
Y1644830D01*
X1972070Y1643345D02*
Y1644825D01*
X1972075Y1643345D02*
Y1644820D01*
X1972080Y1643345D02*
Y1644815D01*
X1972085Y1643345D02*
Y1644810D01*
X1972090Y1643345D02*
Y1644805D01*
X1972095Y1643345D02*
Y1644800D01*
X1972100Y1643345D02*
Y1644795D01*
X1972105Y1643345D02*
Y1644790D01*
X1972110Y1643345D02*
Y1644785D01*
X1972115Y1643345D02*
Y1644780D01*
X1972120Y1643345D02*
Y1644775D01*
X1972125Y1643345D02*
Y1644770D01*
X1972130Y1643345D02*
Y1644765D01*
X1972135Y1643345D02*
Y1644760D01*
X1972140Y1643345D02*
Y1644755D01*
X1972145Y1643345D02*
Y1644750D01*
X1972150Y1643345D02*
Y1644745D01*
X1972155Y1643345D02*
Y1644740D01*
X1972160Y1643345D02*
Y1644735D01*
X1972165Y1643345D02*
Y1644730D01*
X1972170Y1643345D02*
Y1644725D01*
X1972175Y1643345D02*
Y1644720D01*
X1972180Y1643345D02*
Y1644715D01*
X1972185Y1643345D02*
Y1644710D01*
X1972190Y1643345D02*
Y1644705D01*
X1972195Y1643345D02*
Y1644700D01*
X1972200Y1643345D02*
Y1644695D01*
X1972205Y1643345D02*
Y1644690D01*
X1972210Y1643345D02*
Y1644685D01*
X1972215Y1643345D02*
Y1644680D01*
X1972220Y1643345D02*
Y1644675D01*
X1972225Y1643345D02*
Y1644670D01*
X1972230Y1643345D02*
Y1644665D01*
X1972235Y1643345D02*
Y1644660D01*
X1972240Y1643345D02*
Y1644655D01*
X1972245Y1643345D02*
Y1644650D01*
X1972250Y1643345D02*
Y1644645D01*
X1972255Y1643345D02*
Y1644640D01*
X1972260Y1643345D02*
Y1644635D01*
X1972265Y1643345D02*
Y1644630D01*
X1972270Y1643345D02*
Y1644625D01*
X1972275Y1643345D02*
Y1644620D01*
X1972280Y1643345D02*
Y1644615D01*
X1972285Y1643345D02*
Y1644610D01*
X1972290Y1643345D02*
Y1644605D01*
X1972295Y1643345D02*
Y1644600D01*
X1972300Y1643345D02*
Y1644595D01*
X1972305Y1643345D02*
Y1644590D01*
X1972310Y1643345D02*
Y1644585D01*
X1972315Y1643345D02*
Y1644580D01*
X1972320Y1643345D02*
Y1644575D01*
X1972325Y1643345D02*
Y1644570D01*
X1972330Y1643345D02*
Y1644565D01*
X1972335Y1643345D02*
Y1644560D01*
X1972340Y1643345D02*
Y1644555D01*
X1972345Y1643345D02*
Y1644550D01*
X1972350Y1643345D02*
Y1644545D01*
X1972355Y1643345D02*
Y1644540D01*
X1972360Y1643346D02*
Y1644535D01*
X1972365Y1643346D02*
Y1644530D01*
X1972370Y1643346D02*
Y1644525D01*
X1972375Y1643347D02*
Y1644520D01*
X1972380Y1643347D02*
Y1644515D01*
X1972385Y1643348D02*
Y1644510D01*
X1972390Y1643348D02*
Y1644505D01*
X1972395Y1643349D02*
Y1644500D01*
X1972400Y1643350D02*
Y1644495D01*
X1972405Y1643350D02*
Y1644490D01*
X1972410Y1643351D02*
Y1644485D01*
X1972415Y1643352D02*
Y1644480D01*
X1972420Y1643353D02*
Y1644475D01*
X1972425Y1643354D02*
Y1644470D01*
X1972430Y1643355D02*
Y1644465D01*
X1972435Y1643357D02*
Y1644460D01*
X1972440Y1643358D02*
Y1644455D01*
X1972445Y1643359D02*
Y1644450D01*
X1972450Y1643361D02*
Y1644445D01*
X1972455Y1643362D02*
Y1644440D01*
X1972460Y1643364D02*
Y1644435D01*
X1972465Y1643365D02*
Y1644430D01*
X1972470Y1643367D02*
Y1644425D01*
X1972475Y1643369D02*
Y1644420D01*
X1972480Y1643371D02*
Y1644415D01*
X1972485Y1643373D02*
Y1644410D01*
X1972490Y1643374D02*
Y1644405D01*
X1972495Y1643377D02*
Y1644400D01*
X1972500Y1643379D02*
Y1644395D01*
X1972505Y1643381D02*
Y1644390D01*
X1972510Y1643383D02*
Y1644385D01*
X1972515Y1643386D02*
Y1644380D01*
X1972520Y1643388D02*
Y1644375D01*
X1972525Y1643391D02*
Y1644370D01*
X1972530Y1643394D02*
Y1644365D01*
X1972535Y1643396D02*
Y1644360D01*
X1972540Y1643399D02*
Y1644355D01*
X1972545Y1643402D02*
Y1644350D01*
X1972550Y1643405D02*
Y1644345D01*
X1972555Y1643408D02*
Y1644340D01*
X1972560Y1643412D02*
Y1644335D01*
X1972565Y1643415D02*
Y1644330D01*
X1972570Y1643419D02*
Y1644325D01*
X1972575Y1643422D02*
Y1644320D01*
X1972580Y1643426D02*
Y1644315D01*
X1972585Y1643430D02*
Y1644310D01*
X1972590Y1643434D02*
Y1644305D01*
X1972595Y1643438D02*
Y1644300D01*
X1972600Y1643442D02*
Y1644295D01*
X1972605Y1643447D02*
Y1644290D01*
X1972610Y1643451D02*
Y1644285D01*
X1972615Y1643456D02*
Y1644280D01*
X1972620Y1643461D02*
Y1644275D01*
X1972625Y1643466D02*
Y1644270D01*
X1972630Y1643471D02*
Y1644265D01*
X1972635Y1643477D02*
Y1644259D01*
X1972640Y1643482D02*
Y1644254D01*
X1972645Y1643488D02*
Y1644248D01*
X1972650Y1643494D02*
Y1644242D01*
X1972655Y1643501D02*
Y1644235D01*
X1972660Y1643508D02*
Y1644229D01*
X1972665Y1643515D02*
Y1644222D01*
X1972670Y1643522D02*
Y1644214D01*
X1972675Y1643530D02*
Y1644206D01*
X1972680Y1643538D02*
Y1644198D01*
X1972685Y1643546D02*
Y1644190D01*
X1972690Y1643556D02*
Y1644180D01*
X1972695Y1643566D02*
Y1644171D01*
X1972700Y1643576D02*
Y1644160D01*
X1972705Y1643587D02*
Y1644149D01*
X1972710Y1643600D02*
Y1644136D01*
X1972715Y1643614D02*
Y1644122D01*
X1972720Y1643630D02*
Y1644106D01*
X1972725Y1643649D02*
Y1644088D01*
X1972730Y1643673D02*
Y1644063D01*
X1972735Y1643717D02*
Y1644019D01*
X1970371Y1647283D02*
Y1647299D01*
X1970372Y1647314*
X1970373Y1647330*
X1970376Y1647345*
X1970378Y1647361*
X1970382Y1647376*
X1970386Y1647391*
X1970390Y1647406*
X1970395Y1647420*
X1970401Y1647435*
X1970407Y1647449*
X1970414Y1647463*
X1970421Y1647476*
X1970429Y1647490*
X1970437Y1647503*
X1970446Y1647516*
X1970456Y1647528*
X1970465Y1647540*
X1970476Y1647552*
X1970486Y1647563*
X1970498Y1647574*
X1970509Y1647584*
X1970521Y1647594*
X1970534Y1647603*
X1970546Y1647612*
X1970559Y1647620*
X1970573Y1647628*
X1970586Y1647635*
X1970600Y1647642*
X1970615Y1647648*
X1970629Y1647654*
X1970644Y1647659*
X1970659Y1647664*
X1970674Y1647668*
X1970689Y1647671*
X1970704Y1647674*
X1970719Y1647676*
X1970735Y1647677*
X1970750Y1647678*
X1970766*
X1972341*
X1972356*
X1972372Y1647677*
X1972387Y1647676*
X1972402Y1647674*
X1972418Y1647671*
X1972433Y1647668*
X1972448Y1647664*
X1972463Y1647659*
X1972477Y1647654*
X1972492Y1647648*
X1972506Y1647642*
X1972520Y1647635*
X1972534Y1647628*
X1972547Y1647620*
X1972560Y1647612*
X1972573Y1647603*
X1972585Y1647594*
X1972597Y1647584*
X1972609Y1647574*
X1972620Y1647563*
X1972631Y1647552*
X1972641Y1647540*
X1972651Y1647528*
X1972660Y1647516*
X1972669Y1647503*
X1972677Y1647490*
X1972685Y1647476*
X1972692Y1647463*
X1972692D02*
X1972699Y1647449D01*
X1972705Y1647435*
X1972711Y1647420*
X1972716Y1647406*
X1972721Y1647391*
X1972725Y1647376*
X1972728Y1647361*
X1972731Y1647345*
X1972733Y1647330*
X1972734Y1647314*
X1972735Y1647299*
X1972736Y1647283*
Y1647028*
X1972735Y1647012*
X1972734Y1646997*
X1972733Y1646981*
X1972731Y1646966*
X1972728Y1646950*
X1972728D02*
X1972725Y1646935D01*
X1972721Y1646920*
X1972716Y1646905*
X1972711Y1646891*
X1972705Y1646876*
X1972699Y1646862*
X1972692Y1646848*
X1972692D02*
X1972685Y1646835D01*
X1972677Y1646821*
X1972669Y1646808*
X1972660Y1646795*
X1972651Y1646783*
X1972641Y1646771*
X1972631Y1646759*
X1972620Y1646748*
X1971892Y1646020*
X1971880Y1646009*
X1971869Y1645999*
X1971857Y1645989*
X1971844Y1645980*
X1971832Y1645971*
X1971819Y1645962*
X1971805Y1645955*
X1971792Y1645947*
X1971778Y1645940*
X1971763Y1645934*
X1971749Y1645929*
X1971734Y1645924*
X1971719Y1645919*
X1971704Y1645915*
X1971689Y1645912*
X1971674Y1645909*
X1971659Y1645907*
X1971643Y1645905*
X1971628*
X1971612Y1645904*
X1970766*
X1970750Y1645905*
X1970735*
X1970719Y1645907*
X1970704Y1645909*
X1970689Y1645912*
X1970674Y1645915*
X1970659Y1645919*
X1970644Y1645924*
X1970629Y1645929*
X1970615Y1645934*
X1970600Y1645940*
X1970586Y1645947*
X1970573Y1645955*
X1970559Y1645962*
X1970546Y1645971*
X1970534Y1645980*
X1970521Y1645989*
X1970509Y1645999*
X1970498Y1646009*
X1970486Y1646020*
X1970476Y1646031*
X1970465Y1646043*
X1970456Y1646055*
X1970446Y1646067*
X1970437Y1646080*
X1970429Y1646093*
X1970421Y1646106*
X1970414Y1646120*
X1970407Y1646134*
X1970401Y1646148*
X1970395Y1646162*
X1970390Y1646177*
X1970386Y1646192*
X1970382Y1646207*
X1970378Y1646222*
X1970376Y1646237*
X1970373Y1646253*
X1970372Y1646268*
X1970371Y1646284*
Y1646299*
Y1647283*
X1970375Y1646243D02*
Y1647339D01*
X1970380Y1646215D02*
Y1647367D01*
X1970385Y1646195D02*
Y1647388D01*
X1970390Y1646178D02*
Y1647405D01*
X1970395Y1646164D02*
Y1647419D01*
X1970400Y1646151D02*
Y1647432D01*
X1970405Y1646139D02*
Y1647444D01*
X1970410Y1646128D02*
Y1647455D01*
X1970415Y1646118D02*
Y1647465D01*
X1970420Y1646109D02*
Y1647474D01*
X1970425Y1646100D02*
Y1647483D01*
X1970430Y1646092D02*
Y1647491D01*
X1970435Y1646084D02*
Y1647499D01*
X1970440Y1646076D02*
Y1647506D01*
X1970445Y1646069D02*
Y1647514D01*
X1970450Y1646062D02*
Y1647520D01*
X1970455Y1646056D02*
Y1647527D01*
X1970460Y1646049D02*
Y1647533D01*
X1970465Y1646043D02*
Y1647539D01*
X1970470Y1646038D02*
Y1647545D01*
X1970475Y1646032D02*
Y1647551D01*
X1970480Y1646027D02*
Y1647556D01*
X1970485Y1646022D02*
Y1647561D01*
X1970490Y1646017D02*
Y1647566D01*
X1970495Y1646012D02*
Y1647571D01*
X1970500Y1646007D02*
Y1647575D01*
X1970505Y1646003D02*
Y1647580D01*
X1970510Y1645998D02*
Y1647584D01*
X1970515Y1645994D02*
Y1647588D01*
X1970520Y1645990D02*
Y1647593D01*
X1970525Y1645986D02*
Y1647596D01*
X1970530Y1645983D02*
Y1647600D01*
X1970535Y1645979D02*
Y1647604D01*
X1970540Y1645975D02*
Y1647607D01*
X1970545Y1645972D02*
Y1647611D01*
X1970550Y1645969D02*
Y1647614D01*
X1970555Y1645965D02*
Y1647617D01*
X1970560Y1645962D02*
Y1647621D01*
X1970565Y1645959D02*
Y1647623D01*
X1970570Y1645956D02*
Y1647626D01*
X1970575Y1645953D02*
Y1647629D01*
X1970580Y1645951D02*
Y1647632D01*
X1970585Y1645948D02*
Y1647635D01*
X1970590Y1645946D02*
Y1647637D01*
X1970595Y1645943D02*
Y1647639D01*
X1970600Y1645941D02*
Y1647642D01*
X1970605Y1645939D02*
Y1647644D01*
X1970610Y1645936D02*
Y1647646D01*
X1970615Y1645934D02*
Y1647648D01*
X1970620Y1645932D02*
Y1647650D01*
X1970625Y1645930D02*
Y1647652D01*
X1970630Y1645928D02*
Y1647654D01*
X1970635Y1645927D02*
Y1647656D01*
X1970640Y1645925D02*
Y1647658D01*
X1970645Y1645923D02*
Y1647659D01*
X1970650Y1645922D02*
Y1647661D01*
X1970655Y1645920D02*
Y1647663D01*
X1970660Y1645919D02*
Y1647664D01*
X1970665Y1645917D02*
Y1647665D01*
X1970670Y1645916D02*
Y1647667D01*
X1970675Y1645915D02*
Y1647668D01*
X1970680Y1645914D02*
Y1647669D01*
X1970685Y1645913D02*
Y1647670D01*
X1970690Y1645912D02*
Y1647671D01*
X1970695Y1645911D02*
Y1647672D01*
X1970700Y1645910D02*
Y1647673D01*
X1970705Y1645909D02*
Y1647674D01*
X1970710Y1645908D02*
Y1647674D01*
X1970715Y1645908D02*
Y1647675D01*
X1970720Y1645907D02*
Y1647676D01*
X1970725Y1645906D02*
Y1647676D01*
X1970730Y1645906D02*
Y1647677D01*
X1970735Y1645905D02*
Y1647677D01*
X1970740Y1645905D02*
Y1647678D01*
X1970745Y1645905D02*
Y1647678D01*
X1970750Y1645905D02*
Y1647678D01*
X1970755Y1645904D02*
Y1647678D01*
X1970760Y1645904D02*
Y1647678D01*
X1970765Y1645904D02*
Y1647678D01*
X1970770Y1645904D02*
Y1647678D01*
X1970775Y1645904D02*
Y1647678D01*
X1970780Y1645904D02*
Y1647678D01*
X1970785Y1645904D02*
Y1647678D01*
X1970790Y1645904D02*
Y1647678D01*
X1970795Y1645904D02*
Y1647678D01*
X1970800Y1645904D02*
Y1647678D01*
X1970805Y1645904D02*
Y1647678D01*
X1970810Y1645904D02*
Y1647678D01*
X1970815Y1645904D02*
Y1647678D01*
X1970820Y1645904D02*
Y1647678D01*
X1970825Y1645904D02*
Y1647678D01*
X1970830Y1645904D02*
Y1647678D01*
X1970835Y1645904D02*
Y1647678D01*
X1970840Y1645904D02*
Y1647678D01*
X1970845Y1645904D02*
Y1647678D01*
X1970850Y1645904D02*
Y1647678D01*
X1970855Y1645904D02*
Y1647678D01*
X1970860Y1645904D02*
Y1647678D01*
X1970865Y1645904D02*
Y1647678D01*
X1970870Y1645904D02*
Y1647678D01*
X1970875Y1645904D02*
Y1647678D01*
X1970880Y1645904D02*
Y1647678D01*
X1970885Y1645904D02*
Y1647678D01*
X1970890Y1645904D02*
Y1647678D01*
X1970895Y1645904D02*
Y1647678D01*
X1970900Y1645904D02*
Y1647678D01*
X1970905Y1645904D02*
Y1647678D01*
X1970910Y1645904D02*
Y1647678D01*
X1970915Y1645904D02*
Y1647678D01*
X1970920Y1645904D02*
Y1647678D01*
X1970925Y1645904D02*
Y1647678D01*
X1970930Y1645904D02*
Y1647678D01*
X1970935Y1645904D02*
Y1647678D01*
X1970940Y1645904D02*
Y1647678D01*
X1970945Y1645904D02*
Y1647678D01*
X1970950Y1645904D02*
Y1647678D01*
X1970955Y1645904D02*
Y1647678D01*
X1970960Y1645904D02*
Y1647678D01*
X1970965Y1645904D02*
Y1647678D01*
X1970970Y1645904D02*
Y1647678D01*
X1970975Y1645904D02*
Y1647678D01*
X1970980Y1645904D02*
Y1647678D01*
X1970985Y1645904D02*
Y1647678D01*
X1970990Y1645904D02*
Y1647678D01*
X1970995Y1645904D02*
Y1647678D01*
X1971000Y1645904D02*
Y1647678D01*
X1971005Y1645904D02*
Y1647678D01*
X1971010Y1645904D02*
Y1647678D01*
X1971015Y1645904D02*
Y1647678D01*
X1971020Y1645904D02*
Y1647678D01*
X1971025Y1645904D02*
Y1647678D01*
X1971030Y1645904D02*
Y1647678D01*
X1971035Y1645904D02*
Y1647678D01*
X1971040Y1645904D02*
Y1647678D01*
X1971045Y1645904D02*
Y1647678D01*
X1971050Y1645904D02*
Y1647678D01*
X1971055Y1645904D02*
Y1647678D01*
X1971060Y1645904D02*
Y1647678D01*
X1971065Y1645904D02*
Y1647678D01*
X1971070Y1645904D02*
Y1647678D01*
X1971075Y1645904D02*
Y1647678D01*
X1971080Y1645904D02*
Y1647678D01*
X1971085Y1645904D02*
Y1647678D01*
X1971090Y1645904D02*
Y1647678D01*
X1971095Y1645904D02*
Y1647678D01*
X1971100Y1645904D02*
Y1647678D01*
X1971105Y1645904D02*
Y1647678D01*
X1971110Y1645904D02*
Y1647678D01*
X1971115Y1645904D02*
Y1647678D01*
X1971120Y1645904D02*
Y1647678D01*
X1971125Y1645904D02*
Y1647678D01*
X1971130Y1645904D02*
Y1647678D01*
X1971135Y1645904D02*
Y1647678D01*
X1971140Y1645904D02*
Y1647678D01*
X1971145Y1645904D02*
Y1647678D01*
X1971150Y1645904D02*
Y1647678D01*
X1971155Y1645904D02*
Y1647678D01*
X1971160Y1645904D02*
Y1647678D01*
X1971165Y1645904D02*
Y1647678D01*
X1971170Y1645904D02*
Y1647678D01*
X1971175Y1645904D02*
Y1647678D01*
X1971180Y1645904D02*
Y1647678D01*
X1971185Y1645904D02*
Y1647678D01*
X1971190Y1645904D02*
Y1647678D01*
X1971195Y1645904D02*
Y1647678D01*
X1971200Y1645904D02*
Y1647678D01*
X1971205Y1645904D02*
Y1647678D01*
X1971210Y1645904D02*
Y1647678D01*
X1971215Y1645904D02*
Y1647678D01*
X1971220Y1645904D02*
Y1647678D01*
X1971225Y1645904D02*
Y1647678D01*
X1971230Y1645904D02*
Y1647678D01*
X1971235Y1645904D02*
Y1647678D01*
X1971240Y1645904D02*
Y1647678D01*
X1971245Y1645904D02*
Y1647678D01*
X1971250Y1645904D02*
Y1647678D01*
X1971255Y1645904D02*
Y1647678D01*
X1971260Y1645904D02*
Y1647678D01*
X1971265Y1645904D02*
Y1647678D01*
X1971270Y1645904D02*
Y1647678D01*
X1971275Y1645904D02*
Y1647678D01*
X1971280Y1645904D02*
Y1647678D01*
X1971285Y1645904D02*
Y1647678D01*
X1971290Y1645904D02*
Y1647678D01*
X1971295Y1645904D02*
Y1647678D01*
X1971300Y1645904D02*
Y1647678D01*
X1971305Y1645904D02*
Y1647678D01*
X1971310Y1645904D02*
Y1647678D01*
X1971315Y1645904D02*
Y1647678D01*
X1971320Y1645904D02*
Y1647678D01*
X1971325Y1645904D02*
Y1647678D01*
X1971330Y1645904D02*
Y1647678D01*
X1971335Y1645904D02*
Y1647678D01*
X1971340Y1645904D02*
Y1647678D01*
X1971345Y1645904D02*
Y1647678D01*
X1971350Y1645904D02*
Y1647678D01*
X1971355Y1645904D02*
Y1647678D01*
X1971360Y1645904D02*
Y1647678D01*
X1971365Y1645904D02*
Y1647678D01*
X1971370Y1645904D02*
Y1647678D01*
X1971375Y1645904D02*
Y1647678D01*
X1971380Y1645904D02*
Y1647678D01*
X1971385Y1645904D02*
Y1647678D01*
X1971390Y1645904D02*
Y1647678D01*
X1971395Y1645904D02*
Y1647678D01*
X1971400Y1645904D02*
Y1647678D01*
X1971405Y1645904D02*
Y1647678D01*
X1971410Y1645904D02*
Y1647678D01*
X1971415Y1645904D02*
Y1647678D01*
X1971420Y1645904D02*
Y1647678D01*
X1971425Y1645904D02*
Y1647678D01*
X1971430Y1645904D02*
Y1647678D01*
X1971435Y1645904D02*
Y1647678D01*
X1971440Y1645904D02*
Y1647678D01*
X1971445Y1645904D02*
Y1647678D01*
X1971450Y1645904D02*
Y1647678D01*
X1971455Y1645904D02*
Y1647678D01*
X1971460Y1645904D02*
Y1647678D01*
X1971465Y1645904D02*
Y1647678D01*
X1971470Y1645904D02*
Y1647678D01*
X1971475Y1645904D02*
Y1647678D01*
X1971480Y1645904D02*
Y1647678D01*
X1971485Y1645904D02*
Y1647678D01*
X1971490Y1645904D02*
Y1647678D01*
X1971495Y1645904D02*
Y1647678D01*
X1971500Y1645904D02*
Y1647678D01*
X1971505Y1645904D02*
Y1647678D01*
X1971510Y1645904D02*
Y1647678D01*
X1971515Y1645904D02*
Y1647678D01*
X1971520Y1645904D02*
Y1647678D01*
X1971525Y1645904D02*
Y1647678D01*
X1971530Y1645904D02*
Y1647678D01*
X1971535Y1645904D02*
Y1647678D01*
X1971540Y1645904D02*
Y1647678D01*
X1971545Y1645904D02*
Y1647678D01*
X1971550Y1645904D02*
Y1647678D01*
X1971555Y1645904D02*
Y1647678D01*
X1971560Y1645904D02*
Y1647678D01*
X1971565Y1645904D02*
Y1647678D01*
X1971570Y1645904D02*
Y1647678D01*
X1971575Y1645904D02*
Y1647678D01*
X1971580Y1645904D02*
Y1647678D01*
X1971585Y1645904D02*
Y1647678D01*
X1971590Y1645904D02*
Y1647678D01*
X1971595Y1645904D02*
Y1647678D01*
X1971600Y1645904D02*
Y1647678D01*
X1971605Y1645904D02*
Y1647678D01*
X1971610Y1645904D02*
Y1647678D01*
X1971615Y1645904D02*
Y1647678D01*
X1971620Y1645904D02*
Y1647678D01*
X1971625Y1645904D02*
Y1647678D01*
X1971630Y1645905D02*
Y1647678D01*
X1971635Y1645905D02*
Y1647678D01*
X1971640Y1645905D02*
Y1647678D01*
X1971645Y1645906D02*
Y1647678D01*
X1971650Y1645906D02*
Y1647678D01*
X1971655Y1645907D02*
Y1647678D01*
X1971660Y1645907D02*
Y1647678D01*
X1971665Y1645908D02*
Y1647678D01*
X1971670Y1645908D02*
Y1647678D01*
X1971675Y1645909D02*
Y1647678D01*
X1971680Y1645910D02*
Y1647678D01*
X1971685Y1645911D02*
Y1647678D01*
X1971690Y1645912D02*
Y1647678D01*
X1971695Y1645913D02*
Y1647678D01*
X1971700Y1645914D02*
Y1647678D01*
X1971705Y1645915D02*
Y1647678D01*
X1971710Y1645917D02*
Y1647678D01*
X1971715Y1645918D02*
Y1647678D01*
X1971720Y1645919D02*
Y1647678D01*
X1971725Y1645921D02*
Y1647678D01*
X1971730Y1645922D02*
Y1647678D01*
X1971735Y1645924D02*
Y1647678D01*
X1971740Y1645925D02*
Y1647678D01*
X1971745Y1645927D02*
Y1647678D01*
X1971750Y1645929D02*
Y1647678D01*
X1971755Y1645931D02*
Y1647678D01*
X1971760Y1645933D02*
Y1647678D01*
X1971765Y1645935D02*
Y1647678D01*
X1971770Y1645937D02*
Y1647678D01*
X1971775Y1645939D02*
Y1647678D01*
X1971780Y1645942D02*
Y1647678D01*
X1971785Y1645944D02*
Y1647678D01*
X1971790Y1645946D02*
Y1647678D01*
X1971795Y1645949D02*
Y1647678D01*
X1971800Y1645952D02*
Y1647678D01*
X1971805Y1645954D02*
Y1647678D01*
X1971810Y1645957D02*
Y1647678D01*
X1971815Y1645960D02*
Y1647678D01*
X1971820Y1645963D02*
Y1647678D01*
X1971825Y1645966D02*
Y1647678D01*
X1971830Y1645970D02*
Y1647678D01*
X1971835Y1645973D02*
Y1647678D01*
X1971840Y1645976D02*
Y1647678D01*
X1971845Y1645980D02*
Y1647678D01*
X1971850Y1645984D02*
Y1647678D01*
X1971855Y1645988D02*
Y1647678D01*
X1971860Y1645992D02*
Y1647678D01*
X1971865Y1645996D02*
Y1647678D01*
X1971870Y1646000D02*
Y1647678D01*
X1971875Y1646004D02*
Y1647678D01*
X1971880Y1646009D02*
Y1647678D01*
X1971885Y1646013D02*
Y1647678D01*
X1971890Y1646018D02*
Y1647678D01*
X1971895Y1646023D02*
Y1647678D01*
X1971900Y1646028D02*
Y1647678D01*
X1971905Y1646033D02*
Y1647678D01*
X1971910Y1646038D02*
Y1647678D01*
X1971915Y1646043D02*
Y1647678D01*
X1971920Y1646048D02*
Y1647678D01*
X1971925Y1646053D02*
Y1647678D01*
X1971930Y1646058D02*
Y1647678D01*
X1971935Y1646063D02*
Y1647678D01*
X1971940Y1646068D02*
Y1647678D01*
X1971945Y1646073D02*
Y1647678D01*
X1971950Y1646078D02*
Y1647678D01*
X1971955Y1646083D02*
Y1647678D01*
X1971960Y1646088D02*
Y1647678D01*
X1971965Y1646093D02*
Y1647678D01*
X1971970Y1646098D02*
Y1647678D01*
X1971975Y1646103D02*
Y1647678D01*
X1971980Y1646108D02*
Y1647678D01*
X1971985Y1646113D02*
Y1647678D01*
X1971990Y1646118D02*
Y1647678D01*
X1971995Y1646123D02*
Y1647678D01*
X1972000Y1646128D02*
Y1647678D01*
X1972005Y1646133D02*
Y1647678D01*
X1972010Y1646138D02*
Y1647678D01*
X1972015Y1646143D02*
Y1647678D01*
X1972020Y1646148D02*
Y1647678D01*
X1972025Y1646153D02*
Y1647678D01*
X1972030Y1646158D02*
Y1647678D01*
X1972035Y1646163D02*
Y1647678D01*
X1972040Y1646168D02*
Y1647678D01*
X1972045Y1646173D02*
Y1647678D01*
X1972050Y1646178D02*
Y1647678D01*
X1972055Y1646183D02*
Y1647678D01*
X1972060Y1646188D02*
Y1647678D01*
X1972065Y1646193D02*
Y1647678D01*
X1972070Y1646198D02*
Y1647678D01*
X1972075Y1646203D02*
Y1647678D01*
X1972080Y1646208D02*
Y1647678D01*
X1972085Y1646213D02*
Y1647678D01*
X1972090Y1646218D02*
Y1647678D01*
X1972095Y1646223D02*
Y1647678D01*
X1972100Y1646228D02*
Y1647678D01*
X1972105Y1646233D02*
Y1647678D01*
X1972110Y1646238D02*
Y1647678D01*
X1972115Y1646243D02*
Y1647678D01*
X1972120Y1646248D02*
Y1647678D01*
X1972125Y1646253D02*
Y1647678D01*
X1972130Y1646258D02*
Y1647678D01*
X1972135Y1646263D02*
Y1647678D01*
X1972140Y1646268D02*
Y1647678D01*
X1972145Y1646273D02*
Y1647678D01*
X1972150Y1646278D02*
Y1647678D01*
X1972155Y1646283D02*
Y1647678D01*
X1972160Y1646288D02*
Y1647678D01*
X1972165Y1646293D02*
Y1647678D01*
X1972170Y1646298D02*
Y1647678D01*
X1972175Y1646303D02*
Y1647678D01*
X1972180Y1646308D02*
Y1647678D01*
X1972185Y1646313D02*
Y1647678D01*
X1972190Y1646318D02*
Y1647678D01*
X1972195Y1646323D02*
Y1647678D01*
X1972200Y1646328D02*
Y1647678D01*
X1972205Y1646333D02*
Y1647678D01*
X1972210Y1646338D02*
Y1647678D01*
X1972215Y1646343D02*
Y1647678D01*
X1972220Y1646348D02*
Y1647678D01*
X1972225Y1646353D02*
Y1647678D01*
X1972230Y1646358D02*
Y1647678D01*
X1972235Y1646363D02*
Y1647678D01*
X1972240Y1646368D02*
Y1647678D01*
X1972245Y1646373D02*
Y1647678D01*
X1972250Y1646378D02*
Y1647678D01*
X1972255Y1646383D02*
Y1647678D01*
X1972260Y1646388D02*
Y1647678D01*
X1972265Y1646393D02*
Y1647678D01*
X1972270Y1646398D02*
Y1647678D01*
X1972275Y1646403D02*
Y1647678D01*
X1972280Y1646408D02*
Y1647678D01*
X1972285Y1646413D02*
Y1647678D01*
X1972290Y1646418D02*
Y1647678D01*
X1972295Y1646423D02*
Y1647678D01*
X1972300Y1646428D02*
Y1647678D01*
X1972305Y1646433D02*
Y1647678D01*
X1972310Y1646438D02*
Y1647678D01*
X1972315Y1646443D02*
Y1647678D01*
X1972320Y1646448D02*
Y1647678D01*
X1972325Y1646453D02*
Y1647678D01*
X1972330Y1646458D02*
Y1647678D01*
X1972335Y1646463D02*
Y1647678D01*
X1972340Y1646468D02*
Y1647678D01*
X1972345Y1646473D02*
Y1647678D01*
X1972350Y1646478D02*
Y1647678D01*
X1972355Y1646483D02*
Y1647678D01*
X1972360Y1646488D02*
Y1647678D01*
X1972365Y1646493D02*
Y1647678D01*
X1972370Y1646498D02*
Y1647677D01*
X1972375Y1646503D02*
Y1647677D01*
X1972380Y1646508D02*
Y1647676D01*
X1972385Y1646513D02*
Y1647676D01*
X1972390Y1646518D02*
Y1647675D01*
X1972395Y1646523D02*
Y1647675D01*
X1972400Y1646528D02*
Y1647674D01*
X1972405Y1646533D02*
Y1647673D01*
X1972410Y1646538D02*
Y1647672D01*
X1972415Y1646543D02*
Y1647671D01*
X1972420Y1646548D02*
Y1647670D01*
X1972425Y1646553D02*
Y1647669D01*
X1972430Y1646558D02*
Y1647668D01*
X1972435Y1646563D02*
Y1647667D01*
X1972440Y1646568D02*
Y1647666D01*
X1972445Y1646573D02*
Y1647664D01*
X1972450Y1646578D02*
Y1647663D01*
X1972455Y1646583D02*
Y1647662D01*
X1972460Y1646588D02*
Y1647660D01*
X1972465Y1646593D02*
Y1647658D01*
X1972470Y1646598D02*
Y1647657D01*
X1972475Y1646603D02*
Y1647655D01*
X1972480Y1646608D02*
Y1647653D01*
X1972485Y1646613D02*
Y1647651D01*
X1972490Y1646618D02*
Y1647649D01*
X1972495Y1646623D02*
Y1647647D01*
X1972500Y1646628D02*
Y1647645D01*
X1972505Y1646633D02*
Y1647643D01*
X1972510Y1646638D02*
Y1647640D01*
X1972515Y1646643D02*
Y1647638D01*
X1972520Y1646648D02*
Y1647635D01*
X1972525Y1646653D02*
Y1647633D01*
X1972530Y1646658D02*
Y1647630D01*
X1972535Y1646663D02*
Y1647627D01*
X1972540Y1646668D02*
Y1647624D01*
X1972545Y1646673D02*
Y1647622D01*
X1972550Y1646678D02*
Y1647618D01*
X1972555Y1646683D02*
Y1647615D01*
X1972560Y1646688D02*
Y1647612D01*
X1972565Y1646693D02*
Y1647609D01*
X1972570Y1646698D02*
Y1647605D01*
X1972575Y1646703D02*
Y1647601D01*
X1972580Y1646708D02*
Y1647598D01*
X1972585Y1646713D02*
Y1647594D01*
X1972590Y1646718D02*
Y1647590D01*
X1972595Y1646723D02*
Y1647586D01*
X1972600Y1646728D02*
Y1647581D01*
X1972605Y1646733D02*
Y1647577D01*
X1972610Y1646738D02*
Y1647572D01*
X1972615Y1646743D02*
Y1647568D01*
X1972620Y1646748D02*
Y1647563D01*
X1972625Y1646753D02*
Y1647558D01*
X1972630Y1646759D02*
Y1647552D01*
X1972635Y1646764D02*
Y1647547D01*
X1972640Y1646770D02*
Y1647541D01*
X1972645Y1646776D02*
Y1647535D01*
X1972650Y1646782D02*
Y1647529D01*
X1972655Y1646788D02*
Y1647523D01*
X1972660Y1646795D02*
Y1647516D01*
X1972665Y1646802D02*
Y1647509D01*
X1972670Y1646809D02*
Y1647502D01*
X1972675Y1646817D02*
Y1647494D01*
X1972680Y1646825D02*
Y1647486D01*
X1972685Y1646834D02*
Y1647477D01*
X1972690Y1646843D02*
Y1647468D01*
X1972695Y1646853D02*
Y1647458D01*
X1972700Y1646863D02*
Y1647448D01*
X1972705Y1646875D02*
Y1647436D01*
X1972710Y1646887D02*
Y1647424D01*
X1972715Y1646901D02*
Y1647410D01*
X1972720Y1646917D02*
Y1647394D01*
X1972725Y1646936D02*
Y1647375D01*
X1972730Y1646961D02*
Y1647350D01*
X1972735Y1647005D02*
Y1647306D01*
G54D73*
X1986842Y1641818D03*
X1986873Y1645769D03*
X1989468Y1645669D03*
X1989460Y1641878D03*
X1975291Y1644198D03*
X1971339Y1644230D03*
X1971439Y1646824D03*
X1975230Y1646816D03*
G54D74*
X2002203Y1641823D03*
Y1645398D03*
X1993758Y1643760D03*
Y1647335D03*
X2006057Y1641823D03*
Y1645398D03*
X1983297Y1641780D03*
Y1645354D03*
X1985628Y1558484D03*
X1982053D03*
X1978486Y1561752D03*
Y1558177D03*
X1998581Y1551724D03*
Y1548150D03*
X1971608Y1649996D03*
X1975183D03*
X1983620Y1648925D03*
X1987195D03*
X1971793Y1641063D03*
X1975368D03*
G54D75*
X2027808Y1642160D03*
Y1648459D03*
G54D80*
X1972628Y1569292D03*
X2006683D03*
G54D81*
X1972628Y1552756D03*
X2006683D03*
G54D85*
X2006616Y1614623D03*
G54D86*
X2026939Y1556717D03*
X2013159D03*
G54D87*
X2013801Y1569303D03*
X2025219D03*
G54D88*
X1978435Y1548433D03*
Y1552921D03*
G54D89*
X2027679Y1631552D03*
Y1628205D03*
Y1624859D03*
Y1621512D03*
Y1618166D03*
Y1614819D03*
Y1611473D03*
Y1608126D03*
Y1604780D03*
Y1601434D03*
Y1598087D03*
Y1594741D03*
Y1591394D03*
Y1588048D03*
Y1584701D03*
X1972561D03*
Y1588048D03*
Y1591394D03*
Y1594741D03*
Y1598087D03*
Y1601434D03*
Y1604780D03*
Y1608126D03*
Y1611473D03*
Y1614819D03*
Y1618166D03*
Y1621512D03*
Y1624859D03*
Y1628205D03*
Y1631552D03*
G54D90*
X2023546Y1580567D03*
X2020199D03*
X2016853D03*
X2013506D03*
X2010160D03*
X2006813D03*
X2003467D03*
X2000120D03*
X1996774D03*
X1993427D03*
X1990081D03*
X1986735D03*
X1983388D03*
X1980042D03*
X1976695D03*
Y1635685D03*
X1980042D03*
X1983388D03*
X1986735D03*
X1990081D03*
X1993427D03*
X1996774D03*
X2000120D03*
X2003467D03*
X2006813D03*
X2010160D03*
X2013506D03*
X2016853D03*
X2020199D03*
X2023546D03*
G54D91*
X1993624Y1614622D03*
X2006616Y1601630D03*
X2000120D03*
Y1608126D03*
Y1614622D03*
X1993624Y1601630D03*
X2006616Y1608126D03*
X1993624D03*
G54D92*
X2027679Y1635685D03*
Y1580567D03*
X1972561D03*
Y1635685D03*
G54D93*
X2012109Y1641917D03*
Y1645657D03*
X2012108Y1649397D03*
X2022345Y1649398D03*
Y1641918D03*
G54D94*
X2000978Y1563918D03*
Y1556437D03*
X1991923Y1560177D03*
G74*
X0Y0D02*
M02*
