*
*
G04 PADS VX.2.2 Build Number: 7607494 generated Gerber (RS-274-X) file*
G04 PC Version=2.1*
*
%IN "ZHOU0905nn_pads.pcb"*%
*
%MOIN*%
*
%FSLAX35Y35*%
*
*
*
*
G04 PC Standard Apertures*
*
*
G04 Thermal Relief Aperture macro.*
%AMTER*
1,1,$1,0,0*
1,0,$1-$2,0,0*
21,0,$3,$4,0,0,45*
21,0,$3,$4,0,0,135*
%
*
*
G04 Annular Aperture macro.*
%AMANN*
1,1,$1,0,0*
1,0,$2,0,0*
%
*
*
G04 Odd Aperture macro.*
%AMODD*
1,1,$1,0,0*
1,0,$1-0.005,0,0*
%
*
*
G04 PC Custom Aperture Macros*
*
*
*
*
*
*
G04 PC Aperture Table*
*
%ADD010C,0.00394*%
%ADD011R,0.00591X0.01575*%
%ADD012R,0.01575X0.01516*%
%ADD013C,0.03937*%
%ADD014R,0.01969X0.01969*%
%ADD019R,0.00984X0.01969*%
%ADD020R,0.00984X0.02756*%
%ADD021R,0.02756X0.00984*%
%ADD022R,0.03543X0.00984*%
%ADD023R,0.00984X0.01575*%
%ADD024R,0.00394X0.00394*%
%ADD025C,0.00315*%
%ADD026R,0.02X0.02*%
%ADD027R,0.03543X0.03543*%
%ADD028O,0.02953X0.00984*%
%ADD029R,0.01181X0.02362*%
%ADD030R,0.05512X0.04724*%
%ADD032C,0.00787*%
%ADD033C,0.0001*%
%ADD095R,0.001X0.001*%
*
*
*
*
G04 PC Circuitry*
G04 Layer Name ZHOU0905nn_pads.pcb - circuitry*
%LPD*%
*
*
G04 PC Custom Flashes*
G04 Layer Name ZHOU0905nn_pads.pcb - flashes*
%LPD*%
*
*
G04 PC Circuitry*
G04 Layer Name ZHOU0905nn_pads.pcb - circuitry*
%LPD*%
*
G54D10*
G54D11*
G01X1990340Y1641532D03*
X1991718D03*
X1993096D03*
X1994474D03*
X1995852D03*
X1997230D03*
X1998608D03*
Y1649012D03*
X1997230D03*
X1995852D03*
X1994474D03*
X1993096D03*
X1991718D03*
X1990340D03*
G54D12*
X1985301Y1647169D03*
Y1643374D03*
X2003647Y1643372D03*
Y1647171D03*
G54D13*
X1972766Y1609531D03*
Y1603626D03*
Y1597720D03*
Y1591815D03*
X1972333Y1615780D03*
Y1621685D03*
Y1627591D03*
Y1633496D03*
G54D14*
X1986427Y1576976D03*
Y1580551D03*
X1992526Y1576976D03*
Y1580551D03*
X2021451Y1556866D03*
X2025026D03*
X1978329Y1584303D03*
Y1587878D03*
X1984404Y1590780D03*
X1987978D03*
X1984356Y1594768D03*
X1987931D03*
X2017309Y1556866D03*
X2013734D03*
X2029447Y1567831D03*
Y1564256D03*
G54D19*
X2017498Y1560646D03*
X2021435D03*
Y1568126D03*
X2017498D03*
G54D20*
X2019467Y1560646D03*
Y1568126D03*
G54D21*
X2024781Y1562417D03*
Y1566354D03*
X2014152D03*
Y1562417D03*
G54D22*
X2024781Y1564386D03*
X2014152D03*
G54D23*
X2019467D03*
G54D24*
X2009897Y1627798D03*
X2005946Y1627766D03*
X2006045Y1625172D03*
X2009837Y1625180D03*
G54D25*
X2007931Y1625315D02*
X2009100Y1626484D01*
X2007931Y1627653*
X2006762Y1626484*
X2007931Y1625315*
X2007896Y1625350D02*
X2007966D01*
X2007581Y1625665D02*
X2008281D01*
X2007266Y1625980D02*
X2008596D01*
X2006951Y1626295D02*
X2008911D01*
X2006888Y1626610D02*
X2008974D01*
X2007203Y1626925D02*
X2008659D01*
X2007518Y1627240D02*
X2008344D01*
X2007833Y1627555D02*
X2008029D01*
X2006829Y1626417D02*
Y1626551D01*
X2007144Y1626102D02*
Y1626866D01*
X2007459Y1625787D02*
Y1627181D01*
X2007774Y1625473D02*
Y1627496D01*
X2008089Y1625473D02*
Y1627496D01*
X2008404Y1625787D02*
Y1627181D01*
X2008719Y1626102D02*
Y1626866D01*
X2009033Y1626417D02*
Y1626551D01*
G54D26*
X2019463Y1642091D03*
Y1645665D03*
X1996762Y1576976D03*
Y1580551D03*
X1982270Y1576976D03*
Y1580551D03*
X2020545Y1579831D03*
X2016970D03*
X2020750Y1583638D03*
X2017175D03*
X2026789Y1619480D03*
Y1623055D03*
X1976703Y1580398D03*
Y1576823D03*
X2006762Y1621610D03*
X2010337D03*
X2002852Y1621736D03*
Y1625311D03*
G54D27*
X2021402Y1628081D03*
X2027702D03*
X2014505Y1592113D03*
X2020804D03*
X2015126Y1627786D03*
X2015127Y1621487D03*
X2028783Y1587519D03*
Y1593818D03*
X2013233Y1575042D03*
X2019532D03*
X2028858Y1573562D03*
Y1579861D03*
G54D28*
X1996234Y1598705D03*
Y1600674D03*
Y1602642D03*
Y1604611D03*
X1984030D03*
Y1602642D03*
Y1600674D03*
Y1598705D03*
X2019841Y1608980D03*
Y1610949D03*
Y1612917D03*
Y1614886D03*
X2007637D03*
Y1612917D03*
Y1610949D03*
Y1608980D03*
X2020022Y1598843D03*
Y1600812D03*
Y1602780D03*
Y1604749D03*
X2007818D03*
Y1602780D03*
Y1600812D03*
Y1598843D03*
X1996234Y1608980D03*
Y1610949D03*
Y1612917D03*
Y1614886D03*
X1984030D03*
Y1612917D03*
Y1610949D03*
Y1608980D03*
G54D29*
X2017439Y1587118D03*
X2019998D03*
G54D30*
X1997089Y1629071D03*
X1988427D03*
Y1622181D03*
X1997089D03*
G54D32*
X2012774Y1562512D02*
Y1562319D01*
X2015477*
X2015533Y1562376*
Y1562512*
X2012774*
Y1562319D02*
Y1562512D01*
X2013167Y1562319D02*
Y1562512D01*
X2013561Y1562319D02*
Y1562512D01*
X2013955Y1562319D02*
Y1562512D01*
X2014348Y1562319D02*
Y1562512D01*
X2014742Y1562319D02*
Y1562512D01*
X2015136Y1562319D02*
Y1562512D01*
X2015530Y1562372D02*
Y1562512D01*
X2012774Y1566459D02*
Y1566258D01*
X2015522*
Y1566370*
X2015433Y1566459*
X2012774*
Y1566258D02*
Y1566459D01*
X2013167Y1566258D02*
Y1566459D01*
X2013561Y1566258D02*
Y1566459D01*
X2013955Y1566258D02*
Y1566459D01*
X2014348Y1566258D02*
Y1566459D01*
X2014742Y1566258D02*
Y1566459D01*
X2015136Y1566258D02*
Y1566459D01*
X2017500Y1561634D02*
X2017392Y1561526D01*
Y1559661*
X2017596*
Y1561634*
X2017500*
X2017498Y1559661D02*
Y1561632D01*
X2017400Y1569122D02*
Y1567250D01*
X2017500Y1567150*
X2017596*
Y1569122*
X2017400*
X2017498Y1567151D02*
Y1569122D01*
X2021341Y1561636D02*
Y1559663D01*
X2021537*
Y1561536*
X2021437Y1561636*
X2021341*
X2021435Y1559663D02*
Y1561636D01*
X2021337Y1569116D02*
Y1567144D01*
X2021433*
X2021541Y1567252*
Y1569116*
X2021337*
X2021435Y1567145D02*
Y1569116D01*
X2023407Y1562516D02*
Y1562403D01*
X2023496Y1562315*
X2026156*
Y1562516*
X2023407*
X2023797Y1562315D02*
Y1562516D01*
X2024191Y1562315D02*
Y1562516D01*
X2024585Y1562315D02*
Y1562516D01*
X2024978Y1562315D02*
Y1562516D01*
X2025372Y1562315D02*
Y1562516D01*
X2025766Y1562315D02*
Y1562516D01*
X2023462Y1566455D02*
X2023406Y1566398D01*
Y1566262*
X2026165*
Y1566455*
X2023462*
X2023797Y1566262D02*
Y1566455D01*
X2024191Y1566262D02*
Y1566455D01*
X2024585Y1566262D02*
Y1566455D01*
X2024978Y1566262D02*
Y1566455D01*
X2025372Y1566262D02*
Y1566455D01*
X2025766Y1566262D02*
Y1566455D01*
X2026159Y1566262D02*
Y1566455D01*
X2014581Y1566457D02*
Y1562315D01*
X2015347*
X2015537Y1562506*
Y1566274*
X2015355Y1566457*
X2014581*
X2014742Y1562315D02*
Y1566457D01*
X2015136Y1562315D02*
Y1566457D01*
X2015530Y1562498D02*
Y1566282D01*
X1967459Y1654335D02*
X2032541D01*
Y1545665*
X1967459*
Y1654335*
G54D33*
X2008920Y1624718D02*
X2010485D01*
Y1625692*
X2009646*
X2008920Y1624966*
Y1624718*
X2008921D02*
Y1624967D01*
X2008926Y1624718D02*
Y1624972D01*
X2008931Y1624718D02*
Y1624977D01*
X2008936Y1624718D02*
Y1624982D01*
X2008941Y1624718D02*
Y1624987D01*
X2008946Y1624718D02*
Y1624992D01*
X2008951Y1624718D02*
Y1624997D01*
X2008956Y1624718D02*
Y1625002D01*
X2008961Y1624718D02*
Y1625007D01*
X2008966Y1624718D02*
Y1625012D01*
X2008971Y1624718D02*
Y1625017D01*
X2008976Y1624718D02*
Y1625022D01*
X2008981Y1624718D02*
Y1625027D01*
X2008986Y1624718D02*
Y1625032D01*
X2008991Y1624718D02*
Y1625037D01*
X2008996Y1624718D02*
Y1625042D01*
X2009001Y1624718D02*
Y1625047D01*
X2009006Y1624718D02*
Y1625052D01*
X2009011Y1624718D02*
Y1625057D01*
X2009016Y1624718D02*
Y1625062D01*
X2009021Y1624718D02*
Y1625067D01*
X2009026Y1624718D02*
Y1625072D01*
X2009031Y1624718D02*
Y1625077D01*
X2009036Y1624718D02*
Y1625082D01*
X2009041Y1624718D02*
Y1625087D01*
X2009046Y1624718D02*
Y1625092D01*
X2009051Y1624718D02*
Y1625097D01*
X2009056Y1624718D02*
Y1625102D01*
X2009061Y1624718D02*
Y1625107D01*
X2009066Y1624718D02*
Y1625112D01*
X2009071Y1624718D02*
Y1625117D01*
X2009076Y1624718D02*
Y1625122D01*
X2009081Y1624718D02*
Y1625127D01*
X2009086Y1624718D02*
Y1625132D01*
X2009091Y1624718D02*
Y1625137D01*
X2009096Y1624718D02*
Y1625142D01*
X2009101Y1624718D02*
Y1625147D01*
X2009106Y1624718D02*
Y1625152D01*
X2009111Y1624718D02*
Y1625157D01*
X2009116Y1624718D02*
Y1625162D01*
X2009121Y1624718D02*
Y1625167D01*
X2009126Y1624718D02*
Y1625172D01*
X2009131Y1624718D02*
Y1625177D01*
X2009136Y1624718D02*
Y1625182D01*
X2009141Y1624718D02*
Y1625187D01*
X2009146Y1624718D02*
Y1625192D01*
X2009151Y1624718D02*
Y1625197D01*
X2009156Y1624718D02*
Y1625202D01*
X2009161Y1624718D02*
Y1625207D01*
X2009166Y1624718D02*
Y1625212D01*
X2009171Y1624718D02*
Y1625217D01*
X2009176Y1624718D02*
Y1625222D01*
X2009181Y1624718D02*
Y1625227D01*
X2009186Y1624718D02*
Y1625232D01*
X2009191Y1624718D02*
Y1625237D01*
X2009196Y1624718D02*
Y1625242D01*
X2009201Y1624718D02*
Y1625247D01*
X2009206Y1624718D02*
Y1625252D01*
X2009211Y1624718D02*
Y1625257D01*
X2009216Y1624718D02*
Y1625262D01*
X2009221Y1624718D02*
Y1625267D01*
X2009226Y1624718D02*
Y1625272D01*
X2009231Y1624718D02*
Y1625277D01*
X2009236Y1624718D02*
Y1625282D01*
X2009241Y1624718D02*
Y1625287D01*
X2009246Y1624718D02*
Y1625292D01*
X2009251Y1624718D02*
Y1625297D01*
X2009256Y1624718D02*
Y1625302D01*
X2009261Y1624718D02*
Y1625307D01*
X2009266Y1624718D02*
Y1625312D01*
X2009271Y1624718D02*
Y1625317D01*
X2009276Y1624718D02*
Y1625322D01*
X2009281Y1624718D02*
Y1625327D01*
X2009286Y1624718D02*
Y1625332D01*
X2009291Y1624718D02*
Y1625337D01*
X2009296Y1624718D02*
Y1625342D01*
X2009301Y1624718D02*
Y1625347D01*
X2009306Y1624718D02*
Y1625352D01*
X2009311Y1624718D02*
Y1625357D01*
X2009316Y1624718D02*
Y1625362D01*
X2009321Y1624718D02*
Y1625367D01*
X2009326Y1624718D02*
Y1625372D01*
X2009331Y1624718D02*
Y1625377D01*
X2009336Y1624718D02*
Y1625382D01*
X2009341Y1624718D02*
Y1625387D01*
X2009346Y1624718D02*
Y1625392D01*
X2009351Y1624718D02*
Y1625397D01*
X2009356Y1624718D02*
Y1625402D01*
X2009361Y1624718D02*
Y1625407D01*
X2009366Y1624718D02*
Y1625412D01*
X2009371Y1624718D02*
Y1625417D01*
X2009376Y1624718D02*
Y1625422D01*
X2009381Y1624718D02*
Y1625427D01*
X2009386Y1624718D02*
Y1625432D01*
X2009391Y1624718D02*
Y1625437D01*
X2009396Y1624718D02*
Y1625442D01*
X2009401Y1624718D02*
Y1625447D01*
X2009406Y1624718D02*
Y1625452D01*
X2009411Y1624718D02*
Y1625457D01*
X2009416Y1624718D02*
Y1625462D01*
X2009421Y1624718D02*
Y1625467D01*
X2009426Y1624718D02*
Y1625472D01*
X2009431Y1624718D02*
Y1625477D01*
X2009436Y1624718D02*
Y1625482D01*
X2009441Y1624718D02*
Y1625487D01*
X2009446Y1624718D02*
Y1625492D01*
X2009451Y1624718D02*
Y1625497D01*
X2009456Y1624718D02*
Y1625502D01*
X2009461Y1624718D02*
Y1625507D01*
X2009466Y1624718D02*
Y1625512D01*
X2009471Y1624718D02*
Y1625517D01*
X2009476Y1624718D02*
Y1625522D01*
X2009481Y1624718D02*
Y1625527D01*
X2009486Y1624718D02*
Y1625532D01*
X2009491Y1624718D02*
Y1625537D01*
X2009496Y1624718D02*
Y1625542D01*
X2009501Y1624718D02*
Y1625547D01*
X2009506Y1624718D02*
Y1625552D01*
X2009511Y1624718D02*
Y1625557D01*
X2009516Y1624718D02*
Y1625562D01*
X2009521Y1624718D02*
Y1625567D01*
X2009526Y1624718D02*
Y1625572D01*
X2009531Y1624718D02*
Y1625577D01*
X2009536Y1624718D02*
Y1625582D01*
X2009541Y1624718D02*
Y1625587D01*
X2009546Y1624718D02*
Y1625592D01*
X2009551Y1624718D02*
Y1625597D01*
X2009556Y1624718D02*
Y1625602D01*
X2009561Y1624718D02*
Y1625607D01*
X2009566Y1624718D02*
Y1625612D01*
X2009571Y1624718D02*
Y1625617D01*
X2009576Y1624718D02*
Y1625622D01*
X2009581Y1624718D02*
Y1625627D01*
X2009586Y1624718D02*
Y1625632D01*
X2009591Y1624718D02*
Y1625637D01*
X2009596Y1624718D02*
Y1625642D01*
X2009601Y1624718D02*
Y1625647D01*
X2009606Y1624718D02*
Y1625652D01*
X2009611Y1624718D02*
Y1625657D01*
X2009616Y1624718D02*
Y1625662D01*
X2009621Y1624718D02*
Y1625667D01*
X2009626Y1624718D02*
Y1625672D01*
X2009631Y1624718D02*
Y1625677D01*
X2009636Y1624718D02*
Y1625682D01*
X2009641Y1624718D02*
Y1625687D01*
X2009646Y1624718D02*
Y1625692D01*
X2009651Y1624718D02*
Y1625692D01*
X2009656Y1624718D02*
Y1625692D01*
X2009661Y1624718D02*
Y1625692D01*
X2009666Y1624718D02*
Y1625692D01*
X2009671Y1624718D02*
Y1625692D01*
X2009676Y1624718D02*
Y1625692D01*
X2009681Y1624718D02*
Y1625692D01*
X2009686Y1624718D02*
Y1625692D01*
X2009691Y1624718D02*
Y1625692D01*
X2009696Y1624718D02*
Y1625692D01*
X2009701Y1624718D02*
Y1625692D01*
X2009706Y1624718D02*
Y1625692D01*
X2009711Y1624718D02*
Y1625692D01*
X2009716Y1624718D02*
Y1625692D01*
X2009721Y1624718D02*
Y1625692D01*
X2009726Y1624718D02*
Y1625692D01*
X2009731Y1624718D02*
Y1625692D01*
X2009736Y1624718D02*
Y1625692D01*
X2009741Y1624718D02*
Y1625692D01*
X2009746Y1624718D02*
Y1625692D01*
X2009751Y1624718D02*
Y1625692D01*
X2009756Y1624718D02*
Y1625692D01*
X2009761Y1624718D02*
Y1625692D01*
X2009766Y1624718D02*
Y1625692D01*
X2009771Y1624718D02*
Y1625692D01*
X2009776Y1624718D02*
Y1625692D01*
X2009781Y1624718D02*
Y1625692D01*
X2009786Y1624718D02*
Y1625692D01*
X2009791Y1624718D02*
Y1625692D01*
X2009796Y1624718D02*
Y1625692D01*
X2009801Y1624718D02*
Y1625692D01*
X2009806Y1624718D02*
Y1625692D01*
X2009811Y1624718D02*
Y1625692D01*
X2009816Y1624718D02*
Y1625692D01*
X2009821Y1624718D02*
Y1625692D01*
X2009826Y1624718D02*
Y1625692D01*
X2009831Y1624718D02*
Y1625692D01*
X2009836Y1624718D02*
Y1625692D01*
X2009841Y1624718D02*
Y1625692D01*
X2009846Y1624718D02*
Y1625692D01*
X2009851Y1624718D02*
Y1625692D01*
X2009856Y1624718D02*
Y1625692D01*
X2009861Y1624718D02*
Y1625692D01*
X2009866Y1624718D02*
Y1625692D01*
X2009871Y1624718D02*
Y1625692D01*
X2009876Y1624718D02*
Y1625692D01*
X2009881Y1624718D02*
Y1625692D01*
X2009886Y1624718D02*
Y1625692D01*
X2009891Y1624718D02*
Y1625692D01*
X2009896Y1624718D02*
Y1625692D01*
X2009901Y1624718D02*
Y1625692D01*
X2009906Y1624718D02*
Y1625692D01*
X2009911Y1624718D02*
Y1625692D01*
X2009916Y1624718D02*
Y1625692D01*
X2009921Y1624718D02*
Y1625692D01*
X2009926Y1624718D02*
Y1625692D01*
X2009931Y1624718D02*
Y1625692D01*
X2009936Y1624718D02*
Y1625692D01*
X2009941Y1624718D02*
Y1625692D01*
X2009946Y1624718D02*
Y1625692D01*
X2009951Y1624718D02*
Y1625692D01*
X2009956Y1624718D02*
Y1625692D01*
X2009961Y1624718D02*
Y1625692D01*
X2009966Y1624718D02*
Y1625692D01*
X2009971Y1624718D02*
Y1625692D01*
X2009976Y1624718D02*
Y1625692D01*
X2009981Y1624718D02*
Y1625692D01*
X2009986Y1624718D02*
Y1625692D01*
X2009991Y1624718D02*
Y1625692D01*
X2009996Y1624718D02*
Y1625692D01*
X2010001Y1624718D02*
Y1625692D01*
X2010006Y1624718D02*
Y1625692D01*
X2010011Y1624718D02*
Y1625692D01*
X2010016Y1624718D02*
Y1625692D01*
X2010021Y1624718D02*
Y1625692D01*
X2010026Y1624718D02*
Y1625692D01*
X2010031Y1624718D02*
Y1625692D01*
X2010036Y1624718D02*
Y1625692D01*
X2010041Y1624718D02*
Y1625692D01*
X2010046Y1624718D02*
Y1625692D01*
X2010051Y1624718D02*
Y1625692D01*
X2010056Y1624718D02*
Y1625692D01*
X2010061Y1624718D02*
Y1625692D01*
X2010066Y1624718D02*
Y1625692D01*
X2010071Y1624718D02*
Y1625692D01*
X2010076Y1624718D02*
Y1625692D01*
X2010081Y1624718D02*
Y1625692D01*
X2010086Y1624718D02*
Y1625692D01*
X2010091Y1624718D02*
Y1625692D01*
X2010096Y1624718D02*
Y1625692D01*
X2010101Y1624718D02*
Y1625692D01*
X2010106Y1624718D02*
Y1625692D01*
X2010111Y1624718D02*
Y1625692D01*
X2010116Y1624718D02*
Y1625692D01*
X2010121Y1624718D02*
Y1625692D01*
X2010126Y1624718D02*
Y1625692D01*
X2010131Y1624718D02*
Y1625692D01*
X2010136Y1624718D02*
Y1625692D01*
X2010141Y1624718D02*
Y1625692D01*
X2010146Y1624718D02*
Y1625692D01*
X2010151Y1624718D02*
Y1625692D01*
X2010156Y1624718D02*
Y1625692D01*
X2010161Y1624718D02*
Y1625692D01*
X2010166Y1624718D02*
Y1625692D01*
X2010171Y1624718D02*
Y1625692D01*
X2010176Y1624718D02*
Y1625692D01*
X2010181Y1624718D02*
Y1625692D01*
X2010186Y1624718D02*
Y1625692D01*
X2010191Y1624718D02*
Y1625692D01*
X2010196Y1624718D02*
Y1625692D01*
X2010201Y1624718D02*
Y1625692D01*
X2010206Y1624718D02*
Y1625692D01*
X2010211Y1624718D02*
Y1625692D01*
X2010216Y1624718D02*
Y1625692D01*
X2010221Y1624718D02*
Y1625692D01*
X2010226Y1624718D02*
Y1625692D01*
X2010231Y1624718D02*
Y1625692D01*
X2010236Y1624718D02*
Y1625692D01*
X2010241Y1624718D02*
Y1625692D01*
X2010246Y1624718D02*
Y1625692D01*
X2010251Y1624718D02*
Y1625692D01*
X2010256Y1624718D02*
Y1625692D01*
X2010261Y1624718D02*
Y1625692D01*
X2010266Y1624718D02*
Y1625692D01*
X2010271Y1624718D02*
Y1625692D01*
X2010276Y1624718D02*
Y1625692D01*
X2010281Y1624718D02*
Y1625692D01*
X2010286Y1624718D02*
Y1625692D01*
X2010291Y1624718D02*
Y1625692D01*
X2010296Y1624718D02*
Y1625692D01*
X2010301Y1624718D02*
Y1625692D01*
X2010306Y1624718D02*
Y1625692D01*
X2010311Y1624718D02*
Y1625692D01*
X2010316Y1624718D02*
Y1625692D01*
X2010321Y1624718D02*
Y1625692D01*
X2010326Y1624718D02*
Y1625692D01*
X2010331Y1624718D02*
Y1625692D01*
X2010336Y1624718D02*
Y1625692D01*
X2010341Y1624718D02*
Y1625692D01*
X2010346Y1624718D02*
Y1625692D01*
X2010351Y1624718D02*
Y1625692D01*
X2010356Y1624718D02*
Y1625692D01*
X2010361Y1624718D02*
Y1625692D01*
X2010366Y1624718D02*
Y1625692D01*
X2010371Y1624718D02*
Y1625692D01*
X2010376Y1624718D02*
Y1625692D01*
X2010381Y1624718D02*
Y1625692D01*
X2010386Y1624718D02*
Y1625692D01*
X2010391Y1624718D02*
Y1625692D01*
X2010396Y1624718D02*
Y1625692D01*
X2010401Y1624718D02*
Y1625692D01*
X2010406Y1624718D02*
Y1625692D01*
X2010411Y1624718D02*
Y1625692D01*
X2010416Y1624718D02*
Y1625692D01*
X2010421Y1624718D02*
Y1625692D01*
X2010426Y1624718D02*
Y1625692D01*
X2010431Y1624718D02*
Y1625692D01*
X2010436Y1624718D02*
Y1625692D01*
X2010441Y1624718D02*
Y1625692D01*
X2010446Y1624718D02*
Y1625692D01*
X2010451Y1624718D02*
Y1625692D01*
X2010456Y1624718D02*
Y1625692D01*
X2010461Y1624718D02*
Y1625692D01*
X2010466Y1624718D02*
Y1625692D01*
X2010471Y1624718D02*
Y1625692D01*
X2010476Y1624718D02*
Y1625692D01*
X2010481Y1624718D02*
Y1625692D01*
X2008920Y1628002D02*
X2009645Y1627277D01*
X2010485*
Y1628251*
X2008920*
Y1628002*
X2008921Y1628001D02*
Y1628251D01*
X2008926Y1627996D02*
Y1628251D01*
X2008931Y1627991D02*
Y1628251D01*
X2008936Y1627986D02*
Y1628251D01*
X2008941Y1627981D02*
Y1628251D01*
X2008946Y1627976D02*
Y1628251D01*
X2008951Y1627971D02*
Y1628251D01*
X2008956Y1627966D02*
Y1628251D01*
X2008961Y1627961D02*
Y1628251D01*
X2008966Y1627956D02*
Y1628251D01*
X2008971Y1627951D02*
Y1628251D01*
X2008976Y1627946D02*
Y1628251D01*
X2008981Y1627941D02*
Y1628251D01*
X2008986Y1627936D02*
Y1628251D01*
X2008991Y1627931D02*
Y1628251D01*
X2008996Y1627926D02*
Y1628251D01*
X2009001Y1627921D02*
Y1628251D01*
X2009006Y1627916D02*
Y1628251D01*
X2009011Y1627911D02*
Y1628251D01*
X2009016Y1627906D02*
Y1628251D01*
X2009021Y1627901D02*
Y1628251D01*
X2009026Y1627896D02*
Y1628251D01*
X2009031Y1627891D02*
Y1628251D01*
X2009036Y1627886D02*
Y1628251D01*
X2009041Y1627881D02*
Y1628251D01*
X2009046Y1627876D02*
Y1628251D01*
X2009051Y1627871D02*
Y1628251D01*
X2009056Y1627866D02*
Y1628251D01*
X2009061Y1627861D02*
Y1628251D01*
X2009066Y1627856D02*
Y1628251D01*
X2009071Y1627851D02*
Y1628251D01*
X2009076Y1627846D02*
Y1628251D01*
X2009081Y1627841D02*
Y1628251D01*
X2009086Y1627836D02*
Y1628251D01*
X2009091Y1627831D02*
Y1628251D01*
X2009096Y1627826D02*
Y1628251D01*
X2009101Y1627821D02*
Y1628251D01*
X2009106Y1627816D02*
Y1628251D01*
X2009111Y1627811D02*
Y1628251D01*
X2009116Y1627806D02*
Y1628251D01*
X2009121Y1627801D02*
Y1628251D01*
X2009126Y1627796D02*
Y1628251D01*
X2009131Y1627791D02*
Y1628251D01*
X2009136Y1627786D02*
Y1628251D01*
X2009141Y1627781D02*
Y1628251D01*
X2009146Y1627776D02*
Y1628251D01*
X2009151Y1627771D02*
Y1628251D01*
X2009156Y1627766D02*
Y1628251D01*
X2009161Y1627761D02*
Y1628251D01*
X2009166Y1627756D02*
Y1628251D01*
X2009171Y1627751D02*
Y1628251D01*
X2009176Y1627746D02*
Y1628251D01*
X2009181Y1627741D02*
Y1628251D01*
X2009186Y1627736D02*
Y1628251D01*
X2009191Y1627731D02*
Y1628251D01*
X2009196Y1627726D02*
Y1628251D01*
X2009201Y1627721D02*
Y1628251D01*
X2009206Y1627716D02*
Y1628251D01*
X2009211Y1627711D02*
Y1628251D01*
X2009216Y1627706D02*
Y1628251D01*
X2009221Y1627701D02*
Y1628251D01*
X2009226Y1627696D02*
Y1628251D01*
X2009231Y1627691D02*
Y1628251D01*
X2009236Y1627686D02*
Y1628251D01*
X2009241Y1627681D02*
Y1628251D01*
X2009246Y1627676D02*
Y1628251D01*
X2009251Y1627671D02*
Y1628251D01*
X2009256Y1627666D02*
Y1628251D01*
X2009261Y1627661D02*
Y1628251D01*
X2009266Y1627656D02*
Y1628251D01*
X2009271Y1627651D02*
Y1628251D01*
X2009276Y1627646D02*
Y1628251D01*
X2009281Y1627641D02*
Y1628251D01*
X2009286Y1627636D02*
Y1628251D01*
X2009291Y1627631D02*
Y1628251D01*
X2009296Y1627626D02*
Y1628251D01*
X2009301Y1627621D02*
Y1628251D01*
X2009306Y1627616D02*
Y1628251D01*
X2009311Y1627611D02*
Y1628251D01*
X2009316Y1627606D02*
Y1628251D01*
X2009321Y1627601D02*
Y1628251D01*
X2009326Y1627596D02*
Y1628251D01*
X2009331Y1627591D02*
Y1628251D01*
X2009336Y1627586D02*
Y1628251D01*
X2009341Y1627581D02*
Y1628251D01*
X2009346Y1627576D02*
Y1628251D01*
X2009351Y1627571D02*
Y1628251D01*
X2009356Y1627566D02*
Y1628251D01*
X2009361Y1627561D02*
Y1628251D01*
X2009366Y1627556D02*
Y1628251D01*
X2009371Y1627551D02*
Y1628251D01*
X2009376Y1627546D02*
Y1628251D01*
X2009381Y1627541D02*
Y1628251D01*
X2009386Y1627536D02*
Y1628251D01*
X2009391Y1627531D02*
Y1628251D01*
X2009396Y1627526D02*
Y1628251D01*
X2009401Y1627521D02*
Y1628251D01*
X2009406Y1627516D02*
Y1628251D01*
X2009411Y1627511D02*
Y1628251D01*
X2009416Y1627506D02*
Y1628251D01*
X2009421Y1627501D02*
Y1628251D01*
X2009426Y1627496D02*
Y1628251D01*
X2009431Y1627491D02*
Y1628251D01*
X2009436Y1627486D02*
Y1628251D01*
X2009441Y1627481D02*
Y1628251D01*
X2009446Y1627476D02*
Y1628251D01*
X2009451Y1627471D02*
Y1628251D01*
X2009456Y1627466D02*
Y1628251D01*
X2009461Y1627461D02*
Y1628251D01*
X2009466Y1627456D02*
Y1628251D01*
X2009471Y1627451D02*
Y1628251D01*
X2009476Y1627446D02*
Y1628251D01*
X2009481Y1627441D02*
Y1628251D01*
X2009486Y1627436D02*
Y1628251D01*
X2009491Y1627431D02*
Y1628251D01*
X2009496Y1627426D02*
Y1628251D01*
X2009501Y1627421D02*
Y1628251D01*
X2009506Y1627416D02*
Y1628251D01*
X2009511Y1627411D02*
Y1628251D01*
X2009516Y1627406D02*
Y1628251D01*
X2009521Y1627401D02*
Y1628251D01*
X2009526Y1627396D02*
Y1628251D01*
X2009531Y1627391D02*
Y1628251D01*
X2009536Y1627386D02*
Y1628251D01*
X2009541Y1627381D02*
Y1628251D01*
X2009546Y1627376D02*
Y1628251D01*
X2009551Y1627371D02*
Y1628251D01*
X2009556Y1627366D02*
Y1628251D01*
X2009561Y1627361D02*
Y1628251D01*
X2009566Y1627356D02*
Y1628251D01*
X2009571Y1627351D02*
Y1628251D01*
X2009576Y1627346D02*
Y1628251D01*
X2009581Y1627341D02*
Y1628251D01*
X2009586Y1627336D02*
Y1628251D01*
X2009591Y1627331D02*
Y1628251D01*
X2009596Y1627326D02*
Y1628251D01*
X2009601Y1627321D02*
Y1628251D01*
X2009606Y1627316D02*
Y1628251D01*
X2009611Y1627311D02*
Y1628251D01*
X2009616Y1627306D02*
Y1628251D01*
X2009621Y1627301D02*
Y1628251D01*
X2009626Y1627296D02*
Y1628251D01*
X2009631Y1627291D02*
Y1628251D01*
X2009636Y1627286D02*
Y1628251D01*
X2009641Y1627281D02*
Y1628251D01*
X2009646Y1627277D02*
Y1628251D01*
X2009651Y1627277D02*
Y1628251D01*
X2009656Y1627277D02*
Y1628251D01*
X2009661Y1627277D02*
Y1628251D01*
X2009666Y1627277D02*
Y1628251D01*
X2009671Y1627277D02*
Y1628251D01*
X2009676Y1627277D02*
Y1628251D01*
X2009681Y1627277D02*
Y1628251D01*
X2009686Y1627277D02*
Y1628251D01*
X2009691Y1627277D02*
Y1628251D01*
X2009696Y1627277D02*
Y1628251D01*
X2009701Y1627277D02*
Y1628251D01*
X2009706Y1627277D02*
Y1628251D01*
X2009711Y1627277D02*
Y1628251D01*
X2009716Y1627277D02*
Y1628251D01*
X2009721Y1627277D02*
Y1628251D01*
X2009726Y1627277D02*
Y1628251D01*
X2009731Y1627277D02*
Y1628251D01*
X2009736Y1627277D02*
Y1628251D01*
X2009741Y1627277D02*
Y1628251D01*
X2009746Y1627277D02*
Y1628251D01*
X2009751Y1627277D02*
Y1628251D01*
X2009756Y1627277D02*
Y1628251D01*
X2009761Y1627277D02*
Y1628251D01*
X2009766Y1627277D02*
Y1628251D01*
X2009771Y1627277D02*
Y1628251D01*
X2009776Y1627277D02*
Y1628251D01*
X2009781Y1627277D02*
Y1628251D01*
X2009786Y1627277D02*
Y1628251D01*
X2009791Y1627277D02*
Y1628251D01*
X2009796Y1627277D02*
Y1628251D01*
X2009801Y1627277D02*
Y1628251D01*
X2009806Y1627277D02*
Y1628251D01*
X2009811Y1627277D02*
Y1628251D01*
X2009816Y1627277D02*
Y1628251D01*
X2009821Y1627277D02*
Y1628251D01*
X2009826Y1627277D02*
Y1628251D01*
X2009831Y1627277D02*
Y1628251D01*
X2009836Y1627277D02*
Y1628251D01*
X2009841Y1627277D02*
Y1628251D01*
X2009846Y1627277D02*
Y1628251D01*
X2009851Y1627277D02*
Y1628251D01*
X2009856Y1627277D02*
Y1628251D01*
X2009861Y1627277D02*
Y1628251D01*
X2009866Y1627277D02*
Y1628251D01*
X2009871Y1627277D02*
Y1628251D01*
X2009876Y1627277D02*
Y1628251D01*
X2009881Y1627277D02*
Y1628251D01*
X2009886Y1627277D02*
Y1628251D01*
X2009891Y1627277D02*
Y1628251D01*
X2009896Y1627277D02*
Y1628251D01*
X2009901Y1627277D02*
Y1628251D01*
X2009906Y1627277D02*
Y1628251D01*
X2009911Y1627277D02*
Y1628251D01*
X2009916Y1627277D02*
Y1628251D01*
X2009921Y1627277D02*
Y1628251D01*
X2009926Y1627277D02*
Y1628251D01*
X2009931Y1627277D02*
Y1628251D01*
X2009936Y1627277D02*
Y1628251D01*
X2009941Y1627277D02*
Y1628251D01*
X2009946Y1627277D02*
Y1628251D01*
X2009951Y1627277D02*
Y1628251D01*
X2009956Y1627277D02*
Y1628251D01*
X2009961Y1627277D02*
Y1628251D01*
X2009966Y1627277D02*
Y1628251D01*
X2009971Y1627277D02*
Y1628251D01*
X2009976Y1627277D02*
Y1628251D01*
X2009981Y1627277D02*
Y1628251D01*
X2009986Y1627277D02*
Y1628251D01*
X2009991Y1627277D02*
Y1628251D01*
X2009996Y1627277D02*
Y1628251D01*
X2010001Y1627277D02*
Y1628251D01*
X2010006Y1627277D02*
Y1628251D01*
X2010011Y1627277D02*
Y1628251D01*
X2010016Y1627277D02*
Y1628251D01*
X2010021Y1627277D02*
Y1628251D01*
X2010026Y1627277D02*
Y1628251D01*
X2010031Y1627277D02*
Y1628251D01*
X2010036Y1627277D02*
Y1628251D01*
X2010041Y1627277D02*
Y1628251D01*
X2010046Y1627277D02*
Y1628251D01*
X2010051Y1627277D02*
Y1628251D01*
X2010056Y1627277D02*
Y1628251D01*
X2010061Y1627277D02*
Y1628251D01*
X2010066Y1627277D02*
Y1628251D01*
X2010071Y1627277D02*
Y1628251D01*
X2010076Y1627277D02*
Y1628251D01*
X2010081Y1627277D02*
Y1628251D01*
X2010086Y1627277D02*
Y1628251D01*
X2010091Y1627277D02*
Y1628251D01*
X2010096Y1627277D02*
Y1628251D01*
X2010101Y1627277D02*
Y1628251D01*
X2010106Y1627277D02*
Y1628251D01*
X2010111Y1627277D02*
Y1628251D01*
X2010116Y1627277D02*
Y1628251D01*
X2010121Y1627277D02*
Y1628251D01*
X2010126Y1627277D02*
Y1628251D01*
X2010131Y1627277D02*
Y1628251D01*
X2010136Y1627277D02*
Y1628251D01*
X2010141Y1627277D02*
Y1628251D01*
X2010146Y1627277D02*
Y1628251D01*
X2010151Y1627277D02*
Y1628251D01*
X2010156Y1627277D02*
Y1628251D01*
X2010161Y1627277D02*
Y1628251D01*
X2010166Y1627277D02*
Y1628251D01*
X2010171Y1627277D02*
Y1628251D01*
X2010176Y1627277D02*
Y1628251D01*
X2010181Y1627277D02*
Y1628251D01*
X2010186Y1627277D02*
Y1628251D01*
X2010191Y1627277D02*
Y1628251D01*
X2010196Y1627277D02*
Y1628251D01*
X2010201Y1627277D02*
Y1628251D01*
X2010206Y1627277D02*
Y1628251D01*
X2010211Y1627277D02*
Y1628251D01*
X2010216Y1627277D02*
Y1628251D01*
X2010221Y1627277D02*
Y1628251D01*
X2010226Y1627277D02*
Y1628251D01*
X2010231Y1627277D02*
Y1628251D01*
X2010236Y1627277D02*
Y1628251D01*
X2010241Y1627277D02*
Y1628251D01*
X2010246Y1627277D02*
Y1628251D01*
X2010251Y1627277D02*
Y1628251D01*
X2010256Y1627277D02*
Y1628251D01*
X2010261Y1627277D02*
Y1628251D01*
X2010266Y1627277D02*
Y1628251D01*
X2010271Y1627277D02*
Y1628251D01*
X2010276Y1627277D02*
Y1628251D01*
X2010281Y1627277D02*
Y1628251D01*
X2010286Y1627277D02*
Y1628251D01*
X2010291Y1627277D02*
Y1628251D01*
X2010296Y1627277D02*
Y1628251D01*
X2010301Y1627277D02*
Y1628251D01*
X2010306Y1627277D02*
Y1628251D01*
X2010311Y1627277D02*
Y1628251D01*
X2010316Y1627277D02*
Y1628251D01*
X2010321Y1627277D02*
Y1628251D01*
X2010326Y1627277D02*
Y1628251D01*
X2010331Y1627277D02*
Y1628251D01*
X2010336Y1627277D02*
Y1628251D01*
X2010341Y1627277D02*
Y1628251D01*
X2010346Y1627277D02*
Y1628251D01*
X2010351Y1627277D02*
Y1628251D01*
X2010356Y1627277D02*
Y1628251D01*
X2010361Y1627277D02*
Y1628251D01*
X2010366Y1627277D02*
Y1628251D01*
X2010371Y1627277D02*
Y1628251D01*
X2010376Y1627277D02*
Y1628251D01*
X2010381Y1627277D02*
Y1628251D01*
X2010386Y1627277D02*
Y1628251D01*
X2010391Y1627277D02*
Y1628251D01*
X2010396Y1627277D02*
Y1628251D01*
X2010401Y1627277D02*
Y1628251D01*
X2010406Y1627277D02*
Y1628251D01*
X2010411Y1627277D02*
Y1628251D01*
X2010416Y1627277D02*
Y1628251D01*
X2010421Y1627277D02*
Y1628251D01*
X2010426Y1627277D02*
Y1628251D01*
X2010431Y1627277D02*
Y1628251D01*
X2010436Y1627277D02*
Y1628251D01*
X2010441Y1627277D02*
Y1628251D01*
X2010446Y1627277D02*
Y1628251D01*
X2010451Y1627277D02*
Y1628251D01*
X2010456Y1627277D02*
Y1628251D01*
X2010461Y1627277D02*
Y1628251D01*
X2010466Y1627277D02*
Y1628251D01*
X2010471Y1627277D02*
Y1628251D01*
X2010476Y1627277D02*
Y1628251D01*
X2010481Y1627277D02*
Y1628251D01*
X2005377Y1627277D02*
X2006216D01*
X2006942Y1628002*
Y1628251*
X2005377*
Y1627277*
X2005381D02*
Y1628251D01*
X2005386Y1627277D02*
Y1628251D01*
X2005391Y1627277D02*
Y1628251D01*
X2005396Y1627277D02*
Y1628251D01*
X2005401Y1627277D02*
Y1628251D01*
X2005406Y1627277D02*
Y1628251D01*
X2005411Y1627277D02*
Y1628251D01*
X2005416Y1627277D02*
Y1628251D01*
X2005421Y1627277D02*
Y1628251D01*
X2005426Y1627277D02*
Y1628251D01*
X2005431Y1627277D02*
Y1628251D01*
X2005436Y1627277D02*
Y1628251D01*
X2005441Y1627277D02*
Y1628251D01*
X2005446Y1627277D02*
Y1628251D01*
X2005451Y1627277D02*
Y1628251D01*
X2005456Y1627277D02*
Y1628251D01*
X2005461Y1627277D02*
Y1628251D01*
X2005466Y1627277D02*
Y1628251D01*
X2005471Y1627277D02*
Y1628251D01*
X2005476Y1627277D02*
Y1628251D01*
X2005481Y1627277D02*
Y1628251D01*
X2005486Y1627277D02*
Y1628251D01*
X2005491Y1627277D02*
Y1628251D01*
X2005496Y1627277D02*
Y1628251D01*
X2005501Y1627277D02*
Y1628251D01*
X2005506Y1627277D02*
Y1628251D01*
X2005511Y1627277D02*
Y1628251D01*
X2005516Y1627277D02*
Y1628251D01*
X2005521Y1627277D02*
Y1628251D01*
X2005526Y1627277D02*
Y1628251D01*
X2005531Y1627277D02*
Y1628251D01*
X2005536Y1627277D02*
Y1628251D01*
X2005541Y1627277D02*
Y1628251D01*
X2005546Y1627277D02*
Y1628251D01*
X2005551Y1627277D02*
Y1628251D01*
X2005556Y1627277D02*
Y1628251D01*
X2005561Y1627277D02*
Y1628251D01*
X2005566Y1627277D02*
Y1628251D01*
X2005571Y1627277D02*
Y1628251D01*
X2005576Y1627277D02*
Y1628251D01*
X2005581Y1627277D02*
Y1628251D01*
X2005586Y1627277D02*
Y1628251D01*
X2005591Y1627277D02*
Y1628251D01*
X2005596Y1627277D02*
Y1628251D01*
X2005601Y1627277D02*
Y1628251D01*
X2005606Y1627277D02*
Y1628251D01*
X2005611Y1627277D02*
Y1628251D01*
X2005616Y1627277D02*
Y1628251D01*
X2005621Y1627277D02*
Y1628251D01*
X2005626Y1627277D02*
Y1628251D01*
X2005631Y1627277D02*
Y1628251D01*
X2005636Y1627277D02*
Y1628251D01*
X2005641Y1627277D02*
Y1628251D01*
X2005646Y1627277D02*
Y1628251D01*
X2005651Y1627277D02*
Y1628251D01*
X2005656Y1627277D02*
Y1628251D01*
X2005661Y1627277D02*
Y1628251D01*
X2005666Y1627277D02*
Y1628251D01*
X2005671Y1627277D02*
Y1628251D01*
X2005676Y1627277D02*
Y1628251D01*
X2005681Y1627277D02*
Y1628251D01*
X2005686Y1627277D02*
Y1628251D01*
X2005691Y1627277D02*
Y1628251D01*
X2005696Y1627277D02*
Y1628251D01*
X2005701Y1627277D02*
Y1628251D01*
X2005706Y1627277D02*
Y1628251D01*
X2005711Y1627277D02*
Y1628251D01*
X2005716Y1627277D02*
Y1628251D01*
X2005721Y1627277D02*
Y1628251D01*
X2005726Y1627277D02*
Y1628251D01*
X2005731Y1627277D02*
Y1628251D01*
X2005736Y1627277D02*
Y1628251D01*
X2005741Y1627277D02*
Y1628251D01*
X2005746Y1627277D02*
Y1628251D01*
X2005751Y1627277D02*
Y1628251D01*
X2005756Y1627277D02*
Y1628251D01*
X2005761Y1627277D02*
Y1628251D01*
X2005766Y1627277D02*
Y1628251D01*
X2005771Y1627277D02*
Y1628251D01*
X2005776Y1627277D02*
Y1628251D01*
X2005781Y1627277D02*
Y1628251D01*
X2005786Y1627277D02*
Y1628251D01*
X2005791Y1627277D02*
Y1628251D01*
X2005796Y1627277D02*
Y1628251D01*
X2005801Y1627277D02*
Y1628251D01*
X2005806Y1627277D02*
Y1628251D01*
X2005811Y1627277D02*
Y1628251D01*
X2005816Y1627277D02*
Y1628251D01*
X2005821Y1627277D02*
Y1628251D01*
X2005826Y1627277D02*
Y1628251D01*
X2005831Y1627277D02*
Y1628251D01*
X2005836Y1627277D02*
Y1628251D01*
X2005841Y1627277D02*
Y1628251D01*
X2005846Y1627277D02*
Y1628251D01*
X2005851Y1627277D02*
Y1628251D01*
X2005856Y1627277D02*
Y1628251D01*
X2005861Y1627277D02*
Y1628251D01*
X2005866Y1627277D02*
Y1628251D01*
X2005871Y1627277D02*
Y1628251D01*
X2005876Y1627277D02*
Y1628251D01*
X2005881Y1627277D02*
Y1628251D01*
X2005886Y1627277D02*
Y1628251D01*
X2005891Y1627277D02*
Y1628251D01*
X2005896Y1627277D02*
Y1628251D01*
X2005901Y1627277D02*
Y1628251D01*
X2005906Y1627277D02*
Y1628251D01*
X2005911Y1627277D02*
Y1628251D01*
X2005916Y1627277D02*
Y1628251D01*
X2005921Y1627277D02*
Y1628251D01*
X2005926Y1627277D02*
Y1628251D01*
X2005931Y1627277D02*
Y1628251D01*
X2005936Y1627277D02*
Y1628251D01*
X2005941Y1627277D02*
Y1628251D01*
X2005946Y1627277D02*
Y1628251D01*
X2005951Y1627277D02*
Y1628251D01*
X2005956Y1627277D02*
Y1628251D01*
X2005961Y1627277D02*
Y1628251D01*
X2005966Y1627277D02*
Y1628251D01*
X2005971Y1627277D02*
Y1628251D01*
X2005976Y1627277D02*
Y1628251D01*
X2005981Y1627277D02*
Y1628251D01*
X2005986Y1627277D02*
Y1628251D01*
X2005991Y1627277D02*
Y1628251D01*
X2005996Y1627277D02*
Y1628251D01*
X2006001Y1627277D02*
Y1628251D01*
X2006006Y1627277D02*
Y1628251D01*
X2006011Y1627277D02*
Y1628251D01*
X2006016Y1627277D02*
Y1628251D01*
X2006021Y1627277D02*
Y1628251D01*
X2006026Y1627277D02*
Y1628251D01*
X2006031Y1627277D02*
Y1628251D01*
X2006036Y1627277D02*
Y1628251D01*
X2006041Y1627277D02*
Y1628251D01*
X2006046Y1627277D02*
Y1628251D01*
X2006051Y1627277D02*
Y1628251D01*
X2006056Y1627277D02*
Y1628251D01*
X2006061Y1627277D02*
Y1628251D01*
X2006066Y1627277D02*
Y1628251D01*
X2006071Y1627277D02*
Y1628251D01*
X2006076Y1627277D02*
Y1628251D01*
X2006081Y1627277D02*
Y1628251D01*
X2006086Y1627277D02*
Y1628251D01*
X2006091Y1627277D02*
Y1628251D01*
X2006096Y1627277D02*
Y1628251D01*
X2006101Y1627277D02*
Y1628251D01*
X2006106Y1627277D02*
Y1628251D01*
X2006111Y1627277D02*
Y1628251D01*
X2006116Y1627277D02*
Y1628251D01*
X2006121Y1627277D02*
Y1628251D01*
X2006126Y1627277D02*
Y1628251D01*
X2006131Y1627277D02*
Y1628251D01*
X2006136Y1627277D02*
Y1628251D01*
X2006141Y1627277D02*
Y1628251D01*
X2006146Y1627277D02*
Y1628251D01*
X2006151Y1627277D02*
Y1628251D01*
X2006156Y1627277D02*
Y1628251D01*
X2006161Y1627277D02*
Y1628251D01*
X2006166Y1627277D02*
Y1628251D01*
X2006171Y1627277D02*
Y1628251D01*
X2006176Y1627277D02*
Y1628251D01*
X2006181Y1627277D02*
Y1628251D01*
X2006186Y1627277D02*
Y1628251D01*
X2006191Y1627277D02*
Y1628251D01*
X2006196Y1627277D02*
Y1628251D01*
X2006201Y1627277D02*
Y1628251D01*
X2006206Y1627277D02*
Y1628251D01*
X2006211Y1627277D02*
Y1628251D01*
X2006216Y1627277D02*
Y1628251D01*
X2006221Y1627281D02*
Y1628251D01*
X2006226Y1627286D02*
Y1628251D01*
X2006231Y1627291D02*
Y1628251D01*
X2006236Y1627296D02*
Y1628251D01*
X2006241Y1627301D02*
Y1628251D01*
X2006246Y1627306D02*
Y1628251D01*
X2006251Y1627311D02*
Y1628251D01*
X2006256Y1627316D02*
Y1628251D01*
X2006261Y1627321D02*
Y1628251D01*
X2006266Y1627326D02*
Y1628251D01*
X2006271Y1627331D02*
Y1628251D01*
X2006276Y1627336D02*
Y1628251D01*
X2006281Y1627341D02*
Y1628251D01*
X2006286Y1627346D02*
Y1628251D01*
X2006291Y1627351D02*
Y1628251D01*
X2006296Y1627356D02*
Y1628251D01*
X2006301Y1627361D02*
Y1628251D01*
X2006306Y1627366D02*
Y1628251D01*
X2006311Y1627371D02*
Y1628251D01*
X2006316Y1627376D02*
Y1628251D01*
X2006321Y1627381D02*
Y1628251D01*
X2006326Y1627386D02*
Y1628251D01*
X2006331Y1627391D02*
Y1628251D01*
X2006336Y1627396D02*
Y1628251D01*
X2006341Y1627401D02*
Y1628251D01*
X2006346Y1627406D02*
Y1628251D01*
X2006351Y1627411D02*
Y1628251D01*
X2006356Y1627416D02*
Y1628251D01*
X2006361Y1627421D02*
Y1628251D01*
X2006366Y1627426D02*
Y1628251D01*
X2006371Y1627431D02*
Y1628251D01*
X2006376Y1627436D02*
Y1628251D01*
X2006381Y1627441D02*
Y1628251D01*
X2006386Y1627446D02*
Y1628251D01*
X2006391Y1627451D02*
Y1628251D01*
X2006396Y1627456D02*
Y1628251D01*
X2006401Y1627461D02*
Y1628251D01*
X2006406Y1627466D02*
Y1628251D01*
X2006411Y1627471D02*
Y1628251D01*
X2006416Y1627476D02*
Y1628251D01*
X2006421Y1627481D02*
Y1628251D01*
X2006426Y1627486D02*
Y1628251D01*
X2006431Y1627491D02*
Y1628251D01*
X2006436Y1627496D02*
Y1628251D01*
X2006441Y1627501D02*
Y1628251D01*
X2006446Y1627506D02*
Y1628251D01*
X2006451Y1627511D02*
Y1628251D01*
X2006456Y1627516D02*
Y1628251D01*
X2006461Y1627521D02*
Y1628251D01*
X2006466Y1627526D02*
Y1628251D01*
X2006471Y1627531D02*
Y1628251D01*
X2006476Y1627536D02*
Y1628251D01*
X2006481Y1627541D02*
Y1628251D01*
X2006486Y1627546D02*
Y1628251D01*
X2006491Y1627551D02*
Y1628251D01*
X2006496Y1627556D02*
Y1628251D01*
X2006501Y1627561D02*
Y1628251D01*
X2006506Y1627566D02*
Y1628251D01*
X2006511Y1627571D02*
Y1628251D01*
X2006516Y1627576D02*
Y1628251D01*
X2006521Y1627581D02*
Y1628251D01*
X2006526Y1627586D02*
Y1628251D01*
X2006531Y1627591D02*
Y1628251D01*
X2006536Y1627596D02*
Y1628251D01*
X2006541Y1627601D02*
Y1628251D01*
X2006546Y1627606D02*
Y1628251D01*
X2006551Y1627611D02*
Y1628251D01*
X2006556Y1627616D02*
Y1628251D01*
X2006561Y1627621D02*
Y1628251D01*
X2006566Y1627626D02*
Y1628251D01*
X2006571Y1627631D02*
Y1628251D01*
X2006576Y1627636D02*
Y1628251D01*
X2006581Y1627641D02*
Y1628251D01*
X2006586Y1627646D02*
Y1628251D01*
X2006591Y1627651D02*
Y1628251D01*
X2006596Y1627656D02*
Y1628251D01*
X2006601Y1627661D02*
Y1628251D01*
X2006606Y1627666D02*
Y1628251D01*
X2006611Y1627671D02*
Y1628251D01*
X2006616Y1627676D02*
Y1628251D01*
X2006621Y1627681D02*
Y1628251D01*
X2006626Y1627686D02*
Y1628251D01*
X2006631Y1627691D02*
Y1628251D01*
X2006636Y1627696D02*
Y1628251D01*
X2006641Y1627701D02*
Y1628251D01*
X2006646Y1627706D02*
Y1628251D01*
X2006651Y1627711D02*
Y1628251D01*
X2006656Y1627716D02*
Y1628251D01*
X2006661Y1627721D02*
Y1628251D01*
X2006666Y1627726D02*
Y1628251D01*
X2006671Y1627731D02*
Y1628251D01*
X2006676Y1627736D02*
Y1628251D01*
X2006681Y1627741D02*
Y1628251D01*
X2006686Y1627746D02*
Y1628251D01*
X2006691Y1627751D02*
Y1628251D01*
X2006696Y1627756D02*
Y1628251D01*
X2006701Y1627761D02*
Y1628251D01*
X2006706Y1627766D02*
Y1628251D01*
X2006711Y1627771D02*
Y1628251D01*
X2006716Y1627776D02*
Y1628251D01*
X2006721Y1627781D02*
Y1628251D01*
X2006726Y1627786D02*
Y1628251D01*
X2006731Y1627791D02*
Y1628251D01*
X2006736Y1627796D02*
Y1628251D01*
X2006741Y1627801D02*
Y1628251D01*
X2006746Y1627806D02*
Y1628251D01*
X2006751Y1627811D02*
Y1628251D01*
X2006756Y1627816D02*
Y1628251D01*
X2006761Y1627821D02*
Y1628251D01*
X2006766Y1627826D02*
Y1628251D01*
X2006771Y1627831D02*
Y1628251D01*
X2006776Y1627836D02*
Y1628251D01*
X2006781Y1627841D02*
Y1628251D01*
X2006786Y1627846D02*
Y1628251D01*
X2006791Y1627851D02*
Y1628251D01*
X2006796Y1627856D02*
Y1628251D01*
X2006801Y1627861D02*
Y1628251D01*
X2006806Y1627866D02*
Y1628251D01*
X2006811Y1627871D02*
Y1628251D01*
X2006816Y1627876D02*
Y1628251D01*
X2006821Y1627881D02*
Y1628251D01*
X2006826Y1627886D02*
Y1628251D01*
X2006831Y1627891D02*
Y1628251D01*
X2006836Y1627896D02*
Y1628251D01*
X2006841Y1627901D02*
Y1628251D01*
X2006846Y1627906D02*
Y1628251D01*
X2006851Y1627911D02*
Y1628251D01*
X2006856Y1627916D02*
Y1628251D01*
X2006861Y1627921D02*
Y1628251D01*
X2006866Y1627926D02*
Y1628251D01*
X2006871Y1627931D02*
Y1628251D01*
X2006876Y1627936D02*
Y1628251D01*
X2006881Y1627941D02*
Y1628251D01*
X2006886Y1627946D02*
Y1628251D01*
X2006891Y1627951D02*
Y1628251D01*
X2006896Y1627956D02*
Y1628251D01*
X2006901Y1627961D02*
Y1628251D01*
X2006906Y1627966D02*
Y1628251D01*
X2006911Y1627971D02*
Y1628251D01*
X2006916Y1627976D02*
Y1628251D01*
X2006921Y1627981D02*
Y1628251D01*
X2006926Y1627986D02*
Y1628251D01*
X2006931Y1627991D02*
Y1628251D01*
X2006936Y1627996D02*
Y1628251D01*
X2006941Y1628001D02*
Y1628251D01*
X2005377Y1624718D02*
X2006942D01*
Y1624966*
X2006216Y1625692*
X2005377*
Y1624718*
X2005381D02*
Y1625692D01*
X2005386Y1624718D02*
Y1625692D01*
X2005391Y1624718D02*
Y1625692D01*
X2005396Y1624718D02*
Y1625692D01*
X2005401Y1624718D02*
Y1625692D01*
X2005406Y1624718D02*
Y1625692D01*
X2005411Y1624718D02*
Y1625692D01*
X2005416Y1624718D02*
Y1625692D01*
X2005421Y1624718D02*
Y1625692D01*
X2005426Y1624718D02*
Y1625692D01*
X2005431Y1624718D02*
Y1625692D01*
X2005436Y1624718D02*
Y1625692D01*
X2005441Y1624718D02*
Y1625692D01*
X2005446Y1624718D02*
Y1625692D01*
X2005451Y1624718D02*
Y1625692D01*
X2005456Y1624718D02*
Y1625692D01*
X2005461Y1624718D02*
Y1625692D01*
X2005466Y1624718D02*
Y1625692D01*
X2005471Y1624718D02*
Y1625692D01*
X2005476Y1624718D02*
Y1625692D01*
X2005481Y1624718D02*
Y1625692D01*
X2005486Y1624718D02*
Y1625692D01*
X2005491Y1624718D02*
Y1625692D01*
X2005496Y1624718D02*
Y1625692D01*
X2005501Y1624718D02*
Y1625692D01*
X2005506Y1624718D02*
Y1625692D01*
X2005511Y1624718D02*
Y1625692D01*
X2005516Y1624718D02*
Y1625692D01*
X2005521Y1624718D02*
Y1625692D01*
X2005526Y1624718D02*
Y1625692D01*
X2005531Y1624718D02*
Y1625692D01*
X2005536Y1624718D02*
Y1625692D01*
X2005541Y1624718D02*
Y1625692D01*
X2005546Y1624718D02*
Y1625692D01*
X2005551Y1624718D02*
Y1625692D01*
X2005556Y1624718D02*
Y1625692D01*
X2005561Y1624718D02*
Y1625692D01*
X2005566Y1624718D02*
Y1625692D01*
X2005571Y1624718D02*
Y1625692D01*
X2005576Y1624718D02*
Y1625692D01*
X2005581Y1624718D02*
Y1625692D01*
X2005586Y1624718D02*
Y1625692D01*
X2005591Y1624718D02*
Y1625692D01*
X2005596Y1624718D02*
Y1625692D01*
X2005601Y1624718D02*
Y1625692D01*
X2005606Y1624718D02*
Y1625692D01*
X2005611Y1624718D02*
Y1625692D01*
X2005616Y1624718D02*
Y1625692D01*
X2005621Y1624718D02*
Y1625692D01*
X2005626Y1624718D02*
Y1625692D01*
X2005631Y1624718D02*
Y1625692D01*
X2005636Y1624718D02*
Y1625692D01*
X2005641Y1624718D02*
Y1625692D01*
X2005646Y1624718D02*
Y1625692D01*
X2005651Y1624718D02*
Y1625692D01*
X2005656Y1624718D02*
Y1625692D01*
X2005661Y1624718D02*
Y1625692D01*
X2005666Y1624718D02*
Y1625692D01*
X2005671Y1624718D02*
Y1625692D01*
X2005676Y1624718D02*
Y1625692D01*
X2005681Y1624718D02*
Y1625692D01*
X2005686Y1624718D02*
Y1625692D01*
X2005691Y1624718D02*
Y1625692D01*
X2005696Y1624718D02*
Y1625692D01*
X2005701Y1624718D02*
Y1625692D01*
X2005706Y1624718D02*
Y1625692D01*
X2005711Y1624718D02*
Y1625692D01*
X2005716Y1624718D02*
Y1625692D01*
X2005721Y1624718D02*
Y1625692D01*
X2005726Y1624718D02*
Y1625692D01*
X2005731Y1624718D02*
Y1625692D01*
X2005736Y1624718D02*
Y1625692D01*
X2005741Y1624718D02*
Y1625692D01*
X2005746Y1624718D02*
Y1625692D01*
X2005751Y1624718D02*
Y1625692D01*
X2005756Y1624718D02*
Y1625692D01*
X2005761Y1624718D02*
Y1625692D01*
X2005766Y1624718D02*
Y1625692D01*
X2005771Y1624718D02*
Y1625692D01*
X2005776Y1624718D02*
Y1625692D01*
X2005781Y1624718D02*
Y1625692D01*
X2005786Y1624718D02*
Y1625692D01*
X2005791Y1624718D02*
Y1625692D01*
X2005796Y1624718D02*
Y1625692D01*
X2005801Y1624718D02*
Y1625692D01*
X2005806Y1624718D02*
Y1625692D01*
X2005811Y1624718D02*
Y1625692D01*
X2005816Y1624718D02*
Y1625692D01*
X2005821Y1624718D02*
Y1625692D01*
X2005826Y1624718D02*
Y1625692D01*
X2005831Y1624718D02*
Y1625692D01*
X2005836Y1624718D02*
Y1625692D01*
X2005841Y1624718D02*
Y1625692D01*
X2005846Y1624718D02*
Y1625692D01*
X2005851Y1624718D02*
Y1625692D01*
X2005856Y1624718D02*
Y1625692D01*
X2005861Y1624718D02*
Y1625692D01*
X2005866Y1624718D02*
Y1625692D01*
X2005871Y1624718D02*
Y1625692D01*
X2005876Y1624718D02*
Y1625692D01*
X2005881Y1624718D02*
Y1625692D01*
X2005886Y1624718D02*
Y1625692D01*
X2005891Y1624718D02*
Y1625692D01*
X2005896Y1624718D02*
Y1625692D01*
X2005901Y1624718D02*
Y1625692D01*
X2005906Y1624718D02*
Y1625692D01*
X2005911Y1624718D02*
Y1625692D01*
X2005916Y1624718D02*
Y1625692D01*
X2005921Y1624718D02*
Y1625692D01*
X2005926Y1624718D02*
Y1625692D01*
X2005931Y1624718D02*
Y1625692D01*
X2005936Y1624718D02*
Y1625692D01*
X2005941Y1624718D02*
Y1625692D01*
X2005946Y1624718D02*
Y1625692D01*
X2005951Y1624718D02*
Y1625692D01*
X2005956Y1624718D02*
Y1625692D01*
X2005961Y1624718D02*
Y1625692D01*
X2005966Y1624718D02*
Y1625692D01*
X2005971Y1624718D02*
Y1625692D01*
X2005976Y1624718D02*
Y1625692D01*
X2005981Y1624718D02*
Y1625692D01*
X2005986Y1624718D02*
Y1625692D01*
X2005991Y1624718D02*
Y1625692D01*
X2005996Y1624718D02*
Y1625692D01*
X2006001Y1624718D02*
Y1625692D01*
X2006006Y1624718D02*
Y1625692D01*
X2006011Y1624718D02*
Y1625692D01*
X2006016Y1624718D02*
Y1625692D01*
X2006021Y1624718D02*
Y1625692D01*
X2006026Y1624718D02*
Y1625692D01*
X2006031Y1624718D02*
Y1625692D01*
X2006036Y1624718D02*
Y1625692D01*
X2006041Y1624718D02*
Y1625692D01*
X2006046Y1624718D02*
Y1625692D01*
X2006051Y1624718D02*
Y1625692D01*
X2006056Y1624718D02*
Y1625692D01*
X2006061Y1624718D02*
Y1625692D01*
X2006066Y1624718D02*
Y1625692D01*
X2006071Y1624718D02*
Y1625692D01*
X2006076Y1624718D02*
Y1625692D01*
X2006081Y1624718D02*
Y1625692D01*
X2006086Y1624718D02*
Y1625692D01*
X2006091Y1624718D02*
Y1625692D01*
X2006096Y1624718D02*
Y1625692D01*
X2006101Y1624718D02*
Y1625692D01*
X2006106Y1624718D02*
Y1625692D01*
X2006111Y1624718D02*
Y1625692D01*
X2006116Y1624718D02*
Y1625692D01*
X2006121Y1624718D02*
Y1625692D01*
X2006126Y1624718D02*
Y1625692D01*
X2006131Y1624718D02*
Y1625692D01*
X2006136Y1624718D02*
Y1625692D01*
X2006141Y1624718D02*
Y1625692D01*
X2006146Y1624718D02*
Y1625692D01*
X2006151Y1624718D02*
Y1625692D01*
X2006156Y1624718D02*
Y1625692D01*
X2006161Y1624718D02*
Y1625692D01*
X2006166Y1624718D02*
Y1625692D01*
X2006171Y1624718D02*
Y1625692D01*
X2006176Y1624718D02*
Y1625692D01*
X2006181Y1624718D02*
Y1625692D01*
X2006186Y1624718D02*
Y1625692D01*
X2006191Y1624718D02*
Y1625692D01*
X2006196Y1624718D02*
Y1625692D01*
X2006201Y1624718D02*
Y1625692D01*
X2006206Y1624718D02*
Y1625692D01*
X2006211Y1624718D02*
Y1625692D01*
X2006216Y1624718D02*
Y1625692D01*
X2006221Y1624718D02*
Y1625687D01*
X2006226Y1624718D02*
Y1625682D01*
X2006231Y1624718D02*
Y1625677D01*
X2006236Y1624718D02*
Y1625672D01*
X2006241Y1624718D02*
Y1625667D01*
X2006246Y1624718D02*
Y1625662D01*
X2006251Y1624718D02*
Y1625657D01*
X2006256Y1624718D02*
Y1625652D01*
X2006261Y1624718D02*
Y1625647D01*
X2006266Y1624718D02*
Y1625642D01*
X2006271Y1624718D02*
Y1625637D01*
X2006276Y1624718D02*
Y1625632D01*
X2006281Y1624718D02*
Y1625627D01*
X2006286Y1624718D02*
Y1625622D01*
X2006291Y1624718D02*
Y1625617D01*
X2006296Y1624718D02*
Y1625612D01*
X2006301Y1624718D02*
Y1625607D01*
X2006306Y1624718D02*
Y1625602D01*
X2006311Y1624718D02*
Y1625597D01*
X2006316Y1624718D02*
Y1625592D01*
X2006321Y1624718D02*
Y1625587D01*
X2006326Y1624718D02*
Y1625582D01*
X2006331Y1624718D02*
Y1625577D01*
X2006336Y1624718D02*
Y1625572D01*
X2006341Y1624718D02*
Y1625567D01*
X2006346Y1624718D02*
Y1625562D01*
X2006351Y1624718D02*
Y1625557D01*
X2006356Y1624718D02*
Y1625552D01*
X2006361Y1624718D02*
Y1625547D01*
X2006366Y1624718D02*
Y1625542D01*
X2006371Y1624718D02*
Y1625537D01*
X2006376Y1624718D02*
Y1625532D01*
X2006381Y1624718D02*
Y1625527D01*
X2006386Y1624718D02*
Y1625522D01*
X2006391Y1624718D02*
Y1625517D01*
X2006396Y1624718D02*
Y1625512D01*
X2006401Y1624718D02*
Y1625507D01*
X2006406Y1624718D02*
Y1625502D01*
X2006411Y1624718D02*
Y1625497D01*
X2006416Y1624718D02*
Y1625492D01*
X2006421Y1624718D02*
Y1625487D01*
X2006426Y1624718D02*
Y1625482D01*
X2006431Y1624718D02*
Y1625477D01*
X2006436Y1624718D02*
Y1625472D01*
X2006441Y1624718D02*
Y1625467D01*
X2006446Y1624718D02*
Y1625462D01*
X2006451Y1624718D02*
Y1625457D01*
X2006456Y1624718D02*
Y1625452D01*
X2006461Y1624718D02*
Y1625447D01*
X2006466Y1624718D02*
Y1625442D01*
X2006471Y1624718D02*
Y1625437D01*
X2006476Y1624718D02*
Y1625432D01*
X2006481Y1624718D02*
Y1625427D01*
X2006486Y1624718D02*
Y1625422D01*
X2006491Y1624718D02*
Y1625417D01*
X2006496Y1624718D02*
Y1625412D01*
X2006501Y1624718D02*
Y1625407D01*
X2006506Y1624718D02*
Y1625402D01*
X2006511Y1624718D02*
Y1625397D01*
X2006516Y1624718D02*
Y1625392D01*
X2006521Y1624718D02*
Y1625387D01*
X2006526Y1624718D02*
Y1625382D01*
X2006531Y1624718D02*
Y1625377D01*
X2006536Y1624718D02*
Y1625372D01*
X2006541Y1624718D02*
Y1625367D01*
X2006546Y1624718D02*
Y1625362D01*
X2006551Y1624718D02*
Y1625357D01*
X2006556Y1624718D02*
Y1625352D01*
X2006561Y1624718D02*
Y1625347D01*
X2006566Y1624718D02*
Y1625342D01*
X2006571Y1624718D02*
Y1625337D01*
X2006576Y1624718D02*
Y1625332D01*
X2006581Y1624718D02*
Y1625327D01*
X2006586Y1624718D02*
Y1625322D01*
X2006591Y1624718D02*
Y1625317D01*
X2006596Y1624718D02*
Y1625312D01*
X2006601Y1624718D02*
Y1625307D01*
X2006606Y1624718D02*
Y1625302D01*
X2006611Y1624718D02*
Y1625297D01*
X2006616Y1624718D02*
Y1625292D01*
X2006621Y1624718D02*
Y1625287D01*
X2006626Y1624718D02*
Y1625282D01*
X2006631Y1624718D02*
Y1625277D01*
X2006636Y1624718D02*
Y1625272D01*
X2006641Y1624718D02*
Y1625267D01*
X2006646Y1624718D02*
Y1625262D01*
X2006651Y1624718D02*
Y1625257D01*
X2006656Y1624718D02*
Y1625252D01*
X2006661Y1624718D02*
Y1625247D01*
X2006666Y1624718D02*
Y1625242D01*
X2006671Y1624718D02*
Y1625237D01*
X2006676Y1624718D02*
Y1625232D01*
X2006681Y1624718D02*
Y1625227D01*
X2006686Y1624718D02*
Y1625222D01*
X2006691Y1624718D02*
Y1625217D01*
X2006696Y1624718D02*
Y1625212D01*
X2006701Y1624718D02*
Y1625207D01*
X2006706Y1624718D02*
Y1625202D01*
X2006711Y1624718D02*
Y1625197D01*
X2006716Y1624718D02*
Y1625192D01*
X2006721Y1624718D02*
Y1625187D01*
X2006726Y1624718D02*
Y1625182D01*
X2006731Y1624718D02*
Y1625177D01*
X2006736Y1624718D02*
Y1625172D01*
X2006741Y1624718D02*
Y1625167D01*
X2006746Y1624718D02*
Y1625162D01*
X2006751Y1624718D02*
Y1625157D01*
X2006756Y1624718D02*
Y1625152D01*
X2006761Y1624718D02*
Y1625147D01*
X2006766Y1624718D02*
Y1625142D01*
X2006771Y1624718D02*
Y1625137D01*
X2006776Y1624718D02*
Y1625132D01*
X2006781Y1624718D02*
Y1625127D01*
X2006786Y1624718D02*
Y1625122D01*
X2006791Y1624718D02*
Y1625117D01*
X2006796Y1624718D02*
Y1625112D01*
X2006801Y1624718D02*
Y1625107D01*
X2006806Y1624718D02*
Y1625102D01*
X2006811Y1624718D02*
Y1625097D01*
X2006816Y1624718D02*
Y1625092D01*
X2006821Y1624718D02*
Y1625087D01*
X2006826Y1624718D02*
Y1625082D01*
X2006831Y1624718D02*
Y1625077D01*
X2006836Y1624718D02*
Y1625072D01*
X2006841Y1624718D02*
Y1625067D01*
X2006846Y1624718D02*
Y1625062D01*
X2006851Y1624718D02*
Y1625057D01*
X2006856Y1624718D02*
Y1625052D01*
X2006861Y1624718D02*
Y1625047D01*
X2006866Y1624718D02*
Y1625042D01*
X2006871Y1624718D02*
Y1625037D01*
X2006876Y1624718D02*
Y1625032D01*
X2006881Y1624718D02*
Y1625027D01*
X2006886Y1624718D02*
Y1625022D01*
X2006891Y1624718D02*
Y1625017D01*
X2006896Y1624718D02*
Y1625012D01*
X2006901Y1624718D02*
Y1625007D01*
X2006906Y1624718D02*
Y1625002D01*
X2006911Y1624718D02*
Y1624997D01*
X2006916Y1624718D02*
Y1624992D01*
X2006921Y1624718D02*
Y1624987D01*
X2006926Y1624718D02*
Y1624982D01*
X2006931Y1624718D02*
Y1624977D01*
X2006936Y1624718D02*
Y1624972D01*
X2006941Y1624718D02*
Y1624967D01*
G54D95*
X1977057Y1571457D03*
X1980207D03*
X1982766D03*
X1984735D03*
X1986703D03*
X1988671D03*
X1990640D03*
X1992608D03*
X1994577D03*
X1996546D03*
X1999105D03*
X2002254D03*
X0Y0D02*
M02*
