*
*
G04 PADS VX.2.2 Build Number: 7607494 generated Gerber (RS-274-X) file*
G04 PC Version=2.1*
*
%IN "ZHOU0905nn_pads.pcb"*%
*
%MOIN*%
*
%FSLAX35Y35*%
*
*
*
*
G04 PC Standard Apertures*
*
*
G04 Thermal Relief Aperture macro.*
%AMTER*
1,1,$1,0,0*
1,0,$1-$2,0,0*
21,0,$3,$4,0,0,45*
21,0,$3,$4,0,0,135*
%
*
*
G04 Annular Aperture macro.*
%AMANN*
1,1,$1,0,0*
1,0,$2,0,0*
%
*
*
G04 Odd Aperture macro.*
%AMODD*
1,1,$1,0,0*
1,0,$1-0.005,0,0*
%
*
*
G04 PC Custom Aperture Macros*
*
*
*
*
*
*
G04 PC Aperture Table*
*
%ADD010C,0.00394*%
%ADD025C,0.00315*%
%ADD032C,0.00787*%
%ADD054C,0.01*%
%ADD055C,0.00598*%
%ADD057C,0.005*%
%ADD058C,0.002*%
%ADD059C,0.008*%
%ADD063C,0.00394*%
*
*
*
*
G04 PC Circuitry*
G04 Layer Name ZHOU0905nn_pads.pcb - circuitry*
%LPD*%
*
*
G04 PC Custom Flashes*
G04 Layer Name ZHOU0905nn_pads.pcb - flashes*
%LPD*%
*
*
G04 PC Circuitry*
G04 Layer Name ZHOU0905nn_pads.pcb - circuitry*
%LPD*%
*
G54D10*
G01X1982523Y1554859D02*
Y1550814D01*
X1987690*
Y1554859*
X1982523*
X2005996Y1650478D02*
X2006217Y1650389D01*
X2006439Y1650210*
X2006549Y1650031*
Y1649673*
X2006439Y1649494*
X2006217Y1649315*
X2005996Y1649225*
X2005664Y1649136*
X2005110*
X2004778Y1649225*
X2004556Y1649315*
X2004335Y1649494*
X2004224Y1649673*
Y1650031*
X2004335Y1650210*
X2004556Y1650389*
X2004778Y1650478*
X2006107Y1651283D02*
X2006217Y1651462D01*
X2006549Y1651731*
X2004224*
X1986583Y1570143D02*
X1988428D01*
X1988798Y1570054*
X1989044Y1569875*
X1989167Y1569606*
Y1569428*
X1989044Y1569159*
X1988798Y1568980*
X1988428Y1568891*
X1986583*
X1987198Y1567996D02*
X1987075D01*
X1986829Y1567906*
X1986706Y1567817*
X1986583Y1567638*
Y1567280*
X1986706Y1567101*
X1986829Y1567012*
X1987075Y1566922*
X1987321*
X1987567Y1567012*
X1987936Y1567191*
X1989167Y1568085*
Y1566833*
X1991508Y1647018D02*
X1989663D01*
X1989294Y1647108*
X1989048Y1647287*
X1988924Y1647555*
Y1647734*
X1989048Y1648002*
X1989294Y1648181*
X1989663Y1648271*
X1991508*
Y1650329D02*
X1988924Y1649434D01*
X1991508Y1649076D02*
Y1650329D01*
X1980701Y1650793D02*
Y1648948D01*
X1980611Y1648579*
X1980432Y1648333*
X1980164Y1648210*
X1979985*
X1979716Y1648333*
X1979537Y1648579*
X1979448Y1648948*
Y1650793*
X1978195D02*
X1978464Y1650670D01*
X1978553Y1650424*
Y1650178*
X1978464Y1649932*
X1978285Y1649809*
X1977927Y1649686*
X1977658Y1649563*
X1977480Y1649317*
X1977390Y1649071*
Y1648702*
X1977480Y1648456*
X1977569Y1648333*
X1977837Y1648210*
X1978195*
X1978464Y1648333*
X1978553Y1648456*
X1978643Y1648702*
Y1649071*
X1978553Y1649317*
X1978374Y1649563*
X1978106Y1649686*
X1977748Y1649809*
X1977569Y1649932*
X1977480Y1650178*
Y1650424*
X1977569Y1650670*
X1977837Y1650793*
X1978195*
X1999980Y1651428D02*
X2000202Y1651339D01*
X2000423Y1651160*
X2000534Y1650981*
Y1650623*
X2000423Y1650444*
X2000202Y1650265*
X1999980Y1650176*
X1999648Y1650086*
X1999094*
X1998762Y1650176*
X1998541Y1650265*
X1998319Y1650444*
X1998208Y1650623*
Y1650981*
X1998319Y1651160*
X1998541Y1651339*
X1998762Y1651428*
X2000534Y1653397D02*
Y1652502D01*
X1999537Y1652412*
X1999648Y1652502*
X1999759Y1652770*
Y1653039*
X1999648Y1653307*
X1999426Y1653486*
X1999094Y1653576*
X1998873Y1653486*
X1998541Y1653397*
X1998319Y1653218*
X1998208Y1652949*
Y1652681*
X1998319Y1652412*
X1998430Y1652323*
X1998651Y1652234*
X2009086Y1650356D02*
X2009308Y1650267D01*
X2009529Y1650088*
X2009640Y1649909*
Y1649551*
X2009529Y1649372*
X2009308Y1649193*
X2009086Y1649104*
X2008754Y1649014*
X2008201*
X2007868Y1649104*
X2007647Y1649193*
X2007425Y1649372*
X2007315Y1649551*
Y1649909*
X2007425Y1650088*
X2007647Y1650267*
X2007868Y1650356*
X2009308Y1652235D02*
X2009529Y1652146D01*
X2009640Y1651877*
Y1651698*
X2009529Y1651430*
X2009197Y1651251*
X2008643Y1651162*
X2008090*
X2007647Y1651251*
X2007425Y1651430*
X2007315Y1651698*
Y1651788*
X2007425Y1652056*
X2007647Y1652235*
X2007979Y1652325*
X2008090*
X2008422Y1652235*
X2008643Y1652056*
X2008754Y1651788*
Y1651698*
X2008643Y1651430*
X2008422Y1651251*
X2008090Y1651162*
X1979606Y1644732D02*
X1979828Y1644643D01*
X1980049Y1644464*
X1980160Y1644285*
Y1643927*
X1980049Y1643748*
X1979828Y1643569*
X1979606Y1643480*
X1979274Y1643390*
X1978720*
X1978388Y1643480*
X1978167Y1643569*
X1977945Y1643748*
X1977834Y1643927*
Y1644285*
X1977945Y1644464*
X1978167Y1644643*
X1978388Y1644732*
X1979606Y1645627D02*
X1979717D01*
X1979938Y1645717*
X1980049Y1645806*
X1980160Y1645985*
Y1646343*
X1980049Y1646522*
X1979938Y1646611*
X1979717Y1646701*
X1979495*
X1979274Y1646611*
X1978942Y1646433*
X1977834Y1645538*
Y1646790*
X1979717Y1647596D02*
X1979828Y1647775D01*
X1980160Y1648043*
X1977834*
X1994122Y1574037D02*
Y1571454D01*
Y1574037D02*
X1993317D01*
X1993048Y1573914*
X1992959Y1573791*
X1992869Y1573545*
Y1573299*
X1992959Y1573053*
X1993048Y1572930*
X1993317Y1572807*
X1994122*
X1993496D02*
X1992869Y1571454D01*
X1991885Y1574037D02*
X1990901D01*
X1991438Y1573053*
X1991169*
X1990990Y1572930*
X1990901Y1572807*
X1990811Y1572438*
Y1572192*
X1990901Y1571823*
X1991080Y1571577*
X1991348Y1571454*
X1991617*
X1991885Y1571577*
X1991974Y1571700*
X1991974D02*
X1992064Y1571946D01*
X1978785Y1573907D02*
Y1571324D01*
Y1573907D02*
X1977980D01*
X1977711Y1573784*
X1977622Y1573661*
X1977532Y1573415*
Y1573169*
X1977622Y1572923*
X1977711Y1572800*
X1977980Y1572677*
X1978785*
X1978158D02*
X1977532Y1571324D01*
X1975832Y1573907D02*
X1976727Y1572185D01*
X1975385*
X1975832Y1573907D02*
Y1571324D01*
X1974177Y1560100D02*
X1974267Y1560321D01*
X1974446Y1560543*
X1974625Y1560654*
X1974983*
X1975162Y1560543*
X1975341Y1560321*
X1975430Y1560100*
X1975520Y1559768*
Y1559214*
X1975430Y1558882*
X1975341Y1558660*
X1975162Y1558439*
X1974983Y1558328*
X1974625*
X1974446Y1558439*
X1974267Y1558660*
X1974177Y1558882*
X1972209Y1559878D02*
X1972298Y1559546D01*
X1972477Y1559325*
X1972746Y1559214*
X1972835*
X1973104Y1559325*
X1973283Y1559546*
X1973372Y1559878*
Y1559989*
X1973283Y1560321*
X1973104Y1560543*
X1972835Y1560654*
X1972746*
X1972477Y1560543*
X1972298Y1560321*
X1972209Y1559878*
Y1559325*
X1972298Y1558771*
X1972477Y1558439*
X1972746Y1558328*
X1972925*
X1973193Y1558439*
X1973283Y1558660*
X1969316Y1560886D02*
X1969094Y1560975D01*
X1968873Y1561154*
X1968762Y1561333*
Y1561691*
X1968873Y1561870*
X1969094Y1562049*
X1969316Y1562138*
X1969648Y1562228*
X1970202*
X1970534Y1562138*
X1970755Y1562049*
X1970977Y1561870*
X1971087Y1561691*
Y1561333*
X1970977Y1561154*
X1970755Y1560975*
X1970534Y1560886*
X1969205Y1560080D02*
X1969094Y1559901D01*
X1968762Y1559633*
X1971087*
X1968762Y1558291D02*
X1968873Y1558559D01*
X1969205Y1558738*
X1969759Y1558828*
X1970091*
X1970644Y1558738*
X1970977Y1558559*
X1971087Y1558291*
Y1558112*
X1970977Y1557843*
X1970644Y1557664*
X1970091Y1557575*
X1969759*
X1969205Y1557664*
X1968873Y1557843*
X1968762Y1558112*
Y1558291*
X2005117Y1558675D02*
X2004938Y1558798D01*
X2004759Y1559044*
X2004670Y1559290*
X2004580Y1559659*
Y1560274*
X2004670Y1560643*
X2004759Y1560890*
X2004938Y1561136*
X2005117Y1561259*
X2005475*
X2005654Y1561136*
X2005833Y1560890*
X2005922Y1560643*
X2006012Y1560274*
Y1559659*
X2005922Y1559290*
X2005833Y1559044*
X2005654Y1558798*
X2005475Y1558675*
X2005117*
X2005386Y1560766D02*
X2005922Y1561505D01*
X2006817Y1559167D02*
X2006996Y1559044D01*
X2007265Y1558675*
Y1561259*
X2003208Y1567146D02*
X2003430Y1567056D01*
X2003651Y1566877*
X2003762Y1566698*
Y1566341*
X2003651Y1566162*
X2003430Y1565983*
X2003208Y1565893*
X2002876Y1565804*
X2002323*
X2001990Y1565893*
X2001769Y1565983*
X2001548Y1566162*
X2001437Y1566341*
Y1566698*
X2001548Y1566877*
X2001769Y1567056*
X2001990Y1567146*
X2003319Y1567951D02*
X2003430Y1568130D01*
X2003762Y1568399*
X2001437*
X2003762Y1569383D02*
Y1570367D01*
X2002876Y1569830*
Y1570099*
X2002766Y1570278*
X2002655Y1570367*
X2002323Y1570457*
X2002101*
X2001769Y1570367*
X2001548Y1570188*
X2001437Y1569920*
Y1569651*
X2001548Y1569383*
X2001658Y1569293*
X2001880Y1569204*
X1978435Y1651967D02*
X1978346Y1651746D01*
X1978167Y1651524*
X1977988Y1651413*
X1977630*
X1977451Y1651524*
X1977272Y1651746*
X1977183Y1651967*
X1977093Y1652299*
Y1652853*
X1977183Y1653185*
X1977272Y1653406*
X1977451Y1653628*
X1977630Y1653739*
X1977988*
X1978167Y1653628*
X1978346Y1653406*
X1978435Y1653185*
X1979241Y1651856D02*
X1979420Y1651746D01*
X1979688Y1651413*
Y1653739*
X1981746Y1651413D02*
X1980851Y1653739D01*
X1980493Y1651413D02*
X1981746D01*
X1989976Y1651400D02*
X1989887Y1651179D01*
X1989708Y1650957*
X1989529Y1650846*
X1989171*
X1988992Y1650957*
X1988813Y1651179*
X1988724Y1651400*
X1988634Y1651732*
Y1652286*
X1988724Y1652618*
X1988813Y1652840*
X1988992Y1653061*
X1989171Y1653172*
X1989529*
X1989708Y1653061*
X1989887Y1652840*
X1989976Y1652618*
X1990782Y1651289D02*
X1990961Y1651179D01*
X1991229Y1650846*
Y1653172*
X1993197Y1651622D02*
X1993108Y1651954D01*
X1992929Y1652175*
X1992661Y1652286*
X1992571*
X1992303Y1652175*
X1992124Y1651954*
X1992034Y1651622*
Y1651511*
X1992124Y1651179*
X1992303Y1650957*
X1992571Y1650846*
X1992661*
X1992929Y1650957*
X1993108Y1651179*
X1993197Y1651622*
Y1652175*
X1993108Y1652729*
X1992929Y1653061*
X1992661Y1653172*
X1992482*
X1992213Y1653061*
X1992124Y1652840*
X2003575Y1648884D02*
X2000991D01*
X2003575D02*
Y1649689D01*
X2003452Y1649958*
X2003329Y1650047*
X2003083Y1650137*
X2002837*
X2002591Y1650047*
X2002468Y1649958*
X2002345Y1649689*
Y1648884*
Y1649510D02*
X2000991Y1650137D01*
X2003083Y1650942D02*
X2003206Y1651121D01*
X2003575Y1651389*
X2000991*
X2002960Y1652284D02*
X2003083D01*
X2003329Y1652373*
X2003452Y1652463*
X2003575Y1652642*
Y1653000*
X2003452Y1653179*
X2003329Y1653268*
X2003083Y1653358*
X2002837*
X2002591Y1653268*
X2002222Y1653089*
X2000991Y1652195*
Y1653447*
X1980114Y1566397D02*
X1977531D01*
X1980114D02*
Y1567023D01*
X1979991Y1567292*
X1979745Y1567471*
X1979499Y1567560*
X1979130Y1567650*
X1978515*
X1978146Y1567560*
X1977900Y1567471*
X1977654Y1567292*
X1977531Y1567023*
Y1566397*
X1979622Y1568455D02*
X1979745Y1568634D01*
X1980114Y1568902*
X1977531*
G54D25*
X2012716Y1653089D02*
Y1651612D01*
X2012645Y1651317*
X2012501Y1651120*
X2012287Y1651022*
X2012143*
X2011929Y1651120*
X2011786Y1651317*
X2011714Y1651612*
Y1653089*
X2010139D02*
X2010855D01*
X2010927Y1652203*
X2010855Y1652301*
X2010640Y1652400*
X2010425*
X2010211Y1652301*
X2010068Y1652104*
X2009996Y1651809*
X2010068Y1651612*
X2010139Y1651317*
X2010282Y1651120*
X2010497Y1651022*
X2010712*
X2010927Y1651120*
X2010998Y1651219*
X2011070Y1651415*
X2023225Y1653053D02*
X2023297Y1653250D01*
X2023440Y1653447*
X2023583Y1653545*
X2023869*
X2024012Y1653447*
X2024156Y1653250*
X2024227Y1653053*
X2024299Y1652758*
Y1652266*
X2024227Y1651970*
X2024156Y1651774*
X2024012Y1651577*
X2023869Y1651478*
X2023583*
X2023440Y1651577*
X2023297Y1651774*
X2023225Y1651970*
X2022509Y1653053D02*
Y1653152D01*
X2022438Y1653348*
X2022366Y1653447*
X2022223Y1653545*
X2021937*
X2021793Y1653447*
X2021722Y1653348*
X2021650Y1653152*
Y1652955*
X2021722Y1652758*
X2021865Y1652463*
X2022581Y1651478*
X2021579*
X1978279Y1639626D02*
X1978207Y1639449D01*
X1978207D02*
X1978064Y1639272D01*
X1977921Y1639183*
X1977635*
X1977492Y1639272*
X1977349Y1639449*
X1977277Y1639626*
X1977205Y1639892*
Y1640335*
X1977277Y1640600*
X1977349Y1640778*
X1977492Y1640955*
X1977635Y1641043*
X1977921*
X1978064Y1640955*
X1978207Y1640778*
X1978207D02*
X1978279Y1640600D01*
X1978995Y1639626D02*
Y1639537D01*
X1979066Y1639360*
X1979138Y1639272*
X1979281Y1639183*
X1979568*
X1979711Y1639272*
X1979782Y1639360*
X1979854Y1639537*
Y1639715*
X1979782Y1639892*
X1979639Y1640157*
X1978923Y1641043*
X1979925*
X1980641Y1639626D02*
Y1639537D01*
X1980713Y1639360*
X1980784Y1639272*
X1980928Y1639183*
X1981214*
X1981357Y1639272*
X1981429Y1639360*
X1981500Y1639537*
Y1639715*
X1981429Y1639892*
X1981286Y1640157*
X1980570Y1641043*
X1981572*
G54D32*
X2010481Y1561746D02*
X2028197D01*
X2010429Y1576549D02*
X2019288D01*
X2028146*
X2004086Y1550376D02*
X2003907Y1550868D01*
X2003549Y1551360*
X2003191Y1551606*
X2002476*
X2002118Y1551360*
X2001760Y1550868*
X2001581Y1550376*
X2001402Y1549638*
Y1548407*
X2001581Y1547669*
X2001760Y1547177*
X2002118Y1546685*
X2002476Y1546439*
X2003191*
X2003549Y1546685*
X2003907Y1547177*
X2004086Y1547669*
Y1548407*
X2003191D02*
X2004086D01*
X2028559Y1552122D02*
X2029991Y1546955D01*
X2031423Y1552122D02*
X2029991Y1546955D01*
X1967288Y1654278D02*
X2032370D01*
Y1545608*
X1967288*
Y1654278*
G54D54*
X2021603Y1586809D02*
Y1621849D01*
Y1622636*
X2013729*
Y1629329*
X1979083*
Y1586809*
X2021603*
X2030264Y1638384D02*
X1969634D01*
Y1577754*
X2030264*
Y1638384*
X2021209Y1629329D02*
X2016484D01*
Y1625392*
X2021209*
Y1629329*
X1993524Y1557616D02*
Y1554215D01*
X1997461*
X1999036Y1561356D02*
Y1558884D01*
X1993524Y1562624D02*
Y1566026D01*
X1997461*
G54D55*
X1983107Y1555837D02*
X1981107D01*
Y1553837*
G54D57*
X2003725Y1640797D02*
Y1646309D01*
G75*
G03X2000339I-1693J-1426D01*
G01Y1640797*
G03X2003725I1693J1426*
G01X1990347Y1640892D02*
Y1646561D01*
X1985622*
Y1640892*
X1990347*
X1986750Y1640405D02*
G03X1986750I-248J0D01*
G01X1975988Y1647817D02*
X1970319D01*
Y1643093*
X1975988*
Y1647817*
X1976724Y1643972D02*
G03X1976724I-249J0D01*
G01X1995280Y1642734D02*
Y1648246D01*
G03X1991894I-1693J-1426*
G01Y1642734*
G03X1995280I1693J1426*
G01X2007579Y1640797D02*
Y1646309D01*
G03X2004193I-1693J-1426*
G01Y1640797*
G03X2007579I1693J1426*
G01X1984819Y1640754D02*
Y1646266D01*
G03X1981433I-1693J-1426*
G01Y1640754*
G03X1984819I1693J1426*
G01X2001709Y1574344D02*
X1994622D01*
Y1570959*
X2001709*
Y1574344*
X1979252Y1570829D02*
X1986339D01*
Y1574215*
X1979252*
Y1570829*
X1986425Y1560120D02*
X1980914D01*
G03Y1556734I1425J-1693*
G01X1986425*
G03Y1560120I-1425J1693*
G01X1992362Y1546502D02*
Y1553589D01*
X1988977*
Y1546502*
X1992362*
X1981177Y1546482D02*
X1988264D01*
Y1549868*
X1981177*
Y1546482*
X1976622Y1562663D02*
Y1557152D01*
G03X1980008I1693J1425*
G01Y1562663*
G03X1976622I-1693J-1425*
G01X1996717Y1552636D02*
Y1547124D01*
G03X2000103I1693J1426*
G01Y1552636*
G03X1996717I-1693J-1426*
G01X1996189Y1546419D02*
Y1553506D01*
X1992803*
Y1546419*
X1996189*
X1970469Y1648246D02*
X1975981D01*
G03Y1651632I-1426J1693*
G01X1970469*
G03Y1648246I1425J-1693*
G01X1982481Y1647175D02*
X1987992D01*
G03Y1650561I-1425J1693*
G01X1982481*
G03Y1647175I1425J-1693*
G01X1970654Y1639313D02*
X1976166D01*
G03Y1642699I-1426J1693*
G01X1970654*
G03Y1639313I1425J-1693*
G01X1998611Y1641990D02*
Y1649077D01*
X1995225*
Y1641990*
X1998611*
X1976296Y1546407D02*
Y1549699D01*
X1980118Y1546289D02*
X1976335D01*
X1980248Y1549892D02*
Y1546289D01*
X1976296Y1551120D02*
Y1554105D01*
X1977496Y1555305*
X1979025*
X1980225Y1554105*
Y1551411*
X1971519Y1576680D02*
Y1574336D01*
X1971406Y1573868*
X1971178Y1573555*
X1970837Y1573399*
X1970610*
X1970269Y1573555*
X1970042Y1573868*
X1969928Y1574336*
Y1576680*
X1968906Y1576055D02*
X1968678Y1576211D01*
X1968337Y1576680*
Y1573399*
X1991508Y1554149D02*
X1988924D01*
X1991508D02*
Y1554954D01*
X1991385Y1555222*
X1991262Y1555312*
X1991016Y1555401*
X1990770*
X1990524Y1555312*
X1990401Y1555222*
X1990278Y1554954*
Y1554149*
Y1554775D02*
X1988924Y1555401D01*
X1991508Y1557370D02*
Y1556475D01*
X1990401Y1556385*
X1990524Y1556475*
X1990647Y1556743*
Y1557012*
X1990524Y1557280*
X1990278Y1557459*
X1989909Y1557549*
X1989663Y1557459*
X1989294Y1557370*
X1989048Y1557191*
X1988924Y1556922*
Y1556654*
X1989048Y1556385*
X1989171Y1556296*
X1989417Y1556207*
X1972528Y1546589D02*
Y1549172D01*
Y1546589D02*
X1973333D01*
X1973601Y1546712*
X1973691Y1546835*
X1973780Y1547081*
Y1547327*
X1973691Y1547573*
X1973601Y1547696*
X1973333Y1547819*
X1972528*
X1973154D02*
X1973780Y1549172D01*
X1975659Y1546958D02*
X1975570Y1546712D01*
X1975301Y1546589*
X1975122*
X1974854Y1546712*
X1974675Y1547081*
X1974586Y1547696*
Y1548311*
X1974675Y1548803*
X1974854Y1549049*
X1975122Y1549172*
X1975212*
X1975480Y1549049*
X1975659Y1548803*
X1975749Y1548434*
Y1548311*
X1975659Y1547942*
X1975480Y1547696*
X1975212Y1547573*
X1975122*
X1974854Y1547696*
X1974675Y1547942*
X1974586Y1548311*
X2020763Y1550420D02*
Y1547139D01*
Y1550420D02*
X2019967D01*
X2019627Y1550264*
X2019399Y1549952*
X2019286Y1549639*
X2019172Y1549170*
Y1548389*
X2019286Y1547920*
X2019399Y1547608*
X2019627Y1547295*
X2019967Y1547139*
X2020763*
X2018036Y1549639D02*
Y1549795D01*
X2017922Y1550108*
X2017808Y1550264*
X2017581Y1550420*
X2017127*
X2016899Y1550264*
X2016786Y1550108*
X2016672Y1549795*
Y1549483*
X2016786Y1549170*
X2017013Y1548702*
X2018149Y1547139*
X2016558*
X2000449Y1566024D02*
X1997865D01*
X2000449D02*
Y1566829D01*
X2000326Y1567098*
X2000203Y1567187*
X1999957Y1567277*
X1999711*
X1999465Y1567187*
X1999342Y1567098*
X1999219Y1566829*
Y1566024*
Y1566650D02*
X1997865Y1567277D01*
X2000449Y1568529D02*
X2000326Y1568261D01*
X2000080Y1568171*
X1999834*
X1999588Y1568261*
X1999465Y1568440*
X1999342Y1568798*
X1999219Y1569066*
X1998973Y1569245*
X1998727Y1569335*
X1998358*
X1998111Y1569245*
X1997988Y1569156*
X1997865Y1568887*
Y1568529*
X1997988Y1568261*
X1998111Y1568171*
X1998358Y1568082*
X1998727*
X1998973Y1568171*
X1999219Y1568350*
X1999342Y1568619*
X1999465Y1568977*
X1999588Y1569156*
X1999834Y1569245*
X2000080*
X2000326Y1569156*
X2000449Y1568887*
Y1568529*
X2028481Y1567824D02*
Y1571105D01*
X2029844*
X2030867Y1568449D02*
X2031094Y1568293D01*
X2031435Y1567824*
Y1571105*
G54D58*
X1987390Y1554559D02*
Y1551114D01*
X1982823*
Y1554559*
X1987390*
G54D59*
X2030346Y1643732D02*
Y1639641D01*
X2024928Y1639638D02*
G03X2030350Y1639643I2706J5624D01*
G01X2024926Y1639639D02*
X2024927Y1643732D01*
Y1646774D02*
X2024926Y1650866D01*
X2030350Y1650863D02*
G03X2024928Y1650867I-2716J-5619D01*
G01X2030346Y1650865D02*
Y1646774D01*
X2030114Y1556659D02*
Y1560596D01*
X2010954*
X2009642Y1559284*
Y1554035*
X2010954Y1552722*
X2030114*
Y1556659*
X2021378Y1559659D02*
Y1554159D01*
X2017878Y1556959*
X2021378Y1559659*
X2017878D02*
Y1554159D01*
X2016878Y1556659D02*
X2022378D01*
G54D63*
X2013512Y1640072D02*
Y1639498D01*
X2020599*
Y1640072*
X2013512Y1643812D02*
Y1643648D01*
Y1647552D02*
Y1647388D01*
Y1651128D02*
Y1651703D01*
X2020599*
Y1651128*
Y1647552D02*
Y1643648D01*
G74*
X0Y0D02*
M02*
